<?xml version="1.0" encoding="UTF-8" standalone="no"?>
<!-- Created with Inkscape (http://www.inkscape.org/) -->

<svg
   xmlns:ns0="http://www.iki.fi/pav/software/textext/"
   xmlns:dc="http://purl.org/dc/elements/1.1/"
   xmlns:cc="http://creativecommons.org/ns#"
   xmlns:rdf="http://www.w3.org/1999/02/22-rdf-syntax-ns#"
   xmlns:svg="http://www.w3.org/2000/svg"
   xmlns="http://www.w3.org/2000/svg"
   xmlns:xlink="http://www.w3.org/1999/xlink"
   xmlns:sodipodi="http://sodipodi.sourceforge.net/DTD/sodipodi-0.dtd"
   xmlns:inkscape="http://www.inkscape.org/namespaces/inkscape"
   inkscape:export-ydpi="160"
   inkscape:export-xdpi="160"
   inkscape:export-filename="/home/nykamp/djangocode/mathinsight/materials/change_variable_area_parallelogram.png"
   sodipodi:docname="change_variable_area_parallelogram.svg"
   inkscape:version="0.48.1 r9760"
   version="1.1"
   id="svg3033"
   height="1052.3622047"
   width="744.09448819">
  <sodipodi:namedview
     id="base"
     pagecolor="#ffffff"
     bordercolor="#666666"
     borderopacity="1.0"
     inkscape:pageopacity="0.0"
     inkscape:pageshadow="2"
     inkscape:zoom="1.979899"
     inkscape:cx="560.58212"
     inkscape:cy="892.65053"
     inkscape:document-units="px"
     inkscape:current-layer="layer1"
     showgrid="true"
     inkscape:window-width="1294"
     inkscape:window-height="808"
     inkscape:window-x="3"
     inkscape:window-y="23"
     inkscape:window-maximized="0"
     inkscape:snap-global="false">
    <inkscape:grid
       type="xygrid"
       id="grid3041" />
  </sodipodi:namedview>
  <defs
     id="defs3035">
    <marker
       style="overflow:visible"
       id="TriangleInM"
       refX="0.0"
       refY="0.0"
       orient="auto"
       inkscape:stockid="TriangleInM">
      <path
         transform="scale(-0.4)"
         style="fill-rule:evenodd;stroke:#000000;stroke-width:1.0pt;marker-start:none"
         d="M 5.77,0.0 L -2.88,5.0 L -2.88,-5.0 L 5.77,0.0 z "
         id="path8306" />
    </marker>
    <marker
       inkscape:stockid="TriangleOutM"
       orient="auto"
       refY="0.0"
       refX="0.0"
       id="TriangleOutM"
       style="overflow:visible">
      <path
         id="path8315"
         d="M 5.77,0.0 L -2.88,5.0 L -2.88,-5.0 L 5.77,0.0 z "
         style="fill-rule:evenodd;stroke:#000000;stroke-width:1.0pt;marker-start:none"
         transform="scale(0.4)" />
    </marker>
    <marker
       inkscape:stockid="Arrow2Mend"
       orient="auto"
       refY="0.0"
       refX="0.0"
       id="Arrow2Mend"
       style="overflow:visible;">
      <path
         id="path8196"
         style="font-size:12.0;fill-rule:evenodd;stroke-width:0.62500000;stroke-linejoin:round;"
         d="M 8.7185878,4.0337352 L -2.2072895,0.016013256 L 8.7185884,-4.0017078 C 6.9730900,-1.6296469 6.9831476,1.6157441 8.7185878,4.0337352 z "
         transform="scale(0.6) rotate(180) translate(0,0)" />
    </marker>
    <marker
       inkscape:stockid="Arrow2Send"
       orient="auto"
       refY="0.0"
       refX="0.0"
       id="Arrow2Send"
       style="overflow:visible;">
      <path
         id="path8202"
         style="font-size:12.0;fill-rule:evenodd;stroke-width:0.62500000;stroke-linejoin:round;"
         d="M 8.7185878,4.0337352 L -2.2072895,0.016013256 L 8.7185884,-4.0017078 C 6.9730900,-1.6296469 6.9831476,1.6157441 8.7185878,4.0337352 z "
         transform="scale(0.3) rotate(180) translate(-2.3,0)" />
    </marker>
    <marker
       style="overflow:visible"
       id="TriangleInMv"
       refX="0.0"
       refY="0.0"
       orient="auto"
       inkscape:stockid="TriangleInMv">
      <path
         transform="scale(-0.4)"
         style="marker-start:none;stroke:#008000;stroke-width:1.0pt;fill:#008000;fill-rule:evenodd"
         d="M 5.77,0.0 L -2.88,5.0 L -2.88,-5.0 L 5.77,0.0 z "
         id="path13502" />
    </marker>
    <marker
       inkscape:stockid="TriangleOutMz"
       orient="auto"
       refY="0.0"
       refX="0.0"
       id="TriangleOutMz"
       style="overflow:visible">
      <path
         id="path13505"
         d="M 5.77,0.0 L -2.88,5.0 L -2.88,-5.0 L 5.77,0.0 z "
         style="marker-start:none;stroke:#008000;stroke-width:1.0pt;fill:#008000;fill-rule:evenodd"
         transform="scale(0.4)" />
    </marker>
    <marker
       style="overflow:visible"
       id="TriangleInMv-3"
       refX="0"
       refY="0"
       orient="auto"
       inkscape:stockid="TriangleInMv">
      <path
         inkscape:connector-curvature="0"
         transform="scale(-0.4,-0.4)"
         style="fill:#008000;fill-rule:evenodd;stroke:#008000;stroke-width:1pt;marker-start:none"
         d="m 5.77,0 -8.65,5 0,-10 8.65,5 z"
         id="path13502-5" />
    </marker>
    <marker
       inkscape:stockid="TriangleOutMz"
       orient="auto"
       refY="0"
       refX="0"
       id="TriangleOutMz-7"
       style="overflow:visible">
      <path
         inkscape:connector-curvature="0"
         id="path13505-6"
         d="m 5.77,0 -8.65,5 0,-10 8.65,5 z"
         style="fill:#008000;fill-rule:evenodd;stroke:#008000;stroke-width:1pt;marker-start:none"
         transform="scale(0.4,0.4)" />
    </marker>
    <marker
       style="overflow:visible"
       id="TriangleInMv-5"
       refX="0"
       refY="0"
       orient="auto"
       inkscape:stockid="TriangleInMv">
      <path
         inkscape:connector-curvature="0"
         transform="scale(-0.4,-0.4)"
         style="fill:#008000;fill-rule:evenodd;stroke:#008000;stroke-width:1pt;marker-start:none"
         d="m 5.77,0 -8.65,5 0,-10 8.65,5 z"
         id="path13502-57" />
    </marker>
    <marker
       inkscape:stockid="TriangleOutMz"
       orient="auto"
       refY="0"
       refX="0"
       id="TriangleOutMz-0"
       style="overflow:visible">
      <path
         inkscape:connector-curvature="0"
         id="path13505-3"
         d="m 5.77,0 -8.65,5 0,-10 8.65,5 z"
         style="fill:#008000;fill-rule:evenodd;stroke:#008000;stroke-width:1pt;marker-start:none"
         transform="scale(0.4,0.4)" />
    </marker>
    <marker
       style="overflow:visible"
       id="TriangleInMvw"
       refX="0.0"
       refY="0.0"
       orient="auto"
       inkscape:stockid="TriangleInMvw">
      <path
         transform="scale(-0.4)"
         style="fill-rule:evenodd;marker-start:none;stroke:#006400;stroke-width:1.0pt;fill:#006400"
         d="M 5.77,0.0 L -2.88,5.0 L -2.88,-5.0 L 5.77,0.0 z "
         id="path15048" />
    </marker>
    <marker
       inkscape:stockid="TriangleOutMzX"
       orient="auto"
       refY="0.0"
       refX="0.0"
       id="TriangleOutMzX"
       style="overflow:visible">
      <path
         id="path15051"
         d="M 5.77,0.0 L -2.88,5.0 L -2.88,-5.0 L 5.77,0.0 z "
         style="fill-rule:evenodd;marker-start:none;stroke:#006400;stroke-width:1.0pt;fill:#006400"
         transform="scale(0.4)" />
    </marker>
    <marker
       style="overflow:visible"
       id="TriangleInMvwm"
       refX="0.0"
       refY="0.0"
       orient="auto"
       inkscape:stockid="TriangleInMvwm">
      <path
         transform="scale(-0.4)"
         style="marker-start:none;stroke:#800000;stroke-width:1.0pt;fill:#800000;fill-rule:evenodd"
         d="M 5.77,0.0 L -2.88,5.0 L -2.88,-5.0 L 5.77,0.0 z "
         id="path18411" />
    </marker>
    <marker
       inkscape:stockid="TriangleOutMzXU"
       orient="auto"
       refY="0.0"
       refX="0.0"
       id="TriangleOutMzXU"
       style="overflow:visible">
      <path
         id="path18414"
         d="M 5.77,0.0 L -2.88,5.0 L -2.88,-5.0 L 5.77,0.0 z "
         style="marker-start:none;stroke:#800000;stroke-width:1.0pt;fill:#800000;fill-rule:evenodd"
         transform="scale(0.4)" />
    </marker>
  </defs>
  <metadata
     id="metadata3038">
    <rdf:RDF>
      <cc:Work
         rdf:about="">
        <dc:format>image/svg+xml</dc:format>
        <dc:type
           rdf:resource="http://purl.org/dc/dcmitype/StillImage" />
        <dc:title></dc:title>
      </cc:Work>
    </rdf:RDF>
  </metadata>
  <g
     inkscape:label="Layer 1"
     inkscape:groupmode="layer"
     id="layer1">
    <path
       style="fill:none;stroke:#000000;stroke-width:3;stroke-linecap:butt;stroke-linejoin:miter;stroke-miterlimit:4;stroke-opacity:1;stroke-dasharray:none;stroke-dashoffset:0"
       d="m 380,52.362183 0,199.999997 200,0"
       id="path3043-9"
       inkscape:connector-curvature="0"
       sodipodi:nodetypes="ccc" />
    <path
       style="fill:#0000ff;stroke:#000000;stroke-width:3;stroke-linecap:butt;stroke-linejoin:miter;stroke-miterlimit:4;stroke-opacity:1;stroke-dasharray:none;stroke-dashoffset:0"
       d="m 422.42386,163.37233 c 10,-39.99999 60,-40 90,-60 20,10 40,20 40,60 -80,-10 -90,40 -90,40 0,0 -20,-30 -40,-40 z"
       id="path5828"
       inkscape:connector-curvature="0"
       sodipodi:nodetypes="ccccc" />
    <g
       ns0:text="$\\mathbf{T}(u,v)$"
       ns0:preamble=""
       transform="matrix(1.215,0,0,1.215,171.76414,56.487933)"
       id="g6052">
      <defs
         id="defs6054">
        <g
           id="g6056">
          <symbol
             style="overflow:visible"
             overflow="visible"
             id="textext-9399b418-0">
            <path
               inkscape:connector-curvature="0"
               style="stroke:none"
               d="m 7.34375,-6.734375 -6.71875,0 -0.203125,2.40625 0.46875,0 c 0.09375,-1.125 0.1875,-1.9375 1.625,-1.9375 l 0.765625,0 0,5.796875 -1.53125,0 L 1.75,0 c 0.546875,-0.03125 1.65625,-0.03125 2.234375,-0.03125 0.59375,0 1.703125,0 2.234375,0.03125 l 0,-0.46875 -1.53125,0 0,-5.796875 0.765625,0 c 1.421875,0 1.53125,0.796875 1.625,1.9375 l 0.46875,0 z m 0,0"
               id="path6059" />
          </symbol>
          <symbol
             style="overflow:visible"
             overflow="visible"
             id="textext-9399b418-1">
            <path
               inkscape:connector-curvature="0"
               style="stroke:none"
               d="m 3.296875,2.390625 c 0,-0.03125 0,-0.046875 -0.171875,-0.21875 C 1.890625,0.921875 1.5625,-0.96875 1.5625,-2.5 c 0,-1.734375 0.375,-3.46875 1.609375,-4.703125 0.125,-0.125 0.125,-0.140625 0.125,-0.171875 0,-0.078125 -0.03125,-0.109375 -0.09375,-0.109375 -0.109375,0 -1,0.6875 -1.59375,1.953125 -0.5,1.09375 -0.625,2.203125 -0.625,3.03125 0,0.78125 0.109375,1.984375 0.65625,3.125 C 2.25,1.84375 3.09375,2.5 3.203125,2.5 c 0.0625,0 0.09375,-0.03125 0.09375,-0.109375 z m 0,0"
               id="path6062" />
          </symbol>
          <symbol
             style="overflow:visible"
             overflow="visible"
             id="textext-9399b418-2">
            <path
               inkscape:connector-curvature="0"
               style="stroke:none"
               d="m 2.875,-2.5 c 0,-0.765625 -0.109375,-1.96875 -0.65625,-3.109375 -0.59375,-1.21875 -1.453125,-1.875 -1.546875,-1.875 -0.0625,0 -0.109375,0.046875 -0.109375,0.109375 0,0.03125 0,0.046875 0.1875,0.234375 0.984375,0.984375 1.546875,2.5625 1.546875,4.640625 0,1.71875 -0.359375,3.46875 -1.59375,4.71875 C 0.5625,2.34375 0.5625,2.359375 0.5625,2.390625 0.5625,2.453125 0.609375,2.5 0.671875,2.5 0.765625,2.5 1.671875,1.8125 2.25,0.546875 2.765625,-0.546875 2.875,-1.65625 2.875,-2.5 z m 0,0"
               id="path6065" />
          </symbol>
          <symbol
             style="overflow:visible"
             overflow="visible"
             id="textext-9399b418-3">
            <path
               inkscape:connector-curvature="0"
               style="stroke:none"
               d="M 3.484375,-0.5625 C 3.59375,-0.15625 3.953125,0.109375 4.375,0.109375 4.71875,0.109375 4.953125,-0.125 5.109375,-0.4375 5.28125,-0.796875 5.40625,-1.40625 5.40625,-1.421875 c 0,-0.109375 -0.078125,-0.109375 -0.109375,-0.109375 -0.109375,0 -0.109375,0.046875 -0.140625,0.1875 -0.140625,0.5625 -0.328125,1.234375 -0.75,1.234375 -0.203125,0 -0.3125,-0.125 -0.3125,-0.453125 0,-0.21875 0.125,-0.6875 0.203125,-1.046875 L 4.578125,-2.6875 C 4.609375,-2.828125 4.703125,-3.203125 4.75,-3.359375 4.796875,-3.59375 4.890625,-3.96875 4.890625,-4.03125 c 0,-0.171875 -0.140625,-0.265625 -0.28125,-0.265625 -0.046875,0 -0.3125,0.015625 -0.390625,0.34375 -0.1875,0.734375 -0.625,2.484375 -0.75,3 -0.015625,0.046875 -0.40625,0.84375 -1.140625,0.84375 -0.515625,0 -0.609375,-0.453125 -0.609375,-0.8125 0,-0.5625 0.28125,-1.34375 0.53125,-2.03125 0.125,-0.3125 0.171875,-0.453125 0.171875,-0.640625 0,-0.4375 -0.3125,-0.8125 -0.8125,-0.8125 -0.953125,0 -1.3125,1.453125 -1.3125,1.53125 0,0.109375 0.09375,0.109375 0.109375,0.109375 0.109375,0 0.109375,-0.03125 0.15625,-0.1875 0.25,-0.859375 0.640625,-1.234375 1.015625,-1.234375 0.09375,0 0.25,0.015625 0.25,0.328125 0,0.234375 -0.109375,0.53125 -0.171875,0.671875 -0.375,1 -0.578125,1.609375 -0.578125,2.09375 0,0.953125 0.6875,1.203125 1.21875,1.203125 0.65625,0 1.015625,-0.453125 1.1875,-0.671875 z m 0,0"
               id="path6068" />
          </symbol>
          <symbol
             style="overflow:visible"
             overflow="visible"
             id="textext-9399b418-4">
            <path
               inkscape:connector-curvature="0"
               style="stroke:none"
               d="m 2.03125,-0.015625 c 0,-0.65625 -0.25,-1.046875 -0.640625,-1.046875 -0.328125,0 -0.53125,0.25 -0.53125,0.53125 C 0.859375,-0.265625 1.0625,0 1.390625,0 1.5,0 1.640625,-0.046875 1.734375,-0.125 1.765625,-0.15625 1.78125,-0.15625 1.78125,-0.15625 c 0.015625,0 0.015625,0 0.015625,0.140625 0,0.75 -0.34375,1.34375 -0.671875,1.671875 -0.109375,0.109375 -0.109375,0.125 -0.109375,0.15625 0,0.078125 0.046875,0.109375 0.09375,0.109375 0.109375,0 0.921875,-0.765625 0.921875,-1.9375 z m 0,0"
               id="path6071" />
          </symbol>
          <symbol
             style="overflow:visible"
             overflow="visible"
             id="textext-9399b418-5">
            <path
               inkscape:connector-curvature="0"
               style="stroke:none"
               d="m 4.671875,-3.703125 c 0,-0.546875 -0.265625,-0.703125 -0.4375,-0.703125 -0.25,0 -0.5,0.265625 -0.5,0.484375 0,0.125 0.046875,0.1875 0.15625,0.296875 0.21875,0.203125 0.34375,0.453125 0.34375,0.8125 0,0.421875 -0.609375,2.703125 -1.765625,2.703125 -0.515625,0 -0.75,-0.34375 -0.75,-0.875 0,-0.546875 0.28125,-1.28125 0.578125,-2.109375 0.078125,-0.171875 0.125,-0.3125 0.125,-0.5 0,-0.4375 -0.3125,-0.8125 -0.8125,-0.8125 -0.9375,0 -1.3125,1.453125 -1.3125,1.53125 0,0.109375 0.09375,0.109375 0.109375,0.109375 0.109375,0 0.109375,-0.03125 0.15625,-0.1875 0.296875,-1 0.71875,-1.234375 1.015625,-1.234375 0.078125,0 0.25,0 0.25,0.3125 0,0.25 -0.109375,0.53125 -0.171875,0.703125 -0.4375,1.15625 -0.5625,1.609375 -0.5625,2.046875 0,1.078125 0.875,1.234375 1.328125,1.234375 1.671875,0 2.25,-3.296875 2.25,-3.8125 z m 0,0"
               id="path6074" />
          </symbol>
        </g>
      </defs>
      <g
         id="textext-9399b418-6">
        <g
           style="fill:#000000;fill-opacity:1"
           id="g6077">
          <use
             height="1052.3622"
             width="744.09448"
             xlink:href="#textext-9399b418-0"
             x="223.43201"
             y="134.765"
             id="use6079" />
        </g>
        <g
           style="fill:#000000;fill-opacity:1"
           id="g6081">
          <use
             height="1052.3622"
             width="744.09448"
             xlink:href="#textext-9399b418-1"
             x="231.40199"
             y="134.765"
             id="use6083" />
        </g>
        <g
           style="fill:#000000;fill-opacity:1"
           id="g6085">
          <use
             height="1052.3622"
             width="744.09448"
             xlink:href="#textext-9399b418-3"
             x="235.27699"
             y="134.765"
             id="use6087" />
          <use
             height="1052.3622"
             width="744.09448"
             xlink:href="#textext-9399b418-4"
             x="240.98059"
             y="134.765"
             id="use6089" />
        </g>
        <g
           style="fill:#000000;fill-opacity:1"
           id="g6091">
          <use
             height="1052.3622"
             width="744.09448"
             xlink:href="#textext-9399b418-5"
             x="245.41196"
             y="134.765"
             id="use6093" />
        </g>
        <g
           style="fill:#000000;fill-opacity:1"
           id="g6095">
          <use
             height="1052.3622"
             width="744.09448"
             xlink:href="#textext-9399b418-2"
             x="250.59399"
             y="134.765"
             id="use6097" />
        </g>
      </g>
    </g>
    <g
       id="g6541"
       transform="matrix(0.72539887,-0.97469037,0.97469037,0.72539887,103.49487,295.7744)"
       ns0:preamble=""
       ns0:text="$\\mathbf{T}(u,v+\\Delta v)$">
      <defs
         id="defs6543">
        <g
           id="g6545">
          <symbol
             id="textext-15792f4b-0"
             overflow="visible"
             style="overflow:visible">
            <path
               id="path6548"
               d="m 7.34375,-6.734375 -6.71875,0 -0.203125,2.40625 0.46875,0 c 0.09375,-1.125 0.1875,-1.9375 1.625,-1.9375 l 0.765625,0 0,5.796875 -1.53125,0 L 1.75,0 c 0.546875,-0.03125 1.65625,-0.03125 2.234375,-0.03125 0.59375,0 1.703125,0 2.234375,0.03125 l 0,-0.46875 -1.53125,0 0,-5.796875 0.765625,0 c 1.421875,0 1.53125,0.796875 1.625,1.9375 l 0.46875,0 z m 0,0"
               style="stroke:none"
               inkscape:connector-curvature="0" />
          </symbol>
          <symbol
             id="textext-15792f4b-1"
             overflow="visible"
             style="overflow:visible">
            <path
               id="path6551"
               d="m 3.296875,2.390625 c 0,-0.03125 0,-0.046875 -0.171875,-0.21875 C 1.890625,0.921875 1.5625,-0.96875 1.5625,-2.5 c 0,-1.734375 0.375,-3.46875 1.609375,-4.703125 0.125,-0.125 0.125,-0.140625 0.125,-0.171875 0,-0.078125 -0.03125,-0.109375 -0.09375,-0.109375 -0.109375,0 -1,0.6875 -1.59375,1.953125 -0.5,1.09375 -0.625,2.203125 -0.625,3.03125 0,0.78125 0.109375,1.984375 0.65625,3.125 C 2.25,1.84375 3.09375,2.5 3.203125,2.5 c 0.0625,0 0.09375,-0.03125 0.09375,-0.109375 z m 0,0"
               style="stroke:none"
               inkscape:connector-curvature="0" />
          </symbol>
          <symbol
             id="textext-15792f4b-2"
             overflow="visible"
             style="overflow:visible">
            <path
               id="path6554"
               d="m 4.078125,-2.296875 2.78125,0 C 7,-2.296875 7.1875,-2.296875 7.1875,-2.5 7.1875,-2.6875 7,-2.6875 6.859375,-2.6875 l -2.78125,0 0,-2.796875 c 0,-0.140625 0,-0.328125 -0.203125,-0.328125 -0.203125,0 -0.203125,0.1875 -0.203125,0.328125 l 0,2.796875 -2.78125,0 c -0.140625,0 -0.328125,0 -0.328125,0.1875 0,0.203125 0.1875,0.203125 0.328125,0.203125 l 2.78125,0 0,2.796875 c 0,0.140625 0,0.328125 0.203125,0.328125 0.203125,0 0.203125,-0.1875 0.203125,-0.328125 z m 0,0"
               style="stroke:none"
               inkscape:connector-curvature="0" />
          </symbol>
          <symbol
             id="textext-15792f4b-3"
             overflow="visible"
             style="overflow:visible">
            <path
               id="path6557"
               d="m 4.40625,-6.953125 c -0.0625,-0.140625 -0.09375,-0.1875 -0.265625,-0.1875 -0.15625,0 -0.1875,0.046875 -0.25,0.1875 l -3.375,6.75 C 0.46875,-0.109375 0.46875,-0.09375 0.46875,-0.078125 0.46875,0 0.53125,0 0.6875,0 l 6.921875,0 c 0.15625,0 0.21875,0 0.21875,-0.078125 0,-0.015625 0,-0.03125 -0.046875,-0.125 z m -0.578125,0.8125 2.6875,5.390625 -5.375,0 z m 0,0"
               style="stroke:none"
               inkscape:connector-curvature="0" />
          </symbol>
          <symbol
             id="textext-15792f4b-4"
             overflow="visible"
             style="overflow:visible">
            <path
               id="path6560"
               d="m 2.875,-2.5 c 0,-0.765625 -0.109375,-1.96875 -0.65625,-3.109375 -0.59375,-1.21875 -1.453125,-1.875 -1.546875,-1.875 -0.0625,0 -0.109375,0.046875 -0.109375,0.109375 0,0.03125 0,0.046875 0.1875,0.234375 0.984375,0.984375 1.546875,2.5625 1.546875,4.640625 0,1.71875 -0.359375,3.46875 -1.59375,4.71875 C 0.5625,2.34375 0.5625,2.359375 0.5625,2.390625 0.5625,2.453125 0.609375,2.5 0.671875,2.5 0.765625,2.5 1.671875,1.8125 2.25,0.546875 2.765625,-0.546875 2.875,-1.65625 2.875,-2.5 z m 0,0"
               style="stroke:none"
               inkscape:connector-curvature="0" />
          </symbol>
          <symbol
             id="textext-15792f4b-5"
             overflow="visible"
             style="overflow:visible">
            <path
               id="path6563"
               d="M 3.484375,-0.5625 C 3.59375,-0.15625 3.953125,0.109375 4.375,0.109375 4.71875,0.109375 4.953125,-0.125 5.109375,-0.4375 5.28125,-0.796875 5.40625,-1.40625 5.40625,-1.421875 c 0,-0.109375 -0.078125,-0.109375 -0.109375,-0.109375 -0.109375,0 -0.109375,0.046875 -0.140625,0.1875 -0.140625,0.5625 -0.328125,1.234375 -0.75,1.234375 -0.203125,0 -0.3125,-0.125 -0.3125,-0.453125 0,-0.21875 0.125,-0.6875 0.203125,-1.046875 L 4.578125,-2.6875 C 4.609375,-2.828125 4.703125,-3.203125 4.75,-3.359375 4.796875,-3.59375 4.890625,-3.96875 4.890625,-4.03125 c 0,-0.171875 -0.140625,-0.265625 -0.28125,-0.265625 -0.046875,0 -0.3125,0.015625 -0.390625,0.34375 -0.1875,0.734375 -0.625,2.484375 -0.75,3 -0.015625,0.046875 -0.40625,0.84375 -1.140625,0.84375 -0.515625,0 -0.609375,-0.453125 -0.609375,-0.8125 0,-0.5625 0.28125,-1.34375 0.53125,-2.03125 0.125,-0.3125 0.171875,-0.453125 0.171875,-0.640625 0,-0.4375 -0.3125,-0.8125 -0.8125,-0.8125 -0.953125,0 -1.3125,1.453125 -1.3125,1.53125 0,0.109375 0.09375,0.109375 0.109375,0.109375 0.109375,0 0.109375,-0.03125 0.15625,-0.1875 0.25,-0.859375 0.640625,-1.234375 1.015625,-1.234375 0.09375,0 0.25,0.015625 0.25,0.328125 0,0.234375 -0.109375,0.53125 -0.171875,0.671875 -0.375,1 -0.578125,1.609375 -0.578125,2.09375 0,0.953125 0.6875,1.203125 1.21875,1.203125 0.65625,0 1.015625,-0.453125 1.1875,-0.671875 z m 0,0"
               style="stroke:none"
               inkscape:connector-curvature="0" />
          </symbol>
          <symbol
             id="textext-15792f4b-6"
             overflow="visible"
             style="overflow:visible">
            <path
               id="path6566"
               d="m 2.03125,-0.015625 c 0,-0.65625 -0.25,-1.046875 -0.640625,-1.046875 -0.328125,0 -0.53125,0.25 -0.53125,0.53125 C 0.859375,-0.265625 1.0625,0 1.390625,0 1.5,0 1.640625,-0.046875 1.734375,-0.125 1.765625,-0.15625 1.78125,-0.15625 1.78125,-0.15625 c 0.015625,0 0.015625,0 0.015625,0.140625 0,0.75 -0.34375,1.34375 -0.671875,1.671875 -0.109375,0.109375 -0.109375,0.125 -0.109375,0.15625 0,0.078125 0.046875,0.109375 0.09375,0.109375 0.109375,0 0.921875,-0.765625 0.921875,-1.9375 z m 0,0"
               style="stroke:none"
               inkscape:connector-curvature="0" />
          </symbol>
          <symbol
             id="textext-15792f4b-7"
             overflow="visible"
             style="overflow:visible">
            <path
               id="path6569"
               d="m 4.671875,-3.703125 c 0,-0.546875 -0.265625,-0.703125 -0.4375,-0.703125 -0.25,0 -0.5,0.265625 -0.5,0.484375 0,0.125 0.046875,0.1875 0.15625,0.296875 0.21875,0.203125 0.34375,0.453125 0.34375,0.8125 0,0.421875 -0.609375,2.703125 -1.765625,2.703125 -0.515625,0 -0.75,-0.34375 -0.75,-0.875 0,-0.546875 0.28125,-1.28125 0.578125,-2.109375 0.078125,-0.171875 0.125,-0.3125 0.125,-0.5 0,-0.4375 -0.3125,-0.8125 -0.8125,-0.8125 -0.9375,0 -1.3125,1.453125 -1.3125,1.53125 0,0.109375 0.09375,0.109375 0.109375,0.109375 0.109375,0 0.109375,-0.03125 0.15625,-0.1875 0.296875,-1 0.71875,-1.234375 1.015625,-1.234375 0.078125,0 0.25,0 0.25,0.3125 0,0.25 -0.109375,0.53125 -0.171875,0.703125 -0.4375,1.15625 -0.5625,1.609375 -0.5625,2.046875 0,1.078125 0.875,1.234375 1.328125,1.234375 1.671875,0 2.25,-3.296875 2.25,-3.8125 z m 0,0"
               style="stroke:none"
               inkscape:connector-curvature="0" />
          </symbol>
        </g>
      </defs>
      <g
         id="textext-15792f4b-8">
        <g
           id="g6572"
           style="fill:#000000;fill-opacity:1">
          <use
             id="use6574"
             y="134.765"
             x="223.43201"
             xlink:href="#textext-15792f4b-0"
             width="744.09448"
             height="1052.3622" />
        </g>
        <g
           id="g6576"
           style="fill:#000000;fill-opacity:1">
          <use
             id="use6578"
             y="134.765"
             x="231.40199"
             xlink:href="#textext-15792f4b-1"
             width="744.09448"
             height="1052.3622" />
        </g>
        <g
           id="g6580"
           style="fill:#000000;fill-opacity:1">
          <use
             id="use6582"
             y="134.765"
             x="235.27699"
             xlink:href="#textext-15792f4b-5"
             width="744.09448"
             height="1052.3622" />
          <use
             id="use6584"
             y="134.765"
             x="240.98059"
             xlink:href="#textext-15792f4b-6"
             width="744.09448"
             height="1052.3622" />
        </g>
        <g
           id="g6586"
           style="fill:#000000;fill-opacity:1">
          <use
             id="use6588"
             y="134.765"
             x="245.41196"
             xlink:href="#textext-15792f4b-7"
             width="744.09448"
             height="1052.3622" />
        </g>
        <g
           id="g6590"
           style="fill:#000000;fill-opacity:1">
          <use
             id="use6592"
             y="134.765"
             x="252.808"
             xlink:href="#textext-15792f4b-2"
             width="744.09448"
             height="1052.3622" />
        </g>
        <g
           id="g6594"
           style="fill:#000000;fill-opacity:1">
          <use
             id="use6596"
             y="134.765"
             x="262.76862"
             xlink:href="#textext-15792f4b-3"
             width="744.09448"
             height="1052.3622" />
        </g>
        <g
           id="g6598"
           style="fill:#000000;fill-opacity:1">
          <use
             id="use6600"
             y="134.765"
             x="271.073"
             xlink:href="#textext-15792f4b-7"
             width="744.09448"
             height="1052.3622" />
        </g>
        <g
           id="g6602"
           style="fill:#000000;fill-opacity:1">
          <use
             id="use6604"
             y="134.765"
             x="276.259"
             xlink:href="#textext-15792f4b-4"
             width="744.09448"
             height="1052.3622" />
        </g>
      </g>
    </g>
    <g
       id="g7819"
       transform="matrix(1.1028862,-0.50977161,0.50977161,1.1028862,225.28838,153.78326)"
       ns0:preamble=""
       ns0:text="$\\mathbf{T}(u+\\Delta u,v)$">
      <defs
         id="defs7821">
        <g
           id="g7823">
          <symbol
             id="textext-795c058d-0"
             overflow="visible"
             style="overflow:visible">
            <path
               id="path7826"
               d="m 7.34375,-6.734375 -6.71875,0 -0.203125,2.40625 0.46875,0 c 0.09375,-1.125 0.1875,-1.9375 1.625,-1.9375 l 0.765625,0 0,5.796875 -1.53125,0 L 1.75,0 c 0.546875,-0.03125 1.65625,-0.03125 2.234375,-0.03125 0.59375,0 1.703125,0 2.234375,0.03125 l 0,-0.46875 -1.53125,0 0,-5.796875 0.765625,0 c 1.421875,0 1.53125,0.796875 1.625,1.9375 l 0.46875,0 z m 0,0"
               style="stroke:none"
               inkscape:connector-curvature="0" />
          </symbol>
          <symbol
             id="textext-795c058d-1"
             overflow="visible"
             style="overflow:visible">
            <path
               id="path7829"
               d="m 3.296875,2.390625 c 0,-0.03125 0,-0.046875 -0.171875,-0.21875 C 1.890625,0.921875 1.5625,-0.96875 1.5625,-2.5 c 0,-1.734375 0.375,-3.46875 1.609375,-4.703125 0.125,-0.125 0.125,-0.140625 0.125,-0.171875 0,-0.078125 -0.03125,-0.109375 -0.09375,-0.109375 -0.109375,0 -1,0.6875 -1.59375,1.953125 -0.5,1.09375 -0.625,2.203125 -0.625,3.03125 0,0.78125 0.109375,1.984375 0.65625,3.125 C 2.25,1.84375 3.09375,2.5 3.203125,2.5 c 0.0625,0 0.09375,-0.03125 0.09375,-0.109375 z m 0,0"
               style="stroke:none"
               inkscape:connector-curvature="0" />
          </symbol>
          <symbol
             id="textext-795c058d-2"
             overflow="visible"
             style="overflow:visible">
            <path
               id="path7832"
               d="m 4.078125,-2.296875 2.78125,0 C 7,-2.296875 7.1875,-2.296875 7.1875,-2.5 7.1875,-2.6875 7,-2.6875 6.859375,-2.6875 l -2.78125,0 0,-2.796875 c 0,-0.140625 0,-0.328125 -0.203125,-0.328125 -0.203125,0 -0.203125,0.1875 -0.203125,0.328125 l 0,2.796875 -2.78125,0 c -0.140625,0 -0.328125,0 -0.328125,0.1875 0,0.203125 0.1875,0.203125 0.328125,0.203125 l 2.78125,0 0,2.796875 c 0,0.140625 0,0.328125 0.203125,0.328125 0.203125,0 0.203125,-0.1875 0.203125,-0.328125 z m 0,0"
               style="stroke:none"
               inkscape:connector-curvature="0" />
          </symbol>
          <symbol
             id="textext-795c058d-3"
             overflow="visible"
             style="overflow:visible">
            <path
               id="path7835"
               d="m 4.40625,-6.953125 c -0.0625,-0.140625 -0.09375,-0.1875 -0.265625,-0.1875 -0.15625,0 -0.1875,0.046875 -0.25,0.1875 l -3.375,6.75 C 0.46875,-0.109375 0.46875,-0.09375 0.46875,-0.078125 0.46875,0 0.53125,0 0.6875,0 l 6.921875,0 c 0.15625,0 0.21875,0 0.21875,-0.078125 0,-0.015625 0,-0.03125 -0.046875,-0.125 z m -0.578125,0.8125 2.6875,5.390625 -5.375,0 z m 0,0"
               style="stroke:none"
               inkscape:connector-curvature="0" />
          </symbol>
          <symbol
             id="textext-795c058d-4"
             overflow="visible"
             style="overflow:visible">
            <path
               id="path7838"
               d="m 2.875,-2.5 c 0,-0.765625 -0.109375,-1.96875 -0.65625,-3.109375 -0.59375,-1.21875 -1.453125,-1.875 -1.546875,-1.875 -0.0625,0 -0.109375,0.046875 -0.109375,0.109375 0,0.03125 0,0.046875 0.1875,0.234375 0.984375,0.984375 1.546875,2.5625 1.546875,4.640625 0,1.71875 -0.359375,3.46875 -1.59375,4.71875 C 0.5625,2.34375 0.5625,2.359375 0.5625,2.390625 0.5625,2.453125 0.609375,2.5 0.671875,2.5 0.765625,2.5 1.671875,1.8125 2.25,0.546875 2.765625,-0.546875 2.875,-1.65625 2.875,-2.5 z m 0,0"
               style="stroke:none"
               inkscape:connector-curvature="0" />
          </symbol>
          <symbol
             id="textext-795c058d-5"
             overflow="visible"
             style="overflow:visible">
            <path
               id="path7841"
               d="M 3.484375,-0.5625 C 3.59375,-0.15625 3.953125,0.109375 4.375,0.109375 4.71875,0.109375 4.953125,-0.125 5.109375,-0.4375 5.28125,-0.796875 5.40625,-1.40625 5.40625,-1.421875 c 0,-0.109375 -0.078125,-0.109375 -0.109375,-0.109375 -0.109375,0 -0.109375,0.046875 -0.140625,0.1875 -0.140625,0.5625 -0.328125,1.234375 -0.75,1.234375 -0.203125,0 -0.3125,-0.125 -0.3125,-0.453125 0,-0.21875 0.125,-0.6875 0.203125,-1.046875 L 4.578125,-2.6875 C 4.609375,-2.828125 4.703125,-3.203125 4.75,-3.359375 4.796875,-3.59375 4.890625,-3.96875 4.890625,-4.03125 c 0,-0.171875 -0.140625,-0.265625 -0.28125,-0.265625 -0.046875,0 -0.3125,0.015625 -0.390625,0.34375 -0.1875,0.734375 -0.625,2.484375 -0.75,3 -0.015625,0.046875 -0.40625,0.84375 -1.140625,0.84375 -0.515625,0 -0.609375,-0.453125 -0.609375,-0.8125 0,-0.5625 0.28125,-1.34375 0.53125,-2.03125 0.125,-0.3125 0.171875,-0.453125 0.171875,-0.640625 0,-0.4375 -0.3125,-0.8125 -0.8125,-0.8125 -0.953125,0 -1.3125,1.453125 -1.3125,1.53125 0,0.109375 0.09375,0.109375 0.109375,0.109375 0.109375,0 0.109375,-0.03125 0.15625,-0.1875 0.25,-0.859375 0.640625,-1.234375 1.015625,-1.234375 0.09375,0 0.25,0.015625 0.25,0.328125 0,0.234375 -0.109375,0.53125 -0.171875,0.671875 -0.375,1 -0.578125,1.609375 -0.578125,2.09375 0,0.953125 0.6875,1.203125 1.21875,1.203125 0.65625,0 1.015625,-0.453125 1.1875,-0.671875 z m 0,0"
               style="stroke:none"
               inkscape:connector-curvature="0" />
          </symbol>
          <symbol
             id="textext-795c058d-6"
             overflow="visible"
             style="overflow:visible">
            <path
               id="path7844"
               d="m 2.03125,-0.015625 c 0,-0.65625 -0.25,-1.046875 -0.640625,-1.046875 -0.328125,0 -0.53125,0.25 -0.53125,0.53125 C 0.859375,-0.265625 1.0625,0 1.390625,0 1.5,0 1.640625,-0.046875 1.734375,-0.125 1.765625,-0.15625 1.78125,-0.15625 1.78125,-0.15625 c 0.015625,0 0.015625,0 0.015625,0.140625 0,0.75 -0.34375,1.34375 -0.671875,1.671875 -0.109375,0.109375 -0.109375,0.125 -0.109375,0.15625 0,0.078125 0.046875,0.109375 0.09375,0.109375 0.109375,0 0.921875,-0.765625 0.921875,-1.9375 z m 0,0"
               style="stroke:none"
               inkscape:connector-curvature="0" />
          </symbol>
          <symbol
             id="textext-795c058d-7"
             overflow="visible"
             style="overflow:visible">
            <path
               id="path7847"
               d="m 4.671875,-3.703125 c 0,-0.546875 -0.265625,-0.703125 -0.4375,-0.703125 -0.25,0 -0.5,0.265625 -0.5,0.484375 0,0.125 0.046875,0.1875 0.15625,0.296875 0.21875,0.203125 0.34375,0.453125 0.34375,0.8125 0,0.421875 -0.609375,2.703125 -1.765625,2.703125 -0.515625,0 -0.75,-0.34375 -0.75,-0.875 0,-0.546875 0.28125,-1.28125 0.578125,-2.109375 0.078125,-0.171875 0.125,-0.3125 0.125,-0.5 0,-0.4375 -0.3125,-0.8125 -0.8125,-0.8125 -0.9375,0 -1.3125,1.453125 -1.3125,1.53125 0,0.109375 0.09375,0.109375 0.109375,0.109375 0.109375,0 0.109375,-0.03125 0.15625,-0.1875 0.296875,-1 0.71875,-1.234375 1.015625,-1.234375 0.078125,0 0.25,0 0.25,0.3125 0,0.25 -0.109375,0.53125 -0.171875,0.703125 -0.4375,1.15625 -0.5625,1.609375 -0.5625,2.046875 0,1.078125 0.875,1.234375 1.328125,1.234375 1.671875,0 2.25,-3.296875 2.25,-3.8125 z m 0,0"
               style="stroke:none"
               inkscape:connector-curvature="0" />
          </symbol>
        </g>
      </defs>
      <g
         id="textext-795c058d-8">
        <g
           id="g7850"
           style="fill:#000000;fill-opacity:1">
          <use
             id="use7852"
             y="134.765"
             x="223.43201"
             xlink:href="#textext-795c058d-0"
             width="744.09448"
             height="1052.3622" />
        </g>
        <g
           id="g7854"
           style="fill:#000000;fill-opacity:1">
          <use
             id="use7856"
             y="134.765"
             x="231.40199"
             xlink:href="#textext-795c058d-1"
             width="744.09448"
             height="1052.3622" />
        </g>
        <g
           id="g7858"
           style="fill:#000000;fill-opacity:1">
          <use
             id="use7860"
             y="134.765"
             x="235.27699"
             xlink:href="#textext-795c058d-5"
             width="744.09448"
             height="1052.3622" />
        </g>
        <g
           id="g7862"
           style="fill:#000000;fill-opacity:1">
          <use
             id="use7864"
             y="134.765"
             x="243.194"
             xlink:href="#textext-795c058d-2"
             width="744.09448"
             height="1052.3622" />
        </g>
        <g
           id="g7866"
           style="fill:#000000;fill-opacity:1">
          <use
             id="use7868"
             y="134.765"
             x="253.1546"
             xlink:href="#textext-795c058d-3"
             width="744.09448"
             height="1052.3622" />
        </g>
        <g
           id="g7870"
           style="fill:#000000;fill-opacity:1">
          <use
             id="use7872"
             y="134.765"
             x="261.45801"
             xlink:href="#textext-795c058d-5"
             width="744.09448"
             height="1052.3622" />
          <use
             id="use7874"
             y="134.765"
             x="267.16159"
             xlink:href="#textext-795c058d-6"
             width="744.09448"
             height="1052.3622" />
        </g>
        <g
           id="g7876"
           style="fill:#000000;fill-opacity:1">
          <use
             id="use7878"
             y="134.765"
             x="271.59296"
             xlink:href="#textext-795c058d-7"
             width="744.09448"
             height="1052.3622" />
        </g>
        <g
           id="g7880"
           style="fill:#000000;fill-opacity:1">
          <use
             id="use7882"
             y="134.765"
             x="276.776"
             xlink:href="#textext-795c058d-4"
             width="744.09448"
             height="1052.3622" />
        </g>
      </g>
    </g>
    <path
       transform="translate(374.92386,173.15301)"
       d="m 90.000003,30.933611 a 2.8571429,2.8571429 0 1 1 -5.714286,0 2.8571429,2.8571429 0 1 1 5.714286,0 z"
       sodipodi:ry="2.8571429"
       sodipodi:rx="2.8571429"
       sodipodi:cy="30.933611"
       sodipodi:cx="87.14286"
       id="path9585-8"
       style="fill:#000000;stroke:#000000;stroke-width:3;stroke-linecap:butt;stroke-linejoin:miter;stroke-miterlimit:4;stroke-opacity:1;stroke-dasharray:none;stroke-dashoffset:0"
       sodipodi:type="arc" />
    <path
       transform="translate(335.63814,132.79586)"
       d="m 90.000003,30.933611 a 2.8571429,2.8571429 0 1 1 -5.714286,0 2.8571429,2.8571429 0 1 1 5.714286,0 z"
       sodipodi:ry="2.8571429"
       sodipodi:rx="2.8571429"
       sodipodi:cy="30.933611"
       sodipodi:cx="87.14286"
       id="path9585-89"
       style="fill:#000000;stroke:#000000;stroke-width:3;stroke-linecap:butt;stroke-linejoin:miter;stroke-miterlimit:4;stroke-opacity:1;stroke-dasharray:none;stroke-dashoffset:0"
       sodipodi:type="arc" />
    <path
       transform="translate(464.92385,132.79586)"
       d="m 90.000003,30.933611 a 2.8571429,2.8571429 0 1 1 -5.714286,0 2.8571429,2.8571429 0 1 1 5.714286,0 z"
       sodipodi:ry="2.8571429"
       sodipodi:rx="2.8571429"
       sodipodi:cy="30.933611"
       sodipodi:cx="87.14286"
       id="path9585-2"
       style="fill:#000000;stroke:#000000;stroke-width:3;stroke-linecap:butt;stroke-linejoin:miter;stroke-miterlimit:4;stroke-opacity:1;stroke-dasharray:none;stroke-dashoffset:0"
       sodipodi:type="arc" />
    <path
       style="opacity:0.69506727999999995;fill:#ff0000;fill-opacity:1;stroke:none"
       d="m 461.63971,205.60181 93.43912,-41.79506 -40.65864,-42.30014 -92.04118,41.46855 z"
       id="path15021"
       inkscape:connector-curvature="0"
       sodipodi:nodetypes="ccccc" />
    <path
       transform="translate(425.63815,72.795866)"
       d="m 90.000003,30.933611 a 2.8571429,2.8571429 0 1 1 -5.714286,0 2.8571429,2.8571429 0 1 1 5.714286,0 z"
       sodipodi:ry="2.8571429"
       sodipodi:rx="2.8571429"
       sodipodi:cy="30.933611"
       sodipodi:cx="87.14286"
       id="path9585-88"
       style="fill:#000000;stroke:#000000;stroke-width:3;stroke-linecap:butt;stroke-linejoin:miter;stroke-miterlimit:4;stroke-opacity:1;stroke-dasharray:none;stroke-dashoffset:0"
       sodipodi:type="arc" />
    <g
       id="g11733"
       ns0:preamble=""
       ns0:text="$x$"
       transform="matrix(1.5,0,0,1.5,232.12041,62.723053)">
      <defs
         id="defs11735">
        <g
           id="g11737">
          <symbol
             id="textext-3cd618fc-0"
             overflow="visible"
             style="overflow:visible">
            <path
               id="path11740"
               d="M 3.328125,-3.015625 C 3.390625,-3.265625 3.625,-4.1875 4.3125,-4.1875 c 0.046875,0 0.296875,0 0.5,0.125 C 4.53125,-4 4.34375,-3.765625 4.34375,-3.515625 c 0,0.15625 0.109375,0.34375 0.375,0.34375 0.21875,0 0.53125,-0.171875 0.53125,-0.578125 0,-0.515625 -0.578125,-0.65625 -0.921875,-0.65625 -0.578125,0 -0.921875,0.53125 -1.046875,0.75 -0.25,-0.65625 -0.78125,-0.75 -1.078125,-0.75 -1.03125,0 -1.609375,1.28125 -1.609375,1.53125 0,0.109375 0.109375,0.109375 0.125,0.109375 0.078125,0 0.109375,-0.03125 0.125,-0.109375 0.34375,-1.0625 1,-1.3125 1.34375,-1.3125 0.1875,0 0.53125,0.09375 0.53125,0.671875 0,0.3125 -0.171875,0.96875 -0.53125,2.375 -0.15625,0.609375 -0.515625,1.03125 -0.953125,1.03125 -0.0625,0 -0.28125,0 -0.5,-0.125 0.25,-0.0625 0.46875,-0.265625 0.46875,-0.546875 0,-0.265625 -0.21875,-0.34375 -0.359375,-0.34375 -0.3125,0 -0.546875,0.25 -0.546875,0.578125 0,0.453125 0.484375,0.65625 0.921875,0.65625 0.671875,0 1.03125,-0.703125 1.046875,-0.75 0.125,0.359375 0.484375,0.75 1.078125,0.75 1.03125,0 1.59375,-1.28125 1.59375,-1.53125 0,-0.109375 -0.078125,-0.109375 -0.109375,-0.109375 -0.09375,0 -0.109375,0.046875 -0.140625,0.109375 -0.328125,1.078125 -1,1.3125 -1.3125,1.3125 -0.390625,0 -0.546875,-0.3125 -0.546875,-0.65625 0,-0.21875 0.046875,-0.4375 0.15625,-0.875 z m 0,0"
               style="stroke:none"
               inkscape:connector-curvature="0" />
          </symbol>
        </g>
      </defs>
      <g
         id="textext-3cd618fc-1">
        <g
           id="g11743"
           style="fill:#000000;fill-opacity:1">
          <use
             id="use11745"
             y="134.765"
             x="223.43201"
             xlink:href="#textext-3cd618fc-0"
             width="744.09448"
             height="1052.3622" />
        </g>
      </g>
    </g>
    <g
       transform="matrix(1.5,0,0,1.5,30.961365,-139.44436)"
       ns0:text="$y$"
       ns0:preamble=""
       id="g12407">
      <defs
         id="defs12409">
        <g
           id="g12411">
          <symbol
             style="overflow:visible"
             overflow="visible"
             id="textext-5c96a2b8-0">
            <path
               inkscape:connector-curvature="0"
               style="stroke:none"
               d="m 4.84375,-3.796875 c 0.046875,-0.140625 0.046875,-0.15625 0.046875,-0.234375 0,-0.171875 -0.140625,-0.265625 -0.296875,-0.265625 -0.09375,0 -0.25,0.0625 -0.34375,0.203125 -0.015625,0.0625 -0.109375,0.359375 -0.140625,0.546875 -0.078125,0.25 -0.140625,0.53125 -0.203125,0.796875 l -0.453125,1.796875 c -0.03125,0.140625 -0.46875,0.84375 -1.125,0.84375 -0.5,0 -0.609375,-0.4375 -0.609375,-0.8125 C 1.71875,-1.375 1.890625,-2 2.21875,-2.875 2.375,-3.28125 2.421875,-3.390625 2.421875,-3.59375 c 0,-0.4375 -0.3125,-0.8125 -0.8125,-0.8125 -0.953125,0 -1.3125,1.453125 -1.3125,1.53125 0,0.109375 0.09375,0.109375 0.109375,0.109375 0.109375,0 0.109375,-0.03125 0.15625,-0.1875 0.28125,-0.9375 0.671875,-1.234375 1.015625,-1.234375 0.078125,0 0.25,0 0.25,0.3125 0,0.25 -0.109375,0.515625 -0.171875,0.703125 -0.40625,1.0625 -0.578125,1.625 -0.578125,2.09375 0,0.890625 0.625,1.1875 1.21875,1.1875 0.390625,0 0.71875,-0.171875 1,-0.453125 -0.125,0.515625 -0.25,1.015625 -0.640625,1.546875 -0.265625,0.328125 -0.640625,0.625 -1.09375,0.625 -0.140625,0 -0.59375,-0.03125 -0.765625,-0.421875 0.15625,0 0.296875,0 0.421875,-0.125 C 1.328125,1.203125 1.421875,1.0625 1.421875,0.875 1.421875,0.5625 1.15625,0.53125 1.0625,0.53125 0.828125,0.53125 0.5,0.6875 0.5,1.171875 c 0,0.5 0.4375,0.875 1.0625,0.875 1.015625,0 2.046875,-0.90625 2.328125,-2.03125 z m 0,0"
               id="path12414" />
          </symbol>
        </g>
      </defs>
      <g
         id="textext-5c96a2b8-1">
        <g
           style="fill:#000000;fill-opacity:1"
           id="g12417">
          <use
             height="1052.3622"
             width="744.09448"
             xlink:href="#textext-5c96a2b8-0"
             x="223.43201"
             y="134.765"
             id="use12419" />
        </g>
      </g>
    </g>
    <path
       sodipodi:nodetypes="ccc"
       inkscape:connector-curvature="0"
       id="path12923"
       d="m 546.70958,166.94376 -84.82143,37.5 -34.46429,-35.35714"
       style="stroke-linejoin:miter;marker-end:url(#TriangleOutMzXU);stroke-opacity:1;marker-start:url(#TriangleInMvwm);stroke-dashoffset:0;stroke:#800000;stroke-linecap:butt;stroke-miterlimit:4;stroke-dasharray:none;stroke-width:3;fill:none" />
    <path
       sodipodi:nodetypes="cc"
       inkscape:connector-curvature="0"
       id="path12923-4"
       d="M 554.35258,164.50671 513.81686,122.18528"
       style="opacity:0.34999999999999998;fill:none;stroke:#ff0000;stroke-width:2;stroke-linecap:butt;stroke-linejoin:miter;stroke-miterlimit:4;stroke-opacity:1;stroke-dasharray:none;stroke-dashoffset:0;marker-start:none;marker-end:none" />
    <path
       sodipodi:nodetypes="cc"
       inkscape:connector-curvature="0"
       id="path12923-8"
       d="m 514.53116,122.36385 -91.96429,41.42857"
       style="opacity:0.34999999999999998;fill:none;stroke:#ff0000;stroke-width:2;stroke-linecap:butt;stroke-linejoin:miter;stroke-miterlimit:4;stroke-opacity:1;stroke-dasharray:none;stroke-dashoffset:0;marker-start:none;marker-end:none" />
    <g
       id="g17412"
       transform="matrix(1.215,0,0,1.215,123.76987,41.162077)"
       ns0:preamble=""
       ns0:text="$\\displaystyle \\frac{\\partial\\mathbf{T}}{\\partial v}\\Delta v$">
      <defs
         id="defs17414">
        <g
           id="g17416">
          <symbol
             style="overflow:visible"
             id="textext-e6385966-0"
             overflow="visible">
            <path
               inkscape:connector-curvature="0"
               id="path17419"
               d="m 4.609375,-3.375 c -0.09375,-0.625 -0.5,-1.1875 -1.28125,-1.1875 -0.609375,0 -1.25,0.171875 -2.03125,0.9375 -0.828125,0.828125 -0.890625,1.765625 -0.890625,2.0625 0,0.625 0.4375,1.78125 1.828125,1.78125 2.375,0 3.40625,-3.34375 3.40625,-4.78125 0,-1.578125 -0.921875,-2.578125 -2.15625,-2.578125 -1.4375,0 -1.90625,1.296875 -1.90625,1.578125 0,0.140625 0.09375,0.34375 0.390625,0.34375 0.328125,0 0.53125,-0.296875 0.53125,-0.515625 0,-0.359375 -0.3125,-0.359375 -0.46875,-0.359375 0.4375,-0.734375 1.15625,-0.796875 1.4375,-0.796875 0.734375,0 1.421875,0.515625 1.421875,1.8125 0,0.390625 -0.0625,0.890625 -0.265625,1.703125 z m -2.34375,3.3125 c -1.09375,0 -1.09375,-1.03125 -1.09375,-1.125 0,-0.265625 0.25,-1.65625 0.65625,-2.265625 0.390625,-0.5625 0.890625,-0.890625 1.5,-0.890625 1.09375,0 1.109375,1.125 1.109375,1.328125 0,0.71875 -0.640625,2.953125 -2.171875,2.953125 z m 0,0"
               style="stroke:none" />
          </symbol>
          <symbol
             style="overflow:visible"
             id="textext-e6385966-1"
             overflow="visible">
            <path
               inkscape:connector-curvature="0"
               id="path17422"
               d="m 4.671875,-3.703125 c 0,-0.546875 -0.265625,-0.703125 -0.4375,-0.703125 -0.25,0 -0.5,0.265625 -0.5,0.484375 0,0.125 0.046875,0.1875 0.15625,0.296875 0.21875,0.203125 0.34375,0.453125 0.34375,0.8125 0,0.421875 -0.609375,2.703125 -1.765625,2.703125 -0.515625,0 -0.75,-0.34375 -0.75,-0.875 0,-0.546875 0.28125,-1.28125 0.578125,-2.109375 0.078125,-0.171875 0.125,-0.3125 0.125,-0.5 0,-0.4375 -0.3125,-0.8125 -0.8125,-0.8125 -0.9375,0 -1.3125,1.453125 -1.3125,1.53125 0,0.109375 0.09375,0.109375 0.109375,0.109375 0.109375,0 0.109375,-0.03125 0.15625,-0.1875 0.296875,-1 0.71875,-1.234375 1.015625,-1.234375 0.078125,0 0.25,0 0.25,0.3125 0,0.25 -0.109375,0.53125 -0.171875,0.703125 -0.4375,1.15625 -0.5625,1.609375 -0.5625,2.046875 0,1.078125 0.875,1.234375 1.328125,1.234375 1.671875,0 2.25,-3.296875 2.25,-3.8125 z m 0,0"
               style="stroke:none" />
          </symbol>
          <symbol
             style="overflow:visible"
             id="textext-e6385966-2"
             overflow="visible">
            <path
               inkscape:connector-curvature="0"
               id="path17425"
               d="m 7.34375,-6.734375 -6.71875,0 -0.203125,2.40625 0.46875,0 c 0.09375,-1.125 0.1875,-1.9375 1.625,-1.9375 l 0.765625,0 0,5.796875 -1.53125,0 L 1.75,0 c 0.546875,-0.03125 1.65625,-0.03125 2.234375,-0.03125 0.59375,0 1.703125,0 2.234375,0.03125 l 0,-0.46875 -1.53125,0 0,-5.796875 0.765625,0 c 1.421875,0 1.53125,0.796875 1.625,1.9375 l 0.46875,0 z m 0,0"
               style="stroke:none" />
          </symbol>
          <symbol
             style="overflow:visible"
             id="textext-e6385966-3"
             overflow="visible">
            <path
               inkscape:connector-curvature="0"
               id="path17428"
               d="m 4.40625,-6.953125 c -0.0625,-0.140625 -0.09375,-0.1875 -0.265625,-0.1875 -0.15625,0 -0.1875,0.046875 -0.25,0.1875 l -3.375,6.75 C 0.46875,-0.109375 0.46875,-0.09375 0.46875,-0.078125 0.46875,0 0.53125,0 0.6875,0 l 6.921875,0 c 0.15625,0 0.21875,0 0.21875,-0.078125 0,-0.015625 0,-0.03125 -0.046875,-0.125 z m -0.578125,0.8125 2.6875,5.390625 -5.375,0 z m 0,0"
               style="stroke:none" />
          </symbol>
        </g>
      </defs>
      <g
         id="textext-e6385966-4">
        <g
           id="g17431"
           style="fill:#000000;fill-opacity:1">
          <use
             height="1052.3622"
             width="744.09448"
             id="use17433"
             y="131.72099"
             x="224.62801"
             xlink:href="#textext-e6385966-0" />
        </g>
        <g
           id="g17435"
           style="fill:#000000;fill-opacity:1">
          <use
             height="1052.3622"
             width="744.09448"
             id="use17437"
             y="131.72099"
             x="230.47"
             xlink:href="#textext-e6385966-2" />
        </g>
        <path
           inkscape:connector-curvature="0"
           id="path17439"
           transform="matrix(1,0,0,-1,224.628,135.97)"
           d="m 9.0625e-4,0.00125 13.81249975,0"
           style="fill:none;stroke:#000000;stroke-width:0.398;stroke-linecap:butt;stroke-linejoin:miter;stroke-miterlimit:10;stroke-opacity:1" />
        <g
           id="g17441"
           style="fill:#000000;fill-opacity:1">
          <use
             height="1052.3622"
             width="744.09448"
             id="use17443"
             y="145.29401"
             x="226.019"
             xlink:href="#textext-e6385966-0" />
        </g>
        <g
           id="g17445"
           style="fill:#000000;fill-opacity:1">
          <use
             height="1052.3622"
             width="744.09448"
             id="use17447"
             y="145.29401"
             x="231.86604"
             xlink:href="#textext-e6385966-1" />
        </g>
        <g
           id="g17449"
           style="fill:#000000;fill-opacity:1">
          <use
             height="1052.3622"
             width="744.09448"
             id="use17451"
             y="138.461"
             x="239.636"
             xlink:href="#textext-e6385966-3" />
        </g>
        <g
           id="g17453"
           style="fill:#000000;fill-opacity:1">
          <use
             height="1052.3622"
             width="744.09448"
             id="use17455"
             y="138.461"
             x="247.938"
             xlink:href="#textext-e6385966-1" />
        </g>
      </g>
    </g>
    <g
       ns0:text="$\\displaystyle \\frac{\\partial\\mathbf{T}}{\\partial u}\\Delta u$"
       ns0:preamble=""
       transform="matrix(1.215,0,0,1.215,237.88118,53.863986)"
       id="g17963">
      <defs
         id="defs17965">
        <g
           id="g17967">
          <symbol
             style="overflow:visible"
             overflow="visible"
             id="textext-bf4c8a67-0">
            <path
               inkscape:connector-curvature="0"
               style="stroke:none"
               d="m 4.609375,-3.375 c -0.09375,-0.625 -0.5,-1.1875 -1.28125,-1.1875 -0.609375,0 -1.25,0.171875 -2.03125,0.9375 -0.828125,0.828125 -0.890625,1.765625 -0.890625,2.0625 0,0.625 0.4375,1.78125 1.828125,1.78125 2.375,0 3.40625,-3.34375 3.40625,-4.78125 0,-1.578125 -0.921875,-2.578125 -2.15625,-2.578125 -1.4375,0 -1.90625,1.296875 -1.90625,1.578125 0,0.140625 0.09375,0.34375 0.390625,0.34375 0.328125,0 0.53125,-0.296875 0.53125,-0.515625 0,-0.359375 -0.3125,-0.359375 -0.46875,-0.359375 0.4375,-0.734375 1.15625,-0.796875 1.4375,-0.796875 0.734375,0 1.421875,0.515625 1.421875,1.8125 0,0.390625 -0.0625,0.890625 -0.265625,1.703125 z m -2.34375,3.3125 c -1.09375,0 -1.09375,-1.03125 -1.09375,-1.125 0,-0.265625 0.25,-1.65625 0.65625,-2.265625 0.390625,-0.5625 0.890625,-0.890625 1.5,-0.890625 1.09375,0 1.109375,1.125 1.109375,1.328125 0,0.71875 -0.640625,2.953125 -2.171875,2.953125 z m 0,0"
               id="path17970" />
          </symbol>
          <symbol
             style="overflow:visible"
             overflow="visible"
             id="textext-bf4c8a67-1">
            <path
               inkscape:connector-curvature="0"
               style="stroke:none"
               d="M 3.484375,-0.5625 C 3.59375,-0.15625 3.953125,0.109375 4.375,0.109375 4.71875,0.109375 4.953125,-0.125 5.109375,-0.4375 5.28125,-0.796875 5.40625,-1.40625 5.40625,-1.421875 c 0,-0.109375 -0.078125,-0.109375 -0.109375,-0.109375 -0.109375,0 -0.109375,0.046875 -0.140625,0.1875 -0.140625,0.5625 -0.328125,1.234375 -0.75,1.234375 -0.203125,0 -0.3125,-0.125 -0.3125,-0.453125 0,-0.21875 0.125,-0.6875 0.203125,-1.046875 L 4.578125,-2.6875 C 4.609375,-2.828125 4.703125,-3.203125 4.75,-3.359375 4.796875,-3.59375 4.890625,-3.96875 4.890625,-4.03125 c 0,-0.171875 -0.140625,-0.265625 -0.28125,-0.265625 -0.046875,0 -0.3125,0.015625 -0.390625,0.34375 -0.1875,0.734375 -0.625,2.484375 -0.75,3 -0.015625,0.046875 -0.40625,0.84375 -1.140625,0.84375 -0.515625,0 -0.609375,-0.453125 -0.609375,-0.8125 0,-0.5625 0.28125,-1.34375 0.53125,-2.03125 0.125,-0.3125 0.171875,-0.453125 0.171875,-0.640625 0,-0.4375 -0.3125,-0.8125 -0.8125,-0.8125 -0.953125,0 -1.3125,1.453125 -1.3125,1.53125 0,0.109375 0.09375,0.109375 0.109375,0.109375 0.109375,0 0.109375,-0.03125 0.15625,-0.1875 0.25,-0.859375 0.640625,-1.234375 1.015625,-1.234375 0.09375,0 0.25,0.015625 0.25,0.328125 0,0.234375 -0.109375,0.53125 -0.171875,0.671875 -0.375,1 -0.578125,1.609375 -0.578125,2.09375 0,0.953125 0.6875,1.203125 1.21875,1.203125 0.65625,0 1.015625,-0.453125 1.1875,-0.671875 z m 0,0"
               id="path17973" />
          </symbol>
          <symbol
             style="overflow:visible"
             overflow="visible"
             id="textext-bf4c8a67-2">
            <path
               inkscape:connector-curvature="0"
               style="stroke:none"
               d="m 7.34375,-6.734375 -6.71875,0 -0.203125,2.40625 0.46875,0 c 0.09375,-1.125 0.1875,-1.9375 1.625,-1.9375 l 0.765625,0 0,5.796875 -1.53125,0 L 1.75,0 c 0.546875,-0.03125 1.65625,-0.03125 2.234375,-0.03125 0.59375,0 1.703125,0 2.234375,0.03125 l 0,-0.46875 -1.53125,0 0,-5.796875 0.765625,0 c 1.421875,0 1.53125,0.796875 1.625,1.9375 l 0.46875,0 z m 0,0"
               id="path17976" />
          </symbol>
          <symbol
             style="overflow:visible"
             overflow="visible"
             id="textext-bf4c8a67-3">
            <path
               inkscape:connector-curvature="0"
               style="stroke:none"
               d="m 4.40625,-6.953125 c -0.0625,-0.140625 -0.09375,-0.1875 -0.265625,-0.1875 -0.15625,0 -0.1875,0.046875 -0.25,0.1875 l -3.375,6.75 C 0.46875,-0.109375 0.46875,-0.09375 0.46875,-0.078125 0.46875,0 0.53125,0 0.6875,0 l 6.921875,0 c 0.15625,0 0.21875,0 0.21875,-0.078125 0,-0.015625 0,-0.03125 -0.046875,-0.125 z m -0.578125,0.8125 2.6875,5.390625 -5.375,0 z m 0,0"
               id="path17979" />
          </symbol>
        </g>
      </defs>
      <g
         id="textext-bf4c8a67-4">
        <g
           style="fill:#000000;fill-opacity:1"
           id="g17982">
          <use
             height="1052.3622"
             width="744.09448"
             xlink:href="#textext-bf4c8a67-0"
             x="224.62801"
             y="131.72099"
             id="use17984" />
        </g>
        <g
           style="fill:#000000;fill-opacity:1"
           id="g17986">
          <use
             height="1052.3622"
             width="744.09448"
             xlink:href="#textext-bf4c8a67-2"
             x="230.47"
             y="131.72099"
             id="use17988" />
        </g>
        <path
           inkscape:connector-curvature="0"
           style="fill:none;stroke:#000000;stroke-width:0.398;stroke-linecap:butt;stroke-linejoin:miter;stroke-miterlimit:10;stroke-opacity:1"
           d="m 9.0625e-4,0.00125 13.81249975,0"
           transform="matrix(1,0,0,-1,224.628,135.97)"
           id="path17990" />
        <g
           style="fill:#000000;fill-opacity:1"
           id="g17992">
          <use
             height="1052.3622"
             width="744.09448"
             xlink:href="#textext-bf4c8a67-0"
             x="225.761"
             y="145.29401"
             id="use17994" />
        </g>
        <g
           style="fill:#000000;fill-opacity:1"
           id="g17996">
          <use
             height="1052.3622"
             width="744.09448"
             xlink:href="#textext-bf4c8a67-1"
             x="231.60805"
             y="145.29401"
             id="use17998" />
        </g>
        <g
           style="fill:#000000;fill-opacity:1"
           id="g18000">
          <use
             height="1052.3622"
             width="744.09448"
             xlink:href="#textext-bf4c8a67-3"
             x="239.636"
             y="138.461"
             id="use18002" />
        </g>
        <g
           style="fill:#000000;fill-opacity:1"
           id="g18004">
          <use
             height="1052.3622"
             width="744.09448"
             xlink:href="#textext-bf4c8a67-1"
             x="247.938"
             y="138.461"
             id="use18006" />
        </g>
      </g>
    </g>
    <path
       sodipodi:nodetypes="cc"
       inkscape:connector-curvature="0"
       id="path18354"
       d="m 508.10673,189.6919 10.60661,13.13199"
       style="fill:none;stroke:#800000;stroke-width:2;stroke-linecap:butt;stroke-linejoin:miter;stroke-miterlimit:4;stroke-opacity:1;stroke-dasharray:none;stroke-dashoffset:0" />
    <path
       sodipodi:nodetypes="cc"
       inkscape:connector-curvature="0"
       id="path18356"
       d="m 418.20315,195.75283 19.69798,-9.59646"
       style="fill:none;stroke:#800000;stroke-width:2;stroke-linecap:butt;stroke-linejoin:miter;stroke-miterlimit:4;stroke-opacity:1;stroke-dasharray:none;stroke-dashoffset:0" />
  </g>
</svg>
