<?xml version="1.0" encoding="UTF-8" standalone="no"?>
<!-- Created with Inkscape (http://www.inkscape.org/) -->

<svg
   xmlns:ns0="http://www.iki.fi/pav/software/textext/"
   xmlns:dc="http://purl.org/dc/elements/1.1/"
   xmlns:cc="http://creativecommons.org/ns#"
   xmlns:rdf="http://www.w3.org/1999/02/22-rdf-syntax-ns#"
   xmlns:svg="http://www.w3.org/2000/svg"
   xmlns="http://www.w3.org/2000/svg"
   xmlns:xlink="http://www.w3.org/1999/xlink"
   xmlns:sodipodi="http://sodipodi.sourceforge.net/DTD/sodipodi-0.dtd"
   xmlns:inkscape="http://www.inkscape.org/namespaces/inkscape"
   width="744.09448819"
   height="1052.3622047"
   id="svg3033"
   version="1.1"
   inkscape:version="0.48.1 r9760"
   sodipodi:docname="change_variable_area_transformation.svg"
   inkscape:export-filename="/home/nykamp/djangocode/mathinsight/materials/change_variable_area_transformation.png"
   inkscape:export-xdpi="110"
   inkscape:export-ydpi="110">
  <sodipodi:namedview
     id="base"
     pagecolor="#ffffff"
     bordercolor="#666666"
     borderopacity="1.0"
     inkscape:pageopacity="0.0"
     inkscape:pageshadow="2"
     inkscape:zoom="1.4"
     inkscape:cx="386.20159"
     inkscape:cy="868.35313"
     inkscape:document-units="px"
     inkscape:current-layer="layer1"
     showgrid="true"
     inkscape:window-width="1294"
     inkscape:window-height="808"
     inkscape:window-x="3"
     inkscape:window-y="23"
     inkscape:window-maximized="0"
     inkscape:snap-global="false">
    <inkscape:grid
       id="grid3041"
       type="xygrid" />
  </sodipodi:namedview>
  <defs
     id="defs3035">
    <marker
       style="overflow:visible"
       id="TriangleOutM"
       refX="0.0"
       refY="0.0"
       orient="auto"
       inkscape:stockid="TriangleOutM">
      <path
         transform="scale(0.4)"
         style="fill-rule:evenodd;stroke:#000000;stroke-width:1.0pt;marker-start:none"
         d="M 5.77,0.0 L -2.88,5.0 L -2.88,-5.0 L 5.77,0.0 z "
         id="path8315" />
    </marker>
    <marker
       style="overflow:visible;"
       id="Arrow2Mend"
       refX="0.0"
       refY="0.0"
       orient="auto"
       inkscape:stockid="Arrow2Mend">
      <path
         transform="scale(0.6) rotate(180) translate(0,0)"
         d="M 8.7185878,4.0337352 L -2.2072895,0.016013256 L 8.7185884,-4.0017078 C 6.9730900,-1.6296469 6.9831476,1.6157441 8.7185878,4.0337352 z "
         style="font-size:12.0;fill-rule:evenodd;stroke-width:0.62500000;stroke-linejoin:round;"
         id="path8196" />
    </marker>
    <marker
       style="overflow:visible;"
       id="Arrow2Send"
       refX="0.0"
       refY="0.0"
       orient="auto"
       inkscape:stockid="Arrow2Send">
      <path
         transform="scale(0.3) rotate(180) translate(-2.3,0)"
         d="M 8.7185878,4.0337352 L -2.2072895,0.016013256 L 8.7185884,-4.0017078 C 6.9730900,-1.6296469 6.9831476,1.6157441 8.7185878,4.0337352 z "
         style="font-size:12.0;fill-rule:evenodd;stroke-width:0.62500000;stroke-linejoin:round;"
         id="path8202" />
    </marker>
  </defs>
  <metadata
     id="metadata3038">
    <rdf:RDF>
      <cc:Work
         rdf:about="">
        <dc:format>image/svg+xml</dc:format>
        <dc:type
           rdf:resource="http://purl.org/dc/dcmitype/StillImage" />
        <dc:title />
      </cc:Work>
    </rdf:RDF>
  </metadata>
  <g
     id="layer1"
     inkscape:groupmode="layer"
     inkscape:label="Layer 1">
    <path
       sodipodi:nodetypes="ccc"
       inkscape:connector-curvature="0"
       id="path3043"
       d="m 50,52.362183 0,199.999997 200,0"
       style="fill:none;stroke:#000000;stroke-width:3;stroke-linecap:butt;stroke-linejoin:miter;stroke-miterlimit:4;stroke-opacity:1;stroke-dasharray:none;stroke-dashoffset:0" />
    <rect
       ry="0.18890198"
       rx="0.15745553"
       y="92.362183"
       x="100"
       height="110"
       width="130"
       id="rect3045"
       style="fill:#00ff00;stroke:#000000;stroke-width:4;stroke-linecap:butt;stroke-linejoin:miter;stroke-miterlimit:4;stroke-opacity:1;stroke-dasharray:none;stroke-dashoffset:0" />
    <g
       id="g4165"
       ns0:preamble=""
       ns0:text="$(u,v+\\Delta v)$"
       transform="matrix(1.5,0,0,1.5,-266.42857,-121.42857)">
      <defs
         id="defs4167">
        <g
           id="g4169">
          <symbol
             style="overflow:visible"
             id="textext-ad2320e9-0"
             overflow="visible">
            <path
               inkscape:connector-curvature="0"
               id="path4172"
               d="m 3.296875,2.390625 c 0,-0.03125 0,-0.046875 -0.171875,-0.21875 C 1.890625,0.921875 1.5625,-0.96875 1.5625,-2.5 c 0,-1.734375 0.375,-3.46875 1.609375,-4.703125 0.125,-0.125 0.125,-0.140625 0.125,-0.171875 0,-0.078125 -0.03125,-0.109375 -0.09375,-0.109375 -0.109375,0 -1,0.6875 -1.59375,1.953125 -0.5,1.09375 -0.625,2.203125 -0.625,3.03125 0,0.78125 0.109375,1.984375 0.65625,3.125 C 2.25,1.84375 3.09375,2.5 3.203125,2.5 c 0.0625,0 0.09375,-0.03125 0.09375,-0.109375 z m 0,0"
               style="stroke:none" />
          </symbol>
          <symbol
             style="overflow:visible"
             id="textext-ad2320e9-1"
             overflow="visible">
            <path
               inkscape:connector-curvature="0"
               id="path4175"
               d="m 4.078125,-2.296875 2.78125,0 C 7,-2.296875 7.1875,-2.296875 7.1875,-2.5 7.1875,-2.6875 7,-2.6875 6.859375,-2.6875 l -2.78125,0 0,-2.796875 c 0,-0.140625 0,-0.328125 -0.203125,-0.328125 -0.203125,0 -0.203125,0.1875 -0.203125,0.328125 l 0,2.796875 -2.78125,0 c -0.140625,0 -0.328125,0 -0.328125,0.1875 0,0.203125 0.1875,0.203125 0.328125,0.203125 l 2.78125,0 0,2.796875 c 0,0.140625 0,0.328125 0.203125,0.328125 0.203125,0 0.203125,-0.1875 0.203125,-0.328125 z m 0,0"
               style="stroke:none" />
          </symbol>
          <symbol
             style="overflow:visible"
             id="textext-ad2320e9-2"
             overflow="visible">
            <path
               inkscape:connector-curvature="0"
               id="path4178"
               d="m 4.40625,-6.953125 c -0.0625,-0.140625 -0.09375,-0.1875 -0.265625,-0.1875 -0.15625,0 -0.1875,0.046875 -0.25,0.1875 l -3.375,6.75 C 0.46875,-0.109375 0.46875,-0.09375 0.46875,-0.078125 0.46875,0 0.53125,0 0.6875,0 l 6.921875,0 c 0.15625,0 0.21875,0 0.21875,-0.078125 0,-0.015625 0,-0.03125 -0.046875,-0.125 z m -0.578125,0.8125 2.6875,5.390625 -5.375,0 z m 0,0"
               style="stroke:none" />
          </symbol>
          <symbol
             style="overflow:visible"
             id="textext-ad2320e9-3"
             overflow="visible">
            <path
               inkscape:connector-curvature="0"
               id="path4181"
               d="m 2.875,-2.5 c 0,-0.765625 -0.109375,-1.96875 -0.65625,-3.109375 -0.59375,-1.21875 -1.453125,-1.875 -1.546875,-1.875 -0.0625,0 -0.109375,0.046875 -0.109375,0.109375 0,0.03125 0,0.046875 0.1875,0.234375 0.984375,0.984375 1.546875,2.5625 1.546875,4.640625 0,1.71875 -0.359375,3.46875 -1.59375,4.71875 C 0.5625,2.34375 0.5625,2.359375 0.5625,2.390625 0.5625,2.453125 0.609375,2.5 0.671875,2.5 0.765625,2.5 1.671875,1.8125 2.25,0.546875 2.765625,-0.546875 2.875,-1.65625 2.875,-2.5 z m 0,0"
               style="stroke:none" />
          </symbol>
          <symbol
             style="overflow:visible"
             id="textext-ad2320e9-4"
             overflow="visible">
            <path
               inkscape:connector-curvature="0"
               id="path4184"
               d="M 3.484375,-0.5625 C 3.59375,-0.15625 3.953125,0.109375 4.375,0.109375 4.71875,0.109375 4.953125,-0.125 5.109375,-0.4375 5.28125,-0.796875 5.40625,-1.40625 5.40625,-1.421875 c 0,-0.109375 -0.078125,-0.109375 -0.109375,-0.109375 -0.109375,0 -0.109375,0.046875 -0.140625,0.1875 -0.140625,0.5625 -0.328125,1.234375 -0.75,1.234375 -0.203125,0 -0.3125,-0.125 -0.3125,-0.453125 0,-0.21875 0.125,-0.6875 0.203125,-1.046875 L 4.578125,-2.6875 C 4.609375,-2.828125 4.703125,-3.203125 4.75,-3.359375 4.796875,-3.59375 4.890625,-3.96875 4.890625,-4.03125 c 0,-0.171875 -0.140625,-0.265625 -0.28125,-0.265625 -0.046875,0 -0.3125,0.015625 -0.390625,0.34375 -0.1875,0.734375 -0.625,2.484375 -0.75,3 -0.015625,0.046875 -0.40625,0.84375 -1.140625,0.84375 -0.515625,0 -0.609375,-0.453125 -0.609375,-0.8125 0,-0.5625 0.28125,-1.34375 0.53125,-2.03125 0.125,-0.3125 0.171875,-0.453125 0.171875,-0.640625 0,-0.4375 -0.3125,-0.8125 -0.8125,-0.8125 -0.953125,0 -1.3125,1.453125 -1.3125,1.53125 0,0.109375 0.09375,0.109375 0.109375,0.109375 0.109375,0 0.109375,-0.03125 0.15625,-0.1875 0.25,-0.859375 0.640625,-1.234375 1.015625,-1.234375 0.09375,0 0.25,0.015625 0.25,0.328125 0,0.234375 -0.109375,0.53125 -0.171875,0.671875 -0.375,1 -0.578125,1.609375 -0.578125,2.09375 0,0.953125 0.6875,1.203125 1.21875,1.203125 0.65625,0 1.015625,-0.453125 1.1875,-0.671875 z m 0,0"
               style="stroke:none" />
          </symbol>
          <symbol
             style="overflow:visible"
             id="textext-ad2320e9-5"
             overflow="visible">
            <path
               inkscape:connector-curvature="0"
               id="path4187"
               d="m 2.03125,-0.015625 c 0,-0.65625 -0.25,-1.046875 -0.640625,-1.046875 -0.328125,0 -0.53125,0.25 -0.53125,0.53125 C 0.859375,-0.265625 1.0625,0 1.390625,0 1.5,0 1.640625,-0.046875 1.734375,-0.125 1.765625,-0.15625 1.78125,-0.15625 1.78125,-0.15625 c 0.015625,0 0.015625,0 0.015625,0.140625 0,0.75 -0.34375,1.34375 -0.671875,1.671875 -0.109375,0.109375 -0.109375,0.125 -0.109375,0.15625 0,0.078125 0.046875,0.109375 0.09375,0.109375 0.109375,0 0.921875,-0.765625 0.921875,-1.9375 z m 0,0"
               style="stroke:none" />
          </symbol>
          <symbol
             style="overflow:visible"
             id="textext-ad2320e9-6"
             overflow="visible">
            <path
               inkscape:connector-curvature="0"
               id="path4190"
               d="m 4.671875,-3.703125 c 0,-0.546875 -0.265625,-0.703125 -0.4375,-0.703125 -0.25,0 -0.5,0.265625 -0.5,0.484375 0,0.125 0.046875,0.1875 0.15625,0.296875 0.21875,0.203125 0.34375,0.453125 0.34375,0.8125 0,0.421875 -0.609375,2.703125 -1.765625,2.703125 -0.515625,0 -0.75,-0.34375 -0.75,-0.875 0,-0.546875 0.28125,-1.28125 0.578125,-2.109375 0.078125,-0.171875 0.125,-0.3125 0.125,-0.5 0,-0.4375 -0.3125,-0.8125 -0.8125,-0.8125 -0.9375,0 -1.3125,1.453125 -1.3125,1.53125 0,0.109375 0.09375,0.109375 0.109375,0.109375 0.109375,0 0.109375,-0.03125 0.15625,-0.1875 0.296875,-1 0.71875,-1.234375 1.015625,-1.234375 0.078125,0 0.25,0 0.25,0.3125 0,0.25 -0.109375,0.53125 -0.171875,0.703125 -0.4375,1.15625 -0.5625,1.609375 -0.5625,2.046875 0,1.078125 0.875,1.234375 1.328125,1.234375 1.671875,0 2.25,-3.296875 2.25,-3.8125 z m 0,0"
               style="stroke:none" />
          </symbol>
        </g>
      </defs>
      <g
         id="textext-ad2320e9-7">
        <g
           id="g4193"
           style="fill:#000000;fill-opacity:1">
          <use
             height="1052.3622"
             width="744.09448"
             id="use4195"
             y="134.765"
             x="223.43201"
             xlink:href="#textext-ad2320e9-0" />
        </g>
        <g
           id="g4197"
           style="fill:#000000;fill-opacity:1">
          <use
             height="1052.3622"
             width="744.09448"
             id="use4199"
             y="134.765"
             x="227.306"
             xlink:href="#textext-ad2320e9-4" />
          <use
             height="1052.3622"
             width="744.09448"
             id="use4201"
             y="134.765"
             x="233.00958"
             xlink:href="#textext-ad2320e9-5" />
        </g>
        <g
           id="g4203"
           style="fill:#000000;fill-opacity:1">
          <use
             height="1052.3622"
             width="744.09448"
             id="use4205"
             y="134.765"
             x="237.44095"
             xlink:href="#textext-ad2320e9-6" />
        </g>
        <g
           id="g4207"
           style="fill:#000000;fill-opacity:1">
          <use
             height="1052.3622"
             width="744.09448"
             id="use4209"
             y="134.765"
             x="244.838"
             xlink:href="#textext-ad2320e9-1" />
        </g>
        <g
           id="g4211"
           style="fill:#000000;fill-opacity:1">
          <use
             height="1052.3622"
             width="744.09448"
             id="use4213"
             y="134.765"
             x="254.79861"
             xlink:href="#textext-ad2320e9-2" />
        </g>
        <g
           id="g4215"
           style="fill:#000000;fill-opacity:1">
          <use
             height="1052.3622"
             width="744.09448"
             id="use4217"
             y="134.765"
             x="263.103"
             xlink:href="#textext-ad2320e9-6" />
        </g>
        <g
           id="g4219"
           style="fill:#000000;fill-opacity:1">
          <use
             height="1052.3622"
             width="744.09448"
             id="use4221"
             y="134.765"
             x="268.289"
             xlink:href="#textext-ad2320e9-3" />
        </g>
      </g>
    </g>
    <g
       ns0:text="$(u+\\Delta u,v+\\Delta v)$"
       ns0:preamble=""
       transform="matrix(1.5,0,0,1.5,-154.28571,-121.42858)"
       id="g4549">
      <defs
         id="defs4551">
        <g
           id="g4553">
          <symbol
             style="overflow:visible"
             overflow="visible"
             id="textext-927fce59-0">
            <path
               inkscape:connector-curvature="0"
               style="stroke:none"
               d="m 3.296875,2.390625 c 0,-0.03125 0,-0.046875 -0.171875,-0.21875 C 1.890625,0.921875 1.5625,-0.96875 1.5625,-2.5 c 0,-1.734375 0.375,-3.46875 1.609375,-4.703125 0.125,-0.125 0.125,-0.140625 0.125,-0.171875 0,-0.078125 -0.03125,-0.109375 -0.09375,-0.109375 -0.109375,0 -1,0.6875 -1.59375,1.953125 -0.5,1.09375 -0.625,2.203125 -0.625,3.03125 0,0.78125 0.109375,1.984375 0.65625,3.125 C 2.25,1.84375 3.09375,2.5 3.203125,2.5 c 0.0625,0 0.09375,-0.03125 0.09375,-0.109375 z m 0,0"
               id="path4556" />
          </symbol>
          <symbol
             style="overflow:visible"
             overflow="visible"
             id="textext-927fce59-1">
            <path
               inkscape:connector-curvature="0"
               style="stroke:none"
               d="m 4.078125,-2.296875 2.78125,0 C 7,-2.296875 7.1875,-2.296875 7.1875,-2.5 7.1875,-2.6875 7,-2.6875 6.859375,-2.6875 l -2.78125,0 0,-2.796875 c 0,-0.140625 0,-0.328125 -0.203125,-0.328125 -0.203125,0 -0.203125,0.1875 -0.203125,0.328125 l 0,2.796875 -2.78125,0 c -0.140625,0 -0.328125,0 -0.328125,0.1875 0,0.203125 0.1875,0.203125 0.328125,0.203125 l 2.78125,0 0,2.796875 c 0,0.140625 0,0.328125 0.203125,0.328125 0.203125,0 0.203125,-0.1875 0.203125,-0.328125 z m 0,0"
               id="path4559" />
          </symbol>
          <symbol
             style="overflow:visible"
             overflow="visible"
             id="textext-927fce59-2">
            <path
               inkscape:connector-curvature="0"
               style="stroke:none"
               d="m 4.40625,-6.953125 c -0.0625,-0.140625 -0.09375,-0.1875 -0.265625,-0.1875 -0.15625,0 -0.1875,0.046875 -0.25,0.1875 l -3.375,6.75 C 0.46875,-0.109375 0.46875,-0.09375 0.46875,-0.078125 0.46875,0 0.53125,0 0.6875,0 l 6.921875,0 c 0.15625,0 0.21875,0 0.21875,-0.078125 0,-0.015625 0,-0.03125 -0.046875,-0.125 z m -0.578125,0.8125 2.6875,5.390625 -5.375,0 z m 0,0"
               id="path4562" />
          </symbol>
          <symbol
             style="overflow:visible"
             overflow="visible"
             id="textext-927fce59-3">
            <path
               inkscape:connector-curvature="0"
               style="stroke:none"
               d="m 2.875,-2.5 c 0,-0.765625 -0.109375,-1.96875 -0.65625,-3.109375 -0.59375,-1.21875 -1.453125,-1.875 -1.546875,-1.875 -0.0625,0 -0.109375,0.046875 -0.109375,0.109375 0,0.03125 0,0.046875 0.1875,0.234375 0.984375,0.984375 1.546875,2.5625 1.546875,4.640625 0,1.71875 -0.359375,3.46875 -1.59375,4.71875 C 0.5625,2.34375 0.5625,2.359375 0.5625,2.390625 0.5625,2.453125 0.609375,2.5 0.671875,2.5 0.765625,2.5 1.671875,1.8125 2.25,0.546875 2.765625,-0.546875 2.875,-1.65625 2.875,-2.5 z m 0,0"
               id="path4565" />
          </symbol>
          <symbol
             style="overflow:visible"
             overflow="visible"
             id="textext-927fce59-4">
            <path
               inkscape:connector-curvature="0"
               style="stroke:none"
               d="M 3.484375,-0.5625 C 3.59375,-0.15625 3.953125,0.109375 4.375,0.109375 4.71875,0.109375 4.953125,-0.125 5.109375,-0.4375 5.28125,-0.796875 5.40625,-1.40625 5.40625,-1.421875 c 0,-0.109375 -0.078125,-0.109375 -0.109375,-0.109375 -0.109375,0 -0.109375,0.046875 -0.140625,0.1875 -0.140625,0.5625 -0.328125,1.234375 -0.75,1.234375 -0.203125,0 -0.3125,-0.125 -0.3125,-0.453125 0,-0.21875 0.125,-0.6875 0.203125,-1.046875 L 4.578125,-2.6875 C 4.609375,-2.828125 4.703125,-3.203125 4.75,-3.359375 4.796875,-3.59375 4.890625,-3.96875 4.890625,-4.03125 c 0,-0.171875 -0.140625,-0.265625 -0.28125,-0.265625 -0.046875,0 -0.3125,0.015625 -0.390625,0.34375 -0.1875,0.734375 -0.625,2.484375 -0.75,3 -0.015625,0.046875 -0.40625,0.84375 -1.140625,0.84375 -0.515625,0 -0.609375,-0.453125 -0.609375,-0.8125 0,-0.5625 0.28125,-1.34375 0.53125,-2.03125 0.125,-0.3125 0.171875,-0.453125 0.171875,-0.640625 0,-0.4375 -0.3125,-0.8125 -0.8125,-0.8125 -0.953125,0 -1.3125,1.453125 -1.3125,1.53125 0,0.109375 0.09375,0.109375 0.109375,0.109375 0.109375,0 0.109375,-0.03125 0.15625,-0.1875 0.25,-0.859375 0.640625,-1.234375 1.015625,-1.234375 0.09375,0 0.25,0.015625 0.25,0.328125 0,0.234375 -0.109375,0.53125 -0.171875,0.671875 -0.375,1 -0.578125,1.609375 -0.578125,2.09375 0,0.953125 0.6875,1.203125 1.21875,1.203125 0.65625,0 1.015625,-0.453125 1.1875,-0.671875 z m 0,0"
               id="path4568" />
          </symbol>
          <symbol
             style="overflow:visible"
             overflow="visible"
             id="textext-927fce59-5">
            <path
               inkscape:connector-curvature="0"
               style="stroke:none"
               d="m 2.03125,-0.015625 c 0,-0.65625 -0.25,-1.046875 -0.640625,-1.046875 -0.328125,0 -0.53125,0.25 -0.53125,0.53125 C 0.859375,-0.265625 1.0625,0 1.390625,0 1.5,0 1.640625,-0.046875 1.734375,-0.125 1.765625,-0.15625 1.78125,-0.15625 1.78125,-0.15625 c 0.015625,0 0.015625,0 0.015625,0.140625 0,0.75 -0.34375,1.34375 -0.671875,1.671875 -0.109375,0.109375 -0.109375,0.125 -0.109375,0.15625 0,0.078125 0.046875,0.109375 0.09375,0.109375 0.109375,0 0.921875,-0.765625 0.921875,-1.9375 z m 0,0"
               id="path4571" />
          </symbol>
          <symbol
             style="overflow:visible"
             overflow="visible"
             id="textext-927fce59-6">
            <path
               inkscape:connector-curvature="0"
               style="stroke:none"
               d="m 4.671875,-3.703125 c 0,-0.546875 -0.265625,-0.703125 -0.4375,-0.703125 -0.25,0 -0.5,0.265625 -0.5,0.484375 0,0.125 0.046875,0.1875 0.15625,0.296875 0.21875,0.203125 0.34375,0.453125 0.34375,0.8125 0,0.421875 -0.609375,2.703125 -1.765625,2.703125 -0.515625,0 -0.75,-0.34375 -0.75,-0.875 0,-0.546875 0.28125,-1.28125 0.578125,-2.109375 0.078125,-0.171875 0.125,-0.3125 0.125,-0.5 0,-0.4375 -0.3125,-0.8125 -0.8125,-0.8125 -0.9375,0 -1.3125,1.453125 -1.3125,1.53125 0,0.109375 0.09375,0.109375 0.109375,0.109375 0.109375,0 0.109375,-0.03125 0.15625,-0.1875 0.296875,-1 0.71875,-1.234375 1.015625,-1.234375 0.078125,0 0.25,0 0.25,0.3125 0,0.25 -0.109375,0.53125 -0.171875,0.703125 -0.4375,1.15625 -0.5625,1.609375 -0.5625,2.046875 0,1.078125 0.875,1.234375 1.328125,1.234375 1.671875,0 2.25,-3.296875 2.25,-3.8125 z m 0,0"
               id="path4574" />
          </symbol>
        </g>
      </defs>
      <g
         id="textext-927fce59-7">
        <g
           style="fill:#000000;fill-opacity:1"
           id="g4577">
          <use
             height="1052.3622"
             width="744.09448"
             xlink:href="#textext-927fce59-0"
             x="223.43201"
             y="134.765"
             id="use4579" />
        </g>
        <g
           style="fill:#000000;fill-opacity:1"
           id="g4581">
          <use
             height="1052.3622"
             width="744.09448"
             xlink:href="#textext-927fce59-4"
             x="227.306"
             y="134.765"
             id="use4583" />
        </g>
        <g
           style="fill:#000000;fill-opacity:1"
           id="g4585">
          <use
             height="1052.3622"
             width="744.09448"
             xlink:href="#textext-927fce59-1"
             x="235.224"
             y="134.765"
             id="use4587" />
        </g>
        <g
           style="fill:#000000;fill-opacity:1"
           id="g4589">
          <use
             height="1052.3622"
             width="744.09448"
             xlink:href="#textext-927fce59-2"
             x="245.1846"
             y="134.765"
             id="use4591" />
        </g>
        <g
           style="fill:#000000;fill-opacity:1"
           id="g4593">
          <use
             height="1052.3622"
             width="744.09448"
             xlink:href="#textext-927fce59-4"
             x="253.48801"
             y="134.765"
             id="use4595" />
          <use
             height="1052.3622"
             width="744.09448"
             xlink:href="#textext-927fce59-5"
             x="259.19159"
             y="134.765"
             id="use4597" />
        </g>
        <g
           style="fill:#000000;fill-opacity:1"
           id="g4599">
          <use
             height="1052.3622"
             width="744.09448"
             xlink:href="#textext-927fce59-6"
             x="263.62296"
             y="134.765"
             id="use4601" />
        </g>
        <g
           style="fill:#000000;fill-opacity:1"
           id="g4603">
          <use
             height="1052.3622"
             width="744.09448"
             xlink:href="#textext-927fce59-1"
             x="271.01999"
             y="134.765"
             id="use4605" />
        </g>
        <g
           style="fill:#000000;fill-opacity:1"
           id="g4607">
          <use
             height="1052.3622"
             width="744.09448"
             xlink:href="#textext-927fce59-2"
             x="280.98062"
             y="134.765"
             id="use4609" />
        </g>
        <g
           style="fill:#000000;fill-opacity:1"
           id="g4611">
          <use
             height="1052.3622"
             width="744.09448"
             xlink:href="#textext-927fce59-6"
             x="289.285"
             y="134.765"
             id="use4613" />
        </g>
        <g
           style="fill:#000000;fill-opacity:1"
           id="g4615">
          <use
             height="1052.3622"
             width="744.09448"
             xlink:href="#textext-927fce59-3"
             x="294.47101"
             y="134.765"
             id="use4617" />
        </g>
      </g>
    </g>
    <g
       id="g4980"
       transform="matrix(1.5,0,0,1.5,-248.57143,19.999996)"
       ns0:preamble=""
       ns0:text="$(u,v)$">
      <defs
         id="defs4982">
        <g
           id="g4984">
          <symbol
             style="overflow:visible"
             id="textext-0b881bb2-0"
             overflow="visible">
            <path
               inkscape:connector-curvature="0"
               id="path4987"
               d="m 3.296875,2.390625 c 0,-0.03125 0,-0.046875 -0.171875,-0.21875 C 1.890625,0.921875 1.5625,-0.96875 1.5625,-2.5 c 0,-1.734375 0.375,-3.46875 1.609375,-4.703125 0.125,-0.125 0.125,-0.140625 0.125,-0.171875 0,-0.078125 -0.03125,-0.109375 -0.09375,-0.109375 -0.109375,0 -1,0.6875 -1.59375,1.953125 -0.5,1.09375 -0.625,2.203125 -0.625,3.03125 0,0.78125 0.109375,1.984375 0.65625,3.125 C 2.25,1.84375 3.09375,2.5 3.203125,2.5 c 0.0625,0 0.09375,-0.03125 0.09375,-0.109375 z m 0,0"
               style="stroke:none" />
          </symbol>
          <symbol
             style="overflow:visible"
             id="textext-0b881bb2-1"
             overflow="visible">
            <path
               inkscape:connector-curvature="0"
               id="path4990"
               d="m 2.875,-2.5 c 0,-0.765625 -0.109375,-1.96875 -0.65625,-3.109375 -0.59375,-1.21875 -1.453125,-1.875 -1.546875,-1.875 -0.0625,0 -0.109375,0.046875 -0.109375,0.109375 0,0.03125 0,0.046875 0.1875,0.234375 0.984375,0.984375 1.546875,2.5625 1.546875,4.640625 0,1.71875 -0.359375,3.46875 -1.59375,4.71875 C 0.5625,2.34375 0.5625,2.359375 0.5625,2.390625 0.5625,2.453125 0.609375,2.5 0.671875,2.5 0.765625,2.5 1.671875,1.8125 2.25,0.546875 2.765625,-0.546875 2.875,-1.65625 2.875,-2.5 z m 0,0"
               style="stroke:none" />
          </symbol>
          <symbol
             style="overflow:visible"
             id="textext-0b881bb2-2"
             overflow="visible">
            <path
               inkscape:connector-curvature="0"
               id="path4993"
               d="M 3.484375,-0.5625 C 3.59375,-0.15625 3.953125,0.109375 4.375,0.109375 4.71875,0.109375 4.953125,-0.125 5.109375,-0.4375 5.28125,-0.796875 5.40625,-1.40625 5.40625,-1.421875 c 0,-0.109375 -0.078125,-0.109375 -0.109375,-0.109375 -0.109375,0 -0.109375,0.046875 -0.140625,0.1875 -0.140625,0.5625 -0.328125,1.234375 -0.75,1.234375 -0.203125,0 -0.3125,-0.125 -0.3125,-0.453125 0,-0.21875 0.125,-0.6875 0.203125,-1.046875 L 4.578125,-2.6875 C 4.609375,-2.828125 4.703125,-3.203125 4.75,-3.359375 4.796875,-3.59375 4.890625,-3.96875 4.890625,-4.03125 c 0,-0.171875 -0.140625,-0.265625 -0.28125,-0.265625 -0.046875,0 -0.3125,0.015625 -0.390625,0.34375 -0.1875,0.734375 -0.625,2.484375 -0.75,3 -0.015625,0.046875 -0.40625,0.84375 -1.140625,0.84375 -0.515625,0 -0.609375,-0.453125 -0.609375,-0.8125 0,-0.5625 0.28125,-1.34375 0.53125,-2.03125 0.125,-0.3125 0.171875,-0.453125 0.171875,-0.640625 0,-0.4375 -0.3125,-0.8125 -0.8125,-0.8125 -0.953125,0 -1.3125,1.453125 -1.3125,1.53125 0,0.109375 0.09375,0.109375 0.109375,0.109375 0.109375,0 0.109375,-0.03125 0.15625,-0.1875 0.25,-0.859375 0.640625,-1.234375 1.015625,-1.234375 0.09375,0 0.25,0.015625 0.25,0.328125 0,0.234375 -0.109375,0.53125 -0.171875,0.671875 -0.375,1 -0.578125,1.609375 -0.578125,2.09375 0,0.953125 0.6875,1.203125 1.21875,1.203125 0.65625,0 1.015625,-0.453125 1.1875,-0.671875 z m 0,0"
               style="stroke:none" />
          </symbol>
          <symbol
             style="overflow:visible"
             id="textext-0b881bb2-3"
             overflow="visible">
            <path
               inkscape:connector-curvature="0"
               id="path4996"
               d="m 2.03125,-0.015625 c 0,-0.65625 -0.25,-1.046875 -0.640625,-1.046875 -0.328125,0 -0.53125,0.25 -0.53125,0.53125 C 0.859375,-0.265625 1.0625,0 1.390625,0 1.5,0 1.640625,-0.046875 1.734375,-0.125 1.765625,-0.15625 1.78125,-0.15625 1.78125,-0.15625 c 0.015625,0 0.015625,0 0.015625,0.140625 0,0.75 -0.34375,1.34375 -0.671875,1.671875 -0.109375,0.109375 -0.109375,0.125 -0.109375,0.15625 0,0.078125 0.046875,0.109375 0.09375,0.109375 0.109375,0 0.921875,-0.765625 0.921875,-1.9375 z m 0,0"
               style="stroke:none" />
          </symbol>
          <symbol
             style="overflow:visible"
             id="textext-0b881bb2-4"
             overflow="visible">
            <path
               inkscape:connector-curvature="0"
               id="path4999"
               d="m 4.671875,-3.703125 c 0,-0.546875 -0.265625,-0.703125 -0.4375,-0.703125 -0.25,0 -0.5,0.265625 -0.5,0.484375 0,0.125 0.046875,0.1875 0.15625,0.296875 0.21875,0.203125 0.34375,0.453125 0.34375,0.8125 0,0.421875 -0.609375,2.703125 -1.765625,2.703125 -0.515625,0 -0.75,-0.34375 -0.75,-0.875 0,-0.546875 0.28125,-1.28125 0.578125,-2.109375 0.078125,-0.171875 0.125,-0.3125 0.125,-0.5 0,-0.4375 -0.3125,-0.8125 -0.8125,-0.8125 -0.9375,0 -1.3125,1.453125 -1.3125,1.53125 0,0.109375 0.09375,0.109375 0.109375,0.109375 0.109375,0 0.109375,-0.03125 0.15625,-0.1875 0.296875,-1 0.71875,-1.234375 1.015625,-1.234375 0.078125,0 0.25,0 0.25,0.3125 0,0.25 -0.109375,0.53125 -0.171875,0.703125 -0.4375,1.15625 -0.5625,1.609375 -0.5625,2.046875 0,1.078125 0.875,1.234375 1.328125,1.234375 1.671875,0 2.25,-3.296875 2.25,-3.8125 z m 0,0"
               style="stroke:none" />
          </symbol>
        </g>
      </defs>
      <g
         id="textext-0b881bb2-5">
        <g
           id="g5002"
           style="fill:#000000;fill-opacity:1">
          <use
             height="1052.3622"
             width="744.09448"
             id="use5004"
             y="134.765"
             x="223.43201"
             xlink:href="#textext-0b881bb2-0" />
        </g>
        <g
           id="g5006"
           style="fill:#000000;fill-opacity:1">
          <use
             height="1052.3622"
             width="744.09448"
             id="use5008"
             y="134.765"
             x="227.306"
             xlink:href="#textext-0b881bb2-2" />
          <use
             height="1052.3622"
             width="744.09448"
             id="use5010"
             y="134.765"
             x="233.00958"
             xlink:href="#textext-0b881bb2-3" />
        </g>
        <g
           id="g5012"
           style="fill:#000000;fill-opacity:1">
          <use
             height="1052.3622"
             width="744.09448"
             id="use5014"
             y="134.765"
             x="237.44095"
             xlink:href="#textext-0b881bb2-4" />
        </g>
        <g
           id="g5016"
           style="fill:#000000;fill-opacity:1">
          <use
             height="1052.3622"
             width="744.09448"
             id="use5018"
             y="134.765"
             x="242.62399"
             xlink:href="#textext-0b881bb2-1" />
        </g>
      </g>
    </g>
    <g
       ns0:text="$(u+\\Delta u,v)$"
       ns0:preamble=""
       transform="matrix(1.5,0,0,1.5,-139.28571,21.428567)"
       id="g5488">
      <defs
         id="defs5490">
        <g
           id="g5492">
          <symbol
             style="overflow:visible"
             overflow="visible"
             id="textext-2705d0aa-0">
            <path
               inkscape:connector-curvature="0"
               style="stroke:none"
               d="m 3.296875,2.390625 c 0,-0.03125 0,-0.046875 -0.171875,-0.21875 C 1.890625,0.921875 1.5625,-0.96875 1.5625,-2.5 c 0,-1.734375 0.375,-3.46875 1.609375,-4.703125 0.125,-0.125 0.125,-0.140625 0.125,-0.171875 0,-0.078125 -0.03125,-0.109375 -0.09375,-0.109375 -0.109375,0 -1,0.6875 -1.59375,1.953125 -0.5,1.09375 -0.625,2.203125 -0.625,3.03125 0,0.78125 0.109375,1.984375 0.65625,3.125 C 2.25,1.84375 3.09375,2.5 3.203125,2.5 c 0.0625,0 0.09375,-0.03125 0.09375,-0.109375 z m 0,0"
               id="path5495" />
          </symbol>
          <symbol
             style="overflow:visible"
             overflow="visible"
             id="textext-2705d0aa-1">
            <path
               inkscape:connector-curvature="0"
               style="stroke:none"
               d="m 4.078125,-2.296875 2.78125,0 C 7,-2.296875 7.1875,-2.296875 7.1875,-2.5 7.1875,-2.6875 7,-2.6875 6.859375,-2.6875 l -2.78125,0 0,-2.796875 c 0,-0.140625 0,-0.328125 -0.203125,-0.328125 -0.203125,0 -0.203125,0.1875 -0.203125,0.328125 l 0,2.796875 -2.78125,0 c -0.140625,0 -0.328125,0 -0.328125,0.1875 0,0.203125 0.1875,0.203125 0.328125,0.203125 l 2.78125,0 0,2.796875 c 0,0.140625 0,0.328125 0.203125,0.328125 0.203125,0 0.203125,-0.1875 0.203125,-0.328125 z m 0,0"
               id="path5498" />
          </symbol>
          <symbol
             style="overflow:visible"
             overflow="visible"
             id="textext-2705d0aa-2">
            <path
               inkscape:connector-curvature="0"
               style="stroke:none"
               d="m 4.40625,-6.953125 c -0.0625,-0.140625 -0.09375,-0.1875 -0.265625,-0.1875 -0.15625,0 -0.1875,0.046875 -0.25,0.1875 l -3.375,6.75 C 0.46875,-0.109375 0.46875,-0.09375 0.46875,-0.078125 0.46875,0 0.53125,0 0.6875,0 l 6.921875,0 c 0.15625,0 0.21875,0 0.21875,-0.078125 0,-0.015625 0,-0.03125 -0.046875,-0.125 z m -0.578125,0.8125 2.6875,5.390625 -5.375,0 z m 0,0"
               id="path5501" />
          </symbol>
          <symbol
             style="overflow:visible"
             overflow="visible"
             id="textext-2705d0aa-3">
            <path
               inkscape:connector-curvature="0"
               style="stroke:none"
               d="m 2.875,-2.5 c 0,-0.765625 -0.109375,-1.96875 -0.65625,-3.109375 -0.59375,-1.21875 -1.453125,-1.875 -1.546875,-1.875 -0.0625,0 -0.109375,0.046875 -0.109375,0.109375 0,0.03125 0,0.046875 0.1875,0.234375 0.984375,0.984375 1.546875,2.5625 1.546875,4.640625 0,1.71875 -0.359375,3.46875 -1.59375,4.71875 C 0.5625,2.34375 0.5625,2.359375 0.5625,2.390625 0.5625,2.453125 0.609375,2.5 0.671875,2.5 0.765625,2.5 1.671875,1.8125 2.25,0.546875 2.765625,-0.546875 2.875,-1.65625 2.875,-2.5 z m 0,0"
               id="path5504" />
          </symbol>
          <symbol
             style="overflow:visible"
             overflow="visible"
             id="textext-2705d0aa-4">
            <path
               inkscape:connector-curvature="0"
               style="stroke:none"
               d="M 3.484375,-0.5625 C 3.59375,-0.15625 3.953125,0.109375 4.375,0.109375 4.71875,0.109375 4.953125,-0.125 5.109375,-0.4375 5.28125,-0.796875 5.40625,-1.40625 5.40625,-1.421875 c 0,-0.109375 -0.078125,-0.109375 -0.109375,-0.109375 -0.109375,0 -0.109375,0.046875 -0.140625,0.1875 -0.140625,0.5625 -0.328125,1.234375 -0.75,1.234375 -0.203125,0 -0.3125,-0.125 -0.3125,-0.453125 0,-0.21875 0.125,-0.6875 0.203125,-1.046875 L 4.578125,-2.6875 C 4.609375,-2.828125 4.703125,-3.203125 4.75,-3.359375 4.796875,-3.59375 4.890625,-3.96875 4.890625,-4.03125 c 0,-0.171875 -0.140625,-0.265625 -0.28125,-0.265625 -0.046875,0 -0.3125,0.015625 -0.390625,0.34375 -0.1875,0.734375 -0.625,2.484375 -0.75,3 -0.015625,0.046875 -0.40625,0.84375 -1.140625,0.84375 -0.515625,0 -0.609375,-0.453125 -0.609375,-0.8125 0,-0.5625 0.28125,-1.34375 0.53125,-2.03125 0.125,-0.3125 0.171875,-0.453125 0.171875,-0.640625 0,-0.4375 -0.3125,-0.8125 -0.8125,-0.8125 -0.953125,0 -1.3125,1.453125 -1.3125,1.53125 0,0.109375 0.09375,0.109375 0.109375,0.109375 0.109375,0 0.109375,-0.03125 0.15625,-0.1875 0.25,-0.859375 0.640625,-1.234375 1.015625,-1.234375 0.09375,0 0.25,0.015625 0.25,0.328125 0,0.234375 -0.109375,0.53125 -0.171875,0.671875 -0.375,1 -0.578125,1.609375 -0.578125,2.09375 0,0.953125 0.6875,1.203125 1.21875,1.203125 0.65625,0 1.015625,-0.453125 1.1875,-0.671875 z m 0,0"
               id="path5507" />
          </symbol>
          <symbol
             style="overflow:visible"
             overflow="visible"
             id="textext-2705d0aa-5">
            <path
               inkscape:connector-curvature="0"
               style="stroke:none"
               d="m 2.03125,-0.015625 c 0,-0.65625 -0.25,-1.046875 -0.640625,-1.046875 -0.328125,0 -0.53125,0.25 -0.53125,0.53125 C 0.859375,-0.265625 1.0625,0 1.390625,0 1.5,0 1.640625,-0.046875 1.734375,-0.125 1.765625,-0.15625 1.78125,-0.15625 1.78125,-0.15625 c 0.015625,0 0.015625,0 0.015625,0.140625 0,0.75 -0.34375,1.34375 -0.671875,1.671875 -0.109375,0.109375 -0.109375,0.125 -0.109375,0.15625 0,0.078125 0.046875,0.109375 0.09375,0.109375 0.109375,0 0.921875,-0.765625 0.921875,-1.9375 z m 0,0"
               id="path5510" />
          </symbol>
          <symbol
             style="overflow:visible"
             overflow="visible"
             id="textext-2705d0aa-6">
            <path
               inkscape:connector-curvature="0"
               style="stroke:none"
               d="m 4.671875,-3.703125 c 0,-0.546875 -0.265625,-0.703125 -0.4375,-0.703125 -0.25,0 -0.5,0.265625 -0.5,0.484375 0,0.125 0.046875,0.1875 0.15625,0.296875 0.21875,0.203125 0.34375,0.453125 0.34375,0.8125 0,0.421875 -0.609375,2.703125 -1.765625,2.703125 -0.515625,0 -0.75,-0.34375 -0.75,-0.875 0,-0.546875 0.28125,-1.28125 0.578125,-2.109375 0.078125,-0.171875 0.125,-0.3125 0.125,-0.5 0,-0.4375 -0.3125,-0.8125 -0.8125,-0.8125 -0.9375,0 -1.3125,1.453125 -1.3125,1.53125 0,0.109375 0.09375,0.109375 0.109375,0.109375 0.109375,0 0.109375,-0.03125 0.15625,-0.1875 0.296875,-1 0.71875,-1.234375 1.015625,-1.234375 0.078125,0 0.25,0 0.25,0.3125 0,0.25 -0.109375,0.53125 -0.171875,0.703125 -0.4375,1.15625 -0.5625,1.609375 -0.5625,2.046875 0,1.078125 0.875,1.234375 1.328125,1.234375 1.671875,0 2.25,-3.296875 2.25,-3.8125 z m 0,0"
               id="path5513" />
          </symbol>
        </g>
      </defs>
      <g
         id="textext-2705d0aa-7">
        <g
           style="fill:#000000;fill-opacity:1"
           id="g5516">
          <use
             height="1052.3622"
             width="744.09448"
             xlink:href="#textext-2705d0aa-0"
             x="223.43201"
             y="134.765"
             id="use5518" />
        </g>
        <g
           style="fill:#000000;fill-opacity:1"
           id="g5520">
          <use
             height="1052.3622"
             width="744.09448"
             xlink:href="#textext-2705d0aa-4"
             x="227.306"
             y="134.765"
             id="use5522" />
        </g>
        <g
           style="fill:#000000;fill-opacity:1"
           id="g5524">
          <use
             height="1052.3622"
             width="744.09448"
             xlink:href="#textext-2705d0aa-1"
             x="235.224"
             y="134.765"
             id="use5526" />
        </g>
        <g
           style="fill:#000000;fill-opacity:1"
           id="g5528">
          <use
             height="1052.3622"
             width="744.09448"
             xlink:href="#textext-2705d0aa-2"
             x="245.1846"
             y="134.765"
             id="use5530" />
        </g>
        <g
           style="fill:#000000;fill-opacity:1"
           id="g5532">
          <use
             height="1052.3622"
             width="744.09448"
             xlink:href="#textext-2705d0aa-4"
             x="253.48801"
             y="134.765"
             id="use5534" />
          <use
             height="1052.3622"
             width="744.09448"
             xlink:href="#textext-2705d0aa-5"
             x="259.19159"
             y="134.765"
             id="use5536" />
        </g>
        <g
           style="fill:#000000;fill-opacity:1"
           id="g5538">
          <use
             height="1052.3622"
             width="744.09448"
             xlink:href="#textext-2705d0aa-6"
             x="263.62296"
             y="134.765"
             id="use5540" />
        </g>
        <g
           style="fill:#000000;fill-opacity:1"
           id="g5542">
          <use
             height="1052.3622"
             width="744.09448"
             xlink:href="#textext-2705d0aa-3"
             x="268.806"
             y="134.765"
             id="use5544" />
        </g>
      </g>
    </g>
    <path
       sodipodi:nodetypes="ccc"
       inkscape:connector-curvature="0"
       id="path3043-9"
       d="m 380,52.362183 0,199.999997 200,0"
       style="fill:none;stroke:#000000;stroke-width:3;stroke-linecap:butt;stroke-linejoin:miter;stroke-miterlimit:4;stroke-opacity:1;stroke-dasharray:none;stroke-dashoffset:0" />
    <path
       sodipodi:nodetypes="ccccc"
       inkscape:connector-curvature="0"
       id="path5828"
       d="m 430,162.36218 c 10,-39.99999 60,-40 90,-60 20,10 40,20 40,60 -80,-10 -90,40 -90,40 0,0 -20,-30 -40,-40 z"
       style="fill:#0000ff;stroke:#000000;stroke-width:3;stroke-linecap:butt;stroke-linejoin:miter;stroke-miterlimit:4;stroke-opacity:1;stroke-dasharray:none;stroke-dashoffset:0" />
    <g
       id="g6052"
       transform="matrix(1.5,0,0,1.5,112.66406,18.409058)"
       ns0:preamble=""
       ns0:text="$\\mathbf{T}(u,v)$">
      <defs
         id="defs6054">
        <g
           id="g6056">
          <symbol
             id="textext-9399b418-0"
             overflow="visible"
             style="overflow:visible">
            <path
               id="path6059"
               d="m 7.34375,-6.734375 -6.71875,0 -0.203125,2.40625 0.46875,0 c 0.09375,-1.125 0.1875,-1.9375 1.625,-1.9375 l 0.765625,0 0,5.796875 -1.53125,0 L 1.75,0 c 0.546875,-0.03125 1.65625,-0.03125 2.234375,-0.03125 0.59375,0 1.703125,0 2.234375,0.03125 l 0,-0.46875 -1.53125,0 0,-5.796875 0.765625,0 c 1.421875,0 1.53125,0.796875 1.625,1.9375 l 0.46875,0 z m 0,0"
               style="stroke:none"
               inkscape:connector-curvature="0" />
          </symbol>
          <symbol
             id="textext-9399b418-1"
             overflow="visible"
             style="overflow:visible">
            <path
               id="path6062"
               d="m 3.296875,2.390625 c 0,-0.03125 0,-0.046875 -0.171875,-0.21875 C 1.890625,0.921875 1.5625,-0.96875 1.5625,-2.5 c 0,-1.734375 0.375,-3.46875 1.609375,-4.703125 0.125,-0.125 0.125,-0.140625 0.125,-0.171875 0,-0.078125 -0.03125,-0.109375 -0.09375,-0.109375 -0.109375,0 -1,0.6875 -1.59375,1.953125 -0.5,1.09375 -0.625,2.203125 -0.625,3.03125 0,0.78125 0.109375,1.984375 0.65625,3.125 C 2.25,1.84375 3.09375,2.5 3.203125,2.5 c 0.0625,0 0.09375,-0.03125 0.09375,-0.109375 z m 0,0"
               style="stroke:none"
               inkscape:connector-curvature="0" />
          </symbol>
          <symbol
             id="textext-9399b418-2"
             overflow="visible"
             style="overflow:visible">
            <path
               id="path6065"
               d="m 2.875,-2.5 c 0,-0.765625 -0.109375,-1.96875 -0.65625,-3.109375 -0.59375,-1.21875 -1.453125,-1.875 -1.546875,-1.875 -0.0625,0 -0.109375,0.046875 -0.109375,0.109375 0,0.03125 0,0.046875 0.1875,0.234375 0.984375,0.984375 1.546875,2.5625 1.546875,4.640625 0,1.71875 -0.359375,3.46875 -1.59375,4.71875 C 0.5625,2.34375 0.5625,2.359375 0.5625,2.390625 0.5625,2.453125 0.609375,2.5 0.671875,2.5 0.765625,2.5 1.671875,1.8125 2.25,0.546875 2.765625,-0.546875 2.875,-1.65625 2.875,-2.5 z m 0,0"
               style="stroke:none"
               inkscape:connector-curvature="0" />
          </symbol>
          <symbol
             id="textext-9399b418-3"
             overflow="visible"
             style="overflow:visible">
            <path
               id="path6068"
               d="M 3.484375,-0.5625 C 3.59375,-0.15625 3.953125,0.109375 4.375,0.109375 4.71875,0.109375 4.953125,-0.125 5.109375,-0.4375 5.28125,-0.796875 5.40625,-1.40625 5.40625,-1.421875 c 0,-0.109375 -0.078125,-0.109375 -0.109375,-0.109375 -0.109375,0 -0.109375,0.046875 -0.140625,0.1875 -0.140625,0.5625 -0.328125,1.234375 -0.75,1.234375 -0.203125,0 -0.3125,-0.125 -0.3125,-0.453125 0,-0.21875 0.125,-0.6875 0.203125,-1.046875 L 4.578125,-2.6875 C 4.609375,-2.828125 4.703125,-3.203125 4.75,-3.359375 4.796875,-3.59375 4.890625,-3.96875 4.890625,-4.03125 c 0,-0.171875 -0.140625,-0.265625 -0.28125,-0.265625 -0.046875,0 -0.3125,0.015625 -0.390625,0.34375 -0.1875,0.734375 -0.625,2.484375 -0.75,3 -0.015625,0.046875 -0.40625,0.84375 -1.140625,0.84375 -0.515625,0 -0.609375,-0.453125 -0.609375,-0.8125 0,-0.5625 0.28125,-1.34375 0.53125,-2.03125 0.125,-0.3125 0.171875,-0.453125 0.171875,-0.640625 0,-0.4375 -0.3125,-0.8125 -0.8125,-0.8125 -0.953125,0 -1.3125,1.453125 -1.3125,1.53125 0,0.109375 0.09375,0.109375 0.109375,0.109375 0.109375,0 0.109375,-0.03125 0.15625,-0.1875 0.25,-0.859375 0.640625,-1.234375 1.015625,-1.234375 0.09375,0 0.25,0.015625 0.25,0.328125 0,0.234375 -0.109375,0.53125 -0.171875,0.671875 -0.375,1 -0.578125,1.609375 -0.578125,2.09375 0,0.953125 0.6875,1.203125 1.21875,1.203125 0.65625,0 1.015625,-0.453125 1.1875,-0.671875 z m 0,0"
               style="stroke:none"
               inkscape:connector-curvature="0" />
          </symbol>
          <symbol
             id="textext-9399b418-4"
             overflow="visible"
             style="overflow:visible">
            <path
               id="path6071"
               d="m 2.03125,-0.015625 c 0,-0.65625 -0.25,-1.046875 -0.640625,-1.046875 -0.328125,0 -0.53125,0.25 -0.53125,0.53125 C 0.859375,-0.265625 1.0625,0 1.390625,0 1.5,0 1.640625,-0.046875 1.734375,-0.125 1.765625,-0.15625 1.78125,-0.15625 1.78125,-0.15625 c 0.015625,0 0.015625,0 0.015625,0.140625 0,0.75 -0.34375,1.34375 -0.671875,1.671875 -0.109375,0.109375 -0.109375,0.125 -0.109375,0.15625 0,0.078125 0.046875,0.109375 0.09375,0.109375 0.109375,0 0.921875,-0.765625 0.921875,-1.9375 z m 0,0"
               style="stroke:none"
               inkscape:connector-curvature="0" />
          </symbol>
          <symbol
             id="textext-9399b418-5"
             overflow="visible"
             style="overflow:visible">
            <path
               id="path6074"
               d="m 4.671875,-3.703125 c 0,-0.546875 -0.265625,-0.703125 -0.4375,-0.703125 -0.25,0 -0.5,0.265625 -0.5,0.484375 0,0.125 0.046875,0.1875 0.15625,0.296875 0.21875,0.203125 0.34375,0.453125 0.34375,0.8125 0,0.421875 -0.609375,2.703125 -1.765625,2.703125 -0.515625,0 -0.75,-0.34375 -0.75,-0.875 0,-0.546875 0.28125,-1.28125 0.578125,-2.109375 0.078125,-0.171875 0.125,-0.3125 0.125,-0.5 0,-0.4375 -0.3125,-0.8125 -0.8125,-0.8125 -0.9375,0 -1.3125,1.453125 -1.3125,1.53125 0,0.109375 0.09375,0.109375 0.109375,0.109375 0.109375,0 0.109375,-0.03125 0.15625,-0.1875 0.296875,-1 0.71875,-1.234375 1.015625,-1.234375 0.078125,0 0.25,0 0.25,0.3125 0,0.25 -0.109375,0.53125 -0.171875,0.703125 -0.4375,1.15625 -0.5625,1.609375 -0.5625,2.046875 0,1.078125 0.875,1.234375 1.328125,1.234375 1.671875,0 2.25,-3.296875 2.25,-3.8125 z m 0,0"
               style="stroke:none"
               inkscape:connector-curvature="0" />
          </symbol>
        </g>
      </defs>
      <g
         id="textext-9399b418-6">
        <g
           id="g6077"
           style="fill:#000000;fill-opacity:1">
          <use
             id="use6079"
             y="134.765"
             x="223.43201"
             xlink:href="#textext-9399b418-0"
             width="744.09448"
             height="1052.3622" />
        </g>
        <g
           id="g6081"
           style="fill:#000000;fill-opacity:1">
          <use
             id="use6083"
             y="134.765"
             x="231.40199"
             xlink:href="#textext-9399b418-1"
             width="744.09448"
             height="1052.3622" />
        </g>
        <g
           id="g6085"
           style="fill:#000000;fill-opacity:1">
          <use
             id="use6087"
             y="134.765"
             x="235.27699"
             xlink:href="#textext-9399b418-3"
             width="744.09448"
             height="1052.3622" />
          <use
             id="use6089"
             y="134.765"
             x="240.98059"
             xlink:href="#textext-9399b418-4"
             width="744.09448"
             height="1052.3622" />
        </g>
        <g
           id="g6091"
           style="fill:#000000;fill-opacity:1">
          <use
             id="use6093"
             y="134.765"
             x="245.41196"
             xlink:href="#textext-9399b418-5"
             width="744.09448"
             height="1052.3622" />
        </g>
        <g
           id="g6095"
           style="fill:#000000;fill-opacity:1">
          <use
             id="use6097"
             y="134.765"
             x="250.59399"
             xlink:href="#textext-9399b418-2"
             width="744.09448"
             height="1052.3622" />
        </g>
      </g>
    </g>
    <g
       ns0:text="$\\mathbf{T}(u,v+\\Delta v)$"
       ns0:preamble=""
       transform="matrix(0.89555416,-1.2033215,1.2033215,0.89555416,33.275894,331.90744)"
       id="g6541">
      <defs
         id="defs6543">
        <g
           id="g6545">
          <symbol
             style="overflow:visible"
             overflow="visible"
             id="textext-15792f4b-0">
            <path
               inkscape:connector-curvature="0"
               style="stroke:none"
               d="m 7.34375,-6.734375 -6.71875,0 -0.203125,2.40625 0.46875,0 c 0.09375,-1.125 0.1875,-1.9375 1.625,-1.9375 l 0.765625,0 0,5.796875 -1.53125,0 L 1.75,0 c 0.546875,-0.03125 1.65625,-0.03125 2.234375,-0.03125 0.59375,0 1.703125,0 2.234375,0.03125 l 0,-0.46875 -1.53125,0 0,-5.796875 0.765625,0 c 1.421875,0 1.53125,0.796875 1.625,1.9375 l 0.46875,0 z m 0,0"
               id="path6548" />
          </symbol>
          <symbol
             style="overflow:visible"
             overflow="visible"
             id="textext-15792f4b-1">
            <path
               inkscape:connector-curvature="0"
               style="stroke:none"
               d="m 3.296875,2.390625 c 0,-0.03125 0,-0.046875 -0.171875,-0.21875 C 1.890625,0.921875 1.5625,-0.96875 1.5625,-2.5 c 0,-1.734375 0.375,-3.46875 1.609375,-4.703125 0.125,-0.125 0.125,-0.140625 0.125,-0.171875 0,-0.078125 -0.03125,-0.109375 -0.09375,-0.109375 -0.109375,0 -1,0.6875 -1.59375,1.953125 -0.5,1.09375 -0.625,2.203125 -0.625,3.03125 0,0.78125 0.109375,1.984375 0.65625,3.125 C 2.25,1.84375 3.09375,2.5 3.203125,2.5 c 0.0625,0 0.09375,-0.03125 0.09375,-0.109375 z m 0,0"
               id="path6551" />
          </symbol>
          <symbol
             style="overflow:visible"
             overflow="visible"
             id="textext-15792f4b-2">
            <path
               inkscape:connector-curvature="0"
               style="stroke:none"
               d="m 4.078125,-2.296875 2.78125,0 C 7,-2.296875 7.1875,-2.296875 7.1875,-2.5 7.1875,-2.6875 7,-2.6875 6.859375,-2.6875 l -2.78125,0 0,-2.796875 c 0,-0.140625 0,-0.328125 -0.203125,-0.328125 -0.203125,0 -0.203125,0.1875 -0.203125,0.328125 l 0,2.796875 -2.78125,0 c -0.140625,0 -0.328125,0 -0.328125,0.1875 0,0.203125 0.1875,0.203125 0.328125,0.203125 l 2.78125,0 0,2.796875 c 0,0.140625 0,0.328125 0.203125,0.328125 0.203125,0 0.203125,-0.1875 0.203125,-0.328125 z m 0,0"
               id="path6554" />
          </symbol>
          <symbol
             style="overflow:visible"
             overflow="visible"
             id="textext-15792f4b-3">
            <path
               inkscape:connector-curvature="0"
               style="stroke:none"
               d="m 4.40625,-6.953125 c -0.0625,-0.140625 -0.09375,-0.1875 -0.265625,-0.1875 -0.15625,0 -0.1875,0.046875 -0.25,0.1875 l -3.375,6.75 C 0.46875,-0.109375 0.46875,-0.09375 0.46875,-0.078125 0.46875,0 0.53125,0 0.6875,0 l 6.921875,0 c 0.15625,0 0.21875,0 0.21875,-0.078125 0,-0.015625 0,-0.03125 -0.046875,-0.125 z m -0.578125,0.8125 2.6875,5.390625 -5.375,0 z m 0,0"
               id="path6557" />
          </symbol>
          <symbol
             style="overflow:visible"
             overflow="visible"
             id="textext-15792f4b-4">
            <path
               inkscape:connector-curvature="0"
               style="stroke:none"
               d="m 2.875,-2.5 c 0,-0.765625 -0.109375,-1.96875 -0.65625,-3.109375 -0.59375,-1.21875 -1.453125,-1.875 -1.546875,-1.875 -0.0625,0 -0.109375,0.046875 -0.109375,0.109375 0,0.03125 0,0.046875 0.1875,0.234375 0.984375,0.984375 1.546875,2.5625 1.546875,4.640625 0,1.71875 -0.359375,3.46875 -1.59375,4.71875 C 0.5625,2.34375 0.5625,2.359375 0.5625,2.390625 0.5625,2.453125 0.609375,2.5 0.671875,2.5 0.765625,2.5 1.671875,1.8125 2.25,0.546875 2.765625,-0.546875 2.875,-1.65625 2.875,-2.5 z m 0,0"
               id="path6560" />
          </symbol>
          <symbol
             style="overflow:visible"
             overflow="visible"
             id="textext-15792f4b-5">
            <path
               inkscape:connector-curvature="0"
               style="stroke:none"
               d="M 3.484375,-0.5625 C 3.59375,-0.15625 3.953125,0.109375 4.375,0.109375 4.71875,0.109375 4.953125,-0.125 5.109375,-0.4375 5.28125,-0.796875 5.40625,-1.40625 5.40625,-1.421875 c 0,-0.109375 -0.078125,-0.109375 -0.109375,-0.109375 -0.109375,0 -0.109375,0.046875 -0.140625,0.1875 -0.140625,0.5625 -0.328125,1.234375 -0.75,1.234375 -0.203125,0 -0.3125,-0.125 -0.3125,-0.453125 0,-0.21875 0.125,-0.6875 0.203125,-1.046875 L 4.578125,-2.6875 C 4.609375,-2.828125 4.703125,-3.203125 4.75,-3.359375 4.796875,-3.59375 4.890625,-3.96875 4.890625,-4.03125 c 0,-0.171875 -0.140625,-0.265625 -0.28125,-0.265625 -0.046875,0 -0.3125,0.015625 -0.390625,0.34375 -0.1875,0.734375 -0.625,2.484375 -0.75,3 -0.015625,0.046875 -0.40625,0.84375 -1.140625,0.84375 -0.515625,0 -0.609375,-0.453125 -0.609375,-0.8125 0,-0.5625 0.28125,-1.34375 0.53125,-2.03125 0.125,-0.3125 0.171875,-0.453125 0.171875,-0.640625 0,-0.4375 -0.3125,-0.8125 -0.8125,-0.8125 -0.953125,0 -1.3125,1.453125 -1.3125,1.53125 0,0.109375 0.09375,0.109375 0.109375,0.109375 0.109375,0 0.109375,-0.03125 0.15625,-0.1875 0.25,-0.859375 0.640625,-1.234375 1.015625,-1.234375 0.09375,0 0.25,0.015625 0.25,0.328125 0,0.234375 -0.109375,0.53125 -0.171875,0.671875 -0.375,1 -0.578125,1.609375 -0.578125,2.09375 0,0.953125 0.6875,1.203125 1.21875,1.203125 0.65625,0 1.015625,-0.453125 1.1875,-0.671875 z m 0,0"
               id="path6563" />
          </symbol>
          <symbol
             style="overflow:visible"
             overflow="visible"
             id="textext-15792f4b-6">
            <path
               inkscape:connector-curvature="0"
               style="stroke:none"
               d="m 2.03125,-0.015625 c 0,-0.65625 -0.25,-1.046875 -0.640625,-1.046875 -0.328125,0 -0.53125,0.25 -0.53125,0.53125 C 0.859375,-0.265625 1.0625,0 1.390625,0 1.5,0 1.640625,-0.046875 1.734375,-0.125 1.765625,-0.15625 1.78125,-0.15625 1.78125,-0.15625 c 0.015625,0 0.015625,0 0.015625,0.140625 0,0.75 -0.34375,1.34375 -0.671875,1.671875 -0.109375,0.109375 -0.109375,0.125 -0.109375,0.15625 0,0.078125 0.046875,0.109375 0.09375,0.109375 0.109375,0 0.921875,-0.765625 0.921875,-1.9375 z m 0,0"
               id="path6566" />
          </symbol>
          <symbol
             style="overflow:visible"
             overflow="visible"
             id="textext-15792f4b-7">
            <path
               inkscape:connector-curvature="0"
               style="stroke:none"
               d="m 4.671875,-3.703125 c 0,-0.546875 -0.265625,-0.703125 -0.4375,-0.703125 -0.25,0 -0.5,0.265625 -0.5,0.484375 0,0.125 0.046875,0.1875 0.15625,0.296875 0.21875,0.203125 0.34375,0.453125 0.34375,0.8125 0,0.421875 -0.609375,2.703125 -1.765625,2.703125 -0.515625,0 -0.75,-0.34375 -0.75,-0.875 0,-0.546875 0.28125,-1.28125 0.578125,-2.109375 0.078125,-0.171875 0.125,-0.3125 0.125,-0.5 0,-0.4375 -0.3125,-0.8125 -0.8125,-0.8125 -0.9375,0 -1.3125,1.453125 -1.3125,1.53125 0,0.109375 0.09375,0.109375 0.109375,0.109375 0.109375,0 0.109375,-0.03125 0.15625,-0.1875 0.296875,-1 0.71875,-1.234375 1.015625,-1.234375 0.078125,0 0.25,0 0.25,0.3125 0,0.25 -0.109375,0.53125 -0.171875,0.703125 -0.4375,1.15625 -0.5625,1.609375 -0.5625,2.046875 0,1.078125 0.875,1.234375 1.328125,1.234375 1.671875,0 2.25,-3.296875 2.25,-3.8125 z m 0,0"
               id="path6569" />
          </symbol>
        </g>
      </defs>
      <g
         id="textext-15792f4b-8">
        <g
           style="fill:#000000;fill-opacity:1"
           id="g6572">
          <use
             height="1052.3622"
             width="744.09448"
             xlink:href="#textext-15792f4b-0"
             x="223.43201"
             y="134.765"
             id="use6574" />
        </g>
        <g
           style="fill:#000000;fill-opacity:1"
           id="g6576">
          <use
             height="1052.3622"
             width="744.09448"
             xlink:href="#textext-15792f4b-1"
             x="231.40199"
             y="134.765"
             id="use6578" />
        </g>
        <g
           style="fill:#000000;fill-opacity:1"
           id="g6580">
          <use
             height="1052.3622"
             width="744.09448"
             xlink:href="#textext-15792f4b-5"
             x="235.27699"
             y="134.765"
             id="use6582" />
          <use
             height="1052.3622"
             width="744.09448"
             xlink:href="#textext-15792f4b-6"
             x="240.98059"
             y="134.765"
             id="use6584" />
        </g>
        <g
           style="fill:#000000;fill-opacity:1"
           id="g6586">
          <use
             height="1052.3622"
             width="744.09448"
             xlink:href="#textext-15792f4b-7"
             x="245.41196"
             y="134.765"
             id="use6588" />
        </g>
        <g
           style="fill:#000000;fill-opacity:1"
           id="g6590">
          <use
             height="1052.3622"
             width="744.09448"
             xlink:href="#textext-15792f4b-2"
             x="252.808"
             y="134.765"
             id="use6592" />
        </g>
        <g
           style="fill:#000000;fill-opacity:1"
           id="g6594">
          <use
             height="1052.3622"
             width="744.09448"
             xlink:href="#textext-15792f4b-3"
             x="262.76862"
             y="134.765"
             id="use6596" />
        </g>
        <g
           style="fill:#000000;fill-opacity:1"
           id="g6598">
          <use
             height="1052.3622"
             width="744.09448"
             xlink:href="#textext-15792f4b-7"
             x="271.073"
             y="134.765"
             id="use6600" />
        </g>
        <g
           style="fill:#000000;fill-opacity:1"
           id="g6602">
          <use
             height="1052.3622"
             width="744.09448"
             xlink:href="#textext-15792f4b-4"
             x="276.259"
             y="134.765"
             id="use6604" />
        </g>
      </g>
    </g>
    <g
       id="g7140"
       transform="matrix(1.5,0,0,1.5,127.85715,-109.28572)"
       ns0:preamble=""
       ns0:text="$\\mathbf{T}(u+\\Delta u,v+\\Delta v)$">
      <defs
         id="defs7142">
        <g
           id="g7144">
          <symbol
             style="overflow:visible"
             id="textext-381efca1-0"
             overflow="visible">
            <path
               inkscape:connector-curvature="0"
               id="path7147"
               d="m 7.34375,-6.734375 -6.71875,0 -0.203125,2.40625 0.46875,0 c 0.09375,-1.125 0.1875,-1.9375 1.625,-1.9375 l 0.765625,0 0,5.796875 -1.53125,0 L 1.75,0 c 0.546875,-0.03125 1.65625,-0.03125 2.234375,-0.03125 0.59375,0 1.703125,0 2.234375,0.03125 l 0,-0.46875 -1.53125,0 0,-5.796875 0.765625,0 c 1.421875,0 1.53125,0.796875 1.625,1.9375 l 0.46875,0 z m 0,0"
               style="stroke:none" />
          </symbol>
          <symbol
             style="overflow:visible"
             id="textext-381efca1-1"
             overflow="visible">
            <path
               inkscape:connector-curvature="0"
               id="path7150"
               d="m 3.296875,2.390625 c 0,-0.03125 0,-0.046875 -0.171875,-0.21875 C 1.890625,0.921875 1.5625,-0.96875 1.5625,-2.5 c 0,-1.734375 0.375,-3.46875 1.609375,-4.703125 0.125,-0.125 0.125,-0.140625 0.125,-0.171875 0,-0.078125 -0.03125,-0.109375 -0.09375,-0.109375 -0.109375,0 -1,0.6875 -1.59375,1.953125 -0.5,1.09375 -0.625,2.203125 -0.625,3.03125 0,0.78125 0.109375,1.984375 0.65625,3.125 C 2.25,1.84375 3.09375,2.5 3.203125,2.5 c 0.0625,0 0.09375,-0.03125 0.09375,-0.109375 z m 0,0"
               style="stroke:none" />
          </symbol>
          <symbol
             style="overflow:visible"
             id="textext-381efca1-2"
             overflow="visible">
            <path
               inkscape:connector-curvature="0"
               id="path7153"
               d="m 4.078125,-2.296875 2.78125,0 C 7,-2.296875 7.1875,-2.296875 7.1875,-2.5 7.1875,-2.6875 7,-2.6875 6.859375,-2.6875 l -2.78125,0 0,-2.796875 c 0,-0.140625 0,-0.328125 -0.203125,-0.328125 -0.203125,0 -0.203125,0.1875 -0.203125,0.328125 l 0,2.796875 -2.78125,0 c -0.140625,0 -0.328125,0 -0.328125,0.1875 0,0.203125 0.1875,0.203125 0.328125,0.203125 l 2.78125,0 0,2.796875 c 0,0.140625 0,0.328125 0.203125,0.328125 0.203125,0 0.203125,-0.1875 0.203125,-0.328125 z m 0,0"
               style="stroke:none" />
          </symbol>
          <symbol
             style="overflow:visible"
             id="textext-381efca1-3"
             overflow="visible">
            <path
               inkscape:connector-curvature="0"
               id="path7156"
               d="m 4.40625,-6.953125 c -0.0625,-0.140625 -0.09375,-0.1875 -0.265625,-0.1875 -0.15625,0 -0.1875,0.046875 -0.25,0.1875 l -3.375,6.75 C 0.46875,-0.109375 0.46875,-0.09375 0.46875,-0.078125 0.46875,0 0.53125,0 0.6875,0 l 6.921875,0 c 0.15625,0 0.21875,0 0.21875,-0.078125 0,-0.015625 0,-0.03125 -0.046875,-0.125 z m -0.578125,0.8125 2.6875,5.390625 -5.375,0 z m 0,0"
               style="stroke:none" />
          </symbol>
          <symbol
             style="overflow:visible"
             id="textext-381efca1-4"
             overflow="visible">
            <path
               inkscape:connector-curvature="0"
               id="path7159"
               d="m 2.875,-2.5 c 0,-0.765625 -0.109375,-1.96875 -0.65625,-3.109375 -0.59375,-1.21875 -1.453125,-1.875 -1.546875,-1.875 -0.0625,0 -0.109375,0.046875 -0.109375,0.109375 0,0.03125 0,0.046875 0.1875,0.234375 0.984375,0.984375 1.546875,2.5625 1.546875,4.640625 0,1.71875 -0.359375,3.46875 -1.59375,4.71875 C 0.5625,2.34375 0.5625,2.359375 0.5625,2.390625 0.5625,2.453125 0.609375,2.5 0.671875,2.5 0.765625,2.5 1.671875,1.8125 2.25,0.546875 2.765625,-0.546875 2.875,-1.65625 2.875,-2.5 z m 0,0"
               style="stroke:none" />
          </symbol>
          <symbol
             style="overflow:visible"
             id="textext-381efca1-5"
             overflow="visible">
            <path
               inkscape:connector-curvature="0"
               id="path7162"
               d="M 3.484375,-0.5625 C 3.59375,-0.15625 3.953125,0.109375 4.375,0.109375 4.71875,0.109375 4.953125,-0.125 5.109375,-0.4375 5.28125,-0.796875 5.40625,-1.40625 5.40625,-1.421875 c 0,-0.109375 -0.078125,-0.109375 -0.109375,-0.109375 -0.109375,0 -0.109375,0.046875 -0.140625,0.1875 -0.140625,0.5625 -0.328125,1.234375 -0.75,1.234375 -0.203125,0 -0.3125,-0.125 -0.3125,-0.453125 0,-0.21875 0.125,-0.6875 0.203125,-1.046875 L 4.578125,-2.6875 C 4.609375,-2.828125 4.703125,-3.203125 4.75,-3.359375 4.796875,-3.59375 4.890625,-3.96875 4.890625,-4.03125 c 0,-0.171875 -0.140625,-0.265625 -0.28125,-0.265625 -0.046875,0 -0.3125,0.015625 -0.390625,0.34375 -0.1875,0.734375 -0.625,2.484375 -0.75,3 -0.015625,0.046875 -0.40625,0.84375 -1.140625,0.84375 -0.515625,0 -0.609375,-0.453125 -0.609375,-0.8125 0,-0.5625 0.28125,-1.34375 0.53125,-2.03125 0.125,-0.3125 0.171875,-0.453125 0.171875,-0.640625 0,-0.4375 -0.3125,-0.8125 -0.8125,-0.8125 -0.953125,0 -1.3125,1.453125 -1.3125,1.53125 0,0.109375 0.09375,0.109375 0.109375,0.109375 0.109375,0 0.109375,-0.03125 0.15625,-0.1875 0.25,-0.859375 0.640625,-1.234375 1.015625,-1.234375 0.09375,0 0.25,0.015625 0.25,0.328125 0,0.234375 -0.109375,0.53125 -0.171875,0.671875 -0.375,1 -0.578125,1.609375 -0.578125,2.09375 0,0.953125 0.6875,1.203125 1.21875,1.203125 0.65625,0 1.015625,-0.453125 1.1875,-0.671875 z m 0,0"
               style="stroke:none" />
          </symbol>
          <symbol
             style="overflow:visible"
             id="textext-381efca1-6"
             overflow="visible">
            <path
               inkscape:connector-curvature="0"
               id="path7165"
               d="m 2.03125,-0.015625 c 0,-0.65625 -0.25,-1.046875 -0.640625,-1.046875 -0.328125,0 -0.53125,0.25 -0.53125,0.53125 C 0.859375,-0.265625 1.0625,0 1.390625,0 1.5,0 1.640625,-0.046875 1.734375,-0.125 1.765625,-0.15625 1.78125,-0.15625 1.78125,-0.15625 c 0.015625,0 0.015625,0 0.015625,0.140625 0,0.75 -0.34375,1.34375 -0.671875,1.671875 -0.109375,0.109375 -0.109375,0.125 -0.109375,0.15625 0,0.078125 0.046875,0.109375 0.09375,0.109375 0.109375,0 0.921875,-0.765625 0.921875,-1.9375 z m 0,0"
               style="stroke:none" />
          </symbol>
          <symbol
             style="overflow:visible"
             id="textext-381efca1-7"
             overflow="visible">
            <path
               inkscape:connector-curvature="0"
               id="path7168"
               d="m 4.671875,-3.703125 c 0,-0.546875 -0.265625,-0.703125 -0.4375,-0.703125 -0.25,0 -0.5,0.265625 -0.5,0.484375 0,0.125 0.046875,0.1875 0.15625,0.296875 0.21875,0.203125 0.34375,0.453125 0.34375,0.8125 0,0.421875 -0.609375,2.703125 -1.765625,2.703125 -0.515625,0 -0.75,-0.34375 -0.75,-0.875 0,-0.546875 0.28125,-1.28125 0.578125,-2.109375 0.078125,-0.171875 0.125,-0.3125 0.125,-0.5 0,-0.4375 -0.3125,-0.8125 -0.8125,-0.8125 -0.9375,0 -1.3125,1.453125 -1.3125,1.53125 0,0.109375 0.09375,0.109375 0.109375,0.109375 0.109375,0 0.109375,-0.03125 0.15625,-0.1875 0.296875,-1 0.71875,-1.234375 1.015625,-1.234375 0.078125,0 0.25,0 0.25,0.3125 0,0.25 -0.109375,0.53125 -0.171875,0.703125 -0.4375,1.15625 -0.5625,1.609375 -0.5625,2.046875 0,1.078125 0.875,1.234375 1.328125,1.234375 1.671875,0 2.25,-3.296875 2.25,-3.8125 z m 0,0"
               style="stroke:none" />
          </symbol>
        </g>
      </defs>
      <g
         id="textext-381efca1-8">
        <g
           id="g7171"
           style="fill:#000000;fill-opacity:1">
          <use
             height="1052.3622"
             width="744.09448"
             id="use7173"
             y="134.765"
             x="223.43201"
             xlink:href="#textext-381efca1-0" />
        </g>
        <g
           id="g7175"
           style="fill:#000000;fill-opacity:1">
          <use
             height="1052.3622"
             width="744.09448"
             id="use7177"
             y="134.765"
             x="231.40199"
             xlink:href="#textext-381efca1-1" />
        </g>
        <g
           id="g7179"
           style="fill:#000000;fill-opacity:1">
          <use
             height="1052.3622"
             width="744.09448"
             id="use7181"
             y="134.765"
             x="235.27699"
             xlink:href="#textext-381efca1-5" />
        </g>
        <g
           id="g7183"
           style="fill:#000000;fill-opacity:1">
          <use
             height="1052.3622"
             width="744.09448"
             id="use7185"
             y="134.765"
             x="243.194"
             xlink:href="#textext-381efca1-2" />
        </g>
        <g
           id="g7187"
           style="fill:#000000;fill-opacity:1">
          <use
             height="1052.3622"
             width="744.09448"
             id="use7189"
             y="134.765"
             x="253.1546"
             xlink:href="#textext-381efca1-3" />
        </g>
        <g
           id="g7191"
           style="fill:#000000;fill-opacity:1">
          <use
             height="1052.3622"
             width="744.09448"
             id="use7193"
             y="134.765"
             x="261.45801"
             xlink:href="#textext-381efca1-5" />
          <use
             height="1052.3622"
             width="744.09448"
             id="use7195"
             y="134.765"
             x="267.16159"
             xlink:href="#textext-381efca1-6" />
        </g>
        <g
           id="g7197"
           style="fill:#000000;fill-opacity:1">
          <use
             height="1052.3622"
             width="744.09448"
             id="use7199"
             y="134.765"
             x="271.59296"
             xlink:href="#textext-381efca1-7" />
        </g>
        <g
           id="g7201"
           style="fill:#000000;fill-opacity:1">
          <use
             height="1052.3622"
             width="744.09448"
             id="use7203"
             y="134.765"
             x="278.98999"
             xlink:href="#textext-381efca1-2" />
        </g>
        <g
           id="g7205"
           style="fill:#000000;fill-opacity:1">
          <use
             height="1052.3622"
             width="744.09448"
             id="use7207"
             y="134.765"
             x="288.95059"
             xlink:href="#textext-381efca1-3" />
        </g>
        <g
           id="g7209"
           style="fill:#000000;fill-opacity:1">
          <use
             height="1052.3622"
             width="744.09448"
             id="use7211"
             y="134.765"
             x="297.255"
             xlink:href="#textext-381efca1-7" />
        </g>
        <g
           id="g7213"
           style="fill:#000000;fill-opacity:1">
          <use
             height="1052.3622"
             width="744.09448"
             id="use7215"
             y="134.765"
             x="302.44101"
             xlink:href="#textext-381efca1-4" />
        </g>
      </g>
    </g>
    <g
       ns0:text="$\\mathbf{T}(u+\\Delta u,v)$"
       ns0:preamble=""
       transform="matrix(1.5,0,0,1.5,190.67187,-17.637817)"
       id="g7819">
      <defs
         id="defs7821">
        <g
           id="g7823">
          <symbol
             style="overflow:visible"
             overflow="visible"
             id="textext-795c058d-0">
            <path
               inkscape:connector-curvature="0"
               style="stroke:none"
               d="m 7.34375,-6.734375 -6.71875,0 -0.203125,2.40625 0.46875,0 c 0.09375,-1.125 0.1875,-1.9375 1.625,-1.9375 l 0.765625,0 0,5.796875 -1.53125,0 L 1.75,0 c 0.546875,-0.03125 1.65625,-0.03125 2.234375,-0.03125 0.59375,0 1.703125,0 2.234375,0.03125 l 0,-0.46875 -1.53125,0 0,-5.796875 0.765625,0 c 1.421875,0 1.53125,0.796875 1.625,1.9375 l 0.46875,0 z m 0,0"
               id="path7826" />
          </symbol>
          <symbol
             style="overflow:visible"
             overflow="visible"
             id="textext-795c058d-1">
            <path
               inkscape:connector-curvature="0"
               style="stroke:none"
               d="m 3.296875,2.390625 c 0,-0.03125 0,-0.046875 -0.171875,-0.21875 C 1.890625,0.921875 1.5625,-0.96875 1.5625,-2.5 c 0,-1.734375 0.375,-3.46875 1.609375,-4.703125 0.125,-0.125 0.125,-0.140625 0.125,-0.171875 0,-0.078125 -0.03125,-0.109375 -0.09375,-0.109375 -0.109375,0 -1,0.6875 -1.59375,1.953125 -0.5,1.09375 -0.625,2.203125 -0.625,3.03125 0,0.78125 0.109375,1.984375 0.65625,3.125 C 2.25,1.84375 3.09375,2.5 3.203125,2.5 c 0.0625,0 0.09375,-0.03125 0.09375,-0.109375 z m 0,0"
               id="path7829" />
          </symbol>
          <symbol
             style="overflow:visible"
             overflow="visible"
             id="textext-795c058d-2">
            <path
               inkscape:connector-curvature="0"
               style="stroke:none"
               d="m 4.078125,-2.296875 2.78125,0 C 7,-2.296875 7.1875,-2.296875 7.1875,-2.5 7.1875,-2.6875 7,-2.6875 6.859375,-2.6875 l -2.78125,0 0,-2.796875 c 0,-0.140625 0,-0.328125 -0.203125,-0.328125 -0.203125,0 -0.203125,0.1875 -0.203125,0.328125 l 0,2.796875 -2.78125,0 c -0.140625,0 -0.328125,0 -0.328125,0.1875 0,0.203125 0.1875,0.203125 0.328125,0.203125 l 2.78125,0 0,2.796875 c 0,0.140625 0,0.328125 0.203125,0.328125 0.203125,0 0.203125,-0.1875 0.203125,-0.328125 z m 0,0"
               id="path7832" />
          </symbol>
          <symbol
             style="overflow:visible"
             overflow="visible"
             id="textext-795c058d-3">
            <path
               inkscape:connector-curvature="0"
               style="stroke:none"
               d="m 4.40625,-6.953125 c -0.0625,-0.140625 -0.09375,-0.1875 -0.265625,-0.1875 -0.15625,0 -0.1875,0.046875 -0.25,0.1875 l -3.375,6.75 C 0.46875,-0.109375 0.46875,-0.09375 0.46875,-0.078125 0.46875,0 0.53125,0 0.6875,0 l 6.921875,0 c 0.15625,0 0.21875,0 0.21875,-0.078125 0,-0.015625 0,-0.03125 -0.046875,-0.125 z m -0.578125,0.8125 2.6875,5.390625 -5.375,0 z m 0,0"
               id="path7835" />
          </symbol>
          <symbol
             style="overflow:visible"
             overflow="visible"
             id="textext-795c058d-4">
            <path
               inkscape:connector-curvature="0"
               style="stroke:none"
               d="m 2.875,-2.5 c 0,-0.765625 -0.109375,-1.96875 -0.65625,-3.109375 -0.59375,-1.21875 -1.453125,-1.875 -1.546875,-1.875 -0.0625,0 -0.109375,0.046875 -0.109375,0.109375 0,0.03125 0,0.046875 0.1875,0.234375 0.984375,0.984375 1.546875,2.5625 1.546875,4.640625 0,1.71875 -0.359375,3.46875 -1.59375,4.71875 C 0.5625,2.34375 0.5625,2.359375 0.5625,2.390625 0.5625,2.453125 0.609375,2.5 0.671875,2.5 0.765625,2.5 1.671875,1.8125 2.25,0.546875 2.765625,-0.546875 2.875,-1.65625 2.875,-2.5 z m 0,0"
               id="path7838" />
          </symbol>
          <symbol
             style="overflow:visible"
             overflow="visible"
             id="textext-795c058d-5">
            <path
               inkscape:connector-curvature="0"
               style="stroke:none"
               d="M 3.484375,-0.5625 C 3.59375,-0.15625 3.953125,0.109375 4.375,0.109375 4.71875,0.109375 4.953125,-0.125 5.109375,-0.4375 5.28125,-0.796875 5.40625,-1.40625 5.40625,-1.421875 c 0,-0.109375 -0.078125,-0.109375 -0.109375,-0.109375 -0.109375,0 -0.109375,0.046875 -0.140625,0.1875 -0.140625,0.5625 -0.328125,1.234375 -0.75,1.234375 -0.203125,0 -0.3125,-0.125 -0.3125,-0.453125 0,-0.21875 0.125,-0.6875 0.203125,-1.046875 L 4.578125,-2.6875 C 4.609375,-2.828125 4.703125,-3.203125 4.75,-3.359375 4.796875,-3.59375 4.890625,-3.96875 4.890625,-4.03125 c 0,-0.171875 -0.140625,-0.265625 -0.28125,-0.265625 -0.046875,0 -0.3125,0.015625 -0.390625,0.34375 -0.1875,0.734375 -0.625,2.484375 -0.75,3 -0.015625,0.046875 -0.40625,0.84375 -1.140625,0.84375 -0.515625,0 -0.609375,-0.453125 -0.609375,-0.8125 0,-0.5625 0.28125,-1.34375 0.53125,-2.03125 0.125,-0.3125 0.171875,-0.453125 0.171875,-0.640625 0,-0.4375 -0.3125,-0.8125 -0.8125,-0.8125 -0.953125,0 -1.3125,1.453125 -1.3125,1.53125 0,0.109375 0.09375,0.109375 0.109375,0.109375 0.109375,0 0.109375,-0.03125 0.15625,-0.1875 0.25,-0.859375 0.640625,-1.234375 1.015625,-1.234375 0.09375,0 0.25,0.015625 0.25,0.328125 0,0.234375 -0.109375,0.53125 -0.171875,0.671875 -0.375,1 -0.578125,1.609375 -0.578125,2.09375 0,0.953125 0.6875,1.203125 1.21875,1.203125 0.65625,0 1.015625,-0.453125 1.1875,-0.671875 z m 0,0"
               id="path7841" />
          </symbol>
          <symbol
             style="overflow:visible"
             overflow="visible"
             id="textext-795c058d-6">
            <path
               inkscape:connector-curvature="0"
               style="stroke:none"
               d="m 2.03125,-0.015625 c 0,-0.65625 -0.25,-1.046875 -0.640625,-1.046875 -0.328125,0 -0.53125,0.25 -0.53125,0.53125 C 0.859375,-0.265625 1.0625,0 1.390625,0 1.5,0 1.640625,-0.046875 1.734375,-0.125 1.765625,-0.15625 1.78125,-0.15625 1.78125,-0.15625 c 0.015625,0 0.015625,0 0.015625,0.140625 0,0.75 -0.34375,1.34375 -0.671875,1.671875 -0.109375,0.109375 -0.109375,0.125 -0.109375,0.15625 0,0.078125 0.046875,0.109375 0.09375,0.109375 0.109375,0 0.921875,-0.765625 0.921875,-1.9375 z m 0,0"
               id="path7844" />
          </symbol>
          <symbol
             style="overflow:visible"
             overflow="visible"
             id="textext-795c058d-7">
            <path
               inkscape:connector-curvature="0"
               style="stroke:none"
               d="m 4.671875,-3.703125 c 0,-0.546875 -0.265625,-0.703125 -0.4375,-0.703125 -0.25,0 -0.5,0.265625 -0.5,0.484375 0,0.125 0.046875,0.1875 0.15625,0.296875 0.21875,0.203125 0.34375,0.453125 0.34375,0.8125 0,0.421875 -0.609375,2.703125 -1.765625,2.703125 -0.515625,0 -0.75,-0.34375 -0.75,-0.875 0,-0.546875 0.28125,-1.28125 0.578125,-2.109375 0.078125,-0.171875 0.125,-0.3125 0.125,-0.5 0,-0.4375 -0.3125,-0.8125 -0.8125,-0.8125 -0.9375,0 -1.3125,1.453125 -1.3125,1.53125 0,0.109375 0.09375,0.109375 0.109375,0.109375 0.109375,0 0.109375,-0.03125 0.15625,-0.1875 0.296875,-1 0.71875,-1.234375 1.015625,-1.234375 0.078125,0 0.25,0 0.25,0.3125 0,0.25 -0.109375,0.53125 -0.171875,0.703125 -0.4375,1.15625 -0.5625,1.609375 -0.5625,2.046875 0,1.078125 0.875,1.234375 1.328125,1.234375 1.671875,0 2.25,-3.296875 2.25,-3.8125 z m 0,0"
               id="path7847" />
          </symbol>
        </g>
      </defs>
      <g
         id="textext-795c058d-8">
        <g
           style="fill:#000000;fill-opacity:1"
           id="g7850">
          <use
             height="1052.3622"
             width="744.09448"
             xlink:href="#textext-795c058d-0"
             x="223.43201"
             y="134.765"
             id="use7852" />
        </g>
        <g
           style="fill:#000000;fill-opacity:1"
           id="g7854">
          <use
             height="1052.3622"
             width="744.09448"
             xlink:href="#textext-795c058d-1"
             x="231.40199"
             y="134.765"
             id="use7856" />
        </g>
        <g
           style="fill:#000000;fill-opacity:1"
           id="g7858">
          <use
             height="1052.3622"
             width="744.09448"
             xlink:href="#textext-795c058d-5"
             x="235.27699"
             y="134.765"
             id="use7860" />
        </g>
        <g
           style="fill:#000000;fill-opacity:1"
           id="g7862">
          <use
             height="1052.3622"
             width="744.09448"
             xlink:href="#textext-795c058d-2"
             x="243.194"
             y="134.765"
             id="use7864" />
        </g>
        <g
           style="fill:#000000;fill-opacity:1"
           id="g7866">
          <use
             height="1052.3622"
             width="744.09448"
             xlink:href="#textext-795c058d-3"
             x="253.1546"
             y="134.765"
             id="use7868" />
        </g>
        <g
           style="fill:#000000;fill-opacity:1"
           id="g7870">
          <use
             height="1052.3622"
             width="744.09448"
             xlink:href="#textext-795c058d-5"
             x="261.45801"
             y="134.765"
             id="use7872" />
          <use
             height="1052.3622"
             width="744.09448"
             xlink:href="#textext-795c058d-6"
             x="267.16159"
             y="134.765"
             id="use7874" />
        </g>
        <g
           style="fill:#000000;fill-opacity:1"
           id="g7876">
          <use
             height="1052.3622"
             width="744.09448"
             xlink:href="#textext-795c058d-7"
             x="271.59296"
             y="134.765"
             id="use7878" />
        </g>
        <g
           style="fill:#000000;fill-opacity:1"
           id="g7880">
          <use
             height="1052.3622"
             width="744.09448"
             xlink:href="#textext-795c058d-4"
             x="276.776"
             y="134.765"
             id="use7882" />
        </g>
      </g>
    </g>
    <path
       sodipodi:nodetypes="cc"
       inkscape:connector-curvature="0"
       id="path8164"
       d="m 280,142.36218 c 20,-10 60,-10 80,0"
       style="fill:none;stroke:#000000;stroke-width:5;stroke-linecap:butt;stroke-linejoin:miter;stroke-miterlimit:4;stroke-opacity:1;stroke-dasharray:none;stroke-dashoffset:0;marker-end:url(#TriangleOutM)" />
    <g
       id="g9273"
       ns0:preamble=""
       ns0:text="$\\mathbf{T}$"
       transform="matrix(2.7030075,0,0,2.7030075,-290.01219,-237.59323)">
      <defs
         id="defs9275">
        <g
           id="g9277">
          <symbol
             id="textext-d55e0bd7-0"
             overflow="visible"
             style="overflow:visible">
            <path
               id="path9280"
               d="m 7.34375,-6.734375 -6.71875,0 -0.203125,2.40625 0.46875,0 c 0.09375,-1.125 0.1875,-1.9375 1.625,-1.9375 l 0.765625,0 0,5.796875 -1.53125,0 L 1.75,0 c 0.546875,-0.03125 1.65625,-0.03125 2.234375,-0.03125 0.59375,0 1.703125,0 2.234375,0.03125 l 0,-0.46875 -1.53125,0 0,-5.796875 0.765625,0 c 1.421875,0 1.53125,0.796875 1.625,1.9375 l 0.46875,0 z m 0,0"
               style="stroke:none"
               inkscape:connector-curvature="0" />
          </symbol>
        </g>
      </defs>
      <g
         id="textext-d55e0bd7-1">
        <g
           id="g9283"
           style="fill:#000000;fill-opacity:1">
          <use
             id="use9285"
             y="134.765"
             x="223.43201"
             xlink:href="#textext-d55e0bd7-0"
             width="744.09448"
             height="1052.3622" />
        </g>
      </g>
    </g>
    <path
       sodipodi:type="arc"
       style="fill:#000000;stroke:#000000;stroke-width:3;stroke-linecap:butt;stroke-linejoin:miter;stroke-miterlimit:4;stroke-opacity:1;stroke-dasharray:none;stroke-dashoffset:0"
       id="path9585"
       sodipodi:cx="87.14286"
       sodipodi:cy="30.933611"
       sodipodi:rx="2.8571429"
       sodipodi:ry="2.8571429"
       d="m 90.000003,30.933611 a 2.8571429,2.8571429 0 1 1 -5.714286,0 2.8571429,2.8571429 0 1 1 5.714286,0 z"
       transform="translate(13.928569,61.071429)" />
    <path
       sodipodi:type="arc"
       style="fill:#000000;stroke:#000000;stroke-width:3;stroke-linecap:butt;stroke-linejoin:miter;stroke-miterlimit:4;stroke-opacity:1;stroke-dasharray:none;stroke-dashoffset:0"
       id="path9585-1"
       sodipodi:cx="87.14286"
       sodipodi:cy="30.933611"
       sodipodi:rx="2.8571429"
       sodipodi:ry="2.8571429"
       d="m 90.000003,30.933611 a 2.8571429,2.8571429 0 1 1 -5.714286,0 2.8571429,2.8571429 0 1 1 5.714286,0 z"
       transform="translate(142.14286,62.142856)" />
    <path
       sodipodi:type="arc"
       style="fill:#000000;stroke:#000000;stroke-width:3;stroke-linecap:butt;stroke-linejoin:miter;stroke-miterlimit:4;stroke-opacity:1;stroke-dasharray:none;stroke-dashoffset:0"
       id="path9585-0"
       sodipodi:cx="87.14286"
       sodipodi:cy="30.933611"
       sodipodi:rx="2.8571429"
       sodipodi:ry="2.8571429"
       d="m 90.000003,30.933611 a 2.8571429,2.8571429 0 1 1 -5.714286,0 2.8571429,2.8571429 0 1 1 5.714286,0 z"
       transform="translate(142.5,171.42857)" />
    <path
       sodipodi:type="arc"
       style="fill:#000000;stroke:#000000;stroke-width:3;stroke-linecap:butt;stroke-linejoin:miter;stroke-miterlimit:4;stroke-opacity:1;stroke-dasharray:none;stroke-dashoffset:0"
       id="path9585-4"
       sodipodi:cx="87.14286"
       sodipodi:cy="30.933611"
       sodipodi:rx="2.8571429"
       sodipodi:ry="2.8571429"
       d="m 90.000003,30.933611 a 2.8571429,2.8571429 0 1 1 -5.714286,0 2.8571429,2.8571429 0 1 1 5.714286,0 z"
       transform="translate(12.499997,170.35714)" />
    <path
       sodipodi:type="arc"
       style="fill:#000000;stroke:#000000;stroke-width:3;stroke-linecap:butt;stroke-linejoin:miter;stroke-miterlimit:4;stroke-opacity:1;stroke-dasharray:none;stroke-dashoffset:0"
       id="path9585-8"
       sodipodi:cx="87.14286"
       sodipodi:cy="30.933611"
       sodipodi:rx="2.8571429"
       sodipodi:ry="2.8571429"
       d="m 90.000003,30.933611 a 2.8571429,2.8571429 0 1 1 -5.714286,0 2.8571429,2.8571429 0 1 1 5.714286,0 z"
       transform="translate(382.5,172.14286)" />
    <path
       sodipodi:type="arc"
       style="fill:#000000;stroke:#000000;stroke-width:3;stroke-linecap:butt;stroke-linejoin:miter;stroke-miterlimit:4;stroke-opacity:1;stroke-dasharray:none;stroke-dashoffset:0"
       id="path9585-89"
       sodipodi:cx="87.14286"
       sodipodi:cy="30.933611"
       sodipodi:rx="2.8571429"
       sodipodi:ry="2.8571429"
       d="m 90.000003,30.933611 a 2.8571429,2.8571429 0 1 1 -5.714286,0 2.8571429,2.8571429 0 1 1 5.714286,0 z"
       transform="translate(343.21428,131.78571)" />
    <path
       sodipodi:type="arc"
       style="fill:#000000;stroke:#000000;stroke-width:3;stroke-linecap:butt;stroke-linejoin:miter;stroke-miterlimit:4;stroke-opacity:1;stroke-dasharray:none;stroke-dashoffset:0"
       id="path9585-2"
       sodipodi:cx="87.14286"
       sodipodi:cy="30.933611"
       sodipodi:rx="2.8571429"
       sodipodi:ry="2.8571429"
       d="m 90.000003,30.933611 a 2.8571429,2.8571429 0 1 1 -5.714286,0 2.8571429,2.8571429 0 1 1 5.714286,0 z"
       transform="translate(472.49999,131.78571)" />
    <path
       sodipodi:type="arc"
       style="fill:#000000;stroke:#000000;stroke-width:3;stroke-linecap:butt;stroke-linejoin:miter;stroke-miterlimit:4;stroke-opacity:1;stroke-dasharray:none;stroke-dashoffset:0"
       id="path9585-88"
       sodipodi:cx="87.14286"
       sodipodi:cy="30.933611"
       sodipodi:rx="2.8571429"
       sodipodi:ry="2.8571429"
       d="m 90.000003,30.933611 a 2.8571429,2.8571429 0 1 1 -5.714286,0 2.8571429,2.8571429 0 1 1 5.714286,0 z"
       transform="translate(433.21429,71.785713)" />
    <text
       xml:space="preserve"
       style="font-size:18px;font-style:normal;font-variant:normal;font-weight:normal;font-stretch:normal;line-height:125%;letter-spacing:0px;word-spacing:0px;fill:#000000;fill-opacity:1;stroke:none;font-family:Arial;-inkscape-font-specification:Arial"
       x="237.14285"
       y="280.21933"
       id="text10122"
       sodipodi:linespacing="125%"><tspan
         sodipodi:role="line"
         id="tspan10124" /></text>
    <g
       transform="matrix(1.5,0,0,1.5,-95.714285,62.142857)"
       ns0:text="$u$"
       ns0:preamble=""
       id="g10433">
      <defs
         id="defs10435">
        <g
           id="g10437">
          <symbol
             style="overflow:visible"
             overflow="visible"
             id="textext-04d03d2c-0">
            <path
               inkscape:connector-curvature="0"
               style="stroke:none"
               d="M 3.484375,-0.5625 C 3.59375,-0.15625 3.953125,0.109375 4.375,0.109375 4.71875,0.109375 4.953125,-0.125 5.109375,-0.4375 5.28125,-0.796875 5.40625,-1.40625 5.40625,-1.421875 c 0,-0.109375 -0.078125,-0.109375 -0.109375,-0.109375 -0.109375,0 -0.109375,0.046875 -0.140625,0.1875 -0.140625,0.5625 -0.328125,1.234375 -0.75,1.234375 -0.203125,0 -0.3125,-0.125 -0.3125,-0.453125 0,-0.21875 0.125,-0.6875 0.203125,-1.046875 L 4.578125,-2.6875 C 4.609375,-2.828125 4.703125,-3.203125 4.75,-3.359375 4.796875,-3.59375 4.890625,-3.96875 4.890625,-4.03125 c 0,-0.171875 -0.140625,-0.265625 -0.28125,-0.265625 -0.046875,0 -0.3125,0.015625 -0.390625,0.34375 -0.1875,0.734375 -0.625,2.484375 -0.75,3 -0.015625,0.046875 -0.40625,0.84375 -1.140625,0.84375 -0.515625,0 -0.609375,-0.453125 -0.609375,-0.8125 0,-0.5625 0.28125,-1.34375 0.53125,-2.03125 0.125,-0.3125 0.171875,-0.453125 0.171875,-0.640625 0,-0.4375 -0.3125,-0.8125 -0.8125,-0.8125 -0.953125,0 -1.3125,1.453125 -1.3125,1.53125 0,0.109375 0.09375,0.109375 0.109375,0.109375 0.109375,0 0.109375,-0.03125 0.15625,-0.1875 0.25,-0.859375 0.640625,-1.234375 1.015625,-1.234375 0.09375,0 0.25,0.015625 0.25,0.328125 0,0.234375 -0.109375,0.53125 -0.171875,0.671875 -0.375,1 -0.578125,1.609375 -0.578125,2.09375 0,0.953125 0.6875,1.203125 1.21875,1.203125 0.65625,0 1.015625,-0.453125 1.1875,-0.671875 z m 0,0"
               id="path10440" />
          </symbol>
        </g>
      </defs>
      <g
         id="textext-04d03d2c-1">
        <g
           style="fill:#000000;fill-opacity:1"
           id="g10443">
          <use
             height="1052.3622"
             width="744.09448"
             xlink:href="#textext-04d03d2c-0"
             x="223.43201"
             y="134.765"
             id="use10445" />
        </g>
      </g>
    </g>
    <g
       id="g11075"
       ns0:preamble=""
       ns0:text="$v$"
       transform="matrix(1.5,0,0,1.5,-298.57143,-139.28571)">
      <defs
         id="defs11077">
        <g
           id="g11079">
          <symbol
             id="textext-eaa716c9-0"
             overflow="visible"
             style="overflow:visible">
            <path
               id="path11082"
               d="m 4.671875,-3.703125 c 0,-0.546875 -0.265625,-0.703125 -0.4375,-0.703125 -0.25,0 -0.5,0.265625 -0.5,0.484375 0,0.125 0.046875,0.1875 0.15625,0.296875 0.21875,0.203125 0.34375,0.453125 0.34375,0.8125 0,0.421875 -0.609375,2.703125 -1.765625,2.703125 -0.515625,0 -0.75,-0.34375 -0.75,-0.875 0,-0.546875 0.28125,-1.28125 0.578125,-2.109375 0.078125,-0.171875 0.125,-0.3125 0.125,-0.5 0,-0.4375 -0.3125,-0.8125 -0.8125,-0.8125 -0.9375,0 -1.3125,1.453125 -1.3125,1.53125 0,0.109375 0.09375,0.109375 0.109375,0.109375 0.109375,0 0.109375,-0.03125 0.15625,-0.1875 0.296875,-1 0.71875,-1.234375 1.015625,-1.234375 0.078125,0 0.25,0 0.25,0.3125 0,0.25 -0.109375,0.53125 -0.171875,0.703125 -0.4375,1.15625 -0.5625,1.609375 -0.5625,2.046875 0,1.078125 0.875,1.234375 1.328125,1.234375 1.671875,0 2.25,-3.296875 2.25,-3.8125 z m 0,0"
               style="stroke:none"
               inkscape:connector-curvature="0" />
          </symbol>
        </g>
      </defs>
      <g
         id="textext-eaa716c9-1">
        <g
           id="g11085"
           style="fill:#000000;fill-opacity:1">
          <use
             id="use11087"
             y="134.765"
             x="223.43201"
             xlink:href="#textext-eaa716c9-0"
             width="744.09448"
             height="1052.3622" />
        </g>
      </g>
    </g>
    <g
       transform="matrix(1.5,0,0,1.5,233.57143,62.142857)"
       ns0:text="$x$"
       ns0:preamble=""
       id="g11733">
      <defs
         id="defs11735">
        <g
           id="g11737">
          <symbol
             style="overflow:visible"
             overflow="visible"
             id="textext-3cd618fc-0">
            <path
               inkscape:connector-curvature="0"
               style="stroke:none"
               d="M 3.328125,-3.015625 C 3.390625,-3.265625 3.625,-4.1875 4.3125,-4.1875 c 0.046875,0 0.296875,0 0.5,0.125 C 4.53125,-4 4.34375,-3.765625 4.34375,-3.515625 c 0,0.15625 0.109375,0.34375 0.375,0.34375 0.21875,0 0.53125,-0.171875 0.53125,-0.578125 0,-0.515625 -0.578125,-0.65625 -0.921875,-0.65625 -0.578125,0 -0.921875,0.53125 -1.046875,0.75 -0.25,-0.65625 -0.78125,-0.75 -1.078125,-0.75 -1.03125,0 -1.609375,1.28125 -1.609375,1.53125 0,0.109375 0.109375,0.109375 0.125,0.109375 0.078125,0 0.109375,-0.03125 0.125,-0.109375 0.34375,-1.0625 1,-1.3125 1.34375,-1.3125 0.1875,0 0.53125,0.09375 0.53125,0.671875 0,0.3125 -0.171875,0.96875 -0.53125,2.375 -0.15625,0.609375 -0.515625,1.03125 -0.953125,1.03125 -0.0625,0 -0.28125,0 -0.5,-0.125 0.25,-0.0625 0.46875,-0.265625 0.46875,-0.546875 0,-0.265625 -0.21875,-0.34375 -0.359375,-0.34375 -0.3125,0 -0.546875,0.25 -0.546875,0.578125 0,0.453125 0.484375,0.65625 0.921875,0.65625 0.671875,0 1.03125,-0.703125 1.046875,-0.75 0.125,0.359375 0.484375,0.75 1.078125,0.75 1.03125,0 1.59375,-1.28125 1.59375,-1.53125 0,-0.109375 -0.078125,-0.109375 -0.109375,-0.109375 -0.09375,0 -0.109375,0.046875 -0.140625,0.109375 -0.328125,1.078125 -1,1.3125 -1.3125,1.3125 -0.390625,0 -0.546875,-0.3125 -0.546875,-0.65625 0,-0.21875 0.046875,-0.4375 0.15625,-0.875 z m 0,0"
               id="path11740" />
          </symbol>
        </g>
      </defs>
      <g
         id="textext-3cd618fc-1">
        <g
           style="fill:#000000;fill-opacity:1"
           id="g11743">
          <use
             height="1052.3622"
             width="744.09448"
             xlink:href="#textext-3cd618fc-0"
             x="223.43201"
             y="134.765"
             id="use11745" />
        </g>
      </g>
    </g>
    <g
       id="g12407"
       ns0:preamble=""
       ns0:text="$y$"
       transform="matrix(1.5,0,0,1.5,32.142857,-140)">
      <defs
         id="defs12409">
        <g
           id="g12411">
          <symbol
             id="textext-5c96a2b8-0"
             overflow="visible"
             style="overflow:visible">
            <path
               id="path12414"
               d="m 4.84375,-3.796875 c 0.046875,-0.140625 0.046875,-0.15625 0.046875,-0.234375 0,-0.171875 -0.140625,-0.265625 -0.296875,-0.265625 -0.09375,0 -0.25,0.0625 -0.34375,0.203125 -0.015625,0.0625 -0.109375,0.359375 -0.140625,0.546875 -0.078125,0.25 -0.140625,0.53125 -0.203125,0.796875 l -0.453125,1.796875 c -0.03125,0.140625 -0.46875,0.84375 -1.125,0.84375 -0.5,0 -0.609375,-0.4375 -0.609375,-0.8125 C 1.71875,-1.375 1.890625,-2 2.21875,-2.875 2.375,-3.28125 2.421875,-3.390625 2.421875,-3.59375 c 0,-0.4375 -0.3125,-0.8125 -0.8125,-0.8125 -0.953125,0 -1.3125,1.453125 -1.3125,1.53125 0,0.109375 0.09375,0.109375 0.109375,0.109375 0.109375,0 0.109375,-0.03125 0.15625,-0.1875 0.28125,-0.9375 0.671875,-1.234375 1.015625,-1.234375 0.078125,0 0.25,0 0.25,0.3125 0,0.25 -0.109375,0.515625 -0.171875,0.703125 -0.40625,1.0625 -0.578125,1.625 -0.578125,2.09375 0,0.890625 0.625,1.1875 1.21875,1.1875 0.390625,0 0.71875,-0.171875 1,-0.453125 -0.125,0.515625 -0.25,1.015625 -0.640625,1.546875 -0.265625,0.328125 -0.640625,0.625 -1.09375,0.625 -0.140625,0 -0.59375,-0.03125 -0.765625,-0.421875 0.15625,0 0.296875,0 0.421875,-0.125 C 1.328125,1.203125 1.421875,1.0625 1.421875,0.875 1.421875,0.5625 1.15625,0.53125 1.0625,0.53125 0.828125,0.53125 0.5,0.6875 0.5,1.171875 c 0,0.5 0.4375,0.875 1.0625,0.875 1.015625,0 2.046875,-0.90625 2.328125,-2.03125 z m 0,0"
               style="stroke:none"
               inkscape:connector-curvature="0" />
          </symbol>
        </g>
      </defs>
      <g
         id="textext-5c96a2b8-1">
        <g
           id="g12417"
           style="fill:#000000;fill-opacity:1">
          <use
             id="use12419"
             y="134.765"
             x="223.43201"
             xlink:href="#textext-5c96a2b8-0"
             width="744.09448"
             height="1052.3622" />
        </g>
      </g>
    </g>
  </g>
</svg>
