<?xml version="1.0" encoding="UTF-8" standalone="no"?>
<!-- Created with Inkscape (http://www.inkscape.org/) -->

<svg
   xmlns:ns0="http://www.iki.fi/pav/software/textext/"
   xmlns:dc="http://purl.org/dc/elements/1.1/"
   xmlns:cc="http://creativecommons.org/ns#"
   xmlns:rdf="http://www.w3.org/1999/02/22-rdf-syntax-ns#"
   xmlns:svg="http://www.w3.org/2000/svg"
   xmlns="http://www.w3.org/2000/svg"
   xmlns:xlink="http://www.w3.org/1999/xlink"
   xmlns:sodipodi="http://sodipodi.sourceforge.net/DTD/sodipodi-0.dtd"
   xmlns:inkscape="http://www.inkscape.org/namespaces/inkscape"
   width="744.09448819"
   height="1052.3622047"
   id="svg2"
   version="1.1"
   inkscape:version="0.48.1 r9760"
   sodipodi:docname="dot_product_projection.svg"
   inkscape:export-filename="/home/nykamp/djangocode/mathinsight/materials/dot_product_projection.png"
   inkscape:export-xdpi="160"
   inkscape:export-ydpi="160">
  <sodipodi:namedview
     id="base"
     pagecolor="#ffffff"
     bordercolor="#666666"
     borderopacity="1.0"
     inkscape:pageopacity="0.0"
     inkscape:pageshadow="2"
     inkscape:zoom="1.4"
     inkscape:cx="292.11786"
     inkscape:cy="782.94964"
     inkscape:document-units="px"
     inkscape:current-layer="layer1"
     showgrid="true"
     inkscape:window-width="1072"
     inkscape:window-height="826"
     inkscape:window-x="3"
     inkscape:window-y="23"
     inkscape:window-maximized="0"
     inkscape:snap-global="false">
    <inkscape:grid
       type="xygrid"
       id="grid3024" />
  </sodipodi:namedview>
  <defs
     id="defs4">
    <marker
       inkscape:stockid="Arrow2Mend"
       orient="auto"
       refY="0.0"
       refX="0.0"
       id="Arrow2Mend"
       style="overflow:visible;">
      <path
         id="path4062"
         style="font-size:12.0;fill-rule:evenodd;stroke-width:0.62500000;stroke-linejoin:round;"
         d="M 8.7185878,4.0337352 L -2.2072895,0.016013256 L 8.7185884,-4.0017078 C 6.9730900,-1.6296469 6.9831476,1.6157441 8.7185878,4.0337352 z "
         transform="scale(0.6) rotate(180) translate(0,0)" />
    </marker>
    <marker
       inkscape:stockid="Arrow2Mstart"
       orient="auto"
       refY="0.0"
       refX="0.0"
       id="Arrow2Mstart"
       style="overflow:visible">
      <path
         id="path4059"
         style="font-size:12.0;fill-rule:evenodd;stroke-width:0.62500000;stroke-linejoin:round"
         d="M 8.7185878,4.0337352 L -2.2072895,0.016013256 L 8.7185884,-4.0017078 C 6.9730900,-1.6296469 6.9831476,1.6157441 8.7185878,4.0337352 z "
         transform="scale(0.6) translate(0,0)" />
    </marker>
    <marker
       inkscape:stockid="Arrow2Lstart"
       orient="auto"
       refY="0.0"
       refX="0.0"
       id="Arrow2Lstart"
       style="overflow:visible">
      <path
         id="path4053"
         style="font-size:12.0;fill-rule:evenodd;stroke-width:0.62500000;stroke-linejoin:round"
         d="M 8.7185878,4.0337352 L -2.2072895,0.016013256 L 8.7185884,-4.0017078 C 6.9730900,-1.6296469 6.9831476,1.6157441 8.7185878,4.0337352 z "
         transform="scale(1.1) translate(1,0)" />
    </marker>
    <marker
       style="overflow:visible;"
       id="Arrow1Mend"
       refX="0.0"
       refY="0.0"
       orient="auto"
       inkscape:stockid="Arrow1Mend">
      <path
         transform="scale(0.4) rotate(180) translate(10,0)"
         style="fill-rule:evenodd;stroke:#000000;stroke-width:1.0pt;marker-start:none;"
         d="M 0.0,0.0 L 5.0,-5.0 L -12.5,0.0 L 5.0,5.0 L 0.0,0.0 z "
         id="path3767" />
    </marker>
    <marker
       style="overflow:visible;"
       id="Arrow1Lend"
       refX="0.0"
       refY="0.0"
       orient="auto"
       inkscape:stockid="Arrow1Lend">
      <path
         transform="scale(0.8) rotate(180) translate(12.5,0)"
         style="fill-rule:evenodd;stroke:#000000;stroke-width:1.0pt;marker-start:none;"
         d="M 0.0,0.0 L 5.0,-5.0 L -12.5,0.0 L 5.0,5.0 L 0.0,0.0 z "
         id="path3761" />
    </marker>
    <marker
       style="overflow:visible;"
       id="Arrow1Mendh"
       refX="0.0"
       refY="0.0"
       orient="auto"
       inkscape:stockid="Arrow1Mendh">
      <path
         transform="scale(0.4) rotate(180) translate(10,0)"
         style="marker-start:none;stroke:#000080;stroke-width:1.0pt;fill:#000080;fill-rule:evenodd"
         d="M 0.0,0.0 L 5.0,-5.0 L -12.5,0.0 L 5.0,5.0 L 0.0,0.0 z "
         id="path4392" />
    </marker>
    <marker
       style="overflow:visible"
       id="Arrow1Mendh-8"
       refX="0"
       refY="0"
       orient="auto"
       inkscape:stockid="Arrow1Mendh">
      <path
         inkscape:connector-curvature="0"
         transform="matrix(-0.4,0,0,-0.4,-4,0)"
         style="fill:#000080;fill-rule:evenodd;stroke:#000080;stroke-width:1pt;marker-start:none"
         d="M 0,0 5,-5 -12.5,0 5,5 0,0 z"
         id="path4392-7" />
    </marker>
    <marker
       style="overflow:visible"
       id="Arrow1Mendh-4"
       refX="0"
       refY="0"
       orient="auto"
       inkscape:stockid="Arrow1Mendh">
      <path
         inkscape:connector-curvature="0"
         transform="matrix(-0.4,0,0,-0.4,-4,0)"
         style="fill:#000080;fill-rule:evenodd;stroke:#000080;stroke-width:1pt;marker-start:none"
         d="M 0,0 5,-5 -12.5,0 5,5 0,0 z"
         id="path4392-3" />
    </marker>
    <marker
       style="overflow:visible;"
       id="Arrow1MendhP"
       refX="0.0"
       refY="0.0"
       orient="auto"
       inkscape:stockid="Arrow1MendhP">
      <path
         transform="scale(0.4) rotate(180) translate(10,0)"
         style="fill-rule:evenodd;marker-start:none;stroke:#008000;stroke-width:1.0pt;fill:#008000"
         d="M 0.0,0.0 L 5.0,-5.0 L -12.5,0.0 L 5.0,5.0 L 0.0,0.0 z "
         id="path4514" />
    </marker>
    <marker
       style="overflow:visible;"
       id="Arrow1Mendht"
       refX="0.0"
       refY="0.0"
       orient="auto"
       inkscape:stockid="Arrow1Mendht">
      <path
         transform="scale(0.4) rotate(180) translate(10,0)"
         style="fill-rule:evenodd;marker-start:none;stroke:#800000;stroke-width:1.0pt;fill:#800000"
         d="M 0.0,0.0 L 5.0,-5.0 L -12.5,0.0 L 5.0,5.0 L 0.0,0.0 z "
         id="path4555" />
    </marker>
    <marker
       style="overflow:visible"
       id="Arrow1Mendh-9"
       refX="0"
       refY="0"
       orient="auto"
       inkscape:stockid="Arrow1Mendh">
      <path
         inkscape:connector-curvature="0"
         transform="matrix(-0.4,0,0,-0.4,-4,0)"
         style="fill:#000080;fill-rule:evenodd;stroke:#000080;stroke-width:1pt;marker-start:none"
         d="M 0,0 5,-5 -12.5,0 5,5 0,0 z"
         id="path4392-4" />
    </marker>
    <marker
       style="overflow:visible"
       id="Arrow1Mendh-6"
       refX="0"
       refY="0"
       orient="auto"
       inkscape:stockid="Arrow1Mendh">
      <path
         inkscape:connector-curvature="0"
         transform="matrix(-0.4,0,0,-0.4,-4,0)"
         style="fill:#000080;fill-rule:evenodd;stroke:#000080;stroke-width:1pt;marker-start:none"
         d="M 0,0 5,-5 -12.5,0 5,5 0,0 z"
         id="path4392-8" />
    </marker>
    <marker
       style="overflow:visible;"
       id="Arrow1MendhG"
       refX="0.0"
       refY="0.0"
       orient="auto"
       inkscape:stockid="Arrow1MendhG">
      <path
         transform="scale(0.4) rotate(180) translate(10,0)"
         style="fill-rule:evenodd;marker-start:none;stroke:#000000;stroke-width:1.0pt;fill:#000000"
         d="M 0.0,0.0 L 5.0,-5.0 L -12.5,0.0 L 5.0,5.0 L 0.0,0.0 z "
         id="path3106" />
    </marker>
    <marker
       style="overflow:visible;"
       id="Arrow1MendhN"
       refX="0.0"
       refY="0.0"
       orient="auto"
       inkscape:stockid="Arrow1MendhN">
      <path
         transform="scale(0.4) rotate(180) translate(10,0)"
         style="fill-rule:evenodd;marker-start:none;stroke:#008000;stroke-width:1.0pt;fill:#008000"
         d="M 0.0,0.0 L 5.0,-5.0 L -12.5,0.0 L 5.0,5.0 L 0.0,0.0 z "
         id="path4027" />
    </marker>
    <defs
       id="defs4733">
      <g
         id="g4735">
        <symbol
           style="overflow:visible"
           overflow="visible"
           id="textext-717c0910-0">
          <path
             inkscape:connector-curvature="0"
             style="stroke:none"
             d="m 3.734375,-0.765625 c 0,0.3125 0,0.765625 1.03125,0.765625 L 5.25,0 C 5.4375,0 5.5625,0 5.5625,-0.234375 5.5625,-0.46875 5.4375,-0.46875 5.296875,-0.46875 4.6875,-0.484375 4.6875,-0.609375 4.6875,-0.84375 l 0,-2.140625 c 0,-0.890625 -0.703125,-1.53125 -2.1875,-1.53125 -0.5625,0 -1.78125,0.046875 -1.78125,0.921875 0,0.4375 0.34375,0.625 0.609375,0.625 0.3125,0 0.640625,-0.21875 0.640625,-0.625 0,-0.296875 -0.1875,-0.46875 -0.21875,-0.5 0.28125,-0.046875 0.59375,-0.0625 0.71875,-0.0625 0.734375,0 1.09375,0.421875 1.09375,1.171875 l 0,0.34375 c -0.71875,0.03125 -3.25,0.125 -3.25,1.5625 0,0.953125 1.25,1.140625 1.9375,1.140625 0.796875,0 1.265625,-0.40625 1.484375,-0.828125 z m -0.171875,-1.5625 0,0.9375 c 0,0.96875 -0.921875,1.09375 -1.171875,1.09375 -0.5,0 -0.90625,-0.34375 -0.90625,-0.796875 0,-1.0625 1.578125,-1.203125 2.078125,-1.234375 z m 0,0"
             id="path4738" />
        </symbol>
        <symbol
           style="overflow:visible"
           overflow="visible"
           id="textext-717c0910-1">
          <path
             inkscape:connector-curvature="0"
             style="stroke:none"
             d="m 2.140625,-4 0,-2.921875 -1.765625,0.078125 0,0.46875 c 0.609375,0 0.6875,0 0.6875,0.390625 L 1.0625,0 1.53125,0 2.015625,-0.5625 c 0.078125,0.078125 0.5625,0.625 1.453125,0.625 1.484375,0 2.515625,-0.90625 2.515625,-2.28125 0,-1.328125 -0.9375,-2.265625 -2.390625,-2.265625 C 2.875,-4.484375 2.375,-4.203125 2.140625,-4 z m 0.046875,3.015625 0,-2.5 C 2.46875,-3.84375 2.9375,-4.125 3.484375,-4.125 c 1.21875,0 1.21875,1.203125 1.21875,1.90625 0,0.46875 0,1.015625 -0.25,1.40625 -0.296875,0.40625 -0.75,0.515625 -1.078125,0.515625 -0.6875,0 -1.078125,-0.546875 -1.1875,-0.6875 z m 0,0"
             id="path4741" />
        </symbol>
        <symbol
           style="overflow:visible"
           overflow="visible"
           id="textext-717c0910-2">
          <path
             inkscape:connector-curvature="0"
             style="stroke:none"
             d="m 1.90625,-2.5 c 0,-0.28125 -0.234375,-0.515625 -0.515625,-0.515625 -0.296875,0 -0.53125,0.234375 -0.53125,0.515625 0,0.296875 0.234375,0.53125 0.53125,0.53125 0.28125,0 0.515625,-0.234375 0.515625,-0.53125 z m 0,0"
             id="path4744" />
        </symbol>
        <symbol
           style="overflow:visible"
           overflow="visible"
           id="textext-717c0910-3">
          <path
             inkscape:connector-curvature="0"
             style="stroke:none"
             d="m 1.71875,-7.140625 c 0,-0.15625 0,-0.34375 -0.203125,-0.34375 -0.203125,0 -0.203125,0.234375 -0.203125,0.375 l 0,9.234375 c 0,0.15625 0,0.375 0.203125,0.375 C 1.71875,2.5 1.71875,2.3125 1.71875,2.15625 z m 1.9375,0.03125 c 0,-0.15625 0,-0.375 -0.203125,-0.375 -0.1875,0 -0.1875,0.1875 -0.1875,0.34375 l 0,9.296875 c 0,0.15625 0,0.34375 0.1875,0.34375 C 3.65625,2.5 3.65625,2.265625 3.65625,2.125 z m 0,0"
             id="path4747" />
        </symbol>
        <symbol
           style="overflow:visible"
           overflow="visible"
           id="textext-717c0910-4">
          <path
             inkscape:connector-curvature="0"
             style="stroke:none"
             d="m 6.84375,-3.265625 c 0.15625,0 0.34375,0 0.34375,-0.1875 C 7.1875,-3.65625 7,-3.65625 6.859375,-3.65625 l -5.96875,0 c -0.140625,0 -0.328125,0 -0.328125,0.203125 0,0.1875 0.1875,0.1875 0.328125,0.1875 z m 0.015625,1.9375 c 0.140625,0 0.328125,0 0.328125,-0.203125 0,-0.1875 -0.1875,-0.1875 -0.34375,-0.1875 l -5.953125,0 c -0.140625,0 -0.328125,0 -0.328125,0.1875 0,0.203125 0.1875,0.203125 0.328125,0.203125 z m 0,0"
             id="path4750" />
        </symbol>
        <symbol
           style="overflow:visible"
           overflow="visible"
           id="textext-717c0910-5">
          <path
             inkscape:connector-curvature="0"
             style="stroke:none"
             d="m 1.171875,-2.171875 c 0,-1.625 0.8125,-2.046875 1.34375,-2.046875 0.09375,0 0.71875,0.015625 1.0625,0.375 -0.40625,0.03125 -0.46875,0.328125 -0.46875,0.453125 0,0.265625 0.1875,0.453125 0.453125,0.453125 0.265625,0 0.46875,-0.15625 0.46875,-0.46875 0,-0.671875 -0.765625,-1.0625 -1.53125,-1.0625 -1.25,0 -2.15625,1.078125 -2.15625,2.3125 0,1.28125 0.984375,2.265625 2.140625,2.265625 1.328125,0 1.65625,-1.203125 1.65625,-1.296875 0,-0.09375 -0.109375,-0.09375 -0.140625,-0.09375 -0.078125,0 -0.109375,0.03125 -0.125,0.09375 -0.28125,0.921875 -0.9375,1.046875 -1.296875,1.046875 -0.53125,0 -1.40625,-0.421875 -1.40625,-2.03125 z m 0,0"
             id="path4753" />
        </symbol>
        <symbol
           style="overflow:visible"
           overflow="visible"
           id="textext-717c0910-6">
          <path
             inkscape:connector-curvature="0"
             style="stroke:none"
             d="M 4.6875,-2.140625 C 4.6875,-3.40625 3.703125,-4.46875 2.5,-4.46875 c -1.25,0 -2.21875,1.09375 -2.21875,2.328125 0,1.296875 1.03125,2.25 2.203125,2.25 1.203125,0 2.203125,-0.984375 2.203125,-2.25 z m -2.1875,2 c -0.4375,0 -0.875,-0.203125 -1.140625,-0.671875 -0.25,-0.4375 -0.25,-1.046875 -0.25,-1.40625 0,-0.390625 0,-0.921875 0.234375,-1.359375 C 1.609375,-4.03125 2.078125,-4.25 2.484375,-4.25 c 0.4375,0 0.859375,0.21875 1.125,0.65625 0.265625,0.421875 0.265625,1 0.265625,1.375 0,0.359375 0,0.90625 -0.21875,1.34375 C 3.421875,-0.421875 2.984375,-0.140625 2.5,-0.140625 z m 0,0"
             id="path4756" />
        </symbol>
        <symbol
           style="overflow:visible"
           overflow="visible"
           id="textext-717c0910-7">
          <path
             inkscape:connector-curvature="0"
             style="stroke:none"
             d="m 2.078125,-1.9375 c 0.21875,0.046875 1.03125,0.203125 1.03125,0.921875 0,0.5 -0.34375,0.90625 -1.125,0.90625 -0.84375,0 -1.203125,-0.5625 -1.390625,-1.421875 C 0.5625,-1.65625 0.5625,-1.6875 0.453125,-1.6875 c -0.125,0 -0.125,0.0625 -0.125,0.234375 l 0,1.328125 c 0,0.171875 0,0.234375 0.109375,0.234375 0.046875,0 0.0625,-0.015625 0.25,-0.203125 0.015625,-0.015625 0.015625,-0.03125 0.203125,-0.21875 0.4375,0.40625 0.890625,0.421875 1.09375,0.421875 1.140625,0 1.609375,-0.671875 1.609375,-1.390625 0,-0.515625 -0.296875,-0.828125 -0.421875,-0.9375 C 2.84375,-2.546875 2.453125,-2.625 2.03125,-2.703125 1.46875,-2.8125 0.8125,-2.9375 0.8125,-3.515625 c 0,-0.359375 0.25,-0.765625 1.109375,-0.765625 1.09375,0 1.15625,0.90625 1.171875,1.203125 0,0.09375 0.09375,0.09375 0.109375,0.09375 0.140625,0 0.140625,-0.046875 0.140625,-0.234375 l 0,-1.015625 c 0,-0.15625 0,-0.234375 -0.109375,-0.234375 -0.046875,0 -0.078125,0 -0.203125,0.125 -0.03125,0.03125 -0.125,0.125 -0.171875,0.15625 -0.375,-0.28125 -0.78125,-0.28125 -0.9375,-0.28125 -1.21875,0 -1.59375,0.671875 -1.59375,1.234375 0,0.34375 0.15625,0.625 0.421875,0.84375 0.328125,0.25 0.609375,0.3125 1.328125,0.453125 z m 0,0"
             id="path4759" />
        </symbol>
        <symbol
           style="overflow:visible"
           overflow="visible"
           id="textext-717c0910-8">
          <path
             inkscape:connector-curvature="0"
             style="stroke:none"
             d="m 4.53125,-4.984375 c 0,-0.65625 -0.171875,-2.046875 -1.1875,-2.046875 -1.390625,0 -2.921875,2.8125 -2.921875,5.09375 0,0.9375 0.28125,2.046875 1.1875,2.046875 1.40625,0 2.921875,-2.859375 2.921875,-5.09375 z M 1.46875,-3.625 C 1.640625,-4.25 1.84375,-5.046875 2.25,-5.765625 2.515625,-6.25 2.875,-6.8125 3.328125,-6.8125 c 0.484375,0 0.546875,0.640625 0.546875,1.203125 0,0.5 -0.078125,1 -0.3125,1.984375 z m 2,0.328125 C 3.359375,-2.84375 3.15625,-2 2.765625,-1.28125 c -0.34375,0.6875 -0.71875,1.171875 -1.15625,1.171875 -0.328125,0 -0.53125,-0.296875 -0.53125,-1.21875 0,-0.421875 0.0625,-1 0.3125,-1.96875 z m 0,0"
             id="path4762" />
        </symbol>
      </g>
    </defs>
  </defs>
  <metadata
     id="metadata7">
    <rdf:RDF>
      <cc:Work
         rdf:about="">
        <dc:format>image/svg+xml</dc:format>
        <dc:type
           rdf:resource="http://purl.org/dc/dcmitype/StillImage" />
        <dc:title />
      </cc:Work>
    </rdf:RDF>
  </metadata>
  <g
     id="layer1"
     inkscape:groupmode="layer"
     inkscape:label="Layer 1">
    <text
       xml:space="preserve"
       style="font-size:22px;font-style:normal;font-variant:normal;font-weight:bold;font-stretch:normal;line-height:125%;letter-spacing:0px;word-spacing:0px;fill:#000000;fill-opacity:1;stroke:none;font-family:Times New Roman;-inkscape-font-specification:Times New Roman"
       x="281.47903"
       y="211.70351"
       id="text4582"
       sodipodi:linespacing="125%"><tspan
         sodipodi:role="line"
         id="tspan4584"
         x="281.47903"
         y="211.70351">a</tspan></text>
    <text
       xml:space="preserve"
       style="font-size:22px;font-style:normal;font-variant:normal;font-weight:bold;font-stretch:normal;line-height:125%;letter-spacing:0px;word-spacing:0px;fill:#000000;fill-opacity:1;stroke:none;font-family:Times New Roman;-inkscape-font-specification:Times New Roman"
       x="409.54562"
       y="227.10759"
       id="text4582-8"
       sodipodi:linespacing="125%"><tspan
         sodipodi:role="line"
         id="tspan4584-6"
         x="409.54562"
         y="227.10759">b</tspan></text>
    <path
       sodipodi:type="arc"
       style="fill:none;stroke:#000000;stroke-width:0.99838597;stroke-linecap:butt;stroke-linejoin:miter;stroke-miterlimit:4;stroke-opacity:1;stroke-dasharray:none;stroke-dashoffset:0"
       id="path4077"
       sodipodi:cx="255.69485"
       sodipodi:cy="231.73952"
       sodipodi:rx="38.764603"
       sodipodi:ry="38.764603"
       d="m 287.04603,208.94044 a 38.764603,38.764603 0 0 1 7.4134,22.84306"
       sodipodi:start="5.6544261"
       sodipodi:end="6.2843198"
       transform="matrix(0.96154915,-0.27459496,0.27548925,0.96468068,-63.369584,128.07551)"
       sodipodi:open="true" />
    <path
       style="fill:none;stroke:#000000;stroke-width:0.5;stroke-linecap:butt;stroke-linejoin:miter;stroke-miterlimit:4;stroke-opacity:1;stroke-dasharray:none;stroke-dashoffset:0"
       d="m 335.62184,165.04821 23.56937,82.53286"
       id="path4073"
       inkscape:connector-curvature="0"
       sodipodi:nodetypes="cc" />
    <path
       style="fill:none;stroke:#000000;stroke-width:0.5;stroke-linecap:butt;stroke-linejoin:miter;stroke-miterlimit:4;stroke-opacity:1;stroke-dasharray:none;stroke-dashoffset:0"
       d="m 355.90554,236.99533 -9.40103,2.94735 3.34625,11.0673"
       id="path4075"
       inkscape:connector-curvature="0"
       sodipodi:nodetypes="ccc" />
    <path
       inkscape:connector-curvature="0"
       id="path2985"
       d="M 247.67474,281.07755 331.37017,170.92422"
       style="fill:none;stroke:#000080;stroke-width:4;stroke-linecap:butt;stroke-linejoin:miter;stroke-miterlimit:4;stroke-opacity:1;stroke-dasharray:none;stroke-dashoffset:0;marker-end:url(#Arrow1Mendh)"
       sodipodi:nodetypes="cc"
       inkscape:export-filename="/home/nykamp/djangocode/mathinsight/materials/vector_2d_coordinates.png"
       inkscape:export-xdpi="160"
       inkscape:export-ydpi="160" />
    <path
       inkscape:connector-curvature="0"
       id="path2985-2"
       d="m 245.78309,281.55437 222.1844,-63.49475"
       style="fill:none;stroke:#008000;stroke-width:4;stroke-linecap:butt;stroke-linejoin:miter;stroke-miterlimit:4;stroke-opacity:1;stroke-dasharray:none;stroke-dashoffset:0;marker-end:url(#Arrow1MendhN)"
       sodipodi:nodetypes="cc"
       inkscape:export-filename="/home/nykamp/djangocode/mathinsight/materials/vector_2d_coordinates.png"
       inkscape:export-xdpi="160"
       inkscape:export-ydpi="160" />
    <g
       transform="matrix(1.4423388,-0.41189673,0.41189673,1.4423388,-117.5002,212.57779)"
       id="textext-717c0910-9">
      <g
         style="fill:#000000;fill-opacity:1"
         id="g4765">
        <use
           height="1052.3622"
           width="744.09448"
           xlink:href="#textext-717c0910-0"
           x="224.62801"
           y="131.72099"
           id="use4767" />
      </g>
      <g
         style="fill:#000000;fill-opacity:1"
         id="g4769">
        <use
           height="1052.3622"
           width="744.09448"
           xlink:href="#textext-717c0910-2"
           x="232.411"
           y="131.72099"
           id="use4771" />
      </g>
      <g
         style="fill:#000000;fill-opacity:1"
         id="g4773">
        <use
           height="1052.3622"
           width="744.09448"
           xlink:href="#textext-717c0910-1"
           x="237.392"
           y="131.72099"
           id="use4775" />
      </g>
      <path
         inkscape:connector-curvature="0"
         style="fill:none;stroke:#000000;stroke-width:0.398;stroke-linecap:butt;stroke-linejoin:miter;stroke-miterlimit:10;stroke-opacity:1"
         d="m 9.0625e-4,6.5625e-4 19.12890575,0"
         transform="matrix(1,0,0,-1,224.628,133.153)"
         id="path4777" />
      <g
         style="fill:#000000;fill-opacity:1"
         id="g4779">
        <use
           height="1052.3622"
           width="744.09448"
           xlink:href="#textext-717c0910-3"
           x="226.02901"
           y="141.222"
           id="use4781" />
      </g>
      <g
         style="fill:#000000;fill-opacity:1"
         id="g4783">
        <use
           height="1052.3622"
           width="744.09448"
           xlink:href="#textext-717c0910-1"
           x="231.00999"
           y="141.222"
           id="use4785" />
      </g>
      <g
         style="fill:#000000;fill-opacity:1"
         id="g4787">
        <use
           height="1052.3622"
           width="744.09448"
           xlink:href="#textext-717c0910-3"
           x="237.375"
           y="141.222"
           id="use4789" />
      </g>
      <g
         style="fill:#000000;fill-opacity:1"
         id="g4791">
        <use
           height="1052.3622"
           width="744.09448"
           xlink:href="#textext-717c0910-4"
           x="247.72"
           y="135.64301"
           id="use4793" />
      </g>
      <g
         style="fill:#000000;fill-opacity:1"
         id="g4795">
        <use
           height="1052.3622"
           width="744.09448"
           xlink:href="#textext-717c0910-3"
           x="258.23599"
           y="135.64301"
           id="use4797" />
      </g>
      <g
         style="fill:#000000;fill-opacity:1"
         id="g4799">
        <use
           height="1052.3622"
           width="744.09448"
           xlink:href="#textext-717c0910-0"
           x="263.21701"
           y="135.64301"
           id="use4801" />
      </g>
      <g
         style="fill:#000000;fill-opacity:1"
         id="g4803">
        <use
           height="1052.3622"
           width="744.09448"
           xlink:href="#textext-717c0910-3"
           x="268.78699"
           y="135.64301"
           id="use4805" />
      </g>
      <g
         style="fill:#000000;fill-opacity:1"
         id="g4807">
        <use
           height="1052.3622"
           width="744.09448"
           xlink:href="#textext-717c0910-5"
           x="275.42801"
           y="135.64301"
           id="use4809" />
        <use
           height="1052.3622"
           width="744.09448"
           xlink:href="#textext-717c0910-6"
           x="279.85538"
           y="135.64301"
           id="use4811" />
        <use
           height="1052.3622"
           width="744.09448"
           xlink:href="#textext-717c0910-7"
           x="284.83667"
           y="135.64301"
           id="use4813" />
      </g>
      <g
         style="fill:#000000;fill-opacity:1"
         id="g4815">
        <use
           height="1052.3622"
           width="744.09448"
           xlink:href="#textext-717c0910-8"
           x="290.42801"
           y="135.64301"
           id="use4817" />
      </g>
    </g>
    <g
       transform="matrix(0.96155917,-0.27459782,0.27459782,0.96155917,-50.640055,106.4443)"
       id="g5178">
      <path
         style="fill:none;stroke:#000000;stroke-width:1;stroke-linecap:butt;stroke-linejoin:miter;stroke-miterlimit:4;stroke-opacity:1;stroke-dasharray:none;stroke-dashoffset:0"
         d="m 237.5,252.36219 c 0.35715,13.57143 14.38655,19.14204 28.92857,12.14286 14.81538,-7.13076 26.27745,3.22797 30.56823,7.50356"
         id="path4992"
         inkscape:connector-curvature="0"
         sodipodi:nodetypes="csc" />
      <path
         style="fill:none;stroke:#000000;stroke-width:1;stroke-linecap:butt;stroke-linejoin:miter;stroke-miterlimit:4;stroke-opacity:1;stroke-dasharray:none;stroke-dashoffset:0"
         d="m 355,252.36219 c -0.35715,13.57143 -14.38656,19.14204 -28.92858,12.14286 -14.81538,-7.13076 -25.44137,3.31368 -29.73215,7.58927"
         id="path4992-3"
         inkscape:connector-curvature="0"
         sodipodi:nodetypes="csc" />
    </g>
    <g
       id="g5582"
       ns0:preamble=""
       ns0:text="$\\theta$"
       transform="matrix(1.5,0,0,1.5,-66.42857,66.42857)">
      <defs
         id="defs5584">
        <g
           id="g5586">
          <symbol
             id="symbol5588"
             overflow="visible"
             style="overflow:visible">
            <path
               id="path5590"
               d="m 4.53125,-4.984375 c 0,-0.65625 -0.171875,-2.046875 -1.1875,-2.046875 -1.390625,0 -2.921875,2.8125 -2.921875,5.09375 0,0.9375 0.28125,2.046875 1.1875,2.046875 1.40625,0 2.921875,-2.859375 2.921875,-5.09375 z M 1.46875,-3.625 C 1.640625,-4.25 1.84375,-5.046875 2.25,-5.765625 2.515625,-6.25 2.875,-6.8125 3.328125,-6.8125 c 0.484375,0 0.546875,0.640625 0.546875,1.203125 0,0.5 -0.078125,1 -0.3125,1.984375 z m 2,0.328125 C 3.359375,-2.84375 3.15625,-2 2.765625,-1.28125 c -0.34375,0.6875 -0.71875,1.171875 -1.15625,1.171875 -0.328125,0 -0.53125,-0.296875 -0.53125,-1.21875 0,-0.421875 0.0625,-1 0.3125,-1.96875 z m 0,0"
               style="stroke:none"
               inkscape:connector-curvature="0" />
          </symbol>
        </g>
      </defs>
      <g
         id="g5592">
        <g
           id="g5594"
           style="fill:#000000;fill-opacity:1">
          <g
             id="use5596"
             transform="translate(223.43201,134.765)">
            <path
               id="path5712"
               d="m 4.53125,-4.984375 c 0,-0.65625 -0.171875,-2.046875 -1.1875,-2.046875 -1.390625,0 -2.921875,2.8125 -2.921875,5.09375 0,0.9375 0.28125,2.046875 1.1875,2.046875 1.40625,0 2.921875,-2.859375 2.921875,-5.09375 z M 1.46875,-3.625 C 1.640625,-4.25 1.84375,-5.046875 2.25,-5.765625 2.515625,-6.25 2.875,-6.8125 3.328125,-6.8125 c 0.484375,0 0.546875,0.640625 0.546875,1.203125 0,0.5 -0.078125,1 -0.3125,1.984375 z m 2,0.328125 C 3.359375,-2.84375 3.15625,-2 2.765625,-1.28125 c -0.34375,0.6875 -0.71875,1.171875 -1.15625,1.171875 -0.328125,0 -0.53125,-0.296875 -0.53125,-1.21875 0,-0.421875 0.0625,-1 0.3125,-1.96875 z m 0,0"
               style="stroke:none"
               inkscape:connector-curvature="0" />
          </g>
        </g>
      </g>
    </g>
  </g>
</svg>
