<?xml version="1.0" encoding="UTF-8" standalone="no"?>
<!-- Created with Inkscape (http://www.inkscape.org/) -->

<svg
   xmlns:ns0="http://www.iki.fi/pav/software/textext/"
   xmlns:dc="http://purl.org/dc/elements/1.1/"
   xmlns:cc="http://creativecommons.org/ns#"
   xmlns:rdf="http://www.w3.org/1999/02/22-rdf-syntax-ns#"
   xmlns:svg="http://www.w3.org/2000/svg"
   xmlns="http://www.w3.org/2000/svg"
   xmlns:xlink="http://www.w3.org/1999/xlink"
   xmlns:sodipodi="http://sodipodi.sourceforge.net/DTD/sodipodi-0.dtd"
   xmlns:inkscape="http://www.inkscape.org/namespaces/inkscape"
   inkscape:export-ydpi="108.46734"
   inkscape:export-xdpi="108.46734"
   inkscape:export-filename="/home/nykamp/djangocode/materials/linear_transformation_minus_half_x.png"
   sodipodi:docname="linear_transformation_minus_half_x.svg"
   inkscape:version="0.48.1 r9760"
   version="1.1"
   id="svg2"
   height="1052.3622047"
   width="744.09448819">
  <sodipodi:namedview
     id="base"
     pagecolor="#ffffff"
     bordercolor="#666666"
     borderopacity="1.0"
     inkscape:pageopacity="0.0"
     inkscape:pageshadow="2"
     inkscape:zoom="0.98994949"
     inkscape:cx="453.19159"
     inkscape:cy="750.57588"
     inkscape:document-units="px"
     inkscape:current-layer="layer1"
     showgrid="true"
     inkscape:window-width="1338"
     inkscape:window-height="761"
     inkscape:window-x="6"
     inkscape:window-y="46"
     inkscape:window-maximized="0"
     inkscape:snap-global="false">
    <inkscape:grid
       id="grid2985"
       type="xygrid" />
  </sodipodi:namedview>
  <defs
     id="defs4">
    <marker
       style="overflow:visible;"
       id="Arrow1Mend"
       refX="0.0"
       refY="0.0"
       orient="auto"
       inkscape:stockid="Arrow1Mend">
      <path
         transform="scale(0.4) rotate(180) translate(10,0)"
         style="fill-rule:evenodd;stroke:#000000;stroke-width:1.0pt;marker-start:none;"
         d="M 0.0,0.0 L 5.0,-5.0 L -12.5,0.0 L 5.0,5.0 L 0.0,0.0 z "
         id="path3771" />
    </marker>
    <marker
       style="overflow:visible;"
       id="Arrow1Lend"
       refX="0.0"
       refY="0.0"
       orient="auto"
       inkscape:stockid="Arrow1Lend">
      <path
         transform="scale(0.8) rotate(180) translate(12.5,0)"
         style="fill-rule:evenodd;stroke:#000000;stroke-width:1.0pt;marker-start:none;"
         d="M 0.0,0.0 L 5.0,-5.0 L -12.5,0.0 L 5.0,5.0 L 0.0,0.0 z "
         id="path3765" />
    </marker>
    <linearGradient
       id="linearGradient4885">
      <stop
         style="stop-color:#000000;stop-opacity:1;"
         offset="0"
         id="stop4887" />
      <stop
         style="stop-color:#000000;stop-opacity:0;"
         offset="1"
         id="stop4889" />
    </linearGradient>
    <linearGradient
       id="linearGradient4877">
      <stop
         id="stop4879"
         offset="0"
         style="stop-color:#004600;stop-opacity:1;" />
      <stop
         id="stop4881"
         offset="1"
         style="stop-color:#ff0000;stop-opacity:1;" />
    </linearGradient>
    <marker
       style="overflow:visible"
       id="TriangleOutM"
       refX="0.0"
       refY="0.0"
       orient="auto"
       inkscape:stockid="TriangleOutM">
      <path
         transform="scale(0.4)"
         style="fill-rule:evenodd;stroke:#000000;stroke-width:1.0pt;marker-start:none"
         d="M 5.77,0.0 L -2.88,5.0 L -2.88,-5.0 L 5.77,0.0 z "
         id="path3908" />
    </marker>
    <marker
       style="overflow:visible"
       id="TriangleOutS"
       refX="0.0"
       refY="0.0"
       orient="auto"
       inkscape:stockid="TriangleOutS">
      <path
         transform="scale(0.2)"
         style="fill-rule:evenodd;stroke:#000000;stroke-width:1.0pt;marker-start:none"
         d="M 5.77,0.0 L -2.88,5.0 L -2.88,-5.0 L 5.77,0.0 z "
         id="path3911" />
    </marker>
    <marker
       style="overflow:visible"
       id="TriangleInM"
       refX="0.0"
       refY="0.0"
       orient="auto"
       inkscape:stockid="TriangleInM">
      <path
         transform="scale(-0.4)"
         style="fill-rule:evenodd;stroke:#000000;stroke-width:1.0pt;marker-start:none"
         d="M 5.77,0.0 L -2.88,5.0 L -2.88,-5.0 L 5.77,0.0 z "
         id="path3899" />
    </marker>
    <linearGradient
       gradientUnits="userSpaceOnUse"
       y2="352.36218"
       x2="220"
       y1="352.36218"
       x1="180"
       id="linearGradient4883"
       xlink:href="#linearGradient4877"
       inkscape:collect="always" />
    <linearGradient
       gradientUnits="userSpaceOnUse"
       y2="352.36218"
       x2="220"
       y1="352.36218"
       x1="180"
       id="linearGradient4897"
       xlink:href="#linearGradient4877"
       inkscape:collect="always" />
    <linearGradient
       id="linearGradient4877-6">
      <stop
         id="stop4879-7"
         offset="0"
         style="stop-color:#005a00;stop-opacity:1;" />
      <stop
         id="stop4881-8"
         offset="1"
         style="stop-color:#c90000;stop-opacity:1;" />
    </linearGradient>
    <linearGradient
       id="linearGradient4914">
      <stop
         id="stop4916"
         offset="0"
         style="stop-color:#005a00;stop-opacity:1;" />
      <stop
         id="stop4918"
         offset="1"
         style="stop-color:#c90000;stop-opacity:1;" />
    </linearGradient>
    <marker
       style="overflow:visible"
       id="TriangleInM-7"
       refX="0"
       refY="0"
       orient="auto"
       inkscape:stockid="TriangleInM">
      <path
         transform="scale(-0.4,-0.4)"
         style="fill-rule:evenodd;stroke:#000000;stroke-width:1pt;marker-start:none"
         d="m 5.77,0 -8.65,5 0,-10 8.65,5 z"
         id="path3899-4"
         inkscape:connector-curvature="0" />
    </marker>
    <marker
       style="overflow:visible"
       id="TriangleOutM-7"
       refX="0"
       refY="0"
       orient="auto"
       inkscape:stockid="TriangleOutM">
      <path
         transform="scale(0.4,0.4)"
         style="fill-rule:evenodd;stroke:#000000;stroke-width:1pt;marker-start:none"
         d="m 5.77,0 -8.65,5 0,-10 8.65,5 z"
         id="path3908-7"
         inkscape:connector-curvature="0" />
    </marker>
    <linearGradient
       inkscape:collect="always"
       xlink:href="#linearGradient4877"
       id="linearGradient6510"
       gradientUnits="userSpaceOnUse"
       gradientTransform="translate(340,8.044375e-6)"
       x1="180"
       y1="352.36218"
       x2="160"
       y2="352.36218" />
    <linearGradient
       inkscape:collect="always"
       xlink:href="#linearGradient4877-6"
       id="linearGradient6512"
       gradientUnits="userSpaceOnUse"
       gradientTransform="translate(340,8.044375e-6)"
       x1="180"
       y1="352.36218"
       x2="160"
       y2="352.36218" />
  </defs>
  <metadata
     id="metadata7">
    <rdf:RDF>
      <cc:Work
         rdf:about="">
        <dc:format>image/svg+xml</dc:format>
        <dc:type
           rdf:resource="http://purl.org/dc/dcmitype/StillImage" />
        <dc:title></dc:title>
      </cc:Work>
    </rdf:RDF>
  </metadata>
  <g
     id="layer1"
     inkscape:groupmode="layer"
     inkscape:label="Layer 1">
    <path
       inkscape:connector-curvature="0"
       id="path3757"
       d="m 50,352.36218 270,0"
       style="fill:none;stroke:#000000;stroke-width:1;stroke-linecap:butt;stroke-linejoin:miter;stroke-miterlimit:4;stroke-opacity:1;stroke-dasharray:none;stroke-dashoffset:0;marker-start:url(#TriangleInM);marker-end:url(#TriangleOutM)" />
    <path
       inkscape:connector-curvature="0"
       id="path4761"
       d="m 180,342.36218 0,20"
       style="fill:none;stroke:#000000;stroke-width:1;stroke-linecap:butt;stroke-linejoin:miter;stroke-miterlimit:4;stroke-opacity:1;stroke-dasharray:none;stroke-dashoffset:0" />
    <path
       inkscape:connector-curvature="0"
       id="path4763"
       d="m 220,342.36218 0,20"
       style="fill:none;stroke:#000000;stroke-width:1;stroke-linecap:butt;stroke-linejoin:miter;stroke-miterlimit:4;stroke-opacity:1;stroke-dasharray:none;stroke-dashoffset:0" />
    <path
       inkscape:connector-curvature="0"
       id="path4765"
       d="m 260,342.36218 0,20"
       style="fill:none;stroke:#000000;stroke-width:1;stroke-linecap:butt;stroke-linejoin:miter;stroke-miterlimit:4;stroke-opacity:1;stroke-dasharray:none;stroke-dashoffset:0" />
    <path
       inkscape:connector-curvature="0"
       id="path4767"
       d="m 300,342.36218 0,20"
       style="fill:none;stroke:#000000;stroke-width:1;stroke-linecap:butt;stroke-linejoin:miter;stroke-miterlimit:4;stroke-opacity:1;stroke-dasharray:none;stroke-dashoffset:0" />
    <text
       sodipodi:linespacing="125%"
       id="text4769"
       y="377.36218"
       x="175.99609"
       style="font-size:16px;font-style:normal;font-variant:normal;font-weight:normal;font-stretch:normal;line-height:125%;letter-spacing:0px;word-spacing:0px;fill:#000000;fill-opacity:1;stroke:none;font-family:Times New Roman;-inkscape-font-specification:Sans"
       xml:space="preserve"><tspan
         y="377.36218"
         x="175.99609"
         id="tspan4771"
         sodipodi:role="line">0</tspan></text>
    <path
       inkscape:connector-curvature="0"
       id="path4761-9"
       d="m 140,342.36218 0,20"
       style="fill:none;stroke:#000000;stroke-width:1;stroke-linecap:butt;stroke-linejoin:miter;stroke-miterlimit:4;stroke-opacity:1;stroke-dasharray:none;stroke-dashoffset:0" />
    <path
       inkscape:connector-curvature="0"
       id="path4761-0"
       d="m 100,342.36218 0,20"
       style="fill:none;stroke:#000000;stroke-width:1;stroke-linecap:butt;stroke-linejoin:miter;stroke-miterlimit:4;stroke-opacity:1;stroke-dasharray:none;stroke-dashoffset:0" />
    <path
       inkscape:connector-curvature="0"
       id="path4761-4"
       d="m 60,342.36218 0,20"
       style="fill:none;stroke:#000000;stroke-width:1;stroke-linecap:butt;stroke-linejoin:miter;stroke-miterlimit:4;stroke-opacity:1;stroke-dasharray:none;stroke-dashoffset:0" />
    <text
       sodipodi:linespacing="125%"
       id="text4805"
       y="370.93362"
       x="216.42857"
       style="font-size:22px;font-style:normal;font-variant:normal;font-weight:normal;font-stretch:normal;line-height:125%;letter-spacing:0px;word-spacing:0px;fill:#000000;fill-opacity:1;stroke:none;font-family:Times New Roman;-inkscape-font-specification:Sans"
       xml:space="preserve"><tspan
         id="tspan4807"
         sodipodi:role="line" /></text>
    <text
       sodipodi:linespacing="125%"
       id="text4809"
       y="377.54968"
       x="256.16016"
       style="font-size:16px;font-style:normal;font-variant:normal;font-weight:normal;font-stretch:normal;line-height:125%;letter-spacing:0px;word-spacing:0px;fill:#000000;fill-opacity:1;stroke:none;font-family:Times New Roman;-inkscape-font-specification:Sans"
       xml:space="preserve"><tspan
         y="377.54968"
         x="256.16016"
         id="tspan4811"
         sodipodi:role="line">2</tspan></text>
    <text
       sodipodi:linespacing="125%"
       id="text4813"
       y="377.54968"
       x="216.03906"
       style="font-size:16px;font-style:normal;font-variant:normal;font-weight:normal;font-stretch:normal;line-height:125%;letter-spacing:0px;word-spacing:0px;fill:#000000;fill-opacity:1;stroke:none;font-family:Times New Roman;-inkscape-font-specification:Sans"
       xml:space="preserve"><tspan
         y="377.54968"
         x="216.03906"
         id="tspan4815"
         sodipodi:role="line">1</tspan></text>
    <text
       sodipodi:linespacing="125%"
       id="text4817"
       y="377.36218"
       x="296.33984"
       style="font-size:16px;font-style:normal;font-variant:normal;font-weight:normal;font-stretch:normal;line-height:125%;letter-spacing:0px;word-spacing:0px;fill:#000000;fill-opacity:1;stroke:none;font-family:Times New Roman;-inkscape-font-specification:Sans"
       xml:space="preserve"><tspan
         y="377.36218"
         x="296.33984"
         id="tspan4819"
         sodipodi:role="line">3</tspan></text>
    <text
       sodipodi:linespacing="125%"
       id="text4821"
       y="377.54968"
       x="133.98047"
       style="font-size:16px;font-style:normal;font-variant:normal;font-weight:normal;font-stretch:normal;line-height:125%;letter-spacing:0px;word-spacing:0px;fill:#000000;fill-opacity:1;stroke:none;font-family:Times New Roman;-inkscape-font-specification:Sans"
       xml:space="preserve"><tspan
         y="377.54968"
         x="133.98047"
         id="tspan4823"
         sodipodi:role="line">-1</tspan></text>
    <text
       sodipodi:linespacing="125%"
       id="text4825"
       y="377.54968"
       x="93.335938"
       style="font-size:16px;font-style:normal;font-variant:normal;font-weight:normal;font-stretch:normal;line-height:125%;letter-spacing:0px;word-spacing:0px;fill:#000000;fill-opacity:1;stroke:none;font-family:Times New Roman;-inkscape-font-specification:Sans"
       xml:space="preserve"><tspan
         y="377.54968"
         x="93.335938"
         id="tspan4827"
         sodipodi:role="line">-2</tspan></text>
    <text
       sodipodi:linespacing="125%"
       id="text4829"
       y="377.36218"
       x="53.667969"
       style="font-size:16px;font-style:normal;font-variant:normal;font-weight:normal;font-stretch:normal;line-height:125%;letter-spacing:0px;word-spacing:0px;fill:#000000;fill-opacity:1;stroke:none;font-family:Times New Roman;-inkscape-font-specification:Sans"
       xml:space="preserve"><tspan
         y="377.36218"
         x="53.667969"
         id="tspan4831"
         sodipodi:role="line">-3</tspan></text>
    <text
       sodipodi:linespacing="125%"
       id="text4852"
       y="365.21933"
       x="320.71429"
       style="font-size:18px;font-style:normal;font-variant:normal;font-weight:normal;font-stretch:normal;line-height:125%;letter-spacing:0px;word-spacing:0px;fill:#000000;fill-opacity:1;stroke:none;font-family:Times New Roman;-inkscape-font-specification:Sans"
       xml:space="preserve"><tspan
         y="365.21933"
         x="320.71429"
         id="tspan4854"
         sodipodi:role="line">x</tspan></text>
    <path
       sodipodi:nodetypes="cc"
       inkscape:connector-curvature="0"
       id="path4875"
       d="m 180,352.36218 40,0"
       style="fill:url(#linearGradient4883);fill-opacity:1;stroke:url(#linearGradient4897);stroke-width:6;stroke-linecap:butt;stroke-linejoin:miter;stroke-miterlimit:4;stroke-opacity:1;stroke-dasharray:none;stroke-dashoffset:0" />
    <path
       inkscape:connector-curvature="0"
       id="path3757-1"
       d="m 390,352.36218 270,0"
       style="fill:none;stroke:#000000;stroke-width:1;stroke-linecap:butt;stroke-linejoin:miter;stroke-miterlimit:4;stroke-opacity:1;stroke-dasharray:none;stroke-dashoffset:0;marker-start:url(#TriangleInM);marker-end:url(#TriangleOutM)" />
    <path
       inkscape:connector-curvature="0"
       id="path4761-8"
       d="m 520,342.36218 0,20"
       style="fill:none;stroke:#000000;stroke-width:1;stroke-linecap:butt;stroke-linejoin:miter;stroke-miterlimit:4;stroke-opacity:1;stroke-dasharray:none;stroke-dashoffset:0" />
    <path
       inkscape:connector-curvature="0"
       id="path4763-2"
       d="m 560,342.36218 0,20"
       style="fill:none;stroke:#000000;stroke-width:1;stroke-linecap:butt;stroke-linejoin:miter;stroke-miterlimit:4;stroke-opacity:1;stroke-dasharray:none;stroke-dashoffset:0" />
    <path
       inkscape:connector-curvature="0"
       id="path4765-1"
       d="m 600,342.36218 0,20"
       style="fill:none;stroke:#000000;stroke-width:1;stroke-linecap:butt;stroke-linejoin:miter;stroke-miterlimit:4;stroke-opacity:1;stroke-dasharray:none;stroke-dashoffset:0" />
    <path
       inkscape:connector-curvature="0"
       id="path4767-9"
       d="m 640,342.36218 0,20"
       style="fill:none;stroke:#000000;stroke-width:1;stroke-linecap:butt;stroke-linejoin:miter;stroke-miterlimit:4;stroke-opacity:1;stroke-dasharray:none;stroke-dashoffset:0" />
    <text
       sodipodi:linespacing="125%"
       id="text4769-3"
       y="377.36218"
       x="515.99609"
       style="font-size:16px;font-style:normal;font-variant:normal;font-weight:normal;font-stretch:normal;line-height:125%;letter-spacing:0px;word-spacing:0px;fill:#000000;fill-opacity:1;stroke:none;font-family:Times New Roman;-inkscape-font-specification:Sans"
       xml:space="preserve"><tspan
         y="377.36218"
         x="515.99609"
         id="tspan4771-7"
         sodipodi:role="line">0</tspan></text>
    <path
       inkscape:connector-curvature="0"
       id="path4761-9-7"
       d="m 480,342.36218 0,20"
       style="fill:none;stroke:#000000;stroke-width:1;stroke-linecap:butt;stroke-linejoin:miter;stroke-miterlimit:4;stroke-opacity:1;stroke-dasharray:none;stroke-dashoffset:0" />
    <path
       inkscape:connector-curvature="0"
       id="path4761-0-2"
       d="m 440,342.36218 0,20"
       style="fill:none;stroke:#000000;stroke-width:1;stroke-linecap:butt;stroke-linejoin:miter;stroke-miterlimit:4;stroke-opacity:1;stroke-dasharray:none;stroke-dashoffset:0" />
    <path
       inkscape:connector-curvature="0"
       id="path4761-4-3"
       d="m 400,342.36218 0,20"
       style="fill:none;stroke:#000000;stroke-width:1;stroke-linecap:butt;stroke-linejoin:miter;stroke-miterlimit:4;stroke-opacity:1;stroke-dasharray:none;stroke-dashoffset:0" />
    <text
       sodipodi:linespacing="125%"
       id="text4809-4"
       y="377.54968"
       x="596.16022"
       style="font-size:16px;font-style:normal;font-variant:normal;font-weight:normal;font-stretch:normal;line-height:125%;letter-spacing:0px;word-spacing:0px;fill:#000000;fill-opacity:1;stroke:none;font-family:Times New Roman;-inkscape-font-specification:Sans"
       xml:space="preserve"><tspan
         y="377.54968"
         x="596.16022"
         id="tspan4811-2"
         sodipodi:role="line">2</tspan></text>
    <text
       sodipodi:linespacing="125%"
       id="text4813-4"
       y="377.54968"
       x="556.03906"
       style="font-size:16px;font-style:normal;font-variant:normal;font-weight:normal;font-stretch:normal;line-height:125%;letter-spacing:0px;word-spacing:0px;fill:#000000;fill-opacity:1;stroke:none;font-family:Times New Roman;-inkscape-font-specification:Sans"
       xml:space="preserve"><tspan
         y="377.54968"
         x="556.03906"
         id="tspan4815-0"
         sodipodi:role="line">1</tspan></text>
    <text
       sodipodi:linespacing="125%"
       id="text4817-1"
       y="377.36218"
       x="636.3399"
       style="font-size:16px;font-style:normal;font-variant:normal;font-weight:normal;font-stretch:normal;line-height:125%;letter-spacing:0px;word-spacing:0px;fill:#000000;fill-opacity:1;stroke:none;font-family:Times New Roman;-inkscape-font-specification:Sans"
       xml:space="preserve"><tspan
         y="377.36218"
         x="636.3399"
         id="tspan4819-4"
         sodipodi:role="line">3</tspan></text>
    <text
       sodipodi:linespacing="125%"
       id="text4821-8"
       y="377.54968"
       x="473.98047"
       style="font-size:16px;font-style:normal;font-variant:normal;font-weight:normal;font-stretch:normal;line-height:125%;letter-spacing:0px;word-spacing:0px;fill:#000000;fill-opacity:1;stroke:none;font-family:Times New Roman;-inkscape-font-specification:Sans"
       xml:space="preserve"><tspan
         y="377.54968"
         x="473.98047"
         id="tspan4823-7"
         sodipodi:role="line">-1</tspan></text>
    <text
       sodipodi:linespacing="125%"
       id="text4825-2"
       y="377.54968"
       x="433.33594"
       style="font-size:16px;font-style:normal;font-variant:normal;font-weight:normal;font-stretch:normal;line-height:125%;letter-spacing:0px;word-spacing:0px;fill:#000000;fill-opacity:1;stroke:none;font-family:Times New Roman;-inkscape-font-specification:Sans"
       xml:space="preserve"><tspan
         y="377.54968"
         x="433.33594"
         id="tspan4827-3"
         sodipodi:role="line">-2</tspan></text>
    <text
       sodipodi:linespacing="125%"
       id="text4829-2"
       y="377.36218"
       x="393.66797"
       style="font-size:16px;font-style:normal;font-variant:normal;font-weight:normal;font-stretch:normal;line-height:125%;letter-spacing:0px;word-spacing:0px;fill:#000000;fill-opacity:1;stroke:none;font-family:Times New Roman;-inkscape-font-specification:Sans"
       xml:space="preserve"><tspan
         y="377.36218"
         x="393.66797"
         id="tspan4831-6"
         sodipodi:role="line">-3</tspan></text>
    <text
       sodipodi:linespacing="125%"
       id="text4852-1"
       y="365.21933"
       x="660.71436"
       style="font-size:18px;font-style:normal;font-variant:normal;font-weight:normal;font-stretch:normal;line-height:125%;letter-spacing:0px;word-spacing:0px;fill:#000000;fill-opacity:1;stroke:none;font-family:Times New Roman;-inkscape-font-specification:Sans"
       xml:space="preserve"><tspan
         y="365.21933"
         x="660.71436"
         id="tspan4854-8"
         sodipodi:role="line">x'</tspan></text>
    <path
       sodipodi:nodetypes="cc"
       inkscape:connector-curvature="0"
       id="path4875-4"
       d="m 520,352.36218 -20,0"
       style="fill:url(#linearGradient6512);fill-opacity:1;stroke:url(#linearGradient6510);stroke-width:6;stroke-linecap:butt;stroke-linejoin:miter;stroke-miterlimit:4;stroke-opacity:1;stroke-dasharray:none;stroke-dashoffset:0" />
    <path
       sodipodi:nodetypes="cc"
       inkscape:connector-curvature="0"
       id="path5028"
       d="m 280,322.36218 c 70,-40 120,-30 170,0"
       style="fill:none;stroke:#000000;stroke-width:3;stroke-linecap:butt;stroke-linejoin:miter;stroke-miterlimit:4;stroke-opacity:1;stroke-dasharray:none;stroke-dashoffset:0;marker-end:url(#Arrow1Mend)" />
    <g
       id="g6319"
       transform="matrix(2.2423216,0,0,2.2423216,-188.56838,-15.69127)"
       ns0:preamble=""
       ns0:text="$T(x)=-\\frac{x}{2}$">
      <defs
         id="defs6321">
        <g
           id="g6323">
          <symbol
             id="textext-5bbe67b6-0"
             overflow="visible"
             style="overflow:visible">
            <path
               id="path6326"
               d="m 4.25,-6.046875 c 0.078125,-0.28125 0.109375,-0.34375 0.234375,-0.375 0.09375,-0.015625 0.421875,-0.015625 0.625,-0.015625 1.015625,0 1.453125,0.03125 1.453125,0.8125 0,0.15625 -0.03125,0.546875 -0.078125,0.796875 0,0.046875 -0.03125,0.15625 -0.03125,0.1875 0,0.0625 0.03125,0.140625 0.125,0.140625 0.109375,0 0.125,-0.078125 0.15625,-0.234375 L 7,-6.46875 C 7.015625,-6.515625 7.015625,-6.609375 7.015625,-6.640625 7.015625,-6.75 6.921875,-6.75 6.75,-6.75 l -5.53125,0 c -0.234375,0 -0.25,0.015625 -0.328125,0.203125 l -0.59375,1.75 c 0,0.015625 -0.0625,0.15625 -0.0625,0.1875 0,0.046875 0.0625,0.109375 0.125,0.109375 0.09375,0 0.109375,-0.0625 0.171875,-0.21875 C 1.0625,-6.265625 1.328125,-6.4375 2.796875,-6.4375 l 0.390625,0 c 0.28125,0 0.28125,0.03125 0.28125,0.125 0,0.046875 -0.03125,0.171875 -0.046875,0.203125 L 2.09375,-0.78125 C 2,-0.421875 1.96875,-0.3125 0.90625,-0.3125 c -0.359375,0 -0.421875,0 -0.421875,0.1875 C 0.484375,0 0.59375,0 0.65625,0 c 0.265625,0 0.546875,-0.015625 0.8125,-0.015625 0.28125,0 0.578125,-0.015625 0.859375,-0.015625 0.28125,0 0.546875,0.015625 0.828125,0.015625 C 3.4375,-0.015625 3.734375,0 4.015625,0 c 0.09375,0 0.21875,0 0.21875,-0.203125 0,-0.109375 -0.078125,-0.109375 -0.34375,-0.109375 -0.234375,0 -0.375,0 -0.625,-0.015625 -0.296875,-0.03125 -0.375,-0.0625 -0.375,-0.21875 0,-0.015625 0,-0.0625 0.046875,-0.203125 z m 0,0"
               style="stroke:none"
               inkscape:connector-curvature="0" />
          </symbol>
          <symbol
             id="textext-5bbe67b6-1"
             overflow="visible"
             style="overflow:visible">
            <path
               id="path6329"
               d="M 3.328125,-3.015625 C 3.390625,-3.265625 3.625,-4.1875 4.3125,-4.1875 c 0.046875,0 0.296875,0 0.5,0.125 C 4.53125,-4 4.34375,-3.765625 4.34375,-3.515625 c 0,0.15625 0.109375,0.34375 0.375,0.34375 0.21875,0 0.53125,-0.171875 0.53125,-0.578125 0,-0.515625 -0.578125,-0.65625 -0.921875,-0.65625 -0.578125,0 -0.921875,0.53125 -1.046875,0.75 -0.25,-0.65625 -0.78125,-0.75 -1.078125,-0.75 -1.03125,0 -1.609375,1.28125 -1.609375,1.53125 0,0.109375 0.109375,0.109375 0.125,0.109375 0.078125,0 0.109375,-0.03125 0.125,-0.109375 0.34375,-1.0625 1,-1.3125 1.34375,-1.3125 0.1875,0 0.53125,0.09375 0.53125,0.671875 0,0.3125 -0.171875,0.96875 -0.53125,2.375 -0.15625,0.609375 -0.515625,1.03125 -0.953125,1.03125 -0.0625,0 -0.28125,0 -0.5,-0.125 0.25,-0.0625 0.46875,-0.265625 0.46875,-0.546875 0,-0.265625 -0.21875,-0.34375 -0.359375,-0.34375 -0.3125,0 -0.546875,0.25 -0.546875,0.578125 0,0.453125 0.484375,0.65625 0.921875,0.65625 0.671875,0 1.03125,-0.703125 1.046875,-0.75 0.125,0.359375 0.484375,0.75 1.078125,0.75 1.03125,0 1.59375,-1.28125 1.59375,-1.53125 0,-0.109375 -0.078125,-0.109375 -0.109375,-0.109375 -0.09375,0 -0.109375,0.046875 -0.140625,0.109375 -0.328125,1.078125 -1,1.3125 -1.3125,1.3125 -0.390625,0 -0.546875,-0.3125 -0.546875,-0.65625 0,-0.21875 0.046875,-0.4375 0.15625,-0.875 z m 0,0"
               style="stroke:none"
               inkscape:connector-curvature="0" />
          </symbol>
          <symbol
             id="textext-5bbe67b6-2"
             overflow="visible"
             style="overflow:visible">
            <path
               id="path6332"
               d="m 3.296875,2.390625 c 0,-0.03125 0,-0.046875 -0.171875,-0.21875 C 1.890625,0.921875 1.5625,-0.96875 1.5625,-2.5 c 0,-1.734375 0.375,-3.46875 1.609375,-4.703125 0.125,-0.125 0.125,-0.140625 0.125,-0.171875 0,-0.078125 -0.03125,-0.109375 -0.09375,-0.109375 -0.109375,0 -1,0.6875 -1.59375,1.953125 -0.5,1.09375 -0.625,2.203125 -0.625,3.03125 0,0.78125 0.109375,1.984375 0.65625,3.125 C 2.25,1.84375 3.09375,2.5 3.203125,2.5 c 0.0625,0 0.09375,-0.03125 0.09375,-0.109375 z m 0,0"
               style="stroke:none"
               inkscape:connector-curvature="0" />
          </symbol>
          <symbol
             id="textext-5bbe67b6-3"
             overflow="visible"
             style="overflow:visible">
            <path
               id="path6335"
               d="m 2.875,-2.5 c 0,-0.765625 -0.109375,-1.96875 -0.65625,-3.109375 -0.59375,-1.21875 -1.453125,-1.875 -1.546875,-1.875 -0.0625,0 -0.109375,0.046875 -0.109375,0.109375 0,0.03125 0,0.046875 0.1875,0.234375 0.984375,0.984375 1.546875,2.5625 1.546875,4.640625 0,1.71875 -0.359375,3.46875 -1.59375,4.71875 C 0.5625,2.34375 0.5625,2.359375 0.5625,2.390625 0.5625,2.453125 0.609375,2.5 0.671875,2.5 0.765625,2.5 1.671875,1.8125 2.25,0.546875 2.765625,-0.546875 2.875,-1.65625 2.875,-2.5 z m 0,0"
               style="stroke:none"
               inkscape:connector-curvature="0" />
          </symbol>
          <symbol
             id="textext-5bbe67b6-4"
             overflow="visible"
             style="overflow:visible">
            <path
               id="path6338"
               d="m 6.84375,-3.265625 c 0.15625,0 0.34375,0 0.34375,-0.1875 C 7.1875,-3.65625 7,-3.65625 6.859375,-3.65625 l -5.96875,0 c -0.140625,0 -0.328125,0 -0.328125,0.203125 0,0.1875 0.1875,0.1875 0.328125,0.1875 z m 0.015625,1.9375 c 0.140625,0 0.328125,0 0.328125,-0.203125 0,-0.1875 -0.1875,-0.1875 -0.34375,-0.1875 l -5.953125,0 c -0.140625,0 -0.328125,0 -0.328125,0.1875 0,0.203125 0.1875,0.203125 0.328125,0.203125 z m 0,0"
               style="stroke:none"
               inkscape:connector-curvature="0" />
          </symbol>
          <symbol
             id="textext-5bbe67b6-5"
             overflow="visible"
             style="overflow:visible">
            <path
               id="path6341"
               d="m 6.5625,-2.296875 c 0.171875,0 0.359375,0 0.359375,-0.203125 0,-0.1875 -0.1875,-0.1875 -0.359375,-0.1875 l -5.390625,0 c -0.171875,0 -0.34375,0 -0.34375,0.1875 0,0.203125 0.171875,0.203125 0.34375,0.203125 z m 0,0"
               style="stroke:none"
               inkscape:connector-curvature="0" />
          </symbol>
          <symbol
             id="textext-5bbe67b6-6"
             overflow="visible"
             style="overflow:visible">
            <path
               id="path6344"
               d="M 1.734375,-0.734375 C 1.671875,-0.5 1.4375,-0.125 1.078125,-0.125 c -0.015625,0 -0.234375,0 -0.375,-0.09375 0.28125,-0.09375 0.3125,-0.34375 0.3125,-0.390625 0,-0.15625 -0.125,-0.25 -0.28125,-0.25 -0.203125,0 -0.40625,0.15625 -0.40625,0.421875 0,0.34375 0.390625,0.5 0.734375,0.5 0.328125,0 0.609375,-0.1875 0.78125,-0.484375 C 2.015625,-0.0625 2.390625,0.0625 2.671875,0.0625 c 0.8125,0 1.234375,-0.859375 1.234375,-1.0625 0,-0.09375 -0.09375,-0.09375 -0.109375,-0.09375 -0.109375,0 -0.109375,0.046875 -0.140625,0.125 -0.140625,0.484375 -0.5625,0.84375 -0.953125,0.84375 -0.28125,0 -0.421875,-0.1875 -0.421875,-0.453125 0,-0.1875 0.171875,-0.8125 0.359375,-1.59375 C 2.78125,-2.703125 3.09375,-2.875 3.328125,-2.875 c 0.015625,0 0.21875,0 0.375,0.09375 -0.21875,0.0625 -0.3125,0.265625 -0.3125,0.390625 0,0.140625 0.125,0.25 0.28125,0.25 0.15625,0 0.390625,-0.125 0.390625,-0.421875 0,-0.390625 -0.453125,-0.515625 -0.71875,-0.515625 -0.359375,0 -0.640625,0.234375 -0.78125,0.5 -0.125,-0.28125 -0.453125,-0.5 -0.84375,-0.5 C 0.9375,-3.078125 0.5,-2.21875 0.5,-2 c 0,0.078125 0.09375,0.078125 0.109375,0.078125 0.09375,0 0.09375,-0.015625 0.140625,-0.109375 C 0.921875,-2.578125 1.359375,-2.875 1.703125,-2.875 1.9375,-2.875 2.125,-2.75 2.125,-2.421875 2.125,-2.28125 2.03125,-1.9375 1.96875,-1.6875 z m 0,0"
               style="stroke:none"
               inkscape:connector-curvature="0" />
          </symbol>
          <symbol
             id="textext-5bbe67b6-7"
             overflow="visible"
             style="overflow:visible">
            <path
               id="path6347"
               d="m 3.515625,-1.265625 -0.234375,0 c -0.015625,0.15625 -0.09375,0.5625 -0.1875,0.625 -0.046875,0.046875 -0.578125,0.046875 -0.6875,0.046875 l -1.28125,0 c 0.734375,-0.640625 0.984375,-0.84375 1.390625,-1.171875 0.515625,-0.40625 1,-0.84375 1,-1.5 0,-0.84375 -0.734375,-1.359375 -1.625,-1.359375 -0.859375,0 -1.453125,0.609375 -1.453125,1.25 0,0.34375 0.296875,0.390625 0.375,0.390625 0.15625,0 0.359375,-0.125 0.359375,-0.375 0,-0.125 -0.046875,-0.375 -0.40625,-0.375 C 0.984375,-4.21875 1.453125,-4.375 1.78125,-4.375 c 0.703125,0 1.0625,0.546875 1.0625,1.109375 0,0.609375 -0.4375,1.078125 -0.65625,1.328125 L 0.515625,-0.265625 C 0.4375,-0.203125 0.4375,-0.1875 0.4375,0 l 2.875,0 z m 0,0"
               style="stroke:none"
               inkscape:connector-curvature="0" />
          </symbol>
        </g>
      </defs>
      <g
         id="textext-5bbe67b6-8">
        <g
           id="g6350"
           style="fill:#000000;fill-opacity:1">
          <use
             id="use6352"
             y="134.765"
             x="223.43201"
             xlink:href="#textext-5bbe67b6-0"
             width="744.09448"
             height="1052.3622" />
        </g>
        <g
           id="g6354"
           style="fill:#000000;fill-opacity:1">
          <use
             id="use6356"
             y="134.765"
             x="230.638"
             xlink:href="#textext-5bbe67b6-2"
             width="744.09448"
             height="1052.3622" />
        </g>
        <g
           id="g6358"
           style="fill:#000000;fill-opacity:1">
          <use
             id="use6360"
             y="134.765"
             x="234.51199"
             xlink:href="#textext-5bbe67b6-1"
             width="744.09448"
             height="1052.3622" />
        </g>
        <g
           id="g6362"
           style="fill:#000000;fill-opacity:1">
          <use
             id="use6364"
             y="134.765"
             x="240.20599"
             xlink:href="#textext-5bbe67b6-3"
             width="744.09448"
             height="1052.3622" />
        </g>
        <g
           id="g6366"
           style="fill:#000000;fill-opacity:1">
          <use
             id="use6368"
             y="134.765"
             x="246.85005"
             xlink:href="#textext-5bbe67b6-4"
             width="744.09448"
             height="1052.3622" />
        </g>
        <g
           id="g6370"
           style="fill:#000000;fill-opacity:1">
          <use
             id="use6372"
             y="134.765"
             x="257.36401"
             xlink:href="#textext-5bbe67b6-5"
             width="744.09448"
             height="1052.3622" />
        </g>
        <g
           id="g6374"
           style="fill:#000000;fill-opacity:1">
          <use
             id="use6376"
             y="130.842"
             x="266.30801"
             xlink:href="#textext-5bbe67b6-6"
             width="744.09448"
             height="1052.3622" />
        </g>
        <path
           id="path6378"
           transform="matrix(1,0,0,-1,266.308,132.274)"
           d="m 5.9375e-4,5.625e-4 4.51562525,0"
           style="fill:none;stroke:#000000;stroke-width:0.398;stroke-linecap:butt;stroke-linejoin:miter;stroke-miterlimit:10;stroke-opacity:1"
           inkscape:connector-curvature="0" />
        <g
           id="g6380"
           style="fill:#000000;fill-opacity:1">
          <use
             id="use6382"
             y="138.2"
             x="266.58099"
             xlink:href="#textext-5bbe67b6-7"
             width="744.09448"
             height="1052.3622" />
        </g>
      </g>
    </g>
  </g>
</svg>
