<?xml version="1.0" encoding="UTF-8" standalone="no"?>
<!-- Created with Inkscape (http://www.inkscape.org/) -->

<svg
   xmlns:ns0="http://www.iki.fi/pav/software/textext/"
   xmlns:dc="http://purl.org/dc/elements/1.1/"
   xmlns:cc="http://creativecommons.org/ns#"
   xmlns:rdf="http://www.w3.org/1999/02/22-rdf-syntax-ns#"
   xmlns:svg="http://www.w3.org/2000/svg"
   xmlns="http://www.w3.org/2000/svg"
   xmlns:xlink="http://www.w3.org/1999/xlink"
   xmlns:sodipodi="http://sodipodi.sourceforge.net/DTD/sodipodi-0.dtd"
   xmlns:inkscape="http://www.inkscape.org/namespaces/inkscape"
   width="765"
   height="990"
   id="svg2"
   version="1.1"
   inkscape:version="0.48.1 r9760"
   sodipodi:docname="parametrized_surface_mapping_labeled.svg"
   inkscape:export-filename="/home/nykamp/djangocode/materials/parametrized_surface_mapping_labeled.png"
   inkscape:export-xdpi="106.013"
   inkscape:export-ydpi="106.013">
  <sodipodi:namedview
     id="base"
     pagecolor="#ffffff"
     bordercolor="#666666"
     borderopacity="1.0"
     inkscape:pageopacity="0.0"
     inkscape:pageshadow="2"
     inkscape:zoom="1.4"
     inkscape:cx="363.15941"
     inkscape:cy="681.06597"
     inkscape:document-units="px"
     inkscape:current-layer="layer1"
     showgrid="true"
     inkscape:window-width="1440"
     inkscape:window-height="851"
     inkscape:window-x="0"
     inkscape:window-y="0"
     inkscape:window-maximized="1"
     inkscape:snap-global="true">
    <inkscape:grid
       id="grid3700"
       type="xygrid" />
  </sodipodi:namedview>
  <defs
     id="defs4">
    <marker
       inkscape:stockid="TriangleOutM"
       orient="auto"
       refY="0"
       refX="0"
       id="TriangleOutM"
       style="overflow:visible">
      <path
         id="path8315"
         d="m 5.77,0 -8.65,5 0,-10 8.65,5 z"
         style="fill-rule:evenodd;stroke:#000000;stroke-width:1pt;marker-start:none"
         transform="scale(0.4,0.4)"
         inkscape:connector-curvature="0" />
    </marker>
  </defs>
  <metadata
     id="metadata7">
    <rdf:RDF>
      <cc:Work
         rdf:about="">
        <dc:format>image/svg+xml</dc:format>
        <dc:type
           rdf:resource="http://purl.org/dc/dcmitype/StillImage" />
        <dc:title></dc:title>
      </cc:Work>
    </rdf:RDF>
  </metadata>
  <g
     transform="translate(0,-62.362183)"
     id="layer1"
     inkscape:groupmode="layer"
     inkscape:label="Layer 1">
    <path
       style="fill:none;stroke:#000000;stroke-width:5;stroke-linecap:butt;stroke-linejoin:miter;stroke-miterlimit:4;stroke-opacity:1;stroke-dasharray:none;stroke-dashoffset:0;marker-end:url(#TriangleOutM)"
       d="m 320,272.36218 c 0,0 80,0 110,0"
       id="path8164"
       inkscape:connector-curvature="0"
       sodipodi:nodetypes="cc" />
    <g
       transform="matrix(2.7030075,0,0,2.7030075,-250.01219,-77.59323)"
       ns0:text="$\\mathbf{T}$"
       ns0:preamble=""
       id="g9273">
      <defs
         id="defs9275">
        <g
           id="g9277">
          <symbol
             style="overflow:visible"
             overflow="visible"
             id="textext-d55e0bd7-0">
            <path
               inkscape:connector-curvature="0"
               style="stroke:none"
               d="m 7.34375,-6.734375 -6.71875,0 -0.203125,2.40625 0.46875,0 c 0.09375,-1.125 0.1875,-1.9375 1.625,-1.9375 l 0.765625,0 0,5.796875 -1.53125,0 L 1.75,0 c 0.546875,-0.03125 1.65625,-0.03125 2.234375,-0.03125 0.59375,0 1.703125,0 2.234375,0.03125 l 0,-0.46875 -1.53125,0 0,-5.796875 0.765625,0 c 1.421875,0 1.53125,0.796875 1.625,1.9375 l 0.46875,0 z m 0,0"
               id="path9280" />
          </symbol>
        </g>
      </defs>
      <g
         id="textext-d55e0bd7-1">
        <g
           style="fill:#000000;fill-opacity:1"
           id="g9283" />
      </g>
    </g>
    <g
       id="g8483"
       transform="matrix(2.2130561,0,0,2.2130561,-153.87644,-44.123011)"
       ns0:preamble=""
       ns0:text="$\\mathbf{\\Phi}(u,v)$">
      <defs
         id="defs8485">
        <g
           id="g8487">
          <symbol
             id="textext-dbd52aed-0"
             overflow="visible"
             style="overflow:visible">
            <path
               id="path8490"
               d="m 6.078125,-6.375 0,-0.46875 c -0.4375,0.03125 -1.5,0.03125 -1.984375,0.03125 -0.5,0 -1.578125,0 -2.015625,-0.03125 l 0,0.46875 1.34375,0 0,1.0625 c -1.546875,0.09375 -2.78125,0.828125 -2.78125,1.890625 0,1.0625 1.234375,1.796875 2.78125,1.890625 l 0,1.0625 -1.34375,0 0,0.46875 c 0.4375,-0.03125 1.515625,-0.03125 2,-0.03125 0.484375,0 1.5625,0 2,0.03125 l 0,-0.46875 -1.34375,0 0,-1.046875 c 2.578125,-0.203125 2.90625,-1.4375 2.90625,-1.90625 0,-0.484375 -0.34375,-1.703125 -2.90625,-1.90625 l 0,-1.046875 z m -2.65625,4.484375 c -1.234375,-0.1875 -1.3125,-0.953125 -1.3125,-1.53125 0,-0.578125 0.078125,-1.34375 1.3125,-1.515625 z m 1.3125,-3.0625 c 1.265625,0.140625 1.4375,0.8125 1.4375,1.53125 0,0.734375 -0.171875,1.390625 -1.4375,1.53125 z m 0,0"
               style="stroke:none"
               inkscape:connector-curvature="0" />
          </symbol>
          <symbol
             id="textext-dbd52aed-1"
             overflow="visible"
             style="overflow:visible">
            <path
               id="path8493"
               d="m 3.296875,2.390625 c 0,-0.03125 0,-0.046875 -0.171875,-0.21875 C 1.890625,0.921875 1.5625,-0.96875 1.5625,-2.5 c 0,-1.734375 0.375,-3.46875 1.609375,-4.703125 0.125,-0.125 0.125,-0.140625 0.125,-0.171875 0,-0.078125 -0.03125,-0.109375 -0.09375,-0.109375 -0.109375,0 -1,0.6875 -1.59375,1.953125 -0.5,1.09375 -0.625,2.203125 -0.625,3.03125 0,0.78125 0.109375,1.984375 0.65625,3.125 C 2.25,1.84375 3.09375,2.5 3.203125,2.5 c 0.0625,0 0.09375,-0.03125 0.09375,-0.109375 z m 0,0"
               style="stroke:none"
               inkscape:connector-curvature="0" />
          </symbol>
          <symbol
             id="textext-dbd52aed-2"
             overflow="visible"
             style="overflow:visible">
            <path
               id="path8496"
               d="m 2.875,-2.5 c 0,-0.765625 -0.109375,-1.96875 -0.65625,-3.109375 -0.59375,-1.21875 -1.453125,-1.875 -1.546875,-1.875 -0.0625,0 -0.109375,0.046875 -0.109375,0.109375 0,0.03125 0,0.046875 0.1875,0.234375 0.984375,0.984375 1.546875,2.5625 1.546875,4.640625 0,1.71875 -0.359375,3.46875 -1.59375,4.71875 C 0.5625,2.34375 0.5625,2.359375 0.5625,2.390625 0.5625,2.453125 0.609375,2.5 0.671875,2.5 0.765625,2.5 1.671875,1.8125 2.25,0.546875 2.765625,-0.546875 2.875,-1.65625 2.875,-2.5 z m 0,0"
               style="stroke:none"
               inkscape:connector-curvature="0" />
          </symbol>
          <symbol
             id="textext-dbd52aed-3"
             overflow="visible"
             style="overflow:visible">
            <path
               id="path8499"
               d="M 3.484375,-0.5625 C 3.59375,-0.15625 3.953125,0.109375 4.375,0.109375 4.71875,0.109375 4.953125,-0.125 5.109375,-0.4375 5.28125,-0.796875 5.40625,-1.40625 5.40625,-1.421875 c 0,-0.109375 -0.078125,-0.109375 -0.109375,-0.109375 -0.109375,0 -0.109375,0.046875 -0.140625,0.1875 -0.140625,0.5625 -0.328125,1.234375 -0.75,1.234375 -0.203125,0 -0.3125,-0.125 -0.3125,-0.453125 0,-0.21875 0.125,-0.6875 0.203125,-1.046875 L 4.578125,-2.6875 C 4.609375,-2.828125 4.703125,-3.203125 4.75,-3.359375 4.796875,-3.59375 4.890625,-3.96875 4.890625,-4.03125 c 0,-0.171875 -0.140625,-0.265625 -0.28125,-0.265625 -0.046875,0 -0.3125,0.015625 -0.390625,0.34375 -0.1875,0.734375 -0.625,2.484375 -0.75,3 -0.015625,0.046875 -0.40625,0.84375 -1.140625,0.84375 -0.515625,0 -0.609375,-0.453125 -0.609375,-0.8125 0,-0.5625 0.28125,-1.34375 0.53125,-2.03125 0.125,-0.3125 0.171875,-0.453125 0.171875,-0.640625 0,-0.4375 -0.3125,-0.8125 -0.8125,-0.8125 -0.953125,0 -1.3125,1.453125 -1.3125,1.53125 0,0.109375 0.09375,0.109375 0.109375,0.109375 0.109375,0 0.109375,-0.03125 0.15625,-0.1875 0.25,-0.859375 0.640625,-1.234375 1.015625,-1.234375 0.09375,0 0.25,0.015625 0.25,0.328125 0,0.234375 -0.109375,0.53125 -0.171875,0.671875 -0.375,1 -0.578125,1.609375 -0.578125,2.09375 0,0.953125 0.6875,1.203125 1.21875,1.203125 0.65625,0 1.015625,-0.453125 1.1875,-0.671875 z m 0,0"
               style="stroke:none"
               inkscape:connector-curvature="0" />
          </symbol>
          <symbol
             id="textext-dbd52aed-4"
             overflow="visible"
             style="overflow:visible">
            <path
               id="path8502"
               d="m 2.03125,-0.015625 c 0,-0.65625 -0.25,-1.046875 -0.640625,-1.046875 -0.328125,0 -0.53125,0.25 -0.53125,0.53125 C 0.859375,-0.265625 1.0625,0 1.390625,0 1.5,0 1.640625,-0.046875 1.734375,-0.125 1.765625,-0.15625 1.78125,-0.15625 1.78125,-0.15625 c 0.015625,0 0.015625,0 0.015625,0.140625 0,0.75 -0.34375,1.34375 -0.671875,1.671875 -0.109375,0.109375 -0.109375,0.125 -0.109375,0.15625 0,0.078125 0.046875,0.109375 0.09375,0.109375 0.109375,0 0.921875,-0.765625 0.921875,-1.9375 z m 0,0"
               style="stroke:none"
               inkscape:connector-curvature="0" />
          </symbol>
          <symbol
             id="textext-dbd52aed-5"
             overflow="visible"
             style="overflow:visible">
            <path
               id="path8505"
               d="m 4.671875,-3.703125 c 0,-0.546875 -0.265625,-0.703125 -0.4375,-0.703125 -0.25,0 -0.5,0.265625 -0.5,0.484375 0,0.125 0.046875,0.1875 0.15625,0.296875 0.21875,0.203125 0.34375,0.453125 0.34375,0.8125 0,0.421875 -0.609375,2.703125 -1.765625,2.703125 -0.515625,0 -0.75,-0.34375 -0.75,-0.875 0,-0.546875 0.28125,-1.28125 0.578125,-2.109375 0.078125,-0.171875 0.125,-0.3125 0.125,-0.5 0,-0.4375 -0.3125,-0.8125 -0.8125,-0.8125 -0.9375,0 -1.3125,1.453125 -1.3125,1.53125 0,0.109375 0.09375,0.109375 0.109375,0.109375 0.109375,0 0.109375,-0.03125 0.15625,-0.1875 0.296875,-1 0.71875,-1.234375 1.015625,-1.234375 0.078125,0 0.25,0 0.25,0.3125 0,0.25 -0.109375,0.53125 -0.171875,0.703125 -0.4375,1.15625 -0.5625,1.609375 -0.5625,2.046875 0,1.078125 0.875,1.234375 1.328125,1.234375 1.671875,0 2.25,-3.296875 2.25,-3.8125 z m 0,0"
               style="stroke:none"
               inkscape:connector-curvature="0" />
          </symbol>
        </g>
      </defs>
      <g
         id="textext-dbd52aed-6">
        <g
           id="g8508"
           style="fill:#000000;fill-opacity:1">
          <use
             id="use8510"
             y="134.765"
             x="223.43201"
             xlink:href="#textext-dbd52aed-0"
             width="765"
             height="990" />
        </g>
        <g
           id="g8512"
           style="fill:#000000;fill-opacity:1">
          <use
             id="use8514"
             y="134.765"
             x="231.707"
             xlink:href="#textext-dbd52aed-1"
             width="765"
             height="990" />
        </g>
        <g
           id="g8516"
           style="fill:#000000;fill-opacity:1">
          <use
             id="use8518"
             y="134.765"
             x="235.58099"
             xlink:href="#textext-dbd52aed-3"
             width="765"
             height="990" />
          <use
             id="use8520"
             y="134.765"
             x="241.28459"
             xlink:href="#textext-dbd52aed-4"
             width="765"
             height="990" />
        </g>
        <g
           id="g8522"
           style="fill:#000000;fill-opacity:1">
          <use
             id="use8524"
             y="134.765"
             x="245.71596"
             xlink:href="#textext-dbd52aed-5"
             width="765"
             height="990" />
        </g>
        <g
           id="g8526"
           style="fill:#000000;fill-opacity:1">
          <use
             id="use8528"
             y="134.765"
             x="250.899"
             xlink:href="#textext-dbd52aed-2"
             width="765"
             height="990" />
        </g>
      </g>
    </g>
    <rect
       ry="0.18890198"
       rx="0.15745553"
       y="224.1723"
       x="122.60678"
       height="110"
       width="130"
       id="rect3045-7"
       style="fill:#00ff00;stroke:#000000;stroke-width:4;stroke-linecap:butt;stroke-linejoin:miter;stroke-miterlimit:4;stroke-opacity:1;stroke-dasharray:none;stroke-dashoffset:0" />
    <g
       id="g4165"
       ns0:preamble=""
       ns0:text="$(u,v+\\Delta v)$"
       transform="matrix(1.5,0,0,1.5,-243.8218,10.38154)">
      <defs
         id="defs4167">
        <g
           id="g4169">
          <symbol
             style="overflow:visible"
             id="textext-ad2320e9-0"
             overflow="visible">
            <path
               inkscape:connector-curvature="0"
               id="path4172"
               d="m 3.296875,2.390625 c 0,-0.03125 0,-0.046875 -0.171875,-0.21875 C 1.890625,0.921875 1.5625,-0.96875 1.5625,-2.5 c 0,-1.734375 0.375,-3.46875 1.609375,-4.703125 0.125,-0.125 0.125,-0.140625 0.125,-0.171875 0,-0.078125 -0.03125,-0.109375 -0.09375,-0.109375 -0.109375,0 -1,0.6875 -1.59375,1.953125 -0.5,1.09375 -0.625,2.203125 -0.625,3.03125 0,0.78125 0.109375,1.984375 0.65625,3.125 C 2.25,1.84375 3.09375,2.5 3.203125,2.5 c 0.0625,0 0.09375,-0.03125 0.09375,-0.109375 z m 0,0"
               style="stroke:none" />
          </symbol>
          <symbol
             style="overflow:visible"
             id="textext-ad2320e9-1"
             overflow="visible">
            <path
               inkscape:connector-curvature="0"
               id="path4175"
               d="m 4.078125,-2.296875 2.78125,0 C 7,-2.296875 7.1875,-2.296875 7.1875,-2.5 7.1875,-2.6875 7,-2.6875 6.859375,-2.6875 l -2.78125,0 0,-2.796875 c 0,-0.140625 0,-0.328125 -0.203125,-0.328125 -0.203125,0 -0.203125,0.1875 -0.203125,0.328125 l 0,2.796875 -2.78125,0 c -0.140625,0 -0.328125,0 -0.328125,0.1875 0,0.203125 0.1875,0.203125 0.328125,0.203125 l 2.78125,0 0,2.796875 c 0,0.140625 0,0.328125 0.203125,0.328125 0.203125,0 0.203125,-0.1875 0.203125,-0.328125 z m 0,0"
               style="stroke:none" />
          </symbol>
          <symbol
             style="overflow:visible"
             id="textext-ad2320e9-2"
             overflow="visible">
            <path
               inkscape:connector-curvature="0"
               id="path4178"
               d="m 4.40625,-6.953125 c -0.0625,-0.140625 -0.09375,-0.1875 -0.265625,-0.1875 -0.15625,0 -0.1875,0.046875 -0.25,0.1875 l -3.375,6.75 C 0.46875,-0.109375 0.46875,-0.09375 0.46875,-0.078125 0.46875,0 0.53125,0 0.6875,0 l 6.921875,0 c 0.15625,0 0.21875,0 0.21875,-0.078125 0,-0.015625 0,-0.03125 -0.046875,-0.125 z m -0.578125,0.8125 2.6875,5.390625 -5.375,0 z m 0,0"
               style="stroke:none" />
          </symbol>
          <symbol
             style="overflow:visible"
             id="textext-ad2320e9-3"
             overflow="visible">
            <path
               inkscape:connector-curvature="0"
               id="path4181"
               d="m 2.875,-2.5 c 0,-0.765625 -0.109375,-1.96875 -0.65625,-3.109375 -0.59375,-1.21875 -1.453125,-1.875 -1.546875,-1.875 -0.0625,0 -0.109375,0.046875 -0.109375,0.109375 0,0.03125 0,0.046875 0.1875,0.234375 0.984375,0.984375 1.546875,2.5625 1.546875,4.640625 0,1.71875 -0.359375,3.46875 -1.59375,4.71875 C 0.5625,2.34375 0.5625,2.359375 0.5625,2.390625 0.5625,2.453125 0.609375,2.5 0.671875,2.5 0.765625,2.5 1.671875,1.8125 2.25,0.546875 2.765625,-0.546875 2.875,-1.65625 2.875,-2.5 z m 0,0"
               style="stroke:none" />
          </symbol>
          <symbol
             style="overflow:visible"
             id="textext-ad2320e9-4"
             overflow="visible">
            <path
               inkscape:connector-curvature="0"
               id="path4184"
               d="M 3.484375,-0.5625 C 3.59375,-0.15625 3.953125,0.109375 4.375,0.109375 4.71875,0.109375 4.953125,-0.125 5.109375,-0.4375 5.28125,-0.796875 5.40625,-1.40625 5.40625,-1.421875 c 0,-0.109375 -0.078125,-0.109375 -0.109375,-0.109375 -0.109375,0 -0.109375,0.046875 -0.140625,0.1875 -0.140625,0.5625 -0.328125,1.234375 -0.75,1.234375 -0.203125,0 -0.3125,-0.125 -0.3125,-0.453125 0,-0.21875 0.125,-0.6875 0.203125,-1.046875 L 4.578125,-2.6875 C 4.609375,-2.828125 4.703125,-3.203125 4.75,-3.359375 4.796875,-3.59375 4.890625,-3.96875 4.890625,-4.03125 c 0,-0.171875 -0.140625,-0.265625 -0.28125,-0.265625 -0.046875,0 -0.3125,0.015625 -0.390625,0.34375 -0.1875,0.734375 -0.625,2.484375 -0.75,3 -0.015625,0.046875 -0.40625,0.84375 -1.140625,0.84375 -0.515625,0 -0.609375,-0.453125 -0.609375,-0.8125 0,-0.5625 0.28125,-1.34375 0.53125,-2.03125 0.125,-0.3125 0.171875,-0.453125 0.171875,-0.640625 0,-0.4375 -0.3125,-0.8125 -0.8125,-0.8125 -0.953125,0 -1.3125,1.453125 -1.3125,1.53125 0,0.109375 0.09375,0.109375 0.109375,0.109375 0.109375,0 0.109375,-0.03125 0.15625,-0.1875 0.25,-0.859375 0.640625,-1.234375 1.015625,-1.234375 0.09375,0 0.25,0.015625 0.25,0.328125 0,0.234375 -0.109375,0.53125 -0.171875,0.671875 -0.375,1 -0.578125,1.609375 -0.578125,2.09375 0,0.953125 0.6875,1.203125 1.21875,1.203125 0.65625,0 1.015625,-0.453125 1.1875,-0.671875 z m 0,0"
               style="stroke:none" />
          </symbol>
          <symbol
             style="overflow:visible"
             id="textext-ad2320e9-5"
             overflow="visible">
            <path
               inkscape:connector-curvature="0"
               id="path4187"
               d="m 2.03125,-0.015625 c 0,-0.65625 -0.25,-1.046875 -0.640625,-1.046875 -0.328125,0 -0.53125,0.25 -0.53125,0.53125 C 0.859375,-0.265625 1.0625,0 1.390625,0 1.5,0 1.640625,-0.046875 1.734375,-0.125 1.765625,-0.15625 1.78125,-0.15625 1.78125,-0.15625 c 0.015625,0 0.015625,0 0.015625,0.140625 0,0.75 -0.34375,1.34375 -0.671875,1.671875 -0.109375,0.109375 -0.109375,0.125 -0.109375,0.15625 0,0.078125 0.046875,0.109375 0.09375,0.109375 0.109375,0 0.921875,-0.765625 0.921875,-1.9375 z m 0,0"
               style="stroke:none" />
          </symbol>
          <symbol
             style="overflow:visible"
             id="textext-ad2320e9-6"
             overflow="visible">
            <path
               inkscape:connector-curvature="0"
               id="path4190"
               d="m 4.671875,-3.703125 c 0,-0.546875 -0.265625,-0.703125 -0.4375,-0.703125 -0.25,0 -0.5,0.265625 -0.5,0.484375 0,0.125 0.046875,0.1875 0.15625,0.296875 0.21875,0.203125 0.34375,0.453125 0.34375,0.8125 0,0.421875 -0.609375,2.703125 -1.765625,2.703125 -0.515625,0 -0.75,-0.34375 -0.75,-0.875 0,-0.546875 0.28125,-1.28125 0.578125,-2.109375 0.078125,-0.171875 0.125,-0.3125 0.125,-0.5 0,-0.4375 -0.3125,-0.8125 -0.8125,-0.8125 -0.9375,0 -1.3125,1.453125 -1.3125,1.53125 0,0.109375 0.09375,0.109375 0.109375,0.109375 0.109375,0 0.109375,-0.03125 0.15625,-0.1875 0.296875,-1 0.71875,-1.234375 1.015625,-1.234375 0.078125,0 0.25,0 0.25,0.3125 0,0.25 -0.109375,0.53125 -0.171875,0.703125 -0.4375,1.15625 -0.5625,1.609375 -0.5625,2.046875 0,1.078125 0.875,1.234375 1.328125,1.234375 1.671875,0 2.25,-3.296875 2.25,-3.8125 z m 0,0"
               style="stroke:none" />
          </symbol>
        </g>
      </defs>
      <g
         id="textext-ad2320e9-7">
        <g
           id="g4193"
           style="fill:#000000;fill-opacity:1">
          <use
             height="1052.3622"
             width="744.09448"
             id="use4195"
             y="134.765"
             x="223.43201"
             xlink:href="#textext-ad2320e9-0" />
        </g>
        <g
           id="g4197"
           style="fill:#000000;fill-opacity:1">
          <use
             height="1052.3622"
             width="744.09448"
             id="use4199"
             y="134.765"
             x="227.306"
             xlink:href="#textext-ad2320e9-4" />
          <use
             height="1052.3622"
             width="744.09448"
             id="use4201"
             y="134.765"
             x="233.00958"
             xlink:href="#textext-ad2320e9-5" />
        </g>
        <g
           id="g4203"
           style="fill:#000000;fill-opacity:1">
          <use
             height="1052.3622"
             width="744.09448"
             id="use4205"
             y="134.765"
             x="237.44095"
             xlink:href="#textext-ad2320e9-6" />
        </g>
        <g
           id="g4207"
           style="fill:#000000;fill-opacity:1">
          <use
             height="1052.3622"
             width="744.09448"
             id="use4209"
             y="134.765"
             x="244.838"
             xlink:href="#textext-ad2320e9-1" />
        </g>
        <g
           id="g4211"
           style="fill:#000000;fill-opacity:1">
          <use
             height="1052.3622"
             width="744.09448"
             id="use4213"
             y="134.765"
             x="254.79861"
             xlink:href="#textext-ad2320e9-2" />
        </g>
        <g
           id="g4215"
           style="fill:#000000;fill-opacity:1">
          <use
             height="1052.3622"
             width="744.09448"
             id="use4217"
             y="134.765"
             x="263.103"
             xlink:href="#textext-ad2320e9-6" />
        </g>
        <g
           id="g4219"
           style="fill:#000000;fill-opacity:1">
          <use
             height="1052.3622"
             width="744.09448"
             id="use4221"
             y="134.765"
             x="268.289"
             xlink:href="#textext-ad2320e9-3" />
        </g>
      </g>
    </g>
    <g
       ns0:text="$(u+\\Delta u,v+\\Delta v)$"
       ns0:preamble=""
       transform="matrix(1.5,0,0,1.5,-131.67894,10.38153)"
       id="g4549">
      <defs
         id="defs4551">
        <g
           id="g4553">
          <symbol
             style="overflow:visible"
             overflow="visible"
             id="textext-927fce59-0">
            <path
               inkscape:connector-curvature="0"
               style="stroke:none"
               d="m 3.296875,2.390625 c 0,-0.03125 0,-0.046875 -0.171875,-0.21875 C 1.890625,0.921875 1.5625,-0.96875 1.5625,-2.5 c 0,-1.734375 0.375,-3.46875 1.609375,-4.703125 0.125,-0.125 0.125,-0.140625 0.125,-0.171875 0,-0.078125 -0.03125,-0.109375 -0.09375,-0.109375 -0.109375,0 -1,0.6875 -1.59375,1.953125 -0.5,1.09375 -0.625,2.203125 -0.625,3.03125 0,0.78125 0.109375,1.984375 0.65625,3.125 C 2.25,1.84375 3.09375,2.5 3.203125,2.5 c 0.0625,0 0.09375,-0.03125 0.09375,-0.109375 z m 0,0"
               id="path4556" />
          </symbol>
          <symbol
             style="overflow:visible"
             overflow="visible"
             id="textext-927fce59-1">
            <path
               inkscape:connector-curvature="0"
               style="stroke:none"
               d="m 4.078125,-2.296875 2.78125,0 C 7,-2.296875 7.1875,-2.296875 7.1875,-2.5 7.1875,-2.6875 7,-2.6875 6.859375,-2.6875 l -2.78125,0 0,-2.796875 c 0,-0.140625 0,-0.328125 -0.203125,-0.328125 -0.203125,0 -0.203125,0.1875 -0.203125,0.328125 l 0,2.796875 -2.78125,0 c -0.140625,0 -0.328125,0 -0.328125,0.1875 0,0.203125 0.1875,0.203125 0.328125,0.203125 l 2.78125,0 0,2.796875 c 0,0.140625 0,0.328125 0.203125,0.328125 0.203125,0 0.203125,-0.1875 0.203125,-0.328125 z m 0,0"
               id="path4559" />
          </symbol>
          <symbol
             style="overflow:visible"
             overflow="visible"
             id="textext-927fce59-2">
            <path
               inkscape:connector-curvature="0"
               style="stroke:none"
               d="m 4.40625,-6.953125 c -0.0625,-0.140625 -0.09375,-0.1875 -0.265625,-0.1875 -0.15625,0 -0.1875,0.046875 -0.25,0.1875 l -3.375,6.75 C 0.46875,-0.109375 0.46875,-0.09375 0.46875,-0.078125 0.46875,0 0.53125,0 0.6875,0 l 6.921875,0 c 0.15625,0 0.21875,0 0.21875,-0.078125 0,-0.015625 0,-0.03125 -0.046875,-0.125 z m -0.578125,0.8125 2.6875,5.390625 -5.375,0 z m 0,0"
               id="path4562" />
          </symbol>
          <symbol
             style="overflow:visible"
             overflow="visible"
             id="textext-927fce59-3">
            <path
               inkscape:connector-curvature="0"
               style="stroke:none"
               d="m 2.875,-2.5 c 0,-0.765625 -0.109375,-1.96875 -0.65625,-3.109375 -0.59375,-1.21875 -1.453125,-1.875 -1.546875,-1.875 -0.0625,0 -0.109375,0.046875 -0.109375,0.109375 0,0.03125 0,0.046875 0.1875,0.234375 0.984375,0.984375 1.546875,2.5625 1.546875,4.640625 0,1.71875 -0.359375,3.46875 -1.59375,4.71875 C 0.5625,2.34375 0.5625,2.359375 0.5625,2.390625 0.5625,2.453125 0.609375,2.5 0.671875,2.5 0.765625,2.5 1.671875,1.8125 2.25,0.546875 2.765625,-0.546875 2.875,-1.65625 2.875,-2.5 z m 0,0"
               id="path4565" />
          </symbol>
          <symbol
             style="overflow:visible"
             overflow="visible"
             id="textext-927fce59-4">
            <path
               inkscape:connector-curvature="0"
               style="stroke:none"
               d="M 3.484375,-0.5625 C 3.59375,-0.15625 3.953125,0.109375 4.375,0.109375 4.71875,0.109375 4.953125,-0.125 5.109375,-0.4375 5.28125,-0.796875 5.40625,-1.40625 5.40625,-1.421875 c 0,-0.109375 -0.078125,-0.109375 -0.109375,-0.109375 -0.109375,0 -0.109375,0.046875 -0.140625,0.1875 -0.140625,0.5625 -0.328125,1.234375 -0.75,1.234375 -0.203125,0 -0.3125,-0.125 -0.3125,-0.453125 0,-0.21875 0.125,-0.6875 0.203125,-1.046875 L 4.578125,-2.6875 C 4.609375,-2.828125 4.703125,-3.203125 4.75,-3.359375 4.796875,-3.59375 4.890625,-3.96875 4.890625,-4.03125 c 0,-0.171875 -0.140625,-0.265625 -0.28125,-0.265625 -0.046875,0 -0.3125,0.015625 -0.390625,0.34375 -0.1875,0.734375 -0.625,2.484375 -0.75,3 -0.015625,0.046875 -0.40625,0.84375 -1.140625,0.84375 -0.515625,0 -0.609375,-0.453125 -0.609375,-0.8125 0,-0.5625 0.28125,-1.34375 0.53125,-2.03125 0.125,-0.3125 0.171875,-0.453125 0.171875,-0.640625 0,-0.4375 -0.3125,-0.8125 -0.8125,-0.8125 -0.953125,0 -1.3125,1.453125 -1.3125,1.53125 0,0.109375 0.09375,0.109375 0.109375,0.109375 0.109375,0 0.109375,-0.03125 0.15625,-0.1875 0.25,-0.859375 0.640625,-1.234375 1.015625,-1.234375 0.09375,0 0.25,0.015625 0.25,0.328125 0,0.234375 -0.109375,0.53125 -0.171875,0.671875 -0.375,1 -0.578125,1.609375 -0.578125,2.09375 0,0.953125 0.6875,1.203125 1.21875,1.203125 0.65625,0 1.015625,-0.453125 1.1875,-0.671875 z m 0,0"
               id="path4568" />
          </symbol>
          <symbol
             style="overflow:visible"
             overflow="visible"
             id="textext-927fce59-5">
            <path
               inkscape:connector-curvature="0"
               style="stroke:none"
               d="m 2.03125,-0.015625 c 0,-0.65625 -0.25,-1.046875 -0.640625,-1.046875 -0.328125,0 -0.53125,0.25 -0.53125,0.53125 C 0.859375,-0.265625 1.0625,0 1.390625,0 1.5,0 1.640625,-0.046875 1.734375,-0.125 1.765625,-0.15625 1.78125,-0.15625 1.78125,-0.15625 c 0.015625,0 0.015625,0 0.015625,0.140625 0,0.75 -0.34375,1.34375 -0.671875,1.671875 -0.109375,0.109375 -0.109375,0.125 -0.109375,0.15625 0,0.078125 0.046875,0.109375 0.09375,0.109375 0.109375,0 0.921875,-0.765625 0.921875,-1.9375 z m 0,0"
               id="path4571" />
          </symbol>
          <symbol
             style="overflow:visible"
             overflow="visible"
             id="textext-927fce59-6">
            <path
               inkscape:connector-curvature="0"
               style="stroke:none"
               d="m 4.671875,-3.703125 c 0,-0.546875 -0.265625,-0.703125 -0.4375,-0.703125 -0.25,0 -0.5,0.265625 -0.5,0.484375 0,0.125 0.046875,0.1875 0.15625,0.296875 0.21875,0.203125 0.34375,0.453125 0.34375,0.8125 0,0.421875 -0.609375,2.703125 -1.765625,2.703125 -0.515625,0 -0.75,-0.34375 -0.75,-0.875 0,-0.546875 0.28125,-1.28125 0.578125,-2.109375 0.078125,-0.171875 0.125,-0.3125 0.125,-0.5 0,-0.4375 -0.3125,-0.8125 -0.8125,-0.8125 -0.9375,0 -1.3125,1.453125 -1.3125,1.53125 0,0.109375 0.09375,0.109375 0.109375,0.109375 0.109375,0 0.109375,-0.03125 0.15625,-0.1875 0.296875,-1 0.71875,-1.234375 1.015625,-1.234375 0.078125,0 0.25,0 0.25,0.3125 0,0.25 -0.109375,0.53125 -0.171875,0.703125 -0.4375,1.15625 -0.5625,1.609375 -0.5625,2.046875 0,1.078125 0.875,1.234375 1.328125,1.234375 1.671875,0 2.25,-3.296875 2.25,-3.8125 z m 0,0"
               id="path4574" />
          </symbol>
        </g>
      </defs>
      <g
         id="textext-927fce59-7">
        <g
           style="fill:#000000;fill-opacity:1"
           id="g4577">
          <use
             height="1052.3622"
             width="744.09448"
             xlink:href="#textext-927fce59-0"
             x="223.43201"
             y="134.765"
             id="use4579" />
        </g>
        <g
           style="fill:#000000;fill-opacity:1"
           id="g4581">
          <use
             height="1052.3622"
             width="744.09448"
             xlink:href="#textext-927fce59-4"
             x="227.306"
             y="134.765"
             id="use4583" />
        </g>
        <g
           style="fill:#000000;fill-opacity:1"
           id="g4585">
          <use
             height="1052.3622"
             width="744.09448"
             xlink:href="#textext-927fce59-1"
             x="235.224"
             y="134.765"
             id="use4587" />
        </g>
        <g
           style="fill:#000000;fill-opacity:1"
           id="g4589">
          <use
             height="1052.3622"
             width="744.09448"
             xlink:href="#textext-927fce59-2"
             x="245.1846"
             y="134.765"
             id="use4591" />
        </g>
        <g
           style="fill:#000000;fill-opacity:1"
           id="g4593">
          <use
             height="1052.3622"
             width="744.09448"
             xlink:href="#textext-927fce59-4"
             x="253.48801"
             y="134.765"
             id="use4595" />
          <use
             height="1052.3622"
             width="744.09448"
             xlink:href="#textext-927fce59-5"
             x="259.19159"
             y="134.765"
             id="use4597" />
        </g>
        <g
           style="fill:#000000;fill-opacity:1"
           id="g4599">
          <use
             height="1052.3622"
             width="744.09448"
             xlink:href="#textext-927fce59-6"
             x="263.62296"
             y="134.765"
             id="use4601" />
        </g>
        <g
           style="fill:#000000;fill-opacity:1"
           id="g4603">
          <use
             height="1052.3622"
             width="744.09448"
             xlink:href="#textext-927fce59-1"
             x="271.01999"
             y="134.765"
             id="use4605" />
        </g>
        <g
           style="fill:#000000;fill-opacity:1"
           id="g4607">
          <use
             height="1052.3622"
             width="744.09448"
             xlink:href="#textext-927fce59-2"
             x="280.98062"
             y="134.765"
             id="use4609" />
        </g>
        <g
           style="fill:#000000;fill-opacity:1"
           id="g4611">
          <use
             height="1052.3622"
             width="744.09448"
             xlink:href="#textext-927fce59-6"
             x="289.285"
             y="134.765"
             id="use4613" />
        </g>
        <g
           style="fill:#000000;fill-opacity:1"
           id="g4615">
          <use
             height="1052.3622"
             width="744.09448"
             xlink:href="#textext-927fce59-3"
             x="294.47101"
             y="134.765"
             id="use4617" />
        </g>
      </g>
    </g>
    <g
       id="g4980"
       transform="matrix(1.5,0,0,1.5,-225.96466,151.81011)"
       ns0:preamble=""
       ns0:text="$(u,v)$">
      <defs
         id="defs4982">
        <g
           id="g4984">
          <symbol
             style="overflow:visible"
             id="textext-0b881bb2-0"
             overflow="visible">
            <path
               inkscape:connector-curvature="0"
               id="path4987"
               d="m 3.296875,2.390625 c 0,-0.03125 0,-0.046875 -0.171875,-0.21875 C 1.890625,0.921875 1.5625,-0.96875 1.5625,-2.5 c 0,-1.734375 0.375,-3.46875 1.609375,-4.703125 0.125,-0.125 0.125,-0.140625 0.125,-0.171875 0,-0.078125 -0.03125,-0.109375 -0.09375,-0.109375 -0.109375,0 -1,0.6875 -1.59375,1.953125 -0.5,1.09375 -0.625,2.203125 -0.625,3.03125 0,0.78125 0.109375,1.984375 0.65625,3.125 C 2.25,1.84375 3.09375,2.5 3.203125,2.5 c 0.0625,0 0.09375,-0.03125 0.09375,-0.109375 z m 0,0"
               style="stroke:none" />
          </symbol>
          <symbol
             style="overflow:visible"
             id="textext-0b881bb2-1"
             overflow="visible">
            <path
               inkscape:connector-curvature="0"
               id="path4990"
               d="m 2.875,-2.5 c 0,-0.765625 -0.109375,-1.96875 -0.65625,-3.109375 -0.59375,-1.21875 -1.453125,-1.875 -1.546875,-1.875 -0.0625,0 -0.109375,0.046875 -0.109375,0.109375 0,0.03125 0,0.046875 0.1875,0.234375 0.984375,0.984375 1.546875,2.5625 1.546875,4.640625 0,1.71875 -0.359375,3.46875 -1.59375,4.71875 C 0.5625,2.34375 0.5625,2.359375 0.5625,2.390625 0.5625,2.453125 0.609375,2.5 0.671875,2.5 0.765625,2.5 1.671875,1.8125 2.25,0.546875 2.765625,-0.546875 2.875,-1.65625 2.875,-2.5 z m 0,0"
               style="stroke:none" />
          </symbol>
          <symbol
             style="overflow:visible"
             id="textext-0b881bb2-2"
             overflow="visible">
            <path
               inkscape:connector-curvature="0"
               id="path4993"
               d="M 3.484375,-0.5625 C 3.59375,-0.15625 3.953125,0.109375 4.375,0.109375 4.71875,0.109375 4.953125,-0.125 5.109375,-0.4375 5.28125,-0.796875 5.40625,-1.40625 5.40625,-1.421875 c 0,-0.109375 -0.078125,-0.109375 -0.109375,-0.109375 -0.109375,0 -0.109375,0.046875 -0.140625,0.1875 -0.140625,0.5625 -0.328125,1.234375 -0.75,1.234375 -0.203125,0 -0.3125,-0.125 -0.3125,-0.453125 0,-0.21875 0.125,-0.6875 0.203125,-1.046875 L 4.578125,-2.6875 C 4.609375,-2.828125 4.703125,-3.203125 4.75,-3.359375 4.796875,-3.59375 4.890625,-3.96875 4.890625,-4.03125 c 0,-0.171875 -0.140625,-0.265625 -0.28125,-0.265625 -0.046875,0 -0.3125,0.015625 -0.390625,0.34375 -0.1875,0.734375 -0.625,2.484375 -0.75,3 -0.015625,0.046875 -0.40625,0.84375 -1.140625,0.84375 -0.515625,0 -0.609375,-0.453125 -0.609375,-0.8125 0,-0.5625 0.28125,-1.34375 0.53125,-2.03125 0.125,-0.3125 0.171875,-0.453125 0.171875,-0.640625 0,-0.4375 -0.3125,-0.8125 -0.8125,-0.8125 -0.953125,0 -1.3125,1.453125 -1.3125,1.53125 0,0.109375 0.09375,0.109375 0.109375,0.109375 0.109375,0 0.109375,-0.03125 0.15625,-0.1875 0.25,-0.859375 0.640625,-1.234375 1.015625,-1.234375 0.09375,0 0.25,0.015625 0.25,0.328125 0,0.234375 -0.109375,0.53125 -0.171875,0.671875 -0.375,1 -0.578125,1.609375 -0.578125,2.09375 0,0.953125 0.6875,1.203125 1.21875,1.203125 0.65625,0 1.015625,-0.453125 1.1875,-0.671875 z m 0,0"
               style="stroke:none" />
          </symbol>
          <symbol
             style="overflow:visible"
             id="textext-0b881bb2-3"
             overflow="visible">
            <path
               inkscape:connector-curvature="0"
               id="path4996"
               d="m 2.03125,-0.015625 c 0,-0.65625 -0.25,-1.046875 -0.640625,-1.046875 -0.328125,0 -0.53125,0.25 -0.53125,0.53125 C 0.859375,-0.265625 1.0625,0 1.390625,0 1.5,0 1.640625,-0.046875 1.734375,-0.125 1.765625,-0.15625 1.78125,-0.15625 1.78125,-0.15625 c 0.015625,0 0.015625,0 0.015625,0.140625 0,0.75 -0.34375,1.34375 -0.671875,1.671875 -0.109375,0.109375 -0.109375,0.125 -0.109375,0.15625 0,0.078125 0.046875,0.109375 0.09375,0.109375 0.109375,0 0.921875,-0.765625 0.921875,-1.9375 z m 0,0"
               style="stroke:none" />
          </symbol>
          <symbol
             style="overflow:visible"
             id="textext-0b881bb2-4"
             overflow="visible">
            <path
               inkscape:connector-curvature="0"
               id="path4999"
               d="m 4.671875,-3.703125 c 0,-0.546875 -0.265625,-0.703125 -0.4375,-0.703125 -0.25,0 -0.5,0.265625 -0.5,0.484375 0,0.125 0.046875,0.1875 0.15625,0.296875 0.21875,0.203125 0.34375,0.453125 0.34375,0.8125 0,0.421875 -0.609375,2.703125 -1.765625,2.703125 -0.515625,0 -0.75,-0.34375 -0.75,-0.875 0,-0.546875 0.28125,-1.28125 0.578125,-2.109375 0.078125,-0.171875 0.125,-0.3125 0.125,-0.5 0,-0.4375 -0.3125,-0.8125 -0.8125,-0.8125 -0.9375,0 -1.3125,1.453125 -1.3125,1.53125 0,0.109375 0.09375,0.109375 0.109375,0.109375 0.109375,0 0.109375,-0.03125 0.15625,-0.1875 0.296875,-1 0.71875,-1.234375 1.015625,-1.234375 0.078125,0 0.25,0 0.25,0.3125 0,0.25 -0.109375,0.53125 -0.171875,0.703125 -0.4375,1.15625 -0.5625,1.609375 -0.5625,2.046875 0,1.078125 0.875,1.234375 1.328125,1.234375 1.671875,0 2.25,-3.296875 2.25,-3.8125 z m 0,0"
               style="stroke:none" />
          </symbol>
        </g>
      </defs>
      <g
         id="textext-0b881bb2-5">
        <g
           id="g5002"
           style="fill:#000000;fill-opacity:1">
          <use
             height="1052.3622"
             width="744.09448"
             id="use5004"
             y="134.765"
             x="223.43201"
             xlink:href="#textext-0b881bb2-0" />
        </g>
        <g
           id="g5006"
           style="fill:#000000;fill-opacity:1">
          <use
             height="1052.3622"
             width="744.09448"
             id="use5008"
             y="134.765"
             x="227.306"
             xlink:href="#textext-0b881bb2-2" />
          <use
             height="1052.3622"
             width="744.09448"
             id="use5010"
             y="134.765"
             x="233.00958"
             xlink:href="#textext-0b881bb2-3" />
        </g>
        <g
           id="g5012"
           style="fill:#000000;fill-opacity:1">
          <use
             height="1052.3622"
             width="744.09448"
             id="use5014"
             y="134.765"
             x="237.44095"
             xlink:href="#textext-0b881bb2-4" />
        </g>
        <g
           id="g5016"
           style="fill:#000000;fill-opacity:1">
          <use
             height="1052.3622"
             width="744.09448"
             id="use5018"
             y="134.765"
             x="242.62399"
             xlink:href="#textext-0b881bb2-1" />
        </g>
      </g>
    </g>
    <g
       ns0:text="$(u+\\Delta u,v)$"
       ns0:preamble=""
       transform="matrix(1.5,0,0,1.5,-116.67894,153.23868)"
       id="g5488">
      <defs
         id="defs5490">
        <g
           id="g5492">
          <symbol
             style="overflow:visible"
             overflow="visible"
             id="textext-2705d0aa-0">
            <path
               inkscape:connector-curvature="0"
               style="stroke:none"
               d="m 3.296875,2.390625 c 0,-0.03125 0,-0.046875 -0.171875,-0.21875 C 1.890625,0.921875 1.5625,-0.96875 1.5625,-2.5 c 0,-1.734375 0.375,-3.46875 1.609375,-4.703125 0.125,-0.125 0.125,-0.140625 0.125,-0.171875 0,-0.078125 -0.03125,-0.109375 -0.09375,-0.109375 -0.109375,0 -1,0.6875 -1.59375,1.953125 -0.5,1.09375 -0.625,2.203125 -0.625,3.03125 0,0.78125 0.109375,1.984375 0.65625,3.125 C 2.25,1.84375 3.09375,2.5 3.203125,2.5 c 0.0625,0 0.09375,-0.03125 0.09375,-0.109375 z m 0,0"
               id="path5495" />
          </symbol>
          <symbol
             style="overflow:visible"
             overflow="visible"
             id="textext-2705d0aa-1">
            <path
               inkscape:connector-curvature="0"
               style="stroke:none"
               d="m 4.078125,-2.296875 2.78125,0 C 7,-2.296875 7.1875,-2.296875 7.1875,-2.5 7.1875,-2.6875 7,-2.6875 6.859375,-2.6875 l -2.78125,0 0,-2.796875 c 0,-0.140625 0,-0.328125 -0.203125,-0.328125 -0.203125,0 -0.203125,0.1875 -0.203125,0.328125 l 0,2.796875 -2.78125,0 c -0.140625,0 -0.328125,0 -0.328125,0.1875 0,0.203125 0.1875,0.203125 0.328125,0.203125 l 2.78125,0 0,2.796875 c 0,0.140625 0,0.328125 0.203125,0.328125 0.203125,0 0.203125,-0.1875 0.203125,-0.328125 z m 0,0"
               id="path5498" />
          </symbol>
          <symbol
             style="overflow:visible"
             overflow="visible"
             id="textext-2705d0aa-2">
            <path
               inkscape:connector-curvature="0"
               style="stroke:none"
               d="m 4.40625,-6.953125 c -0.0625,-0.140625 -0.09375,-0.1875 -0.265625,-0.1875 -0.15625,0 -0.1875,0.046875 -0.25,0.1875 l -3.375,6.75 C 0.46875,-0.109375 0.46875,-0.09375 0.46875,-0.078125 0.46875,0 0.53125,0 0.6875,0 l 6.921875,0 c 0.15625,0 0.21875,0 0.21875,-0.078125 0,-0.015625 0,-0.03125 -0.046875,-0.125 z m -0.578125,0.8125 2.6875,5.390625 -5.375,0 z m 0,0"
               id="path5501" />
          </symbol>
          <symbol
             style="overflow:visible"
             overflow="visible"
             id="textext-2705d0aa-3">
            <path
               inkscape:connector-curvature="0"
               style="stroke:none"
               d="m 2.875,-2.5 c 0,-0.765625 -0.109375,-1.96875 -0.65625,-3.109375 -0.59375,-1.21875 -1.453125,-1.875 -1.546875,-1.875 -0.0625,0 -0.109375,0.046875 -0.109375,0.109375 0,0.03125 0,0.046875 0.1875,0.234375 0.984375,0.984375 1.546875,2.5625 1.546875,4.640625 0,1.71875 -0.359375,3.46875 -1.59375,4.71875 C 0.5625,2.34375 0.5625,2.359375 0.5625,2.390625 0.5625,2.453125 0.609375,2.5 0.671875,2.5 0.765625,2.5 1.671875,1.8125 2.25,0.546875 2.765625,-0.546875 2.875,-1.65625 2.875,-2.5 z m 0,0"
               id="path5504" />
          </symbol>
          <symbol
             style="overflow:visible"
             overflow="visible"
             id="textext-2705d0aa-4">
            <path
               inkscape:connector-curvature="0"
               style="stroke:none"
               d="M 3.484375,-0.5625 C 3.59375,-0.15625 3.953125,0.109375 4.375,0.109375 4.71875,0.109375 4.953125,-0.125 5.109375,-0.4375 5.28125,-0.796875 5.40625,-1.40625 5.40625,-1.421875 c 0,-0.109375 -0.078125,-0.109375 -0.109375,-0.109375 -0.109375,0 -0.109375,0.046875 -0.140625,0.1875 -0.140625,0.5625 -0.328125,1.234375 -0.75,1.234375 -0.203125,0 -0.3125,-0.125 -0.3125,-0.453125 0,-0.21875 0.125,-0.6875 0.203125,-1.046875 L 4.578125,-2.6875 C 4.609375,-2.828125 4.703125,-3.203125 4.75,-3.359375 4.796875,-3.59375 4.890625,-3.96875 4.890625,-4.03125 c 0,-0.171875 -0.140625,-0.265625 -0.28125,-0.265625 -0.046875,0 -0.3125,0.015625 -0.390625,0.34375 -0.1875,0.734375 -0.625,2.484375 -0.75,3 -0.015625,0.046875 -0.40625,0.84375 -1.140625,0.84375 -0.515625,0 -0.609375,-0.453125 -0.609375,-0.8125 0,-0.5625 0.28125,-1.34375 0.53125,-2.03125 0.125,-0.3125 0.171875,-0.453125 0.171875,-0.640625 0,-0.4375 -0.3125,-0.8125 -0.8125,-0.8125 -0.953125,0 -1.3125,1.453125 -1.3125,1.53125 0,0.109375 0.09375,0.109375 0.109375,0.109375 0.109375,0 0.109375,-0.03125 0.15625,-0.1875 0.25,-0.859375 0.640625,-1.234375 1.015625,-1.234375 0.09375,0 0.25,0.015625 0.25,0.328125 0,0.234375 -0.109375,0.53125 -0.171875,0.671875 -0.375,1 -0.578125,1.609375 -0.578125,2.09375 0,0.953125 0.6875,1.203125 1.21875,1.203125 0.65625,0 1.015625,-0.453125 1.1875,-0.671875 z m 0,0"
               id="path5507" />
          </symbol>
          <symbol
             style="overflow:visible"
             overflow="visible"
             id="textext-2705d0aa-5">
            <path
               inkscape:connector-curvature="0"
               style="stroke:none"
               d="m 2.03125,-0.015625 c 0,-0.65625 -0.25,-1.046875 -0.640625,-1.046875 -0.328125,0 -0.53125,0.25 -0.53125,0.53125 C 0.859375,-0.265625 1.0625,0 1.390625,0 1.5,0 1.640625,-0.046875 1.734375,-0.125 1.765625,-0.15625 1.78125,-0.15625 1.78125,-0.15625 c 0.015625,0 0.015625,0 0.015625,0.140625 0,0.75 -0.34375,1.34375 -0.671875,1.671875 -0.109375,0.109375 -0.109375,0.125 -0.109375,0.15625 0,0.078125 0.046875,0.109375 0.09375,0.109375 0.109375,0 0.921875,-0.765625 0.921875,-1.9375 z m 0,0"
               id="path5510" />
          </symbol>
          <symbol
             style="overflow:visible"
             overflow="visible"
             id="textext-2705d0aa-6">
            <path
               inkscape:connector-curvature="0"
               style="stroke:none"
               d="m 4.671875,-3.703125 c 0,-0.546875 -0.265625,-0.703125 -0.4375,-0.703125 -0.25,0 -0.5,0.265625 -0.5,0.484375 0,0.125 0.046875,0.1875 0.15625,0.296875 0.21875,0.203125 0.34375,0.453125 0.34375,0.8125 0,0.421875 -0.609375,2.703125 -1.765625,2.703125 -0.515625,0 -0.75,-0.34375 -0.75,-0.875 0,-0.546875 0.28125,-1.28125 0.578125,-2.109375 0.078125,-0.171875 0.125,-0.3125 0.125,-0.5 0,-0.4375 -0.3125,-0.8125 -0.8125,-0.8125 -0.9375,0 -1.3125,1.453125 -1.3125,1.53125 0,0.109375 0.09375,0.109375 0.109375,0.109375 0.109375,0 0.109375,-0.03125 0.15625,-0.1875 0.296875,-1 0.71875,-1.234375 1.015625,-1.234375 0.078125,0 0.25,0 0.25,0.3125 0,0.25 -0.109375,0.53125 -0.171875,0.703125 -0.4375,1.15625 -0.5625,1.609375 -0.5625,2.046875 0,1.078125 0.875,1.234375 1.328125,1.234375 1.671875,0 2.25,-3.296875 2.25,-3.8125 z m 0,0"
               id="path5513" />
          </symbol>
        </g>
      </defs>
      <g
         id="textext-2705d0aa-7">
        <g
           style="fill:#000000;fill-opacity:1"
           id="g5516">
          <use
             height="1052.3622"
             width="744.09448"
             xlink:href="#textext-2705d0aa-0"
             x="223.43201"
             y="134.765"
             id="use5518" />
        </g>
        <g
           style="fill:#000000;fill-opacity:1"
           id="g5520">
          <use
             height="1052.3622"
             width="744.09448"
             xlink:href="#textext-2705d0aa-4"
             x="227.306"
             y="134.765"
             id="use5522" />
        </g>
        <g
           style="fill:#000000;fill-opacity:1"
           id="g5524">
          <use
             height="1052.3622"
             width="744.09448"
             xlink:href="#textext-2705d0aa-1"
             x="235.224"
             y="134.765"
             id="use5526" />
        </g>
        <g
           style="fill:#000000;fill-opacity:1"
           id="g5528">
          <use
             height="1052.3622"
             width="744.09448"
             xlink:href="#textext-2705d0aa-2"
             x="245.1846"
             y="134.765"
             id="use5530" />
        </g>
        <g
           style="fill:#000000;fill-opacity:1"
           id="g5532">
          <use
             height="1052.3622"
             width="744.09448"
             xlink:href="#textext-2705d0aa-4"
             x="253.48801"
             y="134.765"
             id="use5534" />
          <use
             height="1052.3622"
             width="744.09448"
             xlink:href="#textext-2705d0aa-5"
             x="259.19159"
             y="134.765"
             id="use5536" />
        </g>
        <g
           style="fill:#000000;fill-opacity:1"
           id="g5538">
          <use
             height="1052.3622"
             width="744.09448"
             xlink:href="#textext-2705d0aa-6"
             x="263.62296"
             y="134.765"
             id="use5540" />
        </g>
        <g
           style="fill:#000000;fill-opacity:1"
           id="g5542">
          <use
             height="1052.3622"
             width="744.09448"
             xlink:href="#textext-2705d0aa-3"
             x="268.806"
             y="134.765"
             id="use5544" />
        </g>
      </g>
    </g>
    <path
       sodipodi:type="arc"
       style="fill:#000000;stroke:#000000;stroke-width:3;stroke-linecap:butt;stroke-linejoin:miter;stroke-miterlimit:4;stroke-opacity:1;stroke-dasharray:none;stroke-dashoffset:0"
       id="path9585"
       sodipodi:cx="87.14286"
       sodipodi:cy="30.933611"
       sodipodi:rx="2.8571429"
       sodipodi:ry="2.8571429"
       d="m 90.000003,30.933611 c 0,1.577956 -1.279186,2.857143 -2.857143,2.857143 -1.577956,0 -2.857143,-1.279187 -2.857143,-2.857143 0,-1.577957 1.279187,-2.857143 2.857143,-2.857143 1.577957,0 2.857143,1.279186 2.857143,2.857143 z"
       transform="translate(36.535342,192.88155)" />
    <path
       sodipodi:type="arc"
       style="fill:#000000;stroke:#000000;stroke-width:3;stroke-linecap:butt;stroke-linejoin:miter;stroke-miterlimit:4;stroke-opacity:1;stroke-dasharray:none;stroke-dashoffset:0"
       id="path9585-1"
       sodipodi:cx="87.14286"
       sodipodi:cy="30.933611"
       sodipodi:rx="2.8571429"
       sodipodi:ry="2.8571429"
       d="m 90.000003,30.933611 c 0,1.577956 -1.279186,2.857143 -2.857143,2.857143 -1.577956,0 -2.857143,-1.279187 -2.857143,-2.857143 0,-1.577957 1.279187,-2.857143 2.857143,-2.857143 1.577957,0 2.857143,1.279186 2.857143,2.857143 z"
       transform="translate(164.74963,193.95297)" />
    <path
       sodipodi:type="arc"
       style="fill:#000000;stroke:#000000;stroke-width:3;stroke-linecap:butt;stroke-linejoin:miter;stroke-miterlimit:4;stroke-opacity:1;stroke-dasharray:none;stroke-dashoffset:0"
       id="path9585-0"
       sodipodi:cx="87.14286"
       sodipodi:cy="30.933611"
       sodipodi:rx="2.8571429"
       sodipodi:ry="2.8571429"
       d="m 90.000003,30.933611 c 0,1.577956 -1.279186,2.857143 -2.857143,2.857143 -1.577956,0 -2.857143,-1.279187 -2.857143,-2.857143 0,-1.577957 1.279187,-2.857143 2.857143,-2.857143 1.577957,0 2.857143,1.279186 2.857143,2.857143 z"
       transform="translate(165.10677,303.23868)" />
    <path
       sodipodi:type="arc"
       style="fill:#000000;stroke:#000000;stroke-width:3;stroke-linecap:butt;stroke-linejoin:miter;stroke-miterlimit:4;stroke-opacity:1;stroke-dasharray:none;stroke-dashoffset:0"
       id="path9585-4"
       sodipodi:cx="87.14286"
       sodipodi:cy="30.933611"
       sodipodi:rx="2.8571429"
       sodipodi:ry="2.8571429"
       d="m 90.000003,30.933611 c 0,1.577956 -1.279186,2.857143 -2.857143,2.857143 -1.577956,0 -2.857143,-1.279187 -2.857143,-2.857143 0,-1.577957 1.279187,-2.857143 2.857143,-2.857143 1.577957,0 2.857143,1.279186 2.857143,2.857143 z"
       transform="translate(35.10677,302.16725)" />
    <path
       sodipodi:nodetypes="ccccc"
       inkscape:connector-curvature="0"
       id="path5828"
       d="m 516.64356,256.75348 c 27.14286,-35.71427 49.25043,-42.85714 92.14286,-48.57144 13.57143,14.28572 20.71428,24.28573 27.85714,62.14287 -67.14286,7.85714 -90,39.99999 -90,39.99999 0,0 -5.71429,-39.99999 -30,-53.57142 z"
       style="fill:#0000ff;stroke:#000000;stroke-width:3;stroke-linecap:butt;stroke-linejoin:miter;stroke-miterlimit:4;stroke-opacity:1;stroke-dasharray:none;stroke-dashoffset:0" />
    <path
       sodipodi:type="arc"
       style="fill:#000000;stroke:#000000;stroke-width:3;stroke-linecap:butt;stroke-linejoin:miter;stroke-miterlimit:4;stroke-opacity:1;stroke-dasharray:none;stroke-dashoffset:0"
       id="path9585-8"
       sodipodi:cx="87.14286"
       sodipodi:cy="30.933611"
       sodipodi:rx="2.8571429"
       sodipodi:ry="2.8571429"
       d="m 90.000003,30.933611 c 0,1.577956 -1.279186,2.857143 -2.857143,2.857143 -1.577956,0 -2.857143,-1.279187 -2.857143,-2.857143 0,-1.577957 1.279187,-2.857143 2.857143,-2.857143 1.577957,0 2.857143,1.279186 2.857143,2.857143 z"
       transform="translate(459.14356,280.10559)" />
    <path
       sodipodi:type="arc"
       style="fill:#000000;stroke:#000000;stroke-width:3;stroke-linecap:butt;stroke-linejoin:miter;stroke-miterlimit:4;stroke-opacity:1;stroke-dasharray:none;stroke-dashoffset:0"
       id="path9585-89"
       sodipodi:cx="87.14286"
       sodipodi:cy="30.933611"
       sodipodi:rx="2.8571429"
       sodipodi:ry="2.8571429"
       d="m 90.000003,30.933611 c 0,1.577956 -1.279186,2.857143 -2.857143,2.857143 -1.577956,0 -2.857143,-1.279187 -2.857143,-2.857143 0,-1.577957 1.279187,-2.857143 2.857143,-2.857143 1.577957,0 2.857143,1.279186 2.857143,2.857143 z"
       transform="translate(429.14355,225.46272)" />
    <path
       sodipodi:type="arc"
       style="fill:#000000;stroke:#000000;stroke-width:3;stroke-linecap:butt;stroke-linejoin:miter;stroke-miterlimit:4;stroke-opacity:1;stroke-dasharray:none;stroke-dashoffset:0"
       id="path9585-2"
       sodipodi:cx="87.14286"
       sodipodi:cy="30.933611"
       sodipodi:rx="2.8571429"
       sodipodi:ry="2.8571429"
       d="m 90.000003,30.933611 c 0,1.577956 -1.279186,2.857143 -2.857143,2.857143 -1.577956,0 -2.857143,-1.279187 -2.857143,-2.857143 0,-1.577957 1.279187,-2.857143 2.857143,-2.857143 1.577957,0 2.857143,1.279186 2.857143,2.857143 z"
       transform="translate(549.14355,239.74844)" />
    <path
       sodipodi:type="arc"
       style="fill:#000000;stroke:#000000;stroke-width:3;stroke-linecap:butt;stroke-linejoin:miter;stroke-miterlimit:4;stroke-opacity:1;stroke-dasharray:none;stroke-dashoffset:0"
       id="path9585-88"
       sodipodi:cx="87.14286"
       sodipodi:cy="30.933611"
       sodipodi:rx="2.8571429"
       sodipodi:ry="2.8571429"
       d="m 90.000003,30.933611 c 0,1.577956 -1.279186,2.857143 -2.857143,2.857143 -1.577956,0 -2.857143,-1.279187 -2.857143,-2.857143 0,-1.577957 1.279187,-2.857143 2.857143,-2.857143 1.577957,0 2.857143,1.279186 2.857143,2.857143 z"
       transform="translate(522.71499,178.31987)" />
    <g
       ns0:text="$\\mathbf{\\Phi}(u+\\Delta u,v+\\Delta v)$"
       ns0:preamble=""
       transform="matrix(1.5,0,0,1.5,204.50071,-1.3229991)"
       id="g9844">
      <defs
         id="defs9846">
        <g
           id="g9848">
          <symbol
             overflow="visible"
             id="textext-298bd1d5-0">
            <path
               style="stroke:none;"
               d="M 6.078125 -6.375 L 6.078125 -6.84375 C 5.640625 -6.8125 4.578125 -6.8125 4.09375 -6.8125 C 3.59375 -6.8125 2.515625 -6.8125 2.078125 -6.84375 L 2.078125 -6.375 L 3.421875 -6.375 L 3.421875 -5.3125 C 1.875 -5.21875 0.640625 -4.484375 0.640625 -3.421875 C 0.640625 -2.359375 1.875 -1.625 3.421875 -1.53125 L 3.421875 -0.46875 L 2.078125 -0.46875 L 2.078125 0 C 2.515625 -0.03125 3.59375 -0.03125 4.078125 -0.03125 C 4.5625 -0.03125 5.640625 -0.03125 6.078125 0 L 6.078125 -0.46875 L 4.734375 -0.46875 L 4.734375 -1.515625 C 7.3125 -1.71875 7.640625 -2.953125 7.640625 -3.421875 C 7.640625 -3.90625 7.296875 -5.125 4.734375 -5.328125 L 4.734375 -6.375 Z M 3.421875 -1.890625 C 2.1875 -2.078125 2.109375 -2.84375 2.109375 -3.421875 C 2.109375 -4 2.1875 -4.765625 3.421875 -4.9375 Z M 4.734375 -4.953125 C 6 -4.8125 6.171875 -4.140625 6.171875 -3.421875 C 6.171875 -2.6875 6 -2.03125 4.734375 -1.890625 Z M 4.734375 -4.953125 "
               id="path9851" />
          </symbol>
          <symbol
             overflow="visible"
             id="textext-298bd1d5-1">
            <path
               style="stroke:none;"
               d="M 3.296875 2.390625 C 3.296875 2.359375 3.296875 2.34375 3.125 2.171875 C 1.890625 0.921875 1.5625 -0.96875 1.5625 -2.5 C 1.5625 -4.234375 1.9375 -5.96875 3.171875 -7.203125 C 3.296875 -7.328125 3.296875 -7.34375 3.296875 -7.375 C 3.296875 -7.453125 3.265625 -7.484375 3.203125 -7.484375 C 3.09375 -7.484375 2.203125 -6.796875 1.609375 -5.53125 C 1.109375 -4.4375 0.984375 -3.328125 0.984375 -2.5 C 0.984375 -1.71875 1.09375 -0.515625 1.640625 0.625 C 2.25 1.84375 3.09375 2.5 3.203125 2.5 C 3.265625 2.5 3.296875 2.46875 3.296875 2.390625 Z M 3.296875 2.390625 "
               id="path9854" />
          </symbol>
          <symbol
             overflow="visible"
             id="textext-298bd1d5-2">
            <path
               style="stroke:none;"
               d="M 4.078125 -2.296875 L 6.859375 -2.296875 C 7 -2.296875 7.1875 -2.296875 7.1875 -2.5 C 7.1875 -2.6875 7 -2.6875 6.859375 -2.6875 L 4.078125 -2.6875 L 4.078125 -5.484375 C 4.078125 -5.625 4.078125 -5.8125 3.875 -5.8125 C 3.671875 -5.8125 3.671875 -5.625 3.671875 -5.484375 L 3.671875 -2.6875 L 0.890625 -2.6875 C 0.75 -2.6875 0.5625 -2.6875 0.5625 -2.5 C 0.5625 -2.296875 0.75 -2.296875 0.890625 -2.296875 L 3.671875 -2.296875 L 3.671875 0.5 C 3.671875 0.640625 3.671875 0.828125 3.875 0.828125 C 4.078125 0.828125 4.078125 0.640625 4.078125 0.5 Z M 4.078125 -2.296875 "
               id="path9857" />
          </symbol>
          <symbol
             overflow="visible"
             id="textext-298bd1d5-3">
            <path
               style="stroke:none;"
               d="M 4.40625 -6.953125 C 4.34375 -7.09375 4.3125 -7.140625 4.140625 -7.140625 C 3.984375 -7.140625 3.953125 -7.09375 3.890625 -6.953125 L 0.515625 -0.203125 C 0.46875 -0.109375 0.46875 -0.09375 0.46875 -0.078125 C 0.46875 0 0.53125 0 0.6875 0 L 7.609375 0 C 7.765625 0 7.828125 0 7.828125 -0.078125 C 7.828125 -0.09375 7.828125 -0.109375 7.78125 -0.203125 Z M 3.828125 -6.140625 L 6.515625 -0.75 L 1.140625 -0.75 Z M 3.828125 -6.140625 "
               id="path9860" />
          </symbol>
          <symbol
             overflow="visible"
             id="textext-298bd1d5-4">
            <path
               style="stroke:none;"
               d="M 2.875 -2.5 C 2.875 -3.265625 2.765625 -4.46875 2.21875 -5.609375 C 1.625 -6.828125 0.765625 -7.484375 0.671875 -7.484375 C 0.609375 -7.484375 0.5625 -7.4375 0.5625 -7.375 C 0.5625 -7.34375 0.5625 -7.328125 0.75 -7.140625 C 1.734375 -6.15625 2.296875 -4.578125 2.296875 -2.5 C 2.296875 -0.78125 1.9375 0.96875 0.703125 2.21875 C 0.5625 2.34375 0.5625 2.359375 0.5625 2.390625 C 0.5625 2.453125 0.609375 2.5 0.671875 2.5 C 0.765625 2.5 1.671875 1.8125 2.25 0.546875 C 2.765625 -0.546875 2.875 -1.65625 2.875 -2.5 Z M 2.875 -2.5 "
               id="path9863" />
          </symbol>
          <symbol
             overflow="visible"
             id="textext-298bd1d5-5">
            <path
               style="stroke:none;"
               d="M 3.484375 -0.5625 C 3.59375 -0.15625 3.953125 0.109375 4.375 0.109375 C 4.71875 0.109375 4.953125 -0.125 5.109375 -0.4375 C 5.28125 -0.796875 5.40625 -1.40625 5.40625 -1.421875 C 5.40625 -1.53125 5.328125 -1.53125 5.296875 -1.53125 C 5.1875 -1.53125 5.1875 -1.484375 5.15625 -1.34375 C 5.015625 -0.78125 4.828125 -0.109375 4.40625 -0.109375 C 4.203125 -0.109375 4.09375 -0.234375 4.09375 -0.5625 C 4.09375 -0.78125 4.21875 -1.25 4.296875 -1.609375 L 4.578125 -2.6875 C 4.609375 -2.828125 4.703125 -3.203125 4.75 -3.359375 C 4.796875 -3.59375 4.890625 -3.96875 4.890625 -4.03125 C 4.890625 -4.203125 4.75 -4.296875 4.609375 -4.296875 C 4.5625 -4.296875 4.296875 -4.28125 4.21875 -3.953125 C 4.03125 -3.21875 3.59375 -1.46875 3.46875 -0.953125 C 3.453125 -0.90625 3.0625 -0.109375 2.328125 -0.109375 C 1.8125 -0.109375 1.71875 -0.5625 1.71875 -0.921875 C 1.71875 -1.484375 2 -2.265625 2.25 -2.953125 C 2.375 -3.265625 2.421875 -3.40625 2.421875 -3.59375 C 2.421875 -4.03125 2.109375 -4.40625 1.609375 -4.40625 C 0.65625 -4.40625 0.296875 -2.953125 0.296875 -2.875 C 0.296875 -2.765625 0.390625 -2.765625 0.40625 -2.765625 C 0.515625 -2.765625 0.515625 -2.796875 0.5625 -2.953125 C 0.8125 -3.8125 1.203125 -4.1875 1.578125 -4.1875 C 1.671875 -4.1875 1.828125 -4.171875 1.828125 -3.859375 C 1.828125 -3.625 1.71875 -3.328125 1.65625 -3.1875 C 1.28125 -2.1875 1.078125 -1.578125 1.078125 -1.09375 C 1.078125 -0.140625 1.765625 0.109375 2.296875 0.109375 C 2.953125 0.109375 3.3125 -0.34375 3.484375 -0.5625 Z M 3.484375 -0.5625 "
               id="path9866" />
          </symbol>
          <symbol
             overflow="visible"
             id="textext-298bd1d5-6">
            <path
               style="stroke:none;"
               d="M 2.03125 -0.015625 C 2.03125 -0.671875 1.78125 -1.0625 1.390625 -1.0625 C 1.0625 -1.0625 0.859375 -0.8125 0.859375 -0.53125 C 0.859375 -0.265625 1.0625 0 1.390625 0 C 1.5 0 1.640625 -0.046875 1.734375 -0.125 C 1.765625 -0.15625 1.78125 -0.15625 1.78125 -0.15625 C 1.796875 -0.15625 1.796875 -0.15625 1.796875 -0.015625 C 1.796875 0.734375 1.453125 1.328125 1.125 1.65625 C 1.015625 1.765625 1.015625 1.78125 1.015625 1.8125 C 1.015625 1.890625 1.0625 1.921875 1.109375 1.921875 C 1.21875 1.921875 2.03125 1.15625 2.03125 -0.015625 Z M 2.03125 -0.015625 "
               id="path9869" />
          </symbol>
          <symbol
             overflow="visible"
             id="textext-298bd1d5-7">
            <path
               style="stroke:none;"
               d="M 4.671875 -3.703125 C 4.671875 -4.25 4.40625 -4.40625 4.234375 -4.40625 C 3.984375 -4.40625 3.734375 -4.140625 3.734375 -3.921875 C 3.734375 -3.796875 3.78125 -3.734375 3.890625 -3.625 C 4.109375 -3.421875 4.234375 -3.171875 4.234375 -2.8125 C 4.234375 -2.390625 3.625 -0.109375 2.46875 -0.109375 C 1.953125 -0.109375 1.71875 -0.453125 1.71875 -0.984375 C 1.71875 -1.53125 2 -2.265625 2.296875 -3.09375 C 2.375 -3.265625 2.421875 -3.40625 2.421875 -3.59375 C 2.421875 -4.03125 2.109375 -4.40625 1.609375 -4.40625 C 0.671875 -4.40625 0.296875 -2.953125 0.296875 -2.875 C 0.296875 -2.765625 0.390625 -2.765625 0.40625 -2.765625 C 0.515625 -2.765625 0.515625 -2.796875 0.5625 -2.953125 C 0.859375 -3.953125 1.28125 -4.1875 1.578125 -4.1875 C 1.65625 -4.1875 1.828125 -4.1875 1.828125 -3.875 C 1.828125 -3.625 1.71875 -3.34375 1.65625 -3.171875 C 1.21875 -2.015625 1.09375 -1.5625 1.09375 -1.125 C 1.09375 -0.046875 1.96875 0.109375 2.421875 0.109375 C 4.09375 0.109375 4.671875 -3.1875 4.671875 -3.703125 Z M 4.671875 -3.703125 "
               id="path9872" />
          </symbol>
        </g>
      </defs>
      <g
         id="textext-298bd1d5-8">
        <g
           style="fill:rgb(0%,0%,0%);fill-opacity:1;"
           id="g9875">
          <use
             xlink:href="#textext-298bd1d5-0"
             x="223.432"
             y="134.765"
             id="use9877" />
        </g>
        <g
           style="fill:rgb(0%,0%,0%);fill-opacity:1;"
           id="g9879">
          <use
             xlink:href="#textext-298bd1d5-1"
             x="231.707"
             y="134.765"
             id="use9881" />
        </g>
        <g
           style="fill:rgb(0%,0%,0%);fill-opacity:1;"
           id="g9883">
          <use
             xlink:href="#textext-298bd1d5-5"
             x="235.581"
             y="134.765"
             id="use9885" />
        </g>
        <g
           style="fill:rgb(0%,0%,0%);fill-opacity:1;"
           id="g9887">
          <use
             xlink:href="#textext-298bd1d5-2"
             x="243.498"
             y="134.765"
             id="use9889" />
        </g>
        <g
           style="fill:rgb(0%,0%,0%);fill-opacity:1;"
           id="g9891">
          <use
             xlink:href="#textext-298bd1d5-3"
             x="253.458607"
             y="134.765"
             id="use9893" />
        </g>
        <g
           style="fill:rgb(0%,0%,0%);fill-opacity:1;"
           id="g9895">
          <use
             xlink:href="#textext-298bd1d5-5"
             x="261.763"
             y="134.765"
             id="use9897" />
          <use
             xlink:href="#textext-298bd1d5-6"
             x="267.466589"
             y="134.765"
             id="use9899" />
        </g>
        <g
           style="fill:rgb(0%,0%,0%);fill-opacity:1;"
           id="g9901">
          <use
             xlink:href="#textext-298bd1d5-7"
             x="271.897953"
             y="134.765"
             id="use9903" />
        </g>
        <g
           style="fill:rgb(0%,0%,0%);fill-opacity:1;"
           id="g9905">
          <use
             xlink:href="#textext-298bd1d5-2"
             x="279.294"
             y="134.765"
             id="use9907" />
        </g>
        <g
           style="fill:rgb(0%,0%,0%);fill-opacity:1;"
           id="g9909">
          <use
             xlink:href="#textext-298bd1d5-3"
             x="289.254607"
             y="134.765"
             id="use9911" />
        </g>
        <g
           style="fill:rgb(0%,0%,0%);fill-opacity:1;"
           id="g9913">
          <use
             xlink:href="#textext-298bd1d5-7"
             x="297.559"
             y="134.765"
             id="use9915" />
        </g>
        <g
           style="fill:rgb(0%,0%,0%);fill-opacity:1;"
           id="g9917">
          <use
             xlink:href="#textext-298bd1d5-4"
             x="302.746"
             y="134.765"
             id="use9919" />
        </g>
      </g>
    </g>
    <g
       id="g10532"
       transform="matrix(1.5,0,0,1.5,267.31543,90.32491)"
       ns0:preamble=""
       ns0:text="$\\mathbf{\\Phi}(u+\\Delta u,v)$">
      <defs
         id="defs10534">
        <g
           id="g10536">
          <symbol
             id="textext-193e96b2-0"
             overflow="visible">
            <path
               id="path10539"
               d="M 6.078125 -6.375 L 6.078125 -6.84375 C 5.640625 -6.8125 4.578125 -6.8125 4.09375 -6.8125 C 3.59375 -6.8125 2.515625 -6.8125 2.078125 -6.84375 L 2.078125 -6.375 L 3.421875 -6.375 L 3.421875 -5.3125 C 1.875 -5.21875 0.640625 -4.484375 0.640625 -3.421875 C 0.640625 -2.359375 1.875 -1.625 3.421875 -1.53125 L 3.421875 -0.46875 L 2.078125 -0.46875 L 2.078125 0 C 2.515625 -0.03125 3.59375 -0.03125 4.078125 -0.03125 C 4.5625 -0.03125 5.640625 -0.03125 6.078125 0 L 6.078125 -0.46875 L 4.734375 -0.46875 L 4.734375 -1.515625 C 7.3125 -1.71875 7.640625 -2.953125 7.640625 -3.421875 C 7.640625 -3.90625 7.296875 -5.125 4.734375 -5.328125 L 4.734375 -6.375 Z M 3.421875 -1.890625 C 2.1875 -2.078125 2.109375 -2.84375 2.109375 -3.421875 C 2.109375 -4 2.1875 -4.765625 3.421875 -4.9375 Z M 4.734375 -4.953125 C 6 -4.8125 6.171875 -4.140625 6.171875 -3.421875 C 6.171875 -2.6875 6 -2.03125 4.734375 -1.890625 Z M 4.734375 -4.953125 "
               style="stroke:none;" />
          </symbol>
          <symbol
             id="textext-193e96b2-1"
             overflow="visible">
            <path
               id="path10542"
               d="M 3.296875 2.390625 C 3.296875 2.359375 3.296875 2.34375 3.125 2.171875 C 1.890625 0.921875 1.5625 -0.96875 1.5625 -2.5 C 1.5625 -4.234375 1.9375 -5.96875 3.171875 -7.203125 C 3.296875 -7.328125 3.296875 -7.34375 3.296875 -7.375 C 3.296875 -7.453125 3.265625 -7.484375 3.203125 -7.484375 C 3.09375 -7.484375 2.203125 -6.796875 1.609375 -5.53125 C 1.109375 -4.4375 0.984375 -3.328125 0.984375 -2.5 C 0.984375 -1.71875 1.09375 -0.515625 1.640625 0.625 C 2.25 1.84375 3.09375 2.5 3.203125 2.5 C 3.265625 2.5 3.296875 2.46875 3.296875 2.390625 Z M 3.296875 2.390625 "
               style="stroke:none;" />
          </symbol>
          <symbol
             id="textext-193e96b2-2"
             overflow="visible">
            <path
               id="path10545"
               d="M 4.078125 -2.296875 L 6.859375 -2.296875 C 7 -2.296875 7.1875 -2.296875 7.1875 -2.5 C 7.1875 -2.6875 7 -2.6875 6.859375 -2.6875 L 4.078125 -2.6875 L 4.078125 -5.484375 C 4.078125 -5.625 4.078125 -5.8125 3.875 -5.8125 C 3.671875 -5.8125 3.671875 -5.625 3.671875 -5.484375 L 3.671875 -2.6875 L 0.890625 -2.6875 C 0.75 -2.6875 0.5625 -2.6875 0.5625 -2.5 C 0.5625 -2.296875 0.75 -2.296875 0.890625 -2.296875 L 3.671875 -2.296875 L 3.671875 0.5 C 3.671875 0.640625 3.671875 0.828125 3.875 0.828125 C 4.078125 0.828125 4.078125 0.640625 4.078125 0.5 Z M 4.078125 -2.296875 "
               style="stroke:none;" />
          </symbol>
          <symbol
             id="textext-193e96b2-3"
             overflow="visible">
            <path
               id="path10548"
               d="M 4.40625 -6.953125 C 4.34375 -7.09375 4.3125 -7.140625 4.140625 -7.140625 C 3.984375 -7.140625 3.953125 -7.09375 3.890625 -6.953125 L 0.515625 -0.203125 C 0.46875 -0.109375 0.46875 -0.09375 0.46875 -0.078125 C 0.46875 0 0.53125 0 0.6875 0 L 7.609375 0 C 7.765625 0 7.828125 0 7.828125 -0.078125 C 7.828125 -0.09375 7.828125 -0.109375 7.78125 -0.203125 Z M 3.828125 -6.140625 L 6.515625 -0.75 L 1.140625 -0.75 Z M 3.828125 -6.140625 "
               style="stroke:none;" />
          </symbol>
          <symbol
             id="textext-193e96b2-4"
             overflow="visible">
            <path
               id="path10551"
               d="M 2.875 -2.5 C 2.875 -3.265625 2.765625 -4.46875 2.21875 -5.609375 C 1.625 -6.828125 0.765625 -7.484375 0.671875 -7.484375 C 0.609375 -7.484375 0.5625 -7.4375 0.5625 -7.375 C 0.5625 -7.34375 0.5625 -7.328125 0.75 -7.140625 C 1.734375 -6.15625 2.296875 -4.578125 2.296875 -2.5 C 2.296875 -0.78125 1.9375 0.96875 0.703125 2.21875 C 0.5625 2.34375 0.5625 2.359375 0.5625 2.390625 C 0.5625 2.453125 0.609375 2.5 0.671875 2.5 C 0.765625 2.5 1.671875 1.8125 2.25 0.546875 C 2.765625 -0.546875 2.875 -1.65625 2.875 -2.5 Z M 2.875 -2.5 "
               style="stroke:none;" />
          </symbol>
          <symbol
             id="textext-193e96b2-5"
             overflow="visible">
            <path
               id="path10554"
               d="M 3.484375 -0.5625 C 3.59375 -0.15625 3.953125 0.109375 4.375 0.109375 C 4.71875 0.109375 4.953125 -0.125 5.109375 -0.4375 C 5.28125 -0.796875 5.40625 -1.40625 5.40625 -1.421875 C 5.40625 -1.53125 5.328125 -1.53125 5.296875 -1.53125 C 5.1875 -1.53125 5.1875 -1.484375 5.15625 -1.34375 C 5.015625 -0.78125 4.828125 -0.109375 4.40625 -0.109375 C 4.203125 -0.109375 4.09375 -0.234375 4.09375 -0.5625 C 4.09375 -0.78125 4.21875 -1.25 4.296875 -1.609375 L 4.578125 -2.6875 C 4.609375 -2.828125 4.703125 -3.203125 4.75 -3.359375 C 4.796875 -3.59375 4.890625 -3.96875 4.890625 -4.03125 C 4.890625 -4.203125 4.75 -4.296875 4.609375 -4.296875 C 4.5625 -4.296875 4.296875 -4.28125 4.21875 -3.953125 C 4.03125 -3.21875 3.59375 -1.46875 3.46875 -0.953125 C 3.453125 -0.90625 3.0625 -0.109375 2.328125 -0.109375 C 1.8125 -0.109375 1.71875 -0.5625 1.71875 -0.921875 C 1.71875 -1.484375 2 -2.265625 2.25 -2.953125 C 2.375 -3.265625 2.421875 -3.40625 2.421875 -3.59375 C 2.421875 -4.03125 2.109375 -4.40625 1.609375 -4.40625 C 0.65625 -4.40625 0.296875 -2.953125 0.296875 -2.875 C 0.296875 -2.765625 0.390625 -2.765625 0.40625 -2.765625 C 0.515625 -2.765625 0.515625 -2.796875 0.5625 -2.953125 C 0.8125 -3.8125 1.203125 -4.1875 1.578125 -4.1875 C 1.671875 -4.1875 1.828125 -4.171875 1.828125 -3.859375 C 1.828125 -3.625 1.71875 -3.328125 1.65625 -3.1875 C 1.28125 -2.1875 1.078125 -1.578125 1.078125 -1.09375 C 1.078125 -0.140625 1.765625 0.109375 2.296875 0.109375 C 2.953125 0.109375 3.3125 -0.34375 3.484375 -0.5625 Z M 3.484375 -0.5625 "
               style="stroke:none;" />
          </symbol>
          <symbol
             id="textext-193e96b2-6"
             overflow="visible">
            <path
               id="path10557"
               d="M 2.03125 -0.015625 C 2.03125 -0.671875 1.78125 -1.0625 1.390625 -1.0625 C 1.0625 -1.0625 0.859375 -0.8125 0.859375 -0.53125 C 0.859375 -0.265625 1.0625 0 1.390625 0 C 1.5 0 1.640625 -0.046875 1.734375 -0.125 C 1.765625 -0.15625 1.78125 -0.15625 1.78125 -0.15625 C 1.796875 -0.15625 1.796875 -0.15625 1.796875 -0.015625 C 1.796875 0.734375 1.453125 1.328125 1.125 1.65625 C 1.015625 1.765625 1.015625 1.78125 1.015625 1.8125 C 1.015625 1.890625 1.0625 1.921875 1.109375 1.921875 C 1.21875 1.921875 2.03125 1.15625 2.03125 -0.015625 Z M 2.03125 -0.015625 "
               style="stroke:none;" />
          </symbol>
          <symbol
             id="textext-193e96b2-7"
             overflow="visible">
            <path
               id="path10560"
               d="M 4.671875 -3.703125 C 4.671875 -4.25 4.40625 -4.40625 4.234375 -4.40625 C 3.984375 -4.40625 3.734375 -4.140625 3.734375 -3.921875 C 3.734375 -3.796875 3.78125 -3.734375 3.890625 -3.625 C 4.109375 -3.421875 4.234375 -3.171875 4.234375 -2.8125 C 4.234375 -2.390625 3.625 -0.109375 2.46875 -0.109375 C 1.953125 -0.109375 1.71875 -0.453125 1.71875 -0.984375 C 1.71875 -1.53125 2 -2.265625 2.296875 -3.09375 C 2.375 -3.265625 2.421875 -3.40625 2.421875 -3.59375 C 2.421875 -4.03125 2.109375 -4.40625 1.609375 -4.40625 C 0.671875 -4.40625 0.296875 -2.953125 0.296875 -2.875 C 0.296875 -2.765625 0.390625 -2.765625 0.40625 -2.765625 C 0.515625 -2.765625 0.515625 -2.796875 0.5625 -2.953125 C 0.859375 -3.953125 1.28125 -4.1875 1.578125 -4.1875 C 1.65625 -4.1875 1.828125 -4.1875 1.828125 -3.875 C 1.828125 -3.625 1.71875 -3.34375 1.65625 -3.171875 C 1.21875 -2.015625 1.09375 -1.5625 1.09375 -1.125 C 1.09375 -0.046875 1.96875 0.109375 2.421875 0.109375 C 4.09375 0.109375 4.671875 -3.1875 4.671875 -3.703125 Z M 4.671875 -3.703125 "
               style="stroke:none;" />
          </symbol>
        </g>
      </defs>
      <g
         id="textext-193e96b2-8">
        <g
           id="g10563"
           style="fill:rgb(0%,0%,0%);fill-opacity:1;">
          <use
             id="use10565"
             y="134.765"
             x="223.432"
             xlink:href="#textext-193e96b2-0" />
        </g>
        <g
           id="g10567"
           style="fill:rgb(0%,0%,0%);fill-opacity:1;">
          <use
             id="use10569"
             y="134.765"
             x="231.707"
             xlink:href="#textext-193e96b2-1" />
        </g>
        <g
           id="g10571"
           style="fill:rgb(0%,0%,0%);fill-opacity:1;">
          <use
             id="use10573"
             y="134.765"
             x="235.581"
             xlink:href="#textext-193e96b2-5" />
        </g>
        <g
           id="g10575"
           style="fill:rgb(0%,0%,0%);fill-opacity:1;">
          <use
             id="use10577"
             y="134.765"
             x="243.498"
             xlink:href="#textext-193e96b2-2" />
        </g>
        <g
           id="g10579"
           style="fill:rgb(0%,0%,0%);fill-opacity:1;">
          <use
             id="use10581"
             y="134.765"
             x="253.458607"
             xlink:href="#textext-193e96b2-3" />
        </g>
        <g
           id="g10583"
           style="fill:rgb(0%,0%,0%);fill-opacity:1;">
          <use
             id="use10585"
             y="134.765"
             x="261.763"
             xlink:href="#textext-193e96b2-5" />
          <use
             id="use10587"
             y="134.765"
             x="267.466589"
             xlink:href="#textext-193e96b2-6" />
        </g>
        <g
           id="g10589"
           style="fill:rgb(0%,0%,0%);fill-opacity:1;">
          <use
             id="use10591"
             y="134.765"
             x="271.897953"
             xlink:href="#textext-193e96b2-7" />
        </g>
        <g
           id="g10593"
           style="fill:rgb(0%,0%,0%);fill-opacity:1;">
          <use
             id="use10595"
             y="134.765"
             x="277.08"
             xlink:href="#textext-193e96b2-4" />
        </g>
      </g>
    </g>
    <g
       ns0:text="$\\mathbf{\\Phi}(u,v)$"
       ns0:preamble=""
       transform="matrix(1.5,0,0,1.5,189.30762,126.37178)"
       id="g11218">
      <defs
         id="defs11220">
        <g
           id="g11222">
          <symbol
             overflow="visible"
             id="symbol11224">
            <path
               style="stroke:none;"
               d="M 6.078125 -6.375 L 6.078125 -6.84375 C 5.640625 -6.8125 4.578125 -6.8125 4.09375 -6.8125 C 3.59375 -6.8125 2.515625 -6.8125 2.078125 -6.84375 L 2.078125 -6.375 L 3.421875 -6.375 L 3.421875 -5.3125 C 1.875 -5.21875 0.640625 -4.484375 0.640625 -3.421875 C 0.640625 -2.359375 1.875 -1.625 3.421875 -1.53125 L 3.421875 -0.46875 L 2.078125 -0.46875 L 2.078125 0 C 2.515625 -0.03125 3.59375 -0.03125 4.078125 -0.03125 C 4.5625 -0.03125 5.640625 -0.03125 6.078125 0 L 6.078125 -0.46875 L 4.734375 -0.46875 L 4.734375 -1.515625 C 7.3125 -1.71875 7.640625 -2.953125 7.640625 -3.421875 C 7.640625 -3.90625 7.296875 -5.125 4.734375 -5.328125 L 4.734375 -6.375 Z M 3.421875 -1.890625 C 2.1875 -2.078125 2.109375 -2.84375 2.109375 -3.421875 C 2.109375 -4 2.1875 -4.765625 3.421875 -4.9375 Z M 4.734375 -4.953125 C 6 -4.8125 6.171875 -4.140625 6.171875 -3.421875 C 6.171875 -2.6875 6 -2.03125 4.734375 -1.890625 Z M 4.734375 -4.953125 "
               id="path11226" />
          </symbol>
          <symbol
             overflow="visible"
             id="symbol11228">
            <path
               style="stroke:none;"
               d="M 3.296875 2.390625 C 3.296875 2.359375 3.296875 2.34375 3.125 2.171875 C 1.890625 0.921875 1.5625 -0.96875 1.5625 -2.5 C 1.5625 -4.234375 1.9375 -5.96875 3.171875 -7.203125 C 3.296875 -7.328125 3.296875 -7.34375 3.296875 -7.375 C 3.296875 -7.453125 3.265625 -7.484375 3.203125 -7.484375 C 3.09375 -7.484375 2.203125 -6.796875 1.609375 -5.53125 C 1.109375 -4.4375 0.984375 -3.328125 0.984375 -2.5 C 0.984375 -1.71875 1.09375 -0.515625 1.640625 0.625 C 2.25 1.84375 3.09375 2.5 3.203125 2.5 C 3.265625 2.5 3.296875 2.46875 3.296875 2.390625 Z M 3.296875 2.390625 "
               id="path11230" />
          </symbol>
          <symbol
             overflow="visible"
             id="symbol11232">
            <path
               style="stroke:none;"
               d="M 2.875 -2.5 C 2.875 -3.265625 2.765625 -4.46875 2.21875 -5.609375 C 1.625 -6.828125 0.765625 -7.484375 0.671875 -7.484375 C 0.609375 -7.484375 0.5625 -7.4375 0.5625 -7.375 C 0.5625 -7.34375 0.5625 -7.328125 0.75 -7.140625 C 1.734375 -6.15625 2.296875 -4.578125 2.296875 -2.5 C 2.296875 -0.78125 1.9375 0.96875 0.703125 2.21875 C 0.5625 2.34375 0.5625 2.359375 0.5625 2.390625 C 0.5625 2.453125 0.609375 2.5 0.671875 2.5 C 0.765625 2.5 1.671875 1.8125 2.25 0.546875 C 2.765625 -0.546875 2.875 -1.65625 2.875 -2.5 Z M 2.875 -2.5 "
               id="path11234" />
          </symbol>
          <symbol
             overflow="visible"
             id="symbol11236">
            <path
               style="stroke:none;"
               d="M 3.484375 -0.5625 C 3.59375 -0.15625 3.953125 0.109375 4.375 0.109375 C 4.71875 0.109375 4.953125 -0.125 5.109375 -0.4375 C 5.28125 -0.796875 5.40625 -1.40625 5.40625 -1.421875 C 5.40625 -1.53125 5.328125 -1.53125 5.296875 -1.53125 C 5.1875 -1.53125 5.1875 -1.484375 5.15625 -1.34375 C 5.015625 -0.78125 4.828125 -0.109375 4.40625 -0.109375 C 4.203125 -0.109375 4.09375 -0.234375 4.09375 -0.5625 C 4.09375 -0.78125 4.21875 -1.25 4.296875 -1.609375 L 4.578125 -2.6875 C 4.609375 -2.828125 4.703125 -3.203125 4.75 -3.359375 C 4.796875 -3.59375 4.890625 -3.96875 4.890625 -4.03125 C 4.890625 -4.203125 4.75 -4.296875 4.609375 -4.296875 C 4.5625 -4.296875 4.296875 -4.28125 4.21875 -3.953125 C 4.03125 -3.21875 3.59375 -1.46875 3.46875 -0.953125 C 3.453125 -0.90625 3.0625 -0.109375 2.328125 -0.109375 C 1.8125 -0.109375 1.71875 -0.5625 1.71875 -0.921875 C 1.71875 -1.484375 2 -2.265625 2.25 -2.953125 C 2.375 -3.265625 2.421875 -3.40625 2.421875 -3.59375 C 2.421875 -4.03125 2.109375 -4.40625 1.609375 -4.40625 C 0.65625 -4.40625 0.296875 -2.953125 0.296875 -2.875 C 0.296875 -2.765625 0.390625 -2.765625 0.40625 -2.765625 C 0.515625 -2.765625 0.515625 -2.796875 0.5625 -2.953125 C 0.8125 -3.8125 1.203125 -4.1875 1.578125 -4.1875 C 1.671875 -4.1875 1.828125 -4.171875 1.828125 -3.859375 C 1.828125 -3.625 1.71875 -3.328125 1.65625 -3.1875 C 1.28125 -2.1875 1.078125 -1.578125 1.078125 -1.09375 C 1.078125 -0.140625 1.765625 0.109375 2.296875 0.109375 C 2.953125 0.109375 3.3125 -0.34375 3.484375 -0.5625 Z M 3.484375 -0.5625 "
               id="path11238" />
          </symbol>
          <symbol
             overflow="visible"
             id="symbol11240">
            <path
               style="stroke:none;"
               d="M 2.03125 -0.015625 C 2.03125 -0.671875 1.78125 -1.0625 1.390625 -1.0625 C 1.0625 -1.0625 0.859375 -0.8125 0.859375 -0.53125 C 0.859375 -0.265625 1.0625 0 1.390625 0 C 1.5 0 1.640625 -0.046875 1.734375 -0.125 C 1.765625 -0.15625 1.78125 -0.15625 1.78125 -0.15625 C 1.796875 -0.15625 1.796875 -0.15625 1.796875 -0.015625 C 1.796875 0.734375 1.453125 1.328125 1.125 1.65625 C 1.015625 1.765625 1.015625 1.78125 1.015625 1.8125 C 1.015625 1.890625 1.0625 1.921875 1.109375 1.921875 C 1.21875 1.921875 2.03125 1.15625 2.03125 -0.015625 Z M 2.03125 -0.015625 "
               id="path11242" />
          </symbol>
          <symbol
             overflow="visible"
             id="symbol11244">
            <path
               style="stroke:none;"
               d="M 4.671875 -3.703125 C 4.671875 -4.25 4.40625 -4.40625 4.234375 -4.40625 C 3.984375 -4.40625 3.734375 -4.140625 3.734375 -3.921875 C 3.734375 -3.796875 3.78125 -3.734375 3.890625 -3.625 C 4.109375 -3.421875 4.234375 -3.171875 4.234375 -2.8125 C 4.234375 -2.390625 3.625 -0.109375 2.46875 -0.109375 C 1.953125 -0.109375 1.71875 -0.453125 1.71875 -0.984375 C 1.71875 -1.53125 2 -2.265625 2.296875 -3.09375 C 2.375 -3.265625 2.421875 -3.40625 2.421875 -3.59375 C 2.421875 -4.03125 2.109375 -4.40625 1.609375 -4.40625 C 0.671875 -4.40625 0.296875 -2.953125 0.296875 -2.875 C 0.296875 -2.765625 0.390625 -2.765625 0.40625 -2.765625 C 0.515625 -2.765625 0.515625 -2.796875 0.5625 -2.953125 C 0.859375 -3.953125 1.28125 -4.1875 1.578125 -4.1875 C 1.65625 -4.1875 1.828125 -4.1875 1.828125 -3.875 C 1.828125 -3.625 1.71875 -3.34375 1.65625 -3.171875 C 1.21875 -2.015625 1.09375 -1.5625 1.09375 -1.125 C 1.09375 -0.046875 1.96875 0.109375 2.421875 0.109375 C 4.09375 0.109375 4.671875 -3.1875 4.671875 -3.703125 Z M 4.671875 -3.703125 "
               id="path11246" />
          </symbol>
        </g>
      </defs>
      <g
         id="g11248">
        <g
           style="fill:rgb(0%,0%,0%);fill-opacity:1;"
           id="g11250">
          <use
             xlink:href="#textext-dbd52aed-0"
             x="223.432"
             y="134.765"
             id="use11252" />
        </g>
        <g
           style="fill:rgb(0%,0%,0%);fill-opacity:1;"
           id="g11254">
          <use
             xlink:href="#textext-dbd52aed-1"
             x="231.707"
             y="134.765"
             id="use11256" />
        </g>
        <g
           style="fill:rgb(0%,0%,0%);fill-opacity:1;"
           id="g11258">
          <use
             xlink:href="#textext-dbd52aed-3"
             x="235.581"
             y="134.765"
             id="use11260" />
          <use
             xlink:href="#textext-dbd52aed-4"
             x="241.284589"
             y="134.765"
             id="use11262" />
        </g>
        <g
           style="fill:rgb(0%,0%,0%);fill-opacity:1;"
           id="g11264">
          <use
             xlink:href="#textext-dbd52aed-5"
             x="245.715953"
             y="134.765"
             id="use11266" />
        </g>
        <g
           style="fill:rgb(0%,0%,0%);fill-opacity:1;"
           id="g11268">
          <use
             xlink:href="#textext-dbd52aed-2"
             x="250.899"
             y="134.765"
             id="use11270" />
        </g>
      </g>
    </g>
    <g
       id="g12064"
       transform="matrix(0.78572113,-1.2777489,1.2777489,0.78572113,135.98161,469.35094)"
       ns0:preamble=""
       ns0:text="$\\mathbf{\\Phi}(u,v+\\Delta v)$">
      <defs
         id="defs12066">
        <g
           id="g12068">
          <symbol
             id="textext-c362b508-0"
             overflow="visible"
             style="overflow:visible">
            <path
               id="path12071"
               d="m 6.078125,-6.375 0,-0.46875 c -0.4375,0.03125 -1.5,0.03125 -1.984375,0.03125 -0.5,0 -1.578125,0 -2.015625,-0.03125 l 0,0.46875 1.34375,0 0,1.0625 c -1.546875,0.09375 -2.78125,0.828125 -2.78125,1.890625 0,1.0625 1.234375,1.796875 2.78125,1.890625 l 0,1.0625 -1.34375,0 0,0.46875 c 0.4375,-0.03125 1.515625,-0.03125 2,-0.03125 0.484375,0 1.5625,0 2,0.03125 l 0,-0.46875 -1.34375,0 0,-1.046875 c 2.578125,-0.203125 2.90625,-1.4375 2.90625,-1.90625 0,-0.484375 -0.34375,-1.703125 -2.90625,-1.90625 l 0,-1.046875 z m -2.65625,4.484375 c -1.234375,-0.1875 -1.3125,-0.953125 -1.3125,-1.53125 0,-0.578125 0.078125,-1.34375 1.3125,-1.515625 z m 1.3125,-3.0625 c 1.265625,0.140625 1.4375,0.8125 1.4375,1.53125 0,0.734375 -0.171875,1.390625 -1.4375,1.53125 z m 0,0"
               style="stroke:none"
               inkscape:connector-curvature="0" />
          </symbol>
          <symbol
             id="textext-c362b508-1"
             overflow="visible"
             style="overflow:visible">
            <path
               id="path12074"
               d="m 3.296875,2.390625 c 0,-0.03125 0,-0.046875 -0.171875,-0.21875 C 1.890625,0.921875 1.5625,-0.96875 1.5625,-2.5 c 0,-1.734375 0.375,-3.46875 1.609375,-4.703125 0.125,-0.125 0.125,-0.140625 0.125,-0.171875 0,-0.078125 -0.03125,-0.109375 -0.09375,-0.109375 -0.109375,0 -1,0.6875 -1.59375,1.953125 -0.5,1.09375 -0.625,2.203125 -0.625,3.03125 0,0.78125 0.109375,1.984375 0.65625,3.125 C 2.25,1.84375 3.09375,2.5 3.203125,2.5 c 0.0625,0 0.09375,-0.03125 0.09375,-0.109375 z m 0,0"
               style="stroke:none"
               inkscape:connector-curvature="0" />
          </symbol>
          <symbol
             id="textext-c362b508-2"
             overflow="visible"
             style="overflow:visible">
            <path
               id="path12077"
               d="m 4.078125,-2.296875 2.78125,0 C 7,-2.296875 7.1875,-2.296875 7.1875,-2.5 7.1875,-2.6875 7,-2.6875 6.859375,-2.6875 l -2.78125,0 0,-2.796875 c 0,-0.140625 0,-0.328125 -0.203125,-0.328125 -0.203125,0 -0.203125,0.1875 -0.203125,0.328125 l 0,2.796875 -2.78125,0 c -0.140625,0 -0.328125,0 -0.328125,0.1875 0,0.203125 0.1875,0.203125 0.328125,0.203125 l 2.78125,0 0,2.796875 c 0,0.140625 0,0.328125 0.203125,0.328125 0.203125,0 0.203125,-0.1875 0.203125,-0.328125 z m 0,0"
               style="stroke:none"
               inkscape:connector-curvature="0" />
          </symbol>
          <symbol
             id="textext-c362b508-3"
             overflow="visible"
             style="overflow:visible">
            <path
               id="path12080"
               d="m 4.40625,-6.953125 c -0.0625,-0.140625 -0.09375,-0.1875 -0.265625,-0.1875 -0.15625,0 -0.1875,0.046875 -0.25,0.1875 l -3.375,6.75 C 0.46875,-0.109375 0.46875,-0.09375 0.46875,-0.078125 0.46875,0 0.53125,0 0.6875,0 l 6.921875,0 c 0.15625,0 0.21875,0 0.21875,-0.078125 0,-0.015625 0,-0.03125 -0.046875,-0.125 z m -0.578125,0.8125 2.6875,5.390625 -5.375,0 z m 0,0"
               style="stroke:none"
               inkscape:connector-curvature="0" />
          </symbol>
          <symbol
             id="textext-c362b508-4"
             overflow="visible"
             style="overflow:visible">
            <path
               id="path12083"
               d="m 2.875,-2.5 c 0,-0.765625 -0.109375,-1.96875 -0.65625,-3.109375 -0.59375,-1.21875 -1.453125,-1.875 -1.546875,-1.875 -0.0625,0 -0.109375,0.046875 -0.109375,0.109375 0,0.03125 0,0.046875 0.1875,0.234375 0.984375,0.984375 1.546875,2.5625 1.546875,4.640625 0,1.71875 -0.359375,3.46875 -1.59375,4.71875 C 0.5625,2.34375 0.5625,2.359375 0.5625,2.390625 0.5625,2.453125 0.609375,2.5 0.671875,2.5 0.765625,2.5 1.671875,1.8125 2.25,0.546875 2.765625,-0.546875 2.875,-1.65625 2.875,-2.5 z m 0,0"
               style="stroke:none"
               inkscape:connector-curvature="0" />
          </symbol>
          <symbol
             id="textext-c362b508-5"
             overflow="visible"
             style="overflow:visible">
            <path
               id="path12086"
               d="M 3.484375,-0.5625 C 3.59375,-0.15625 3.953125,0.109375 4.375,0.109375 4.71875,0.109375 4.953125,-0.125 5.109375,-0.4375 5.28125,-0.796875 5.40625,-1.40625 5.40625,-1.421875 c 0,-0.109375 -0.078125,-0.109375 -0.109375,-0.109375 -0.109375,0 -0.109375,0.046875 -0.140625,0.1875 -0.140625,0.5625 -0.328125,1.234375 -0.75,1.234375 -0.203125,0 -0.3125,-0.125 -0.3125,-0.453125 0,-0.21875 0.125,-0.6875 0.203125,-1.046875 L 4.578125,-2.6875 C 4.609375,-2.828125 4.703125,-3.203125 4.75,-3.359375 4.796875,-3.59375 4.890625,-3.96875 4.890625,-4.03125 c 0,-0.171875 -0.140625,-0.265625 -0.28125,-0.265625 -0.046875,0 -0.3125,0.015625 -0.390625,0.34375 -0.1875,0.734375 -0.625,2.484375 -0.75,3 -0.015625,0.046875 -0.40625,0.84375 -1.140625,0.84375 -0.515625,0 -0.609375,-0.453125 -0.609375,-0.8125 0,-0.5625 0.28125,-1.34375 0.53125,-2.03125 0.125,-0.3125 0.171875,-0.453125 0.171875,-0.640625 0,-0.4375 -0.3125,-0.8125 -0.8125,-0.8125 -0.953125,0 -1.3125,1.453125 -1.3125,1.53125 0,0.109375 0.09375,0.109375 0.109375,0.109375 0.109375,0 0.109375,-0.03125 0.15625,-0.1875 0.25,-0.859375 0.640625,-1.234375 1.015625,-1.234375 0.09375,0 0.25,0.015625 0.25,0.328125 0,0.234375 -0.109375,0.53125 -0.171875,0.671875 -0.375,1 -0.578125,1.609375 -0.578125,2.09375 0,0.953125 0.6875,1.203125 1.21875,1.203125 0.65625,0 1.015625,-0.453125 1.1875,-0.671875 z m 0,0"
               style="stroke:none"
               inkscape:connector-curvature="0" />
          </symbol>
          <symbol
             id="textext-c362b508-6"
             overflow="visible"
             style="overflow:visible">
            <path
               id="path12089"
               d="m 2.03125,-0.015625 c 0,-0.65625 -0.25,-1.046875 -0.640625,-1.046875 -0.328125,0 -0.53125,0.25 -0.53125,0.53125 C 0.859375,-0.265625 1.0625,0 1.390625,0 1.5,0 1.640625,-0.046875 1.734375,-0.125 1.765625,-0.15625 1.78125,-0.15625 1.78125,-0.15625 c 0.015625,0 0.015625,0 0.015625,0.140625 0,0.75 -0.34375,1.34375 -0.671875,1.671875 -0.109375,0.109375 -0.109375,0.125 -0.109375,0.15625 0,0.078125 0.046875,0.109375 0.09375,0.109375 0.109375,0 0.921875,-0.765625 0.921875,-1.9375 z m 0,0"
               style="stroke:none"
               inkscape:connector-curvature="0" />
          </symbol>
          <symbol
             id="textext-c362b508-7"
             overflow="visible"
             style="overflow:visible">
            <path
               id="path12092"
               d="m 4.671875,-3.703125 c 0,-0.546875 -0.265625,-0.703125 -0.4375,-0.703125 -0.25,0 -0.5,0.265625 -0.5,0.484375 0,0.125 0.046875,0.1875 0.15625,0.296875 0.21875,0.203125 0.34375,0.453125 0.34375,0.8125 0,0.421875 -0.609375,2.703125 -1.765625,2.703125 -0.515625,0 -0.75,-0.34375 -0.75,-0.875 0,-0.546875 0.28125,-1.28125 0.578125,-2.109375 0.078125,-0.171875 0.125,-0.3125 0.125,-0.5 0,-0.4375 -0.3125,-0.8125 -0.8125,-0.8125 -0.9375,0 -1.3125,1.453125 -1.3125,1.53125 0,0.109375 0.09375,0.109375 0.109375,0.109375 0.109375,0 0.109375,-0.03125 0.15625,-0.1875 0.296875,-1 0.71875,-1.234375 1.015625,-1.234375 0.078125,0 0.25,0 0.25,0.3125 0,0.25 -0.109375,0.53125 -0.171875,0.703125 -0.4375,1.15625 -0.5625,1.609375 -0.5625,2.046875 0,1.078125 0.875,1.234375 1.328125,1.234375 1.671875,0 2.25,-3.296875 2.25,-3.8125 z m 0,0"
               style="stroke:none"
               inkscape:connector-curvature="0" />
          </symbol>
        </g>
      </defs>
      <g
         id="textext-c362b508-8">
        <g
           id="g12095"
           style="fill:#000000;fill-opacity:1">
          <use
             id="use12097"
             y="134.765"
             x="223.43201"
             xlink:href="#textext-c362b508-0"
             width="765"
             height="990" />
        </g>
        <g
           id="g12099"
           style="fill:#000000;fill-opacity:1">
          <use
             id="use12101"
             y="134.765"
             x="231.707"
             xlink:href="#textext-c362b508-1"
             width="765"
             height="990" />
        </g>
        <g
           id="g12103"
           style="fill:#000000;fill-opacity:1">
          <use
             id="use12105"
             y="134.765"
             x="235.58099"
             xlink:href="#textext-c362b508-5"
             width="765"
             height="990" />
          <use
             id="use12107"
             y="134.765"
             x="241.28459"
             xlink:href="#textext-c362b508-6"
             width="765"
             height="990" />
        </g>
        <g
           id="g12109"
           style="fill:#000000;fill-opacity:1">
          <use
             id="use12111"
             y="134.765"
             x="245.71596"
             xlink:href="#textext-c362b508-7"
             width="765"
             height="990" />
        </g>
        <g
           id="g12113"
           style="fill:#000000;fill-opacity:1">
          <use
             id="use12115"
             y="134.765"
             x="253.112"
             xlink:href="#textext-c362b508-2"
             width="765"
             height="990" />
        </g>
        <g
           id="g12117"
           style="fill:#000000;fill-opacity:1">
          <use
             id="use12119"
             y="134.765"
             x="263.0726"
             xlink:href="#textext-c362b508-3"
             width="765"
             height="990" />
        </g>
        <g
           id="g12121"
           style="fill:#000000;fill-opacity:1">
          <use
             id="use12123"
             y="134.765"
             x="271.37701"
             xlink:href="#textext-c362b508-7"
             width="765"
             height="990" />
        </g>
        <g
           id="g12125"
           style="fill:#000000;fill-opacity:1">
          <use
             id="use12127"
             y="134.765"
             x="276.564"
             xlink:href="#textext-c362b508-4"
             width="765"
             height="990" />
        </g>
      </g>
    </g>
  </g>
</svg>
