<?xml version="1.0" encoding="UTF-8" standalone="no"?>
<!-- Created with Inkscape (http://www.inkscape.org/) -->

<svg
   xmlns:ns0="http://www.iki.fi/pav/software/textext/"
   xmlns:dc="http://purl.org/dc/elements/1.1/"
   xmlns:cc="http://creativecommons.org/ns#"
   xmlns:rdf="http://www.w3.org/1999/02/22-rdf-syntax-ns#"
   xmlns:svg="http://www.w3.org/2000/svg"
   xmlns="http://www.w3.org/2000/svg"
   xmlns:xlink="http://www.w3.org/1999/xlink"
   xmlns:sodipodi="http://sodipodi.sourceforge.net/DTD/sodipodi-0.dtd"
   xmlns:inkscape="http://www.inkscape.org/namespaces/inkscape"
   width="765"
   height="990"
   id="svg2"
   version="1.1"
   inkscape:version="0.48.1 r9760"
   sodipodi:docname="parametrized_surface_mapping.svg"
   inkscape:export-filename="/home/nykamp/djangocode/materials/parametrized_surface_mapping.png"
   inkscape:export-xdpi="106.013"
   inkscape:export-ydpi="106.013">
  <sodipodi:namedview
     id="base"
     pagecolor="#ffffff"
     bordercolor="#666666"
     borderopacity="1.0"
     inkscape:pageopacity="0.0"
     inkscape:pageshadow="2"
     inkscape:zoom="1.4"
     inkscape:cx="363.15941"
     inkscape:cy="681.06597"
     inkscape:document-units="px"
     inkscape:current-layer="layer1"
     showgrid="true"
     inkscape:window-width="1440"
     inkscape:window-height="851"
     inkscape:window-x="0"
     inkscape:window-y="0"
     inkscape:window-maximized="1"
     inkscape:snap-global="false">
    <inkscape:grid
       id="grid3700"
       type="xygrid" />
  </sodipodi:namedview>
  <defs
     id="defs4">
    <marker
       inkscape:stockid="TriangleOutM"
       orient="auto"
       refY="0"
       refX="0"
       id="TriangleOutM"
       style="overflow:visible">
      <path
         id="path8315"
         d="m 5.77,0 -8.65,5 0,-10 8.65,5 z"
         style="fill-rule:evenodd;stroke:#000000;stroke-width:1pt;marker-start:none"
         transform="scale(0.4,0.4)"
         inkscape:connector-curvature="0" />
    </marker>
  </defs>
  <metadata
     id="metadata7">
    <rdf:RDF>
      <cc:Work
         rdf:about="">
        <dc:format>image/svg+xml</dc:format>
        <dc:type
           rdf:resource="http://purl.org/dc/dcmitype/StillImage" />
        <dc:title></dc:title>
      </cc:Work>
    </rdf:RDF>
  </metadata>
  <g
     transform="translate(0,-62.362183)"
     id="layer1"
     inkscape:groupmode="layer"
     inkscape:label="Layer 1">
    <path
       style="fill:none;stroke:#000000;stroke-width:3;stroke-linecap:butt;stroke-linejoin:miter;stroke-miterlimit:4;stroke-opacity:1;stroke-dasharray:none;stroke-dashoffset:0"
       d="m 89.999997,212.36218 0,200 230.000003,0"
       id="path3043"
       inkscape:connector-curvature="0"
       sodipodi:nodetypes="ccc" />
    <rect
       ry="0"
       rx="0.15745553"
       transform="translate(0,62.362183)"
       y="150"
       x="100"
       height="180"
       width="210"
       id="rect4870"
       style="fill:#00ff00;stroke:#000000;stroke-width:0;stroke-linecap:butt;stroke-linejoin:miter;stroke-miterlimit:4;stroke-opacity:1;stroke-dasharray:none;stroke-dashoffset:0;opacity:0.50000000000000000;fill-opacity:1" />
    <rect
       style="fill:#00ff00;stroke:#000000;stroke-width:3.2659862;stroke-linecap:butt;stroke-linejoin:miter;stroke-miterlimit:4;stroke-opacity:1;stroke-dasharray:none;stroke-dashoffset:0"
       id="rect3045"
       width="70"
       height="60"
       x="170"
       y="272.36218"
       rx="0.12246542"
       ry="0.16191597" />
    <path
       style="fill:none;stroke:#000000;stroke-width:3;stroke-linecap:butt;stroke-linejoin:miter;stroke-miterlimit:4;stroke-opacity:1;stroke-dasharray:none;stroke-dashoffset:0"
       d="m 530,212.36218 0,130 130,0"
       id="path3043-9"
       inkscape:connector-curvature="0"
       sodipodi:nodetypes="ccc" />
    <path
       style="fill:#0000ff;fill-opacity:1;stroke:#000000;stroke-width:0;stroke-linecap:butt;stroke-linejoin:miter;stroke-miterlimit:4;stroke-opacity:1;stroke-dasharray:none;stroke-dashoffset:0;opacity:1"
       d="m 528.92857,198.21428 c 3.57143,5.71429 9.28572,25.71429 10.71429,29.64286 1.42857,3.92857 2.14286,7.5 2.14286,7.5 0,0 0.35714,0.71429 6.07142,-2.5 5.71429,-3.21428 33.92857,-15 42.85715,-17.14286 8.92857,-2.14286 11.78571,-3.92857 11.78571,-3.92857 0,0 -0.35714,0.35715 0,-5.71428 0.35714,-6.07143 -1.42857,-20.71429 -2.85714,-25 -1.42857,-4.28572 -1.78572,-5.71429 -1.78572,-5.71429 0,0 -0.71428,0 -4.64285,1.42857 C 589.28572,178.21428 540,193.21428 535,195.35714 c -5,2.14286 -6.07143,2.85714 -6.07143,2.85714 z"
       id="path6159"
       inkscape:connector-curvature="0"
       transform="translate(0,62.362183)"
       sodipodi:nodetypes="cscsscsscssc" />
    <path
       style="fill:none;stroke:#000000;stroke-width:5;stroke-linecap:butt;stroke-linejoin:miter;stroke-miterlimit:4;stroke-opacity:1;stroke-dasharray:none;stroke-dashoffset:0;marker-end:url(#TriangleOutM)"
       d="m 317.85715,275.21933 c 18.57142,-20.01104 80.71428,-38.52333 114.99999,-20.7143"
       id="path8164"
       inkscape:connector-curvature="0"
       sodipodi:nodetypes="cc" />
    <g
       transform="matrix(2.7030075,0,0,2.7030075,-250.01219,-77.59323)"
       ns0:text="$\\mathbf{T}$"
       ns0:preamble=""
       id="g9273">
      <defs
         id="defs9275">
        <g
           id="g9277">
          <symbol
             style="overflow:visible"
             overflow="visible"
             id="textext-d55e0bd7-0">
            <path
               inkscape:connector-curvature="0"
               style="stroke:none"
               d="m 7.34375,-6.734375 -6.71875,0 -0.203125,2.40625 0.46875,0 c 0.09375,-1.125 0.1875,-1.9375 1.625,-1.9375 l 0.765625,0 0,5.796875 -1.53125,0 L 1.75,0 c 0.546875,-0.03125 1.65625,-0.03125 2.234375,-0.03125 0.59375,0 1.703125,0 2.234375,0.03125 l 0,-0.46875 -1.53125,0 0,-5.796875 0.765625,0 c 1.421875,0 1.53125,0.796875 1.625,1.9375 l 0.46875,0 z m 0,0"
               id="path9280" />
          </symbol>
        </g>
      </defs>
      <g
         id="textext-d55e0bd7-1">
        <g
           style="fill:#000000;fill-opacity:1"
           id="g9283" />
      </g>
    </g>
    <g
       id="g10433"
       ns0:preamble=""
       ns0:text="$u$"
       transform="matrix(1.5,0,0,1.5,-55.71429,222.14286)">
      <defs
         id="defs10435">
        <g
           id="g10437">
          <symbol
             id="textext-04d03d2c-0"
             overflow="visible"
             style="overflow:visible">
            <path
               id="path10440"
               d="M 3.484375,-0.5625 C 3.59375,-0.15625 3.953125,0.109375 4.375,0.109375 4.71875,0.109375 4.953125,-0.125 5.109375,-0.4375 5.28125,-0.796875 5.40625,-1.40625 5.40625,-1.421875 c 0,-0.109375 -0.078125,-0.109375 -0.109375,-0.109375 -0.109375,0 -0.109375,0.046875 -0.140625,0.1875 -0.140625,0.5625 -0.328125,1.234375 -0.75,1.234375 -0.203125,0 -0.3125,-0.125 -0.3125,-0.453125 0,-0.21875 0.125,-0.6875 0.203125,-1.046875 L 4.578125,-2.6875 C 4.609375,-2.828125 4.703125,-3.203125 4.75,-3.359375 4.796875,-3.59375 4.890625,-3.96875 4.890625,-4.03125 c 0,-0.171875 -0.140625,-0.265625 -0.28125,-0.265625 -0.046875,0 -0.3125,0.015625 -0.390625,0.34375 -0.1875,0.734375 -0.625,2.484375 -0.75,3 -0.015625,0.046875 -0.40625,0.84375 -1.140625,0.84375 -0.515625,0 -0.609375,-0.453125 -0.609375,-0.8125 0,-0.5625 0.28125,-1.34375 0.53125,-2.03125 0.125,-0.3125 0.171875,-0.453125 0.171875,-0.640625 0,-0.4375 -0.3125,-0.8125 -0.8125,-0.8125 -0.953125,0 -1.3125,1.453125 -1.3125,1.53125 0,0.109375 0.09375,0.109375 0.109375,0.109375 0.109375,0 0.109375,-0.03125 0.15625,-0.1875 0.25,-0.859375 0.640625,-1.234375 1.015625,-1.234375 0.09375,0 0.25,0.015625 0.25,0.328125 0,0.234375 -0.109375,0.53125 -0.171875,0.671875 -0.375,1 -0.578125,1.609375 -0.578125,2.09375 0,0.953125 0.6875,1.203125 1.21875,1.203125 0.65625,0 1.015625,-0.453125 1.1875,-0.671875 z m 0,0"
               style="stroke:none"
               inkscape:connector-curvature="0" />
          </symbol>
        </g>
      </defs>
      <g
         id="textext-04d03d2c-1">
        <g
           id="g10443"
           style="fill:#000000;fill-opacity:1">
          <use
             id="use10445"
             y="134.765"
             x="223.43201"
             xlink:href="#textext-04d03d2c-0"
             width="744.09448"
             height="1052.3622" />
        </g>
      </g>
    </g>
    <g
       transform="matrix(1.5,0,0,1.5,-258.57143,20.71429)"
       ns0:text="$v$"
       ns0:preamble=""
       id="g11075">
      <defs
         id="defs11077">
        <g
           id="g11079">
          <symbol
             style="overflow:visible"
             overflow="visible"
             id="textext-eaa716c9-0">
            <path
               inkscape:connector-curvature="0"
               style="stroke:none"
               d="m 4.671875,-3.703125 c 0,-0.546875 -0.265625,-0.703125 -0.4375,-0.703125 -0.25,0 -0.5,0.265625 -0.5,0.484375 0,0.125 0.046875,0.1875 0.15625,0.296875 0.21875,0.203125 0.34375,0.453125 0.34375,0.8125 0,0.421875 -0.609375,2.703125 -1.765625,2.703125 -0.515625,0 -0.75,-0.34375 -0.75,-0.875 0,-0.546875 0.28125,-1.28125 0.578125,-2.109375 0.078125,-0.171875 0.125,-0.3125 0.125,-0.5 0,-0.4375 -0.3125,-0.8125 -0.8125,-0.8125 -0.9375,0 -1.3125,1.453125 -1.3125,1.53125 0,0.109375 0.09375,0.109375 0.109375,0.109375 0.109375,0 0.109375,-0.03125 0.15625,-0.1875 0.296875,-1 0.71875,-1.234375 1.015625,-1.234375 0.078125,0 0.25,0 0.25,0.3125 0,0.25 -0.109375,0.53125 -0.171875,0.703125 -0.4375,1.15625 -0.5625,1.609375 -0.5625,2.046875 0,1.078125 0.875,1.234375 1.328125,1.234375 1.671875,0 2.25,-3.296875 2.25,-3.8125 z m 0,0"
               id="path11082" />
          </symbol>
        </g>
      </defs>
      <g
         id="textext-eaa716c9-1">
        <g
           style="fill:#000000;fill-opacity:1"
           id="g11085">
          <use
             height="1052.3622"
             width="744.09448"
             xlink:href="#textext-eaa716c9-0"
             x="223.43201"
             y="134.765"
             id="use11087" />
        </g>
      </g>
    </g>
    <g
       id="g11733"
       ns0:preamble=""
       ns0:text="$x$"
       transform="matrix(1.5,0,0,1.5,109.55469,213.1825)">
      <defs
         id="defs11735">
        <g
           id="g11737">
          <symbol
             id="textext-3cd618fc-0"
             overflow="visible"
             style="overflow:visible">
            <path
               id="path11740"
               d="M 3.328125,-3.015625 C 3.390625,-3.265625 3.625,-4.1875 4.3125,-4.1875 c 0.046875,0 0.296875,0 0.5,0.125 C 4.53125,-4 4.34375,-3.765625 4.34375,-3.515625 c 0,0.15625 0.109375,0.34375 0.375,0.34375 0.21875,0 0.53125,-0.171875 0.53125,-0.578125 0,-0.515625 -0.578125,-0.65625 -0.921875,-0.65625 -0.578125,0 -0.921875,0.53125 -1.046875,0.75 -0.25,-0.65625 -0.78125,-0.75 -1.078125,-0.75 -1.03125,0 -1.609375,1.28125 -1.609375,1.53125 0,0.109375 0.109375,0.109375 0.125,0.109375 0.078125,0 0.109375,-0.03125 0.125,-0.109375 0.34375,-1.0625 1,-1.3125 1.34375,-1.3125 0.1875,0 0.53125,0.09375 0.53125,0.671875 0,0.3125 -0.171875,0.96875 -0.53125,2.375 -0.15625,0.609375 -0.515625,1.03125 -0.953125,1.03125 -0.0625,0 -0.28125,0 -0.5,-0.125 0.25,-0.0625 0.46875,-0.265625 0.46875,-0.546875 0,-0.265625 -0.21875,-0.34375 -0.359375,-0.34375 -0.3125,0 -0.546875,0.25 -0.546875,0.578125 0,0.453125 0.484375,0.65625 0.921875,0.65625 0.671875,0 1.03125,-0.703125 1.046875,-0.75 0.125,0.359375 0.484375,0.75 1.078125,0.75 1.03125,0 1.59375,-1.28125 1.59375,-1.53125 0,-0.109375 -0.078125,-0.109375 -0.109375,-0.109375 -0.09375,0 -0.109375,0.046875 -0.140625,0.109375 -0.328125,1.078125 -1,1.3125 -1.3125,1.3125 -0.390625,0 -0.546875,-0.3125 -0.546875,-0.65625 0,-0.21875 0.046875,-0.4375 0.15625,-0.875 z m 0,0"
               style="stroke:none"
               inkscape:connector-curvature="0" />
          </symbol>
        </g>
      </defs>
      <g
         id="textext-3cd618fc-1">
        <g
           id="g11743"
           style="fill:#000000;fill-opacity:1">
          <use
             id="use11745"
             y="134.765"
             x="223.43201"
             xlink:href="#textext-3cd618fc-0"
             width="744.09448"
             height="1052.3622" />
        </g>
      </g>
    </g>
    <g
       transform="matrix(1.5,0,0,1.5,328.80469,140.25281)"
       ns0:text="$y$"
       ns0:preamble=""
       id="g12407">
      <defs
         id="defs12409">
        <g
           id="g12411">
          <symbol
             style="overflow:visible"
             overflow="visible"
             id="textext-5c96a2b8-0">
            <path
               inkscape:connector-curvature="0"
               style="stroke:none"
               d="m 4.84375,-3.796875 c 0.046875,-0.140625 0.046875,-0.15625 0.046875,-0.234375 0,-0.171875 -0.140625,-0.265625 -0.296875,-0.265625 -0.09375,0 -0.25,0.0625 -0.34375,0.203125 -0.015625,0.0625 -0.109375,0.359375 -0.140625,0.546875 -0.078125,0.25 -0.140625,0.53125 -0.203125,0.796875 l -0.453125,1.796875 c -0.03125,0.140625 -0.46875,0.84375 -1.125,0.84375 -0.5,0 -0.609375,-0.4375 -0.609375,-0.8125 C 1.71875,-1.375 1.890625,-2 2.21875,-2.875 2.375,-3.28125 2.421875,-3.390625 2.421875,-3.59375 c 0,-0.4375 -0.3125,-0.8125 -0.8125,-0.8125 -0.953125,0 -1.3125,1.453125 -1.3125,1.53125 0,0.109375 0.09375,0.109375 0.109375,0.109375 0.109375,0 0.109375,-0.03125 0.15625,-0.1875 0.28125,-0.9375 0.671875,-1.234375 1.015625,-1.234375 0.078125,0 0.25,0 0.25,0.3125 0,0.25 -0.109375,0.515625 -0.171875,0.703125 -0.40625,1.0625 -0.578125,1.625 -0.578125,2.09375 0,0.890625 0.625,1.1875 1.21875,1.1875 0.390625,0 0.71875,-0.171875 1,-0.453125 -0.125,0.515625 -0.25,1.015625 -0.640625,1.546875 -0.265625,0.328125 -0.640625,0.625 -1.09375,0.625 -0.140625,0 -0.59375,-0.03125 -0.765625,-0.421875 0.15625,0 0.296875,0 0.421875,-0.125 C 1.328125,1.203125 1.421875,1.0625 1.421875,0.875 1.421875,0.5625 1.15625,0.53125 1.0625,0.53125 0.828125,0.53125 0.5,0.6875 0.5,1.171875 c 0,0.5 0.4375,0.875 1.0625,0.875 1.015625,0 2.046875,-0.90625 2.328125,-2.03125 z m 0,0"
               id="path12414" />
          </symbol>
        </g>
      </defs>
      <g
         id="textext-5c96a2b8-1">
        <g
           style="fill:#000000;fill-opacity:1"
           id="g12417">
          <use
             height="1052.3622"
             width="744.09448"
             xlink:href="#textext-5c96a2b8-0"
             x="223.43201"
             y="134.765"
             id="use12419" />
        </g>
      </g>
    </g>
    <path
       transform="translate(0,62.362183)"
       inkscape:connector-curvature="0"
       id="path4872"
       d="m 170,150 0,180"
       style="fill:none;stroke:#000000;stroke-width:2;stroke-linecap:butt;stroke-linejoin:miter;stroke-miterlimit:4;stroke-opacity:1;stroke-dasharray:none;stroke-dashoffset:0" />
    <path
       inkscape:connector-curvature="0"
       id="path4874"
       d="m 240,212.36218 0,180"
       style="fill:none;stroke:#000000;stroke-width:2;stroke-linecap:butt;stroke-linejoin:miter;stroke-miterlimit:4;stroke-opacity:1;stroke-dasharray:none;stroke-dashoffset:0" />
    <path
       sodipodi:nodetypes="cc"
       transform="translate(0,62.362183)"
       inkscape:connector-curvature="0"
       id="path4876"
       d="m 100,270 210,0"
       style="fill:none;stroke:#000000;stroke-width:2;stroke-linecap:butt;stroke-linejoin:miter;stroke-miterlimit:4;stroke-opacity:1;stroke-dasharray:none;stroke-dashoffset:0" />
    <path
       sodipodi:nodetypes="cc"
       transform="translate(0,62.362183)"
       inkscape:connector-curvature="0"
       id="path4878"
       d="m 100,210 210,0"
       style="fill:none;stroke:#000000;stroke-width:2;stroke-linecap:butt;stroke-linejoin:miter;stroke-miterlimit:4;stroke-opacity:1;stroke-dasharray:none;stroke-dashoffset:0" />
    <path
       transform="translate(0,62.362183)"
       inkscape:connector-curvature="0"
       id="path4880"
       d="m 530,280 -70,70"
       style="fill:none;stroke:#000000;stroke-width:3;stroke-linecap:butt;stroke-linejoin:miter;stroke-miterlimit:4;stroke-opacity:1;stroke-dasharray:none;stroke-dashoffset:0" />
    <g
       id="g5902"
       transform="matrix(1.5,0,0,1.5,179.55469,13.896785)"
       ns0:preamble=""
       ns0:text="$z$">
      <defs
         id="defs5904">
        <g
           id="g5906">
          <symbol
             id="textext-222e8ddc-0"
             overflow="visible"
             style="overflow:visible">
            <path
               id="path5909"
               d="m 1.328125,-0.828125 c 0.53125,-0.578125 0.828125,-0.828125 1.1875,-1.140625 0,0 0.609375,-0.53125 0.96875,-0.890625 C 4.4375,-3.78125 4.65625,-4.265625 4.65625,-4.3125 c 0,-0.09375 -0.09375,-0.09375 -0.109375,-0.09375 -0.078125,0 -0.09375,0.015625 -0.15625,0.109375 -0.296875,0.484375 -0.5,0.640625 -0.734375,0.640625 -0.25,0 -0.359375,-0.15625 -0.515625,-0.328125 -0.1875,-0.21875 -0.359375,-0.421875 -0.6875,-0.421875 -0.75,0 -1.203125,0.921875 -1.203125,1.140625 0,0.046875 0.03125,0.109375 0.109375,0.109375 0.09375,0 0.109375,-0.046875 0.140625,-0.109375 0.1875,-0.46875 0.765625,-0.46875 0.84375,-0.46875 0.203125,0 0.390625,0.0625 0.625,0.140625 0.40625,0.15625 0.515625,0.15625 0.765625,0.15625 -0.359375,0.421875 -1.1875,1.140625 -1.375,1.296875 l -0.90625,0.84375 C 0.78125,-0.625 0.421875,-0.0625 0.421875,0.015625 c 0,0.09375 0.109375,0.09375 0.125,0.09375 0.078125,0 0.09375,-0.015625 0.15625,-0.125 0.234375,-0.359375 0.53125,-0.625 0.859375,-0.625 0.21875,0 0.328125,0.09375 0.578125,0.375 0.15625,0.21875 0.34375,0.375 0.625,0.375 1,0 1.578125,-1.265625 1.578125,-1.53125 0,-0.046875 -0.046875,-0.109375 -0.125,-0.109375 -0.09375,0 -0.109375,0.0625 -0.140625,0.140625 C 3.84375,-0.75 3.203125,-0.5625 2.875,-0.5625 c -0.1875,0 -0.375,-0.0625 -0.578125,-0.125 -0.34375,-0.125 -0.5,-0.171875 -0.703125,-0.171875 -0.015625,0 -0.171875,0 -0.265625,0.03125 z m 0,0"
               style="stroke:none"
               inkscape:connector-curvature="0" />
          </symbol>
        </g>
      </defs>
      <g
         id="textext-222e8ddc-1">
        <g
           id="g5912"
           style="fill:#000000;fill-opacity:1">
          <use
             id="use5914"
             y="134.765"
             x="223.43201"
             xlink:href="#textext-222e8ddc-0"
             width="765"
             height="990" />
        </g>
      </g>
    </g>
    <path
       style="fill:#0000ff;stroke:#000000;stroke-width:0;stroke-linecap:butt;stroke-linejoin:miter;stroke-miterlimit:4;stroke-opacity:1;stroke-dasharray:none;stroke-dashoffset:0;fill-opacity:1;opacity:0.50000000000000000"
       d="m 450,210 c 10,0 35.29321,26.6641 40,40 8.57143,24.28571 9.28571,50.71429 9.28571,50.71429 C 499.28571,300.71429 510,290 520,280 c 10,-10 46.58359,-25.52786 60,-30 30,-10 70,0 70,0 8.79034,-32.14393 12.51868,-55.8575 0,-80 -12.14286,-29.28571 -21.42857,-32.14286 -21.42857,-32.14286 -42.38224,-2.21534 -71.43156,7.67547 -106.42857,21.42858 C 500.09054,166.55102 450,210 450,210 z"
       id="path6129"
       inkscape:connector-curvature="0"
       transform="translate(0,62.362183)"
       sodipodi:nodetypes="cscssccccc" />
    <path
       style="fill:none;stroke:#000000;stroke-width:2;stroke-linecap:butt;stroke-linejoin:miter;stroke-miterlimit:4;stroke-opacity:1;stroke-dasharray:none;stroke-dashoffset:0"
       d="m 568.03572,143.39286 c 37.49381,21.45037 38.89398,61.63166 27.85714,103.57143"
       id="path6133"
       inkscape:connector-curvature="0"
       transform="translate(0,62.362183)"
       sodipodi:nodetypes="cc" />
    <path
       style="fill:none;stroke:#000000;stroke-width:2;stroke-linecap:butt;stroke-linejoin:miter;stroke-miterlimit:4;stroke-opacity:1;stroke-dasharray:none;stroke-dashoffset:0"
       d="m 500.71429,170.71428 c 27.14285,18.57143 41.42857,40 43.57142,94.28572"
       id="path6135"
       inkscape:connector-curvature="0"
       transform="translate(0,62.362183)" />
    <path
       style="fill:none;stroke:#000000;stroke-width:2;stroke-linecap:butt;stroke-linejoin:miter;stroke-miterlimit:4;stroke-opacity:1;stroke-dasharray:none;stroke-dashoffset:0"
       d="m 477.14286,230.71428 c 27.85714,-31.42857 122.14285,-62.14285 173.57143,-60"
       id="path6137"
       inkscape:connector-curvature="0"
       transform="translate(0,62.362183)" />
    <path
       style="fill:none;stroke:#000000;stroke-width:2;stroke-linecap:butt;stroke-linejoin:miter;stroke-miterlimit:4;stroke-opacity:1;stroke-dasharray:none;stroke-dashoffset:0"
       d="m 495,265.71428 c 31.42857,-27.85714 108.57143,-63.57142 162.85714,-61.42857"
       id="path6139"
       inkscape:connector-curvature="0"
       transform="translate(0,62.362183)" />
    <rect
       ry="0"
       rx="0.15745553"
       y="212.36218"
       x="100"
       height="180"
       width="210"
       id="rect4870-8"
       style="fill:none;stroke:#000000;stroke-width:2;stroke-linecap:butt;stroke-linejoin:miter;stroke-miterlimit:4;stroke-opacity:1;stroke-dasharray:none;stroke-dashoffset:0" />
    <path
       style="fill:none;stroke:#000000;stroke-width:2;stroke-linecap:butt;stroke-linejoin:miter;stroke-miterlimit:4;stroke-opacity:1;stroke-dasharray:none;stroke-dashoffset:0"
       d="m 450,272.36219 c 10,0 35.29321,26.66409 40,39.99999 8.57143,24.28571 9.28571,50.71429 9.28571,50.71429 0,0 10.71429,-10.71429 20.71429,-20.71429 10,-10 46.58359,-25.52786 60,-30 30,-10 70,0 70,0 8.79034,-32.14392 12.51868,-55.85749 0,-80 -12.14286,-29.28571 -21.42857,-32.14286 -21.42857,-32.14286 -42.38224,-2.21534 -71.43156,7.67547 -106.42857,21.42858 C 500.09054,228.9132 450,272.36219 450,272.36219 z"
       id="path6129-2"
       inkscape:connector-curvature="0"
       sodipodi:nodetypes="cscssccccc" />
    <g
       id="g8483"
       transform="matrix(2.2130561,0,0,2.2130561,-139.59073,-61.980154)"
       ns0:preamble=""
       ns0:text="$\\mathbf{\\Phi}(u,v)$">
      <defs
         id="defs8485">
        <g
           id="g8487">
          <symbol
             id="textext-dbd52aed-0"
             overflow="visible"
             style="overflow:visible">
            <path
               id="path8490"
               d="m 6.078125,-6.375 0,-0.46875 c -0.4375,0.03125 -1.5,0.03125 -1.984375,0.03125 -0.5,0 -1.578125,0 -2.015625,-0.03125 l 0,0.46875 1.34375,0 0,1.0625 c -1.546875,0.09375 -2.78125,0.828125 -2.78125,1.890625 0,1.0625 1.234375,1.796875 2.78125,1.890625 l 0,1.0625 -1.34375,0 0,0.46875 c 0.4375,-0.03125 1.515625,-0.03125 2,-0.03125 0.484375,0 1.5625,0 2,0.03125 l 0,-0.46875 -1.34375,0 0,-1.046875 c 2.578125,-0.203125 2.90625,-1.4375 2.90625,-1.90625 0,-0.484375 -0.34375,-1.703125 -2.90625,-1.90625 l 0,-1.046875 z m -2.65625,4.484375 c -1.234375,-0.1875 -1.3125,-0.953125 -1.3125,-1.53125 0,-0.578125 0.078125,-1.34375 1.3125,-1.515625 z m 1.3125,-3.0625 c 1.265625,0.140625 1.4375,0.8125 1.4375,1.53125 0,0.734375 -0.171875,1.390625 -1.4375,1.53125 z m 0,0"
               style="stroke:none"
               inkscape:connector-curvature="0" />
          </symbol>
          <symbol
             id="textext-dbd52aed-1"
             overflow="visible"
             style="overflow:visible">
            <path
               id="path8493"
               d="m 3.296875,2.390625 c 0,-0.03125 0,-0.046875 -0.171875,-0.21875 C 1.890625,0.921875 1.5625,-0.96875 1.5625,-2.5 c 0,-1.734375 0.375,-3.46875 1.609375,-4.703125 0.125,-0.125 0.125,-0.140625 0.125,-0.171875 0,-0.078125 -0.03125,-0.109375 -0.09375,-0.109375 -0.109375,0 -1,0.6875 -1.59375,1.953125 -0.5,1.09375 -0.625,2.203125 -0.625,3.03125 0,0.78125 0.109375,1.984375 0.65625,3.125 C 2.25,1.84375 3.09375,2.5 3.203125,2.5 c 0.0625,0 0.09375,-0.03125 0.09375,-0.109375 z m 0,0"
               style="stroke:none"
               inkscape:connector-curvature="0" />
          </symbol>
          <symbol
             id="textext-dbd52aed-2"
             overflow="visible"
             style="overflow:visible">
            <path
               id="path8496"
               d="m 2.875,-2.5 c 0,-0.765625 -0.109375,-1.96875 -0.65625,-3.109375 -0.59375,-1.21875 -1.453125,-1.875 -1.546875,-1.875 -0.0625,0 -0.109375,0.046875 -0.109375,0.109375 0,0.03125 0,0.046875 0.1875,0.234375 0.984375,0.984375 1.546875,2.5625 1.546875,4.640625 0,1.71875 -0.359375,3.46875 -1.59375,4.71875 C 0.5625,2.34375 0.5625,2.359375 0.5625,2.390625 0.5625,2.453125 0.609375,2.5 0.671875,2.5 0.765625,2.5 1.671875,1.8125 2.25,0.546875 2.765625,-0.546875 2.875,-1.65625 2.875,-2.5 z m 0,0"
               style="stroke:none"
               inkscape:connector-curvature="0" />
          </symbol>
          <symbol
             id="textext-dbd52aed-3"
             overflow="visible"
             style="overflow:visible">
            <path
               id="path8499"
               d="M 3.484375,-0.5625 C 3.59375,-0.15625 3.953125,0.109375 4.375,0.109375 4.71875,0.109375 4.953125,-0.125 5.109375,-0.4375 5.28125,-0.796875 5.40625,-1.40625 5.40625,-1.421875 c 0,-0.109375 -0.078125,-0.109375 -0.109375,-0.109375 -0.109375,0 -0.109375,0.046875 -0.140625,0.1875 -0.140625,0.5625 -0.328125,1.234375 -0.75,1.234375 -0.203125,0 -0.3125,-0.125 -0.3125,-0.453125 0,-0.21875 0.125,-0.6875 0.203125,-1.046875 L 4.578125,-2.6875 C 4.609375,-2.828125 4.703125,-3.203125 4.75,-3.359375 4.796875,-3.59375 4.890625,-3.96875 4.890625,-4.03125 c 0,-0.171875 -0.140625,-0.265625 -0.28125,-0.265625 -0.046875,0 -0.3125,0.015625 -0.390625,0.34375 -0.1875,0.734375 -0.625,2.484375 -0.75,3 -0.015625,0.046875 -0.40625,0.84375 -1.140625,0.84375 -0.515625,0 -0.609375,-0.453125 -0.609375,-0.8125 0,-0.5625 0.28125,-1.34375 0.53125,-2.03125 0.125,-0.3125 0.171875,-0.453125 0.171875,-0.640625 0,-0.4375 -0.3125,-0.8125 -0.8125,-0.8125 -0.953125,0 -1.3125,1.453125 -1.3125,1.53125 0,0.109375 0.09375,0.109375 0.109375,0.109375 0.109375,0 0.109375,-0.03125 0.15625,-0.1875 0.25,-0.859375 0.640625,-1.234375 1.015625,-1.234375 0.09375,0 0.25,0.015625 0.25,0.328125 0,0.234375 -0.109375,0.53125 -0.171875,0.671875 -0.375,1 -0.578125,1.609375 -0.578125,2.09375 0,0.953125 0.6875,1.203125 1.21875,1.203125 0.65625,0 1.015625,-0.453125 1.1875,-0.671875 z m 0,0"
               style="stroke:none"
               inkscape:connector-curvature="0" />
          </symbol>
          <symbol
             id="textext-dbd52aed-4"
             overflow="visible"
             style="overflow:visible">
            <path
               id="path8502"
               d="m 2.03125,-0.015625 c 0,-0.65625 -0.25,-1.046875 -0.640625,-1.046875 -0.328125,0 -0.53125,0.25 -0.53125,0.53125 C 0.859375,-0.265625 1.0625,0 1.390625,0 1.5,0 1.640625,-0.046875 1.734375,-0.125 1.765625,-0.15625 1.78125,-0.15625 1.78125,-0.15625 c 0.015625,0 0.015625,0 0.015625,0.140625 0,0.75 -0.34375,1.34375 -0.671875,1.671875 -0.109375,0.109375 -0.109375,0.125 -0.109375,0.15625 0,0.078125 0.046875,0.109375 0.09375,0.109375 0.109375,0 0.921875,-0.765625 0.921875,-1.9375 z m 0,0"
               style="stroke:none"
               inkscape:connector-curvature="0" />
          </symbol>
          <symbol
             id="textext-dbd52aed-5"
             overflow="visible"
             style="overflow:visible">
            <path
               id="path8505"
               d="m 4.671875,-3.703125 c 0,-0.546875 -0.265625,-0.703125 -0.4375,-0.703125 -0.25,0 -0.5,0.265625 -0.5,0.484375 0,0.125 0.046875,0.1875 0.15625,0.296875 0.21875,0.203125 0.34375,0.453125 0.34375,0.8125 0,0.421875 -0.609375,2.703125 -1.765625,2.703125 -0.515625,0 -0.75,-0.34375 -0.75,-0.875 0,-0.546875 0.28125,-1.28125 0.578125,-2.109375 0.078125,-0.171875 0.125,-0.3125 0.125,-0.5 0,-0.4375 -0.3125,-0.8125 -0.8125,-0.8125 -0.9375,0 -1.3125,1.453125 -1.3125,1.53125 0,0.109375 0.09375,0.109375 0.109375,0.109375 0.109375,0 0.109375,-0.03125 0.15625,-0.1875 0.296875,-1 0.71875,-1.234375 1.015625,-1.234375 0.078125,0 0.25,0 0.25,0.3125 0,0.25 -0.109375,0.53125 -0.171875,0.703125 -0.4375,1.15625 -0.5625,1.609375 -0.5625,2.046875 0,1.078125 0.875,1.234375 1.328125,1.234375 1.671875,0 2.25,-3.296875 2.25,-3.8125 z m 0,0"
               style="stroke:none"
               inkscape:connector-curvature="0" />
          </symbol>
        </g>
      </defs>
      <g
         id="textext-dbd52aed-6">
        <g
           id="g8508"
           style="fill:#000000;fill-opacity:1">
          <use
             id="use8510"
             y="134.765"
             x="223.43201"
             xlink:href="#textext-dbd52aed-0"
             width="765"
             height="990" />
        </g>
        <g
           id="g8512"
           style="fill:#000000;fill-opacity:1">
          <use
             id="use8514"
             y="134.765"
             x="231.707"
             xlink:href="#textext-dbd52aed-1"
             width="765"
             height="990" />
        </g>
        <g
           id="g8516"
           style="fill:#000000;fill-opacity:1">
          <use
             id="use8518"
             y="134.765"
             x="235.58099"
             xlink:href="#textext-dbd52aed-3"
             width="765"
             height="990" />
          <use
             id="use8520"
             y="134.765"
             x="241.28459"
             xlink:href="#textext-dbd52aed-4"
             width="765"
             height="990" />
        </g>
        <g
           id="g8522"
           style="fill:#000000;fill-opacity:1">
          <use
             id="use8524"
             y="134.765"
             x="245.71596"
             xlink:href="#textext-dbd52aed-5"
             width="765"
             height="990" />
        </g>
        <g
           id="g8526"
           style="fill:#000000;fill-opacity:1">
          <use
             id="use8528"
             y="134.765"
             x="250.899"
             xlink:href="#textext-dbd52aed-2"
             width="765"
             height="990" />
        </g>
      </g>
    </g>
  </g>
</svg>
