<?xml version="1.0" encoding="UTF-8" standalone="no"?>
<!-- Created with Inkscape (http://www.inkscape.org/) -->

<svg
   xmlns:dc="http://purl.org/dc/elements/1.1/"
   xmlns:cc="http://creativecommons.org/ns#"
   xmlns:rdf="http://www.w3.org/1999/02/22-rdf-syntax-ns#"
   xmlns:svg="http://www.w3.org/2000/svg"
   xmlns="http://www.w3.org/2000/svg"
   xmlns:sodipodi="http://sodipodi.sourceforge.net/DTD/sodipodi-0.dtd"
   xmlns:inkscape="http://www.inkscape.org/namespaces/inkscape"
   width="744.09448819"
   height="1052.3622047"
   id="svg3765"
   version="1.1"
   inkscape:version="0.48.1 r9760"
   sodipodi:docname="simply_connected_3D.svg"
   inkscape:export-filename="/home/nykamp/djangocode/mathinsight/materials/simply_connected_3D.png"
   inkscape:export-xdpi="94.690002"
   inkscape:export-ydpi="94.690002">
  <defs
     id="defs3767" />
  <sodipodi:namedview
     id="base"
     pagecolor="#ffffff"
     bordercolor="#666666"
     borderopacity="1.0"
     inkscape:pageopacity="0.0"
     inkscape:pageshadow="2"
     inkscape:zoom="0.98994949"
     inkscape:cx="337.6236"
     inkscape:cy="758.51501"
     inkscape:document-units="px"
     inkscape:current-layer="layer1"
     showgrid="false"
     inkscape:window-width="1440"
     inkscape:window-height="851"
     inkscape:window-x="0"
     inkscape:window-y="0"
     inkscape:window-maximized="1" />
  <metadata
     id="metadata3770">
    <rdf:RDF>
      <cc:Work
         rdf:about="">
        <dc:format>image/svg+xml</dc:format>
        <dc:type
           rdf:resource="http://purl.org/dc/dcmitype/StillImage" />
        <dc:title></dc:title>
      </cc:Work>
    </rdf:RDF>
  </metadata>
  <g
     inkscape:label="Layer 1"
     inkscape:groupmode="layer"
     id="layer1">
    <g
       id="g4756"
       transform="translate(10.071789,19.682489)">
      <path
         transform="translate(-116.42857,15.000002)"
         d="m 275.00001,173.07646 c 0,44.57727 -36.13702,80.71429 -80.71429,80.71429 -44.57727,0 -80.71429,-36.13702 -80.71429,-80.71429 0,-44.57727 36.13702,-80.714285 80.71429,-80.714285 44.57727,0 80.71429,36.137015 80.71429,80.714285 z"
         sodipodi:ry="80.714287"
         sodipodi:rx="80.714287"
         sodipodi:cy="173.07646"
         sodipodi:cx="194.28572"
         id="path3775"
         style="fill:#0000ff;fill-opacity:1;stroke:#000000;stroke-width:5;stroke-linecap:butt;stroke-linejoin:miter;stroke-miterlimit:4;stroke-opacity:1;stroke-dasharray:none;stroke-dashoffset:0"
         sodipodi:type="arc" />
      <path
         transform="translate(-181.7857,25.000002)"
         sodipodi:open="true"
         sodipodi:end="3.1415927"
         sodipodi:start="0"
         d="m 339.99999,164.50504 c 0,13.01814 -35.97711,23.57142 -80.35714,23.57142 -44.38002,0 -80.35714,-10.55328 -80.35714,-23.57142 0,0 0,-1e-5 0,-1e-5"
         sodipodi:ry="23.571428"
         sodipodi:rx="80.35714"
         sodipodi:cy="164.50504"
         sodipodi:cx="259.64285"
         id="path3777"
         style="fill:none;stroke:#000000;stroke-width:5;stroke-linecap:butt;stroke-linejoin:miter;stroke-miterlimit:4;stroke-opacity:1;stroke-dasharray:none;stroke-dashoffset:0"
         sodipodi:type="arc" />
      <path
         transform="matrix(1,0,0,-1,-181.78571,353.65294)"
         sodipodi:open="true"
         sodipodi:end="3.1415927"
         sodipodi:start="0"
         d="m 339.99999,164.50504 c 0,13.01814 -35.97711,23.57142 -80.35714,23.57142 -44.38002,0 -80.35714,-10.55328 -80.35714,-23.57142 0,0 0,-1e-5 0,-1e-5"
         sodipodi:ry="23.571428"
         sodipodi:rx="80.35714"
         sodipodi:cy="164.50504"
         sodipodi:cx="259.64285"
         id="path3777-4"
         style="fill:none;stroke:#000000;stroke-width:2;stroke-linecap:butt;stroke-linejoin:miter;stroke-miterlimit:4;stroke-opacity:1;stroke-dasharray:2, 2;stroke-dashoffset:0"
         sodipodi:type="arc" />
    </g>
    <g
       id="g4743"
       transform="translate(-17.071068,13.253914)">
      <g
         id="g4738">
        <path
           sodipodi:type="arc"
           style="fill:#0000ff;fill-opacity:1;stroke:#000000;stroke-width:5;stroke-linecap:butt;stroke-linejoin:miter;stroke-miterlimit:4;stroke-opacity:1;stroke-dasharray:none;stroke-dashoffset:0"
           id="path3775-7"
           sodipodi:cx="194.28572"
           sodipodi:cy="173.07646"
           sodipodi:rx="80.714287"
           sodipodi:ry="80.714287"
           d="m 275.00001,173.07646 c 0,44.57727 -36.13702,80.71429 -80.71429,80.71429 -44.57727,0 -80.71429,-36.13702 -80.71429,-80.71429 0,-44.57727 36.13702,-80.714285 80.71429,-80.714285 44.57727,0 80.71429,36.137015 80.71429,80.714285 z"
           transform="translate(99.999999,21.428577)" />
        <path
           sodipodi:type="arc"
           style="fill:none;stroke:#000000;stroke-width:5;stroke-linecap:butt;stroke-linejoin:miter;stroke-miterlimit:4;stroke-opacity:1;stroke-dasharray:none;stroke-dashoffset:0"
           id="path3777-5"
           sodipodi:cx="259.64285"
           sodipodi:cy="164.50504"
           sodipodi:rx="80.35714"
           sodipodi:ry="23.571428"
           d="m 339.99999,164.50504 c 0,13.01814 -35.97711,23.57142 -80.35714,23.57142 -44.38002,0 -80.35714,-10.55328 -80.35714,-23.57142 0,0 0,-1e-5 0,-1e-5"
           sodipodi:start="0"
           sodipodi:end="3.1415927"
           sodipodi:open="true"
           transform="translate(34.642869,31.428577)" />
        <path
           sodipodi:type="arc"
           style="fill:none;stroke:#000000;stroke-width:2;stroke-linecap:butt;stroke-linejoin:miter;stroke-miterlimit:4;stroke-opacity:1;stroke-dasharray:2, 2;stroke-dashoffset:0"
           id="path3777-4-6"
           sodipodi:cx="259.64285"
           sodipodi:cy="164.50504"
           sodipodi:rx="80.35714"
           sodipodi:ry="23.571428"
           d="m 339.99999,164.50504 c 0,13.01814 -35.97711,23.57142 -80.35714,23.57142 -44.38002,0 -80.35714,-10.55328 -80.35714,-23.57142 0,0 0,-1e-5 0,-1e-5"
           sodipodi:start="0"
           sodipodi:end="3.1415927"
           sodipodi:open="true"
           transform="matrix(1,0,0,-1,34.642859,360.08151)" />
      </g>
      <g
         id="g4730">
        <path
           sodipodi:type="arc"
           style="fill:#00ffff;fill-opacity:1;stroke:#000000;stroke-width:9.02659798;stroke-linecap:butt;stroke-linejoin:miter;stroke-miterlimit:4;stroke-opacity:1;stroke-dasharray:9.02659786, 9.02659786;stroke-dashoffset:0"
           id="path3775-7-3"
           sodipodi:cx="194.28572"
           sodipodi:cy="173.07646"
           sodipodi:rx="80.714287"
           sodipodi:ry="80.714287"
           d="m 275.00001,173.07646 c 0,44.57727 -36.13702,80.71429 -80.71429,80.71429 -44.57727,0 -80.71429,-36.13702 -80.71429,-80.71429 0,-44.57727 36.13702,-80.714285 80.71429,-80.714285 44.57727,0 80.71429,36.137015 80.71429,80.714285 z"
           transform="matrix(0.22156742,0,0,0.22156742,250.16691,157.94265)" />
        <path
           sodipodi:type="arc"
           style="fill:none;stroke:#000000;stroke-width:9.02659798;stroke-linecap:butt;stroke-linejoin:miter;stroke-miterlimit:4;stroke-opacity:1;stroke-dasharray:9.02659786, 9.02659786;stroke-dashoffset:0"
           id="path3777-5-8"
           sodipodi:cx="259.64285"
           sodipodi:cy="164.50504"
           sodipodi:rx="80.35714"
           sodipodi:ry="23.571428"
           d="m 339.99999,164.50504 c 0,13.01814 -35.97711,23.57142 -80.35714,23.57142 -44.38002,0 -80.35714,-10.55328 -80.35714,-23.57142 0,0 0,-1e-5 0,-1e-5"
           sodipodi:start="0"
           sodipodi:end="3.1415927"
           sodipodi:open="true"
           transform="matrix(0.22156742,0,0,0.22156742,235.6859,160.15832)" />
        <path
           sodipodi:type="arc"
           style="fill:none;stroke:#000000;stroke-width:9.02659798;stroke-linecap:butt;stroke-linejoin:miter;stroke-miterlimit:4;stroke-opacity:1;stroke-dasharray:9.02659786, 9.02659786;stroke-dashoffset:0"
           id="path3777-4-6-5"
           sodipodi:cx="259.64285"
           sodipodi:cy="164.50504"
           sodipodi:rx="80.35714"
           sodipodi:ry="23.571428"
           d="m 339.99999,164.50504 c 0,13.01814 -35.97711,23.57142 -80.35714,23.57142 -44.38002,0 -80.35714,-10.55328 -80.35714,-23.57142 0,0 0,-1e-5 0,-1e-5"
           sodipodi:start="0"
           sodipodi:end="3.1415927"
           sodipodi:open="true"
           transform="matrix(0.22156742,0,0,-0.22156742,235.6859,232.97711)" />
      </g>
    </g>
    <text
       xml:space="preserve"
       style="font-size:28px;font-style:normal;font-variant:normal;font-weight:normal;font-stretch:normal;line-height:125%;letter-spacing:0px;word-spacing:0px;fill:#000000;fill-opacity:1;stroke:none;font-family:Arial;-inkscape-font-specification:Arial"
       x="72.383316"
       y="99.30999"
       id="text4775"
       sodipodi:linespacing="125%"><tspan
         sodipodi:role="line"
         id="tspan4777"
         x="72.383316"
         y="99.30999">Simply connected</tspan></text>
    <text
       xml:space="preserve"
       style="font-size:28px;font-style:normal;font-variant:normal;font-weight:normal;font-stretch:normal;line-height:125%;letter-spacing:0px;word-spacing:0px;fill:#000000;fill-opacity:1;stroke:none;font-family:Arial;-inkscape-font-specification:Arial"
       x="442.06845"
       y="99.139091"
       id="text4775-8"
       sodipodi:linespacing="125%"><tspan
         sodipodi:role="line"
         id="tspan4777-9"
         x="442.06845"
         y="99.139091">Non-simply connected</tspan></text>
    <g
       id="g4960"
       transform="translate(-7.0710678,-4.0406102)">
      <g
         transform="translate(177.21614,23.571429)"
         id="g4761">
        <rect
           style="fill:#0000ff;fill-opacity:1;stroke:none"
           id="rect4671"
           width="124.91413"
           height="121.70204"
           x="440.19534"
           y="128.26567"
           rx="0.15745553"
           ry="0.18890198" />
        <path
           sodipodi:type="arc"
           style="fill:#0000ff;fill-opacity:1;stroke:none"
           id="path4535"
           sodipodi:cx="445.71429"
           sodipodi:cy="369.50504"
           sodipodi:rx="88.571426"
           sodipodi:ry="32.142857"
           d="m 534.28572,369.50504 c 0,17.752 -39.65478,32.14285 -88.57143,32.14285 -48.91664,0 -88.57142,-14.39085 -88.57142,-32.14285 0,-17.75201 39.65478,-32.14286 88.57142,-32.14286 48.91665,0 88.57143,14.39085 88.57143,32.14286 z"
           transform="matrix(0.70662101,0,0,0.70662101,188.2257,-133.18704)" />
        <path
           transform="matrix(0.70662101,0,0,-0.70662101,188.2257,511.40987)"
           sodipodi:type="arc"
           style="fill:#0000ff;fill-opacity:1;stroke:#000000;stroke-width:2.83037162;stroke-linecap:butt;stroke-linejoin:miter;stroke-miterlimit:4;stroke-opacity:1;stroke-dasharray:2.83037155, 2.83037155;stroke-dashoffset:0"
           id="path4535-0-5"
           sodipodi:cx="445.71429"
           sodipodi:cy="369.50504"
           sodipodi:rx="88.571426"
           sodipodi:ry="32.142857"
           d="m 534.28572,369.50504 c 0,17.752 -39.65478,32.14285 -88.57143,32.14285 -48.91664,0 -88.57142,-14.39085 -88.57142,-32.14285 0,-1e-5 0,-1e-5 0,-1e-5"
           sodipodi:start="0"
           sodipodi:end="3.1415927"
           sodipodi:open="true" />
        <rect
           style="fill:#00ffff;fill-opacity:1;stroke:none"
           id="rect4673"
           width="50.975121"
           height="119.56065"
           x="477.7308"
           y="127.90875"
           rx="0.15745553"
           ry="0.18890198" />
        <path
           transform="matrix(0.70662101,0,0,0.70662101,188.2257,-12.556736)"
           sodipodi:type="arc"
           style="fill:#0000ff;fill-opacity:1;stroke:#000000;stroke-width:7.07592869;stroke-linecap:butt;stroke-linejoin:miter;stroke-miterlimit:4;stroke-opacity:1;stroke-dasharray:none;stroke-dashoffset:0"
           id="path4535-0"
           sodipodi:cx="445.71429"
           sodipodi:cy="369.50504"
           sodipodi:rx="88.571426"
           sodipodi:ry="32.142857"
           d="m 534.28572,369.50504 c 0,17.752 -39.65478,32.14285 -88.57143,32.14285 -48.91664,0 -88.57142,-14.39085 -88.57142,-32.14285 0,-1e-5 0,-1e-5 0,-1e-5"
           sodipodi:start="0"
           sodipodi:end="3.1415927"
           sodipodi:open="true" />
        <path
           transform="matrix(0.29027596,0,0,0.29027596,373.79664,20.65455)"
           sodipodi:type="arc"
           style="fill:#008080;fill-opacity:1;stroke:#000000;stroke-width:17.22498894;stroke-linecap:butt;stroke-linejoin:miter;stroke-miterlimit:4;stroke-opacity:1;stroke-dasharray:none;stroke-dashoffset:0"
           id="path4535-6"
           sodipodi:cx="445.71429"
           sodipodi:cy="369.50504"
           sodipodi:rx="88.571426"
           sodipodi:ry="32.142857"
           d="m 534.28572,369.50504 c 0,17.752 -39.65478,32.14285 -88.57143,32.14285 -48.91664,0 -88.57142,-14.39085 -88.57142,-32.14285 0,-17.75201 39.65478,-32.14286 88.57142,-32.14286 48.91665,0 88.57143,14.39085 88.57143,32.14286 z" />
        <path
           transform="matrix(0.29027596,0,0,0.29027596,373.79664,142.16814)"
           sodipodi:type="arc"
           style="fill:#00ffff;fill-opacity:1;stroke:#000000;stroke-width:6.8899951;stroke-linecap:butt;stroke-linejoin:miter;stroke-miterlimit:4;stroke-opacity:1;stroke-dasharray:6.8899953, 6.8899953;stroke-dashoffset:0"
           id="path4535-6-5"
           sodipodi:cx="445.71429"
           sodipodi:cy="369.50504"
           sodipodi:rx="88.571426"
           sodipodi:ry="32.142857"
           d="m 534.28572,369.50504 c 0,17.752 -39.65478,32.14285 -88.57143,32.14285 -48.91664,0 -88.57142,-14.39085 -88.57142,-32.14285 0,-17.75201 39.65478,-32.14286 88.57142,-32.14286 48.91665,0 88.57143,14.39085 88.57143,32.14286 z" />
        <path
           style="fill:#00ffff;fill-opacity:1;stroke:#000000;stroke-width:2;stroke-linecap:butt;stroke-linejoin:miter;stroke-miterlimit:4;stroke-opacity:1;stroke-dasharray:2, 2;stroke-dashoffset:0"
           d="m 528.79179,127.53443 0.12618,122.52304"
           id="path4615"
           inkscape:connector-curvature="0"
           sodipodi:nodetypes="cc" />
        <path
           style="fill:#00ffff;fill-opacity:1;stroke:#000000;stroke-width:2;stroke-linecap:butt;stroke-linejoin:miter;stroke-miterlimit:4;stroke-opacity:1;stroke-dasharray:2, 2;stroke-dashoffset:0"
           d="m 477.68795,127.15589 0,121.51358"
           id="path4617"
           inkscape:connector-curvature="0"
           sodipodi:nodetypes="cc" />
        <path
           style="fill:none;stroke:#000000;stroke-width:5;stroke-linecap:butt;stroke-linejoin:miter;stroke-miterlimit:4;stroke-opacity:1;stroke-dasharray:none;stroke-dashoffset:0"
           d="m 565.76321,127.91298 0,120.6303"
           id="path4619"
           inkscape:connector-curvature="0"
           sodipodi:nodetypes="cc" />
        <path
           style="fill:#00ffff;fill-opacity:1;stroke:#000000;stroke-width:5;stroke-linecap:butt;stroke-linejoin:miter;stroke-miterlimit:4;stroke-opacity:1;stroke-dasharray:none;stroke-dashoffset:0"
           d="m 440.33798,126.90353 0.25237,121.63975"
           id="path4621"
           inkscape:connector-curvature="0"
           sodipodi:nodetypes="cc" />
        <path
           sodipodi:type="arc"
           style="fill:none;stroke:#000000;stroke-width:7.07592869;stroke-linecap:butt;stroke-linejoin:miter;stroke-miterlimit:4;stroke-opacity:1;stroke-dasharray:none;stroke-dashoffset:0"
           id="path4535-2"
           sodipodi:cx="445.71429"
           sodipodi:cy="369.50504"
           sodipodi:rx="88.571426"
           sodipodi:ry="32.142857"
           d="m 534.28572,369.50504 c 0,17.752 -39.65478,32.14285 -88.57143,32.14285 -48.91664,0 -88.57142,-14.39085 -88.57142,-32.14285 0,-17.75201 39.65478,-32.14286 88.57142,-32.14286 48.91665,0 88.57143,14.39085 88.57143,32.14286 z"
           transform="matrix(0.70662101,0,0,0.70662101,188.2257,-133.18704)" />
      </g>
      <g
         transform="translate(316.17775,-178.41976)"
         id="g4904">
        <path
           sodipodi:type="arc"
           style="fill:#0000ff;fill-opacity:1;stroke:#000000;stroke-width:5;stroke-linecap:butt;stroke-linejoin:miter;stroke-miterlimit:4;stroke-opacity:1;stroke-dasharray:none;stroke-dashoffset:0"
           id="path3775-3"
           sodipodi:cx="194.28572"
           sodipodi:cy="173.07646"
           sodipodi:rx="80.714287"
           sodipodi:ry="80.714287"
           d="m 275.00001,173.07646 c 0,44.57727 -36.13702,80.71429 -80.71429,80.71429 -44.57727,0 -80.71429,-36.13702 -80.71429,-80.71429 0,-44.57727 36.13702,-80.714285 80.71429,-80.714285 44.57727,0 80.71429,36.137015 80.71429,80.714285 z"
           transform="translate(2.85714,217.14286)" />
        <path
           sodipodi:type="arc"
           style="fill:none;stroke:#000000;stroke-width:2;stroke-linecap:butt;stroke-linejoin:miter;stroke-miterlimit:4;stroke-opacity:1;stroke-dasharray:2, 2;stroke-dashoffset:0"
           id="path3777-4-3"
           sodipodi:cx="259.64285"
           sodipodi:cy="164.50504"
           sodipodi:rx="80.35714"
           sodipodi:ry="23.571428"
           d="m 339.99999,164.50504 c 0,13.01814 -35.97711,23.57142 -80.35714,23.57142 -44.38002,0 -80.35714,-10.55328 -80.35714,-23.57142 0,0 0,-1e-5 0,-1e-5"
           sodipodi:start="0"
           sodipodi:end="3.1415927"
           sodipodi:open="true"
           transform="matrix(1,0,0,-1,-62.5,555.7958)" />
        <rect
           style="fill:#00ffff;fill-opacity:1;stroke:none"
           id="rect4899"
           width="41.07143"
           height="85.714279"
           x="176.60715"
           y="347.00504"
           rx="0.15745553"
           ry="0.18890198" />
        <path
           sodipodi:type="arc"
           style="fill:#008080;fill-opacity:1;stroke:#000000;stroke-width:5;stroke-miterlimit:4;stroke-dasharray:none"
           id="path4855"
           sodipodi:cx="204.64285"
           sodipodi:cy="388.79074"
           sodipodi:rx="21.071428"
           sodipodi:ry="14.285714"
           d="m 225.71428,388.79074 c 0,7.88978 -9.434,14.28572 -21.07143,14.28572 -11.63743,0 -21.07143,-6.39594 -21.07143,-14.28572 0,-7.88978 9.434,-14.28571 21.07143,-14.28571 11.63743,0 21.07143,6.39593 21.07143,14.28571 z"
           transform="translate(-7.499992,-42.142857)" />
        <path
           sodipodi:type="arc"
           style="fill:#00ffff;fill-opacity:1;stroke:#000000;stroke-width:2;stroke-miterlimit:4;stroke-dasharray:2, 2;stroke-dashoffset:0"
           id="path4855-2"
           sodipodi:cx="204.64285"
           sodipodi:cy="388.79074"
           sodipodi:rx="21.071428"
           sodipodi:ry="14.285714"
           d="m 225.71428,388.79074 c 0,7.88978 -9.434,14.28572 -21.07143,14.28572 -11.63743,0 -21.07143,-6.39594 -21.07143,-14.28572 0,-7.88978 9.434,-14.28571 21.07143,-14.28571 11.63743,0 21.07143,6.39593 21.07143,14.28571 z"
           transform="translate(-7.499992,43.385809)" />
        <path
           style="fill:#ffffff;fill-opacity:1;stroke:#000000;stroke-width:2;stroke-linecap:butt;stroke-linejoin:miter;stroke-miterlimit:4;stroke-opacity:1;stroke-dasharray:2, 2;stroke-dashoffset:0"
           d="m 217.85714,348.07647 0.17857,84.99999"
           id="path4895"
           inkscape:connector-curvature="0"
           sodipodi:nodetypes="cc" />
        <path
           style="fill:#ffffff;fill-opacity:1;stroke:#000000;stroke-width:2;stroke-linecap:butt;stroke-linejoin:miter;stroke-miterlimit:4;stroke-opacity:1;stroke-dasharray:2, 2;stroke-dashoffset:0"
           d="m 175.71428,346.46932 0.71429,84.46429"
           id="path4897"
           inkscape:connector-curvature="0"
           sodipodi:nodetypes="cc" />
        <path
           sodipodi:type="arc"
           style="fill:none;stroke:#000000;stroke-width:5;stroke-linecap:butt;stroke-linejoin:miter;stroke-miterlimit:4;stroke-opacity:1;stroke-dasharray:none;stroke-dashoffset:0"
           id="path3777-3"
           sodipodi:cx="259.64285"
           sodipodi:cy="164.50504"
           sodipodi:rx="80.35714"
           sodipodi:ry="23.571428"
           d="m 339.99999,164.50504 c 0,13.01814 -35.97711,23.57142 -80.35714,23.57142 -44.38002,0 -80.35714,-10.55328 -80.35714,-23.57142 0,0 0,-1e-5 0,-1e-5"
           sodipodi:start="0"
           sodipodi:end="3.1415927"
           sodipodi:open="true"
           transform="translate(-62.49999,227.14286)" />
      </g>
    </g>
  </g>
</svg>
